<?xml version="1.0" encoding="UTF-8"?>
<svg xmlns="http://www.w3.org/2000/svg" width="960" height="480" viewBox="0 0 960 480" role="img" aria-labelledby="title description">
  <title id="title">TheBoredTeam/boring.notch Star History</title>
  <desc id="description">10,812 current GitHub stargazers as of Sep 21, 2026.</desc>
  <rect width="960" height="480" rx="12" fill="#ffffff" stroke="#d0d7de" />
  <g font-family="-apple-system, BlinkMacSystemFont, 'Segoe UI', sans-serif">
    <text x="84" y="40" fill="#1f2328" font-size="24" font-weight="600">Star History</text>
    <text x="918" y="40" text-anchor="end" fill="#656d76" font-size="14" font-weight="500">10,812 stars</text>
    <text x="84" y="64" fill="#656d76" font-size="13">TheBoredTeam/boring.notch</text>
    <line x1="84" y1="418.00" x2="918" y2="418.00" stroke="#d8dee4" stroke-width="1" />
      <text x="70" y="422.00" text-anchor="end" fill="#656d76" font-size="12">0</text>
      <line x1="84" y1="356.59" x2="918" y2="356.59" stroke="#d8dee4" stroke-width="1" />
      <text x="70" y="360.59" text-anchor="end" fill="#656d76" font-size="12">2K</text>
      <line x1="84" y1="295.17" x2="918" y2="295.17" stroke="#d8dee4" stroke-width="1" />
      <text x="70" y="299.17" text-anchor="end" fill="#656d76" font-size="12">4K</text>
      <line x1="84" y1="233.76" x2="918" y2="233.76" stroke="#d8dee4" stroke-width="1" />
      <text x="70" y="237.76" text-anchor="end" fill="#656d76" font-size="12">6K</text>
      <line x1="84" y1="172.35" x2="918" y2="172.35" stroke="#d8dee4" stroke-width="1" />
      <text x="70" y="176.35" text-anchor="end" fill="#656d76" font-size="12">8K</text>
      <line x1="84" y1="110.93" x2="918" y2="110.93" stroke="#d8dee4" stroke-width="1" />
      <text x="70" y="114.93" text-anchor="end" fill="#656d76" font-size="12">10K</text>
    <text x="84.00" y="452" text-anchor="middle" fill="#656d76" font-size="12">Aug 2024</text>
      <text x="292.50" y="452" text-anchor="middle" fill="#656d76" font-size="12">Feb 2025</text>
      <text x="501.00" y="452" text-anchor="middle" fill="#656d76" font-size="12">Aug 2025</text>
      <text x="709.50" y="452" text-anchor="middle" fill="#656d76" font-size="12">Mar 2026</text>
      <text x="918.00" y="452" text-anchor="middle" fill="#656d76" font-size="12">Sep 2026</text>
    <path d="M84.00,417.79 C84.36,417.69 84.71,417.61 85.07,417.51 C85.43,417.41 85.78,417.27 86.14,417.17 C86.49,417.07 86.85,416.96 87.21,416.93 C87.56,416.89 87.92,416.92 88.28,416.83 C88.63,416.75 88.99,416.33 89.35,416.19 C89.70,416.05 90.06,416.02 90.42,415.97 C90.77,415.92 91.13,415.93 91.48,415.88 C91.84,415.83 92.20,415.71 92.55,415.67 C92.91,415.63 93.27,415.66 93.62,415.54 C93.98,415.43 94.34,414.89 94.69,414.65 C95.05,414.41 95.41,414.28 95.76,414.10 C96.12,413.92 96.47,413.71 96.83,413.58 C97.19,413.45 97.54,413.42 97.90,413.33 C98.26,413.25 98.61,413.12 98.97,413.06 C99.33,412.99 99.68,412.98 100.04,412.93 C100.39,412.89 100.75,412.85 101.11,412.78 C101.46,412.71 101.82,412.60 102.18,412.53 C102.53,412.47 102.89,412.45 103.25,412.41 C103.60,412.37 103.96,412.39 104.32,412.29 C104.67,412.19 105.03,411.94 105.38,411.80 C105.74,411.66 106.10,411.57 106.45,411.46 C106.81,411.35 107.17,411.23 107.52,411.15 C107.88,411.08 108.24,411.06 108.59,411.00 C108.95,410.94 109.31,410.84 109.66,410.78 C110.02,410.73 110.37,410.70 110.73,410.66 C111.09,410.63 111.44,410.65 111.80,410.57 C112.16,410.49 112.51,410.29 112.87,410.20 C113.23,410.11 113.58,410.09 113.94,410.05 C114.29,410.00 114.65,409.96 115.01,409.92 C115.36,409.89 115.72,409.87 116.08,409.83 C116.43,409.80 116.79,409.78 117.15,409.71 C117.50,409.64 117.86,409.47 118.22,409.40 C118.57,409.34 118.93,409.38 119.28,409.31 C119.64,409.24 120.00,409.07 120.35,409.00 C120.71,408.93 121.07,408.90 121.42,408.88 C121.78,408.86 122.14,408.87 122.49,408.85 C122.85,408.83 123.21,408.77 123.56,408.76 C123.92,408.74 124.27,408.76 124.63,408.67 C124.99,408.57 125.34,407.92 125.70,407.65 C126.06,407.38 126.41,407.21 126.77,407.04 C127.13,406.87 127.48,406.69 127.84,406.64 C128.19,406.58 128.55,406.60 128.91,406.58 C129.26,406.55 129.62,406.51 129.98,406.42 C130.33,406.34 130.69,406.18 131.05,406.06 C131.40,405.93 131.76,405.79 132.12,405.69 C132.47,405.58 132.83,405.54 133.18,405.44 C133.54,405.34 133.90,405.28 134.25,405.07 C134.61,404.86 134.97,404.39 135.32,404.18 C135.68,403.98 136.04,403.89 136.39,403.84 C136.75,403.80 137.11,403.84 137.46,403.72 C137.82,403.61 138.17,402.78 138.53,402.55 C138.89,402.32 139.24,402.39 139.60,402.31 C139.96,402.22 140.31,402.11 140.67,402.03 C141.03,401.95 141.38,401.88 141.74,401.82 C142.09,401.76 142.45,401.71 142.81,401.66 C143.16,401.62 143.52,401.59 143.88,401.54 C144.23,401.49 144.59,401.42 144.95,401.36 C145.30,401.30 145.66,401.24 146.02,401.17 C146.37,401.11 146.73,401.01 147.08,400.96 C147.44,400.90 147.80,400.91 148.15,400.83 C148.51,400.76 148.87,400.65 149.22,400.50 C149.58,400.34 149.94,400.08 150.29,399.91 C150.65,399.75 151.01,399.62 151.36,399.51 C151.72,399.41 152.07,399.37 152.43,399.27 C152.79,399.17 153.14,399.02 153.50,398.93 C153.86,398.84 154.21,398.81 154.57,398.75 C154.93,398.69 155.28,398.63 155.64,398.56 C155.99,398.50 156.35,398.41 156.71,398.35 C157.06,398.28 157.42,398.21 157.78,398.16 C158.13,398.11 158.49,398.09 158.85,398.04 C159.20,397.99 159.56,397.94 159.92,397.89 C160.27,397.84 160.63,397.78 160.98,397.73 C161.34,397.68 161.70,397.65 162.05,397.58 C162.41,397.51 162.77,397.43 163.12,397.33 C163.48,397.24 163.84,397.10 164.19,397.00 C164.55,396.89 164.91,396.81 165.26,396.72 C165.62,396.63 165.97,396.69 166.33,396.47 C166.69,396.25 167.04,395.69 167.40,395.40 C167.76,395.11 168.11,394.88 168.47,394.72 C168.83,394.57 169.18,394.54 169.54,394.45 C169.89,394.36 170.25,394.25 170.61,394.17 C170.96,394.09 171.32,394.04 171.68,393.99 C172.03,393.93 172.39,393.91 172.75,393.83 C173.10,393.76 173.46,393.64 173.82,393.53 C174.17,393.41 174.53,393.22 174.88,393.13 C175.24,393.03 175.60,393.02 175.95,392.94 C176.31,392.87 176.67,392.76 177.02,392.67 C177.38,392.57 177.74,392.47 178.09,392.39 C178.45,392.31 178.81,392.26 179.16,392.18 C179.52,392.09 179.87,391.99 180.23,391.90 C180.59,391.81 180.94,391.70 181.30,391.62 C181.66,391.54 182.01,391.48 182.37,391.41 C182.73,391.33 183.08,391.25 183.44,391.16 C183.79,391.08 184.15,390.98 184.51,390.89 C184.86,390.79 185.22,390.64 185.58,390.58 C185.93,390.52 186.29,390.56 186.65,390.49 C187.00,390.42 187.36,390.30 187.72,390.12 C188.07,389.94 188.43,389.56 188.78,389.41 C189.14,389.26 189.50,389.30 189.85,389.23 C190.21,389.15 190.57,389.05 190.92,388.95 C191.28,388.85 191.64,388.78 191.99,388.61 C192.35,388.45 192.71,388.12 193.06,387.97 C193.42,387.82 193.77,387.82 194.13,387.72 C194.49,387.63 194.84,387.49 195.20,387.39 C195.56,387.28 195.91,387.15 196.27,387.08 C196.63,387.01 196.98,387.02 197.34,386.96 C197.69,386.89 198.05,386.81 198.41,386.71 C198.76,386.61 199.12,386.43 199.48,386.34 C199.83,386.25 200.19,386.25 200.55,386.19 C200.90,386.12 201.26,386.04 201.62,385.94 C201.97,385.84 202.33,385.64 202.68,385.57 C203.04,385.50 203.40,385.54 203.75,385.48 C204.11,385.42 204.47,385.26 204.82,385.17 C205.18,385.09 205.54,385.07 205.89,384.99 C206.25,384.91 206.61,384.80 206.96,384.71 C207.32,384.63 207.67,384.59 208.03,384.50 C208.39,384.41 208.74,384.25 209.10,384.16 C209.46,384.07 209.81,384.01 210.17,383.95 C210.53,383.88 210.88,383.87 211.24,383.79 C211.59,383.72 211.95,383.56 212.31,383.49 C212.66,383.41 213.02,383.41 213.38,383.33 C213.73,383.25 214.09,383.09 214.45,382.99 C214.80,382.90 215.16,382.87 215.52,382.78 C215.87,382.69 216.23,382.57 216.58,382.44 C216.94,382.31 217.30,382.10 217.65,381.98 C218.01,381.86 218.37,381.79 218.72,381.70 C219.08,381.62 219.44,381.55 219.79,381.46 C220.15,381.37 220.51,381.30 220.86,381.18 C221.22,381.07 221.57,380.87 221.93,380.75 C222.29,380.64 222.64,380.57 223.00,380.51 C223.36,380.45 223.71,380.45 224.07,380.38 C224.43,380.32 224.78,380.20 225.14,380.11 C225.49,380.02 225.85,379.95 226.21,379.83 C226.56,379.71 226.92,379.48 227.28,379.40 C227.63,379.33 227.99,379.38 228.35,379.25 C228.70,379.11 229.06,378.60 229.42,378.36 C229.77,378.12 230.13,378.02 230.48,377.81 C230.84,377.59 231.20,377.22 231.55,377.07 C231.91,376.91 232.27,376.99 232.62,376.88 C232.98,376.78 233.34,376.58 233.69,376.45 C234.05,376.33 234.41,376.22 234.76,376.12 C235.12,376.01 235.47,375.91 235.83,375.81 C236.19,375.71 236.54,375.65 236.90,375.53 C237.26,375.42 237.61,375.26 237.97,375.10 C238.33,374.95 238.68,374.76 239.04,374.61 C239.39,374.46 239.75,374.34 240.11,374.21 C240.46,374.08 240.82,373.98 241.18,373.84 C241.53,373.71 241.89,373.53 242.25,373.41 C242.60,373.30 242.96,373.23 243.32,373.14 C243.67,373.04 244.03,372.93 244.38,372.83 C244.74,372.73 245.10,372.62 245.45,372.52 C245.81,372.43 246.17,372.35 246.52,372.25 C246.88,372.14 247.24,372.03 247.59,371.91 C247.95,371.79 248.31,371.62 248.66,371.51 C249.02,371.40 249.37,371.30 249.73,371.23 C250.09,371.17 250.44,371.16 250.80,371.11 C251.16,371.06 251.51,371.01 251.87,370.96 C252.23,370.90 252.58,370.84 252.94,370.77 C253.29,370.70 253.65,370.65 254.01,370.53 C254.36,370.40 254.72,370.16 255.08,370.04 C255.43,369.91 255.79,369.90 256.15,369.79 C256.50,369.68 256.86,369.51 257.22,369.39 C257.57,369.27 257.93,369.18 258.28,369.08 C258.64,368.99 259.00,368.96 259.35,368.81 C259.71,368.66 260.07,368.36 260.42,368.19 C260.78,368.02 261.14,367.91 261.49,367.79 C261.85,367.68 262.21,367.76 262.56,367.49 C262.92,367.21 263.27,366.48 263.63,366.14 C263.99,365.79 264.34,365.60 264.70,365.43 C265.06,365.26 265.41,365.27 265.77,365.12 C266.13,364.97 266.48,364.69 266.84,364.54 C267.19,364.39 267.55,364.30 267.91,364.20 C268.26,364.10 268.62,364.02 268.98,363.96 C269.33,363.89 269.69,363.85 270.05,363.80 C270.40,363.75 270.76,363.72 271.12,363.65 C271.47,363.58 271.83,363.49 272.18,363.40 C272.54,363.32 272.90,363.35 273.25,363.16 C273.61,362.96 273.97,362.41 274.32,362.24 C274.68,362.06 275.04,362.15 275.39,362.02 C275.75,361.90 276.11,361.59 276.46,361.41 C276.82,361.23 277.17,361.12 277.53,360.95 C277.89,360.78 278.24,360.58 278.60,360.39 C278.96,360.21 279.31,359.98 279.67,359.81 C280.03,359.64 280.38,359.48 280.74,359.38 C281.09,359.28 281.45,359.28 281.81,359.20 C282.16,359.11 282.52,359.05 282.88,358.89 C283.23,358.73 283.59,358.45 283.95,358.21 C284.30,357.97 284.66,357.65 285.02,357.45 C285.37,357.25 285.73,357.17 286.08,357.02 C286.44,356.87 286.80,356.69 287.15,356.56 C287.51,356.42 287.87,356.35 288.22,356.22 C288.58,356.09 288.94,355.90 289.29,355.79 C289.65,355.68 290.01,355.63 290.36,355.54 C290.72,355.45 291.07,355.31 291.43,355.24 C291.79,355.17 292.14,355.23 292.50,354.99 C292.86,354.75 293.21,353.74 293.57,353.39 C293.93,353.05 294.28,353.09 294.64,352.93 C294.99,352.77 295.35,352.71 295.71,352.44 C296.06,352.18 296.42,351.64 296.78,351.34 C297.13,351.03 297.49,350.83 297.85,350.63 C298.20,350.43 298.56,350.32 298.92,350.14 C299.27,349.95 299.63,349.68 299.98,349.52 C300.34,349.37 300.70,349.32 301.05,349.22 C301.41,349.11 301.77,349.01 302.12,348.88 C302.48,348.75 302.84,348.58 303.19,348.42 C303.55,348.26 303.91,348.08 304.26,347.90 C304.62,347.71 304.97,347.51 305.33,347.31 C305.69,347.11 306.04,346.85 306.40,346.70 C306.76,346.55 307.11,346.49 307.47,346.39 C307.83,346.29 308.18,346.23 308.54,346.12 C308.89,346.00 309.25,345.86 309.61,345.69 C309.96,345.51 310.32,345.24 310.68,345.07 C311.03,344.91 311.39,344.89 311.75,344.70 C312.10,344.52 312.46,344.19 312.82,343.97 C313.17,343.74 313.53,343.55 313.88,343.35 C314.24,343.15 314.60,342.97 314.95,342.77 C315.31,342.56 315.67,342.30 316.02,342.12 C316.38,341.94 316.74,341.82 317.09,341.69 C317.45,341.57 317.81,341.48 318.16,341.39 C318.52,341.29 318.87,341.22 319.23,341.11 C319.59,341.00 319.94,340.85 320.30,340.71 C320.66,340.57 321.01,340.37 321.37,340.25 C321.73,340.13 322.08,340.13 322.44,340.01 C322.79,339.88 323.15,339.62 323.51,339.48 C323.86,339.34 324.22,339.27 324.58,339.18 C324.93,339.08 325.29,339.03 325.65,338.90 C326.00,338.77 326.36,338.61 326.72,338.41 C327.07,338.21 327.43,337.90 327.78,337.70 C328.14,337.51 328.50,337.38 328.85,337.24 C329.21,337.10 329.57,336.97 329.92,336.84 C330.28,336.71 330.64,336.58 330.99,336.47 C331.35,336.37 331.71,336.34 332.06,336.23 C332.42,336.12 332.77,335.94 333.13,335.83 C333.49,335.72 333.84,335.64 334.20,335.55 C334.56,335.47 334.91,335.40 335.27,335.31 C335.63,335.21 335.98,335.09 336.34,335.00 C336.69,334.91 337.05,334.83 337.41,334.75 C337.76,334.68 338.12,334.63 338.48,334.57 C338.83,334.51 339.19,334.47 339.55,334.39 C339.90,334.30 340.26,334.18 340.62,334.08 C340.97,333.98 341.33,333.90 341.68,333.80 C342.04,333.71 342.40,333.61 342.75,333.50 C343.11,333.38 343.47,333.22 343.82,333.13 C344.18,333.03 344.54,332.99 344.89,332.91 C345.25,332.83 345.61,332.71 345.96,332.64 C346.32,332.56 346.67,332.55 347.03,332.48 C347.39,332.41 347.74,332.30 348.10,332.21 C348.46,332.11 348.81,332.01 349.17,331.93 C349.53,331.85 349.88,331.81 350.24,331.71 C350.59,331.62 350.95,331.47 351.31,331.38 C351.66,331.28 352.02,331.26 352.38,331.16 C352.73,331.06 353.09,330.93 353.45,330.79 C353.80,330.66 354.16,330.47 354.52,330.36 C354.87,330.26 355.23,330.26 355.58,330.15 C355.94,330.04 356.30,329.85 356.65,329.72 C357.01,329.59 357.37,329.51 357.72,329.38 C358.08,329.25 358.44,329.10 358.79,328.95 C359.15,328.80 359.51,328.59 359.86,328.46 C360.22,328.33 360.57,328.28 360.93,328.18 C361.29,328.09 361.64,327.98 362.00,327.88 C362.36,327.77 362.71,327.70 363.07,327.54 C363.43,327.38 363.78,327.09 364.14,326.92 C364.49,326.76 364.85,326.63 365.21,326.52 C365.56,326.42 365.92,326.39 366.28,326.31 C366.63,326.23 366.99,326.18 367.35,326.06 C367.70,325.95 368.06,325.71 368.42,325.63 C368.77,325.56 369.13,325.60 369.48,325.54 C369.84,325.49 370.20,325.33 370.55,325.27 C370.91,325.20 371.27,325.19 371.62,325.14 C371.98,325.10 372.34,325.07 372.69,324.99 C373.05,324.91 373.41,324.75 373.76,324.68 C374.12,324.61 374.47,324.63 374.83,324.56 C375.19,324.49 375.54,324.36 375.90,324.28 C376.26,324.21 376.61,324.21 376.97,324.13 C377.33,324.05 377.68,323.90 378.04,323.82 C378.39,323.75 378.75,323.74 379.11,323.67 C379.46,323.60 379.82,323.51 380.18,323.42 C380.53,323.34 380.89,323.27 381.25,323.18 C381.60,323.09 381.96,322.94 382.32,322.87 C382.67,322.80 383.03,322.84 383.38,322.78 C383.74,322.72 384.10,322.61 384.45,322.53 C384.81,322.46 385.17,322.39 385.52,322.32 C385.88,322.24 386.24,322.15 386.59,322.07 C386.95,322.00 387.31,321.95 387.66,321.86 C388.02,321.76 388.37,321.64 388.73,321.49 C389.09,321.34 389.44,321.07 389.80,320.94 C390.16,320.80 390.51,320.76 390.87,320.69 C391.23,320.62 391.58,320.59 391.94,320.51 C392.29,320.42 392.65,320.28 393.01,320.20 C393.36,320.12 393.72,320.06 394.08,320.02 C394.43,319.97 394.79,319.97 395.15,319.92 C395.50,319.87 395.86,319.89 396.22,319.71 C396.57,319.52 396.93,319.03 397.28,318.82 C397.64,318.60 398.00,318.54 398.35,318.42 C398.71,318.30 399.07,318.21 399.42,318.11 C399.78,318.01 400.14,317.95 400.49,317.83 C400.85,317.72 401.21,317.57 401.56,317.44 C401.92,317.30 402.27,317.17 402.63,317.04 C402.99,316.90 403.34,316.72 403.70,316.61 C404.06,316.49 404.41,316.45 404.77,316.33 C405.13,316.21 405.48,316.01 405.84,315.90 C406.19,315.79 406.55,315.77 406.91,315.69 C407.26,315.60 407.62,315.49 407.98,315.38 C408.33,315.27 408.69,315.13 409.05,315.04 C409.40,314.95 409.76,314.90 410.12,314.83 C410.47,314.75 410.83,314.65 411.18,314.58 C411.54,314.51 411.90,314.44 412.25,314.40 C412.61,314.35 412.97,314.38 413.32,314.33 C413.68,314.29 414.04,314.20 414.39,314.15 C414.75,314.10 415.11,314.09 415.46,314.03 C415.82,313.97 416.17,313.86 416.53,313.78 C416.89,313.70 417.24,313.63 417.60,313.54 C417.96,313.44 418.31,313.30 418.67,313.23 C419.03,313.16 419.38,313.16 419.74,313.11 C420.09,313.05 420.45,312.95 420.81,312.89 C421.16,312.83 421.52,312.81 421.88,312.74 C422.23,312.66 422.59,312.52 422.95,312.43 C423.30,312.34 423.66,312.28 424.02,312.22 C424.37,312.15 424.73,312.12 425.08,312.06 C425.44,312.00 425.80,311.92 426.15,311.85 C426.51,311.77 426.87,311.66 427.22,311.60 C427.58,311.54 427.94,311.52 428.29,311.48 C428.65,311.44 429.01,311.42 429.36,311.36 C429.72,311.29 430.07,311.16 430.43,311.08 C430.79,311.00 431.14,310.97 431.50,310.90 C431.86,310.82 432.21,310.71 432.57,310.65 C432.93,310.59 433.28,310.56 433.64,310.53 C433.99,310.50 434.35,310.50 434.71,310.47 C435.06,310.43 435.42,310.38 435.78,310.31 C436.13,310.24 436.49,310.11 436.85,310.04 C437.20,309.96 437.56,309.98 437.92,309.88 C438.27,309.78 438.63,309.48 438.98,309.45 C439.34,309.43 439.70,309.44 440.05,309.42 C440.41,309.41 440.77,309.24 441.12,309.18 C441.48,309.11 441.84,309.09 442.19,309.05 C442.55,309.01 442.91,308.97 443.26,308.93 C443.62,308.89 443.97,308.83 444.33,308.81 C444.69,308.79 445.04,308.80 445.40,308.78 C445.76,308.75 446.11,308.66 446.47,308.59 C446.83,308.53 447.18,308.43 447.54,308.38 C447.89,308.32 448.25,308.29 448.61,308.25 C448.96,308.22 449.32,308.23 449.68,308.19 C450.03,308.15 450.39,308.06 450.75,308.01 C451.10,307.96 451.46,307.94 451.82,307.89 C452.17,307.83 452.53,307.77 452.88,307.70 C453.24,307.63 453.60,307.51 453.95,307.46 C454.31,307.40 454.67,307.39 455.02,307.36 C455.38,307.34 455.74,307.35 456.09,307.30 C456.45,307.25 456.81,307.12 457.16,307.06 C457.52,307.00 457.87,307.00 458.23,306.93 C458.59,306.87 458.94,306.77 459.30,306.69 C459.66,306.61 460.01,306.52 460.37,306.44 C460.73,306.36 461.08,306.26 461.44,306.20 C461.79,306.13 462.15,306.11 462.51,306.04 C462.86,305.98 463.22,305.89 463.58,305.80 C463.93,305.71 464.29,305.56 464.65,305.49 C465.00,305.42 465.36,305.40 465.72,305.37 C466.07,305.34 466.43,305.37 466.78,305.18 C467.14,305.00 467.50,303.94 467.85,303.46 C468.21,302.99 468.57,302.58 468.92,302.33 C469.28,302.07 469.64,302.06 469.99,301.93 C470.35,301.80 470.71,301.68 471.06,301.56 C471.42,301.44 471.77,301.33 472.13,301.22 C472.49,301.12 472.84,301.07 473.20,300.92 C473.56,300.76 473.91,300.47 474.27,300.27 C474.63,300.08 474.98,299.90 475.34,299.75 C475.69,299.60 476.05,299.51 476.41,299.38 C476.76,299.25 477.12,299.08 477.48,298.95 C477.83,298.82 478.19,298.70 478.55,298.58 C478.90,298.46 479.26,298.34 479.62,298.24 C479.97,298.15 480.33,298.10 480.68,298.00 C481.04,297.90 481.40,297.77 481.75,297.66 C482.11,297.55 482.47,297.46 482.82,297.32 C483.18,297.19 483.54,296.98 483.89,296.86 C484.25,296.74 484.61,296.70 484.96,296.62 C485.32,296.53 485.67,296.43 486.03,296.34 C486.39,296.25 486.74,296.19 487.10,296.06 C487.46,295.94 487.81,295.72 488.17,295.60 C488.53,295.49 488.88,295.50 489.24,295.39 C489.59,295.28 489.95,295.09 490.31,294.96 C490.66,294.83 491.02,294.75 491.38,294.62 C491.73,294.49 492.09,294.30 492.45,294.16 C492.80,294.02 493.16,293.87 493.52,293.79 C493.87,293.71 494.23,293.78 494.58,293.55 C494.94,293.31 495.30,292.33 495.65,291.95 C496.01,291.57 496.37,291.46 496.72,291.27 C497.08,291.09 497.44,291.01 497.79,290.84 C498.15,290.67 498.51,290.47 498.86,290.26 C499.22,290.06 499.57,289.83 499.93,289.62 C500.29,289.41 500.64,289.05 501.00,289.00 C501.36,288.95 501.71,288.97 502.07,288.94 C502.43,288.91 502.78,288.68 503.14,288.57 C503.49,288.46 503.85,288.37 504.21,288.26 C504.56,288.16 504.92,288.02 505.28,287.93 C505.63,287.83 505.99,287.78 506.35,287.68 C506.70,287.58 507.06,287.44 507.42,287.31 C507.77,287.19 508.13,287.08 508.48,286.94 C508.84,286.81 509.20,286.66 509.55,286.51 C509.91,286.37 510.27,286.23 510.62,286.08 C510.98,285.94 511.34,285.75 511.69,285.62 C512.05,285.50 512.41,285.48 512.76,285.35 C513.12,285.22 513.47,285.02 513.83,284.86 C514.19,284.69 514.54,284.55 514.90,284.36 C515.26,284.18 515.61,283.90 515.97,283.72 C516.33,283.54 516.68,283.42 517.04,283.26 C517.39,283.10 517.75,282.89 518.11,282.77 C518.46,282.65 518.82,282.64 519.18,282.55 C519.53,282.47 519.89,282.39 520.25,282.25 C520.60,282.10 520.96,281.85 521.32,281.66 C521.67,281.48 522.03,281.26 522.38,281.14 C522.74,281.02 523.10,281.05 523.45,280.96 C523.81,280.86 524.17,280.70 524.52,280.59 C524.88,280.48 525.24,280.51 525.59,280.31 C525.95,280.11 526.31,279.64 526.66,279.39 C527.02,279.14 527.37,279.15 527.73,278.81 C528.09,278.46 528.44,277.77 528.80,277.33 C529.16,276.89 529.51,276.45 529.87,276.17 C530.23,275.88 530.58,275.81 530.94,275.61 C531.29,275.41 531.65,275.16 532.01,274.97 C532.36,274.77 532.72,274.59 533.08,274.45 C533.43,274.30 533.79,274.20 534.15,274.08 C534.50,273.96 534.86,273.86 535.22,273.74 C535.57,273.62 535.93,273.53 536.28,273.37 C536.64,273.22 537.00,272.98 537.35,272.82 C537.71,272.66 538.07,272.57 538.42,272.42 C538.78,272.27 539.14,271.96 539.49,271.93 C539.85,271.90 540.21,271.91 540.56,271.90 C540.92,271.89 541.27,271.83 541.63,271.71 C541.99,271.60 542.34,271.35 542.70,271.22 C543.06,271.09 543.41,271.06 543.77,270.95 C544.13,270.83 544.48,270.66 544.84,270.55 C545.19,270.43 545.55,270.37 545.91,270.27 C546.26,270.17 546.62,270.10 546.98,269.96 C547.33,269.83 547.69,269.59 548.05,269.44 C548.40,269.29 548.76,269.18 549.12,269.07 C549.47,268.97 549.83,268.91 550.18,268.83 C550.54,268.74 550.90,268.69 551.25,268.55 C551.61,268.41 551.97,268.13 552.32,268.00 C552.68,267.87 553.04,267.84 553.39,267.75 C553.75,267.67 554.11,267.57 554.46,267.48 C554.82,267.38 555.17,267.27 555.53,267.20 C555.89,267.13 556.24,267.14 556.60,267.05 C556.96,266.95 557.31,266.74 557.67,266.62 C558.03,266.49 558.38,266.39 558.74,266.28 C559.09,266.17 559.45,266.05 559.81,265.94 C560.16,265.83 560.52,265.76 560.88,265.63 C561.23,265.51 561.59,265.33 561.95,265.20 C562.30,265.08 562.66,265.01 563.02,264.87 C563.37,264.72 563.73,264.51 564.08,264.34 C564.44,264.18 564.80,264.01 565.15,263.88 C565.51,263.76 565.87,263.72 566.22,263.61 C566.58,263.49 566.94,263.33 567.29,263.21 C567.65,263.09 568.01,263.00 568.36,262.87 C568.72,262.74 569.07,262.53 569.43,262.44 C569.79,262.35 570.14,262.40 570.50,262.32 C570.86,262.24 571.21,262.07 571.57,261.95 C571.93,261.83 572.28,261.74 572.64,261.61 C572.99,261.48 573.35,261.30 573.71,261.18 C574.06,261.06 574.42,260.98 574.78,260.87 C575.13,260.77 575.49,260.66 575.85,260.57 C576.20,260.48 576.56,260.38 576.92,260.32 C577.27,260.26 577.63,260.27 577.98,260.20 C578.34,260.13 578.70,259.97 579.05,259.89 C579.41,259.81 579.77,259.82 580.12,259.74 C580.48,259.66 580.84,259.51 581.19,259.40 C581.55,259.29 581.91,259.24 582.26,259.06 C582.62,258.89 582.97,258.74 583.33,258.36 C583.69,257.97 584.04,257.18 584.40,256.76 C584.76,256.34 585.11,256.06 585.47,255.84 C585.83,255.61 586.18,255.56 586.54,255.41 C586.89,255.25 587.25,255.07 587.61,254.92 C587.96,254.76 588.32,254.62 588.68,254.49 C589.03,254.35 589.39,254.22 589.75,254.12 C590.10,254.02 590.46,253.99 590.82,253.90 C591.17,253.82 591.53,253.69 591.88,253.60 C592.24,253.50 592.60,253.44 592.95,253.32 C593.31,253.20 593.67,253.01 594.02,252.86 C594.38,252.71 594.74,252.63 595.09,252.43 C595.45,252.23 595.81,251.86 596.16,251.63 C596.52,251.40 596.87,251.20 597.23,251.05 C597.59,250.90 597.94,250.82 598.30,250.74 C598.66,250.66 599.01,250.66 599.37,250.59 C599.73,250.51 600.08,250.41 600.44,250.28 C600.79,250.15 601.15,249.93 601.51,249.79 C601.86,249.65 602.22,249.59 602.58,249.45 C602.93,249.31 603.29,249.07 603.65,248.93 C604.00,248.79 604.36,248.71 604.72,248.59 C605.07,248.47 605.43,248.36 605.78,248.22 C606.14,248.09 606.50,247.92 606.85,247.79 C607.21,247.67 607.57,247.77 607.92,247.42 C608.28,247.08 608.64,246.01 608.99,245.61 C609.35,245.21 609.71,245.29 610.06,245.03 C610.42,244.77 610.77,244.33 611.13,244.05 C611.49,243.77 611.84,243.55 612.20,243.34 C612.56,243.13 612.91,242.95 613.27,242.79 C613.63,242.62 613.98,242.50 614.34,242.36 C614.69,242.21 615.05,242.07 615.41,241.93 C615.76,241.78 616.12,241.61 616.48,241.50 C616.83,241.39 617.19,241.41 617.55,241.28 C617.90,241.16 618.26,240.91 618.62,240.76 C618.97,240.61 619.33,240.50 619.68,240.36 C620.04,240.22 620.40,240.08 620.75,239.93 C621.11,239.79 621.47,239.69 621.82,239.50 C622.18,239.32 622.54,239.02 622.89,238.83 C623.25,238.63 623.61,238.54 623.96,238.34 C624.32,238.14 624.67,237.87 625.03,237.63 C625.39,237.38 625.74,237.06 626.10,236.86 C626.46,236.67 626.81,236.61 627.17,236.46 C627.53,236.32 627.88,236.14 628.24,236.00 C628.59,235.86 628.95,235.79 629.31,235.63 C629.66,235.48 630.02,235.31 630.38,235.08 C630.73,234.86 631.09,234.52 631.45,234.28 C631.80,234.05 632.16,233.87 632.52,233.67 C632.87,233.46 633.23,233.26 633.58,233.05 C633.94,232.85 634.30,232.56 634.65,232.44 C635.01,232.32 635.37,232.39 635.72,232.29 C636.08,232.18 636.44,231.91 636.79,231.76 C637.15,231.62 637.51,231.56 637.86,231.40 C638.22,231.23 638.57,230.93 638.93,230.75 C639.29,230.58 639.64,230.51 640.00,230.35 C640.36,230.20 640.71,229.97 641.07,229.83 C641.43,229.69 641.78,229.69 642.14,229.49 C642.49,229.30 642.85,228.92 643.21,228.66 C643.56,228.40 643.92,228.14 644.28,227.93 C644.63,227.71 644.99,227.58 645.35,227.37 C645.70,227.17 646.06,226.89 646.42,226.70 C646.77,226.51 647.13,226.37 647.48,226.24 C647.84,226.11 648.20,226.05 648.55,225.93 C648.91,225.81 649.27,225.68 649.62,225.53 C649.98,225.38 650.34,225.21 650.69,225.04 C651.05,224.87 651.41,224.70 651.76,224.49 C652.12,224.27 652.47,223.95 652.83,223.75 C653.19,223.55 653.54,223.48 653.90,223.29 C654.26,223.09 654.61,222.80 654.97,222.58 C655.33,222.36 655.68,222.20 656.04,221.97 C656.39,221.73 656.75,221.46 657.11,221.17 C657.46,220.88 657.82,220.49 658.18,220.22 C658.53,219.95 658.89,219.75 659.25,219.54 C659.60,219.33 659.96,219.18 660.32,218.96 C660.67,218.74 661.03,218.43 661.38,218.22 C661.74,218.01 662.10,217.88 662.45,217.70 C662.81,217.52 663.17,217.30 663.52,217.12 C663.88,216.93 664.24,216.76 664.59,216.60 C664.95,216.43 665.31,216.30 665.66,216.13 C666.02,215.97 666.37,215.85 666.73,215.61 C667.09,215.37 667.44,214.95 667.80,214.69 C668.16,214.44 668.51,214.25 668.87,214.08 C669.23,213.91 669.58,213.82 669.94,213.68 C670.29,213.54 670.65,213.41 671.01,213.25 C671.36,213.08 671.72,212.84 672.08,212.70 C672.43,212.55 672.79,212.44 673.15,212.36 C673.50,212.27 673.86,212.27 674.22,212.17 C674.57,212.08 674.93,211.93 675.28,211.77 C675.64,211.62 676.00,211.38 676.35,211.22 C676.71,211.07 677.07,211.06 677.42,210.85 C677.78,210.65 678.14,210.21 678.49,209.99 C678.85,209.78 679.21,209.76 679.56,209.56 C679.92,209.37 680.27,209.13 680.63,208.83 C680.99,208.52 681.34,208.10 681.70,207.72 C682.06,207.34 682.41,206.91 682.77,206.55 C683.13,206.20 683.48,205.85 683.84,205.57 C684.19,205.29 684.55,205.11 684.91,204.87 C685.26,204.62 685.62,204.36 685.98,204.13 C686.33,203.90 686.69,203.68 687.05,203.48 C687.40,203.28 687.76,203.12 688.12,202.93 C688.47,202.75 688.83,202.58 689.18,202.38 C689.54,202.18 689.90,201.92 690.25,201.73 C690.61,201.54 690.97,201.39 691.32,201.24 C691.68,201.10 692.04,201.00 692.39,200.87 C692.75,200.75 693.11,200.71 693.46,200.50 C693.82,200.30 694.17,199.92 694.53,199.61 C694.89,199.31 695.24,198.91 695.60,198.69 C695.96,198.47 696.31,198.42 696.67,198.29 C697.03,198.17 697.38,198.08 697.74,197.96 C698.09,197.83 698.45,197.78 698.81,197.56 C699.16,197.34 699.52,197.03 699.88,196.64 C700.23,196.24 700.59,195.53 700.95,195.19 C701.30,194.85 701.66,194.83 702.02,194.61 C702.37,194.39 702.73,194.05 703.08,193.87 C703.44,193.69 703.80,193.65 704.15,193.53 C704.51,193.42 704.87,193.31 705.22,193.20 C705.58,193.08 705.94,192.94 706.29,192.83 C706.65,192.72 707.01,192.66 707.36,192.55 C707.72,192.44 708.07,192.31 708.43,192.15 C708.79,192.00 709.14,191.81 709.50,191.63 C709.86,191.45 710.21,191.25 710.57,191.08 C710.93,190.90 711.28,190.72 711.64,190.59 C711.99,190.45 712.35,190.47 712.71,190.28 C713.06,190.09 713.42,189.68 713.78,189.45 C714.13,189.23 714.49,189.11 714.85,188.93 C715.20,188.74 715.56,188.51 715.92,188.35 C716.27,188.18 716.63,188.09 716.98,187.95 C717.34,187.80 717.70,187.66 718.05,187.49 C718.41,187.31 718.77,187.06 719.12,186.87 C719.48,186.69 719.84,186.56 720.19,186.38 C720.55,186.20 720.91,185.98 721.26,185.77 C721.62,185.56 721.97,185.28 722.33,185.12 C722.69,184.96 723.04,184.95 723.40,184.81 C723.76,184.68 724.11,184.48 724.47,184.29 C724.83,184.11 725.18,183.89 725.54,183.71 C725.89,183.53 726.25,183.36 726.61,183.22 C726.96,183.07 727.32,183.02 727.68,182.85 C728.03,182.67 728.39,182.34 728.75,182.17 C729.10,182.01 729.46,182.02 729.82,181.87 C730.17,181.71 730.53,181.49 730.88,181.25 C731.24,181.02 731.60,180.69 731.95,180.45 C732.31,180.21 732.67,180.03 733.02,179.81 C733.38,179.59 733.74,179.38 734.09,179.13 C734.45,178.89 734.81,178.54 735.16,178.33 C735.52,178.12 735.87,177.99 736.23,177.87 C736.59,177.76 736.94,177.77 737.30,177.63 C737.66,177.49 738.01,177.17 738.37,177.01 C738.73,176.86 739.08,176.78 739.44,176.68 C739.79,176.57 740.15,176.50 740.51,176.37 C740.86,176.24 741.22,176.20 741.58,175.88 C741.93,175.56 742.29,174.95 742.65,174.47 C743.00,173.98 743.36,173.49 743.72,172.99 C744.07,172.49 744.43,172.00 744.78,171.46 C745.14,170.91 745.50,170.38 745.85,169.71 C746.21,169.04 746.57,168.07 746.92,167.43 C747.28,166.80 747.64,166.43 747.99,165.90 C748.35,165.37 748.71,164.76 749.06,164.24 C749.42,163.72 749.77,163.16 750.13,162.77 C750.49,162.38 750.84,162.24 751.20,161.91 C751.56,161.57 751.91,161.08 752.27,160.74 C752.63,160.40 752.98,160.11 753.34,159.85 C753.69,159.59 754.05,159.47 754.41,159.20 C754.76,158.94 755.12,158.57 755.48,158.28 C755.83,158.00 756.19,157.73 756.55,157.49 C756.90,157.24 757.26,157.10 757.62,156.84 C757.97,156.58 758.33,156.20 758.68,155.92 C759.04,155.64 759.40,155.46 759.75,155.15 C760.11,154.84 760.47,154.43 760.82,154.08 C761.18,153.72 761.54,153.33 761.89,153.00 C762.25,152.67 762.61,152.37 762.96,152.11 C763.32,151.86 763.67,151.68 764.03,151.47 C764.39,151.25 764.74,151.08 765.10,150.82 C765.46,150.57 765.81,150.22 766.17,149.93 C766.53,149.64 766.88,149.32 767.24,149.07 C767.59,148.83 767.95,148.71 768.31,148.46 C768.66,148.21 769.02,147.81 769.38,147.57 C769.73,147.32 770.09,147.17 770.45,146.98 C770.80,146.80 771.16,146.60 771.52,146.46 C771.87,146.32 772.23,146.27 772.58,146.15 C772.94,146.04 773.30,145.90 773.65,145.76 C774.01,145.61 774.37,145.44 774.72,145.26 C775.08,145.08 775.44,144.88 775.79,144.68 C776.15,144.48 776.51,144.29 776.86,144.07 C777.22,143.84 777.57,143.59 777.93,143.33 C778.29,143.07 778.64,142.76 779.00,142.53 C779.36,142.31 779.71,142.16 780.07,141.98 C780.43,141.79 780.78,141.64 781.14,141.43 C781.49,141.22 781.85,140.96 782.21,140.72 C782.56,140.47 782.92,140.18 783.28,139.95 C783.63,139.73 783.99,139.56 784.35,139.37 C784.70,139.18 785.06,138.98 785.42,138.82 C785.77,138.65 786.13,138.62 786.48,138.35 C786.84,138.09 787.20,137.50 787.55,137.22 C787.91,136.94 788.27,136.89 788.62,136.70 C788.98,136.50 789.34,136.27 789.69,136.05 C790.05,135.84 790.41,135.62 790.76,135.41 C791.12,135.19 791.47,134.99 791.83,134.76 C792.19,134.54 792.54,134.32 792.90,134.06 C793.26,133.79 793.61,133.44 793.97,133.17 C794.33,132.89 794.68,132.65 795.04,132.43 C795.39,132.20 795.75,131.98 796.11,131.81 C796.46,131.65 796.82,131.56 797.18,131.42 C797.53,131.27 797.89,131.10 798.25,130.92 C798.60,130.75 798.96,130.56 799.32,130.37 C799.67,130.19 800.03,130.01 800.38,129.82 C800.74,129.63 801.10,129.39 801.45,129.23 C801.81,129.08 802.17,129.01 802.52,128.90 C802.88,128.78 803.24,128.66 803.59,128.53 C803.95,128.40 804.31,128.27 804.66,128.10 C805.02,127.92 805.37,127.66 805.73,127.48 C806.09,127.31 806.44,127.24 806.80,127.05 C807.16,126.87 807.51,126.55 807.87,126.35 C808.23,126.15 808.58,126.03 808.94,125.86 C809.29,125.68 809.65,125.45 810.01,125.30 C810.36,125.16 810.72,125.09 811.08,124.97 C811.43,124.84 811.79,124.68 812.15,124.57 C812.50,124.45 812.86,124.43 813.22,124.29 C813.57,124.15 813.93,123.85 814.28,123.71 C814.64,123.56 815.00,123.55 815.35,123.43 C815.71,123.31 816.07,123.12 816.42,122.97 C816.78,122.82 817.14,122.64 817.49,122.51 C817.85,122.38 818.21,122.31 818.56,122.17 C818.92,122.04 819.27,121.84 819.63,121.71 C819.99,121.58 820.34,121.54 820.70,121.40 C821.06,121.27 821.41,121.04 821.77,120.88 C822.13,120.73 822.48,120.62 822.84,120.48 C823.19,120.35 823.55,120.22 823.91,120.08 C824.26,119.95 824.62,119.81 824.98,119.65 C825.33,119.50 825.69,119.35 826.05,119.16 C826.40,118.97 826.76,118.69 827.12,118.52 C827.47,118.34 827.83,118.27 828.18,118.12 C828.54,117.97 828.90,117.75 829.25,117.60 C829.61,117.45 829.97,117.32 830.32,117.23 C830.68,117.14 831.04,117.18 831.39,117.04 C831.75,116.91 832.11,116.60 832.46,116.43 C832.82,116.26 833.17,116.15 833.53,116.03 C833.89,115.91 834.24,115.82 834.60,115.69 C834.96,115.57 835.31,115.48 835.67,115.29 C836.03,115.10 836.38,114.75 836.74,114.56 C837.09,114.36 837.45,114.28 837.81,114.13 C838.16,113.98 838.52,113.79 838.88,113.67 C839.23,113.54 839.59,113.46 839.95,113.39 C840.30,113.32 840.66,113.30 841.02,113.24 C841.37,113.17 841.73,113.09 842.08,112.99 C842.44,112.89 842.80,112.77 843.15,112.65 C843.51,112.54 843.87,112.40 844.22,112.28 C844.58,112.17 844.94,112.09 845.29,111.98 C845.65,111.87 846.01,111.74 846.36,111.64 C846.72,111.54 847.07,111.49 847.43,111.36 C847.79,111.24 848.14,110.99 848.50,110.87 C848.86,110.75 849.21,110.73 849.57,110.66 C849.93,110.59 850.28,110.52 850.64,110.44 C850.99,110.36 851.35,110.28 851.71,110.17 C852.06,110.05 852.42,109.92 852.78,109.77 C853.13,109.61 853.49,109.40 853.85,109.24 C854.20,109.09 854.56,108.96 854.92,108.85 C855.27,108.73 855.63,108.65 855.98,108.54 C856.34,108.43 856.70,108.29 857.05,108.17 C857.41,108.05 857.77,107.94 858.12,107.83 C858.48,107.72 858.84,107.62 859.19,107.49 C859.55,107.37 859.91,107.21 860.26,107.10 C860.62,106.98 860.97,106.91 861.33,106.82 C861.69,106.73 862.04,106.65 862.40,106.54 C862.76,106.44 863.11,106.28 863.47,106.17 C863.83,106.07 864.18,106.02 864.54,105.93 C864.89,105.84 865.25,105.73 865.61,105.65 C865.96,105.57 866.32,105.53 866.68,105.44 C867.03,105.35 867.39,105.27 867.75,105.10 C868.10,104.93 868.46,104.58 868.82,104.42 C869.17,104.27 869.53,104.22 869.88,104.15 C870.24,104.08 870.60,104.06 870.95,103.99 C871.31,103.93 871.67,103.88 872.02,103.78 C872.38,103.68 872.74,103.51 873.09,103.41 C873.45,103.31 873.81,103.26 874.16,103.17 C874.52,103.07 874.87,102.94 875.23,102.83 C875.59,102.71 875.94,102.60 876.30,102.46 C876.66,102.32 877.01,102.13 877.37,102.00 C877.73,101.87 878.08,101.80 878.44,101.66 C878.79,101.52 879.15,101.30 879.51,101.14 C879.86,100.97 880.22,100.81 880.58,100.68 C880.93,100.54 881.29,100.49 881.65,100.34 C882.00,100.19 882.36,99.95 882.72,99.79 C883.07,99.63 883.43,99.51 883.78,99.39 C884.14,99.27 884.50,99.16 884.85,99.08 C885.21,99.00 885.57,99.02 885.92,98.93 C886.28,98.84 886.64,98.67 886.99,98.53 C887.35,98.39 887.71,98.27 888.06,98.10 C888.42,97.93 888.77,97.71 889.13,97.51 C889.49,97.32 889.84,97.10 890.20,96.93 C890.56,96.77 890.91,96.67 891.27,96.53 C891.63,96.40 891.98,96.25 892.34,96.13 C892.69,96.02 893.05,95.98 893.41,95.83 C893.76,95.67 894.12,95.37 894.48,95.21 C894.83,95.05 895.19,95.02 895.55,94.87 C895.90,94.73 896.26,94.50 896.62,94.35 C896.97,94.21 897.33,94.15 897.68,94.01 C898.04,93.88 898.40,93.73 898.75,93.55 C899.11,93.37 899.47,93.10 899.82,92.94 C900.18,92.78 900.54,92.68 900.89,92.57 C901.25,92.46 901.61,92.40 901.96,92.26 C902.32,92.13 902.67,91.91 903.03,91.77 C903.39,91.63 903.74,91.55 904.10,91.44 C904.46,91.32 904.81,91.22 905.17,91.07 C905.53,90.91 905.88,90.67 906.24,90.51 C906.59,90.36 906.95,90.22 907.31,90.11 C907.66,90.01 908.02,89.96 908.38,89.87 C908.73,89.78 909.09,89.71 909.45,89.59 C909.80,89.48 910.16,89.34 910.52,89.19 C910.87,89.05 911.23,88.94 911.58,88.73 C911.94,88.53 912.30,88.16 912.65,87.97 C913.01,87.77 913.37,87.71 913.72,87.57 C914.08,87.42 914.44,87.21 914.79,87.07 C915.15,86.94 915.51,86.90 915.86,86.77 C916.22,86.63 916.57,86.40 916.93,86.28 C917.29,86.15 917.64,86.09 918.00,86.00 L918.00,418.00 L84.00,418.00 Z" fill="#0969da" opacity="0.12" />
    <path d="M84.00,417.79 C84.36,417.69 84.71,417.61 85.07,417.51 C85.43,417.41 85.78,417.27 86.14,417.17 C86.49,417.07 86.85,416.96 87.21,416.93 C87.56,416.89 87.92,416.92 88.28,416.83 C88.63,416.75 88.99,416.33 89.35,416.19 C89.70,416.05 90.06,416.02 90.42,415.97 C90.77,415.92 91.13,415.93 91.48,415.88 C91.84,415.83 92.20,415.71 92.55,415.67 C92.91,415.63 93.27,415.66 93.62,415.54 C93.98,415.43 94.34,414.89 94.69,414.65 C95.05,414.41 95.41,414.28 95.76,414.10 C96.12,413.92 96.47,413.71 96.83,413.58 C97.19,413.45 97.54,413.42 97.90,413.33 C98.26,413.25 98.61,413.12 98.97,413.06 C99.33,412.99 99.68,412.98 100.04,412.93 C100.39,412.89 100.75,412.85 101.11,412.78 C101.46,412.71 101.82,412.60 102.18,412.53 C102.53,412.47 102.89,412.45 103.25,412.41 C103.60,412.37 103.96,412.39 104.32,412.29 C104.67,412.19 105.03,411.94 105.38,411.80 C105.74,411.66 106.10,411.57 106.45,411.46 C106.81,411.35 107.17,411.23 107.52,411.15 C107.88,411.08 108.24,411.06 108.59,411.00 C108.95,410.94 109.31,410.84 109.66,410.78 C110.02,410.73 110.37,410.70 110.73,410.66 C111.09,410.63 111.44,410.65 111.80,410.57 C112.16,410.49 112.51,410.29 112.87,410.20 C113.23,410.11 113.58,410.09 113.94,410.05 C114.29,410.00 114.65,409.96 115.01,409.92 C115.36,409.89 115.72,409.87 116.08,409.83 C116.43,409.80 116.79,409.78 117.15,409.71 C117.50,409.64 117.86,409.47 118.22,409.40 C118.57,409.34 118.93,409.38 119.28,409.31 C119.64,409.24 120.00,409.07 120.35,409.00 C120.71,408.93 121.07,408.90 121.42,408.88 C121.78,408.86 122.14,408.87 122.49,408.85 C122.85,408.83 123.21,408.77 123.56,408.76 C123.92,408.74 124.27,408.76 124.63,408.67 C124.99,408.57 125.34,407.92 125.70,407.65 C126.06,407.38 126.41,407.21 126.77,407.04 C127.13,406.87 127.48,406.69 127.84,406.64 C128.19,406.58 128.55,406.60 128.91,406.58 C129.26,406.55 129.62,406.51 129.98,406.42 C130.33,406.34 130.69,406.18 131.05,406.06 C131.40,405.93 131.76,405.79 132.12,405.69 C132.47,405.58 132.83,405.54 133.18,405.44 C133.54,405.34 133.90,405.28 134.25,405.07 C134.61,404.86 134.97,404.39 135.32,404.18 C135.68,403.98 136.04,403.89 136.39,403.84 C136.75,403.80 137.11,403.84 137.46,403.72 C137.82,403.61 138.17,402.78 138.53,402.55 C138.89,402.32 139.24,402.39 139.60,402.31 C139.96,402.22 140.31,402.11 140.67,402.03 C141.03,401.95 141.38,401.88 141.74,401.82 C142.09,401.76 142.45,401.71 142.81,401.66 C143.16,401.62 143.52,401.59 143.88,401.54 C144.23,401.49 144.59,401.42 144.95,401.36 C145.30,401.30 145.66,401.24 146.02,401.17 C146.37,401.11 146.73,401.01 147.08,400.96 C147.44,400.90 147.80,400.91 148.15,400.83 C148.51,400.76 148.87,400.65 149.22,400.50 C149.58,400.34 149.94,400.08 150.29,399.91 C150.65,399.75 151.01,399.62 151.36,399.51 C151.72,399.41 152.07,399.37 152.43,399.27 C152.79,399.17 153.14,399.02 153.50,398.93 C153.86,398.84 154.21,398.81 154.57,398.75 C154.93,398.69 155.28,398.63 155.64,398.56 C155.99,398.50 156.35,398.41 156.71,398.35 C157.06,398.28 157.42,398.21 157.78,398.16 C158.13,398.11 158.49,398.09 158.85,398.04 C159.20,397.99 159.56,397.94 159.92,397.89 C160.27,397.84 160.63,397.78 160.98,397.73 C161.34,397.68 161.70,397.65 162.05,397.58 C162.41,397.51 162.77,397.43 163.12,397.33 C163.48,397.24 163.84,397.10 164.19,397.00 C164.55,396.89 164.91,396.81 165.26,396.72 C165.62,396.63 165.97,396.69 166.33,396.47 C166.69,396.25 167.04,395.69 167.40,395.40 C167.76,395.11 168.11,394.88 168.47,394.72 C168.83,394.57 169.18,394.54 169.54,394.45 C169.89,394.36 170.25,394.25 170.61,394.17 C170.96,394.09 171.32,394.04 171.68,393.99 C172.03,393.93 172.39,393.91 172.75,393.83 C173.10,393.76 173.46,393.64 173.82,393.53 C174.17,393.41 174.53,393.22 174.88,393.13 C175.24,393.03 175.60,393.02 175.95,392.94 C176.31,392.87 176.67,392.76 177.02,392.67 C177.38,392.57 177.74,392.47 178.09,392.39 C178.45,392.31 178.81,392.26 179.16,392.18 C179.52,392.09 179.87,391.99 180.23,391.90 C180.59,391.81 180.94,391.70 181.30,391.62 C181.66,391.54 182.01,391.48 182.37,391.41 C182.73,391.33 183.08,391.25 183.44,391.16 C183.79,391.08 184.15,390.98 184.51,390.89 C184.86,390.79 185.22,390.64 185.58,390.58 C185.93,390.52 186.29,390.56 186.65,390.49 C187.00,390.42 187.36,390.30 187.72,390.12 C188.07,389.94 188.43,389.56 188.78,389.41 C189.14,389.26 189.50,389.30 189.85,389.23 C190.21,389.15 190.57,389.05 190.92,388.95 C191.28,388.85 191.64,388.78 191.99,388.61 C192.35,388.45 192.71,388.12 193.06,387.97 C193.42,387.82 193.77,387.82 194.13,387.72 C194.49,387.63 194.84,387.49 195.20,387.39 C195.56,387.28 195.91,387.15 196.27,387.08 C196.63,387.01 196.98,387.02 197.34,386.96 C197.69,386.89 198.05,386.81 198.41,386.71 C198.76,386.61 199.12,386.43 199.48,386.34 C199.83,386.25 200.19,386.25 200.55,386.19 C200.90,386.12 201.26,386.04 201.62,385.94 C201.97,385.84 202.33,385.64 202.68,385.57 C203.04,385.50 203.40,385.54 203.75,385.48 C204.11,385.42 204.47,385.26 204.82,385.17 C205.18,385.09 205.54,385.07 205.89,384.99 C206.25,384.91 206.61,384.80 206.96,384.71 C207.32,384.63 207.67,384.59 208.03,384.50 C208.39,384.41 208.74,384.25 209.10,384.16 C209.46,384.07 209.81,384.01 210.17,383.95 C210.53,383.88 210.88,383.87 211.24,383.79 C211.59,383.72 211.95,383.56 212.31,383.49 C212.66,383.41 213.02,383.41 213.38,383.33 C213.73,383.25 214.09,383.09 214.45,382.99 C214.80,382.90 215.16,382.87 215.52,382.78 C215.87,382.69 216.23,382.57 216.58,382.44 C216.94,382.31 217.30,382.10 217.65,381.98 C218.01,381.86 218.37,381.79 218.72,381.70 C219.08,381.62 219.44,381.55 219.79,381.46 C220.15,381.37 220.51,381.30 220.86,381.18 C221.22,381.07 221.57,380.87 221.93,380.75 C222.29,380.64 222.64,380.57 223.00,380.51 C223.36,380.45 223.71,380.45 224.07,380.38 C224.43,380.32 224.78,380.20 225.14,380.11 C225.49,380.02 225.85,379.95 226.21,379.83 C226.56,379.71 226.92,379.48 227.28,379.40 C227.63,379.33 227.99,379.38 228.35,379.25 C228.70,379.11 229.06,378.60 229.42,378.36 C229.77,378.12 230.13,378.02 230.48,377.81 C230.84,377.59 231.20,377.22 231.55,377.07 C231.91,376.91 232.27,376.99 232.62,376.88 C232.98,376.78 233.34,376.58 233.69,376.45 C234.05,376.33 234.41,376.22 234.76,376.12 C235.12,376.01 235.47,375.91 235.83,375.81 C236.19,375.71 236.54,375.65 236.90,375.53 C237.26,375.42 237.61,375.26 237.97,375.10 C238.33,374.95 238.68,374.76 239.04,374.61 C239.39,374.46 239.75,374.34 240.11,374.21 C240.46,374.08 240.82,373.98 241.18,373.84 C241.53,373.71 241.89,373.53 242.25,373.41 C242.60,373.30 242.96,373.23 243.32,373.14 C243.67,373.04 244.03,372.93 244.38,372.83 C244.74,372.73 245.10,372.62 245.45,372.52 C245.81,372.43 246.17,372.35 246.52,372.25 C246.88,372.14 247.24,372.03 247.59,371.91 C247.95,371.79 248.31,371.62 248.66,371.51 C249.02,371.40 249.37,371.30 249.73,371.23 C250.09,371.17 250.44,371.16 250.80,371.11 C251.16,371.06 251.51,371.01 251.87,370.96 C252.23,370.90 252.58,370.84 252.94,370.77 C253.29,370.70 253.65,370.65 254.01,370.53 C254.36,370.40 254.72,370.16 255.08,370.04 C255.43,369.91 255.79,369.90 256.15,369.79 C256.50,369.68 256.86,369.51 257.22,369.39 C257.57,369.27 257.93,369.18 258.28,369.08 C258.64,368.99 259.00,368.96 259.35,368.81 C259.71,368.66 260.07,368.36 260.42,368.19 C260.78,368.02 261.14,367.91 261.49,367.79 C261.85,367.68 262.21,367.76 262.56,367.49 C262.92,367.21 263.27,366.48 263.63,366.14 C263.99,365.79 264.34,365.60 264.70,365.43 C265.06,365.26 265.41,365.27 265.77,365.12 C266.13,364.97 266.48,364.69 266.84,364.54 C267.19,364.39 267.55,364.30 267.91,364.20 C268.26,364.10 268.62,364.02 268.98,363.96 C269.33,363.89 269.69,363.85 270.05,363.80 C270.40,363.75 270.76,363.72 271.12,363.65 C271.47,363.58 271.83,363.49 272.18,363.40 C272.54,363.32 272.90,363.35 273.25,363.16 C273.61,362.96 273.97,362.41 274.32,362.24 C274.68,362.06 275.04,362.15 275.39,362.02 C275.75,361.90 276.11,361.59 276.46,361.41 C276.82,361.23 277.17,361.12 277.53,360.95 C277.89,360.78 278.24,360.58 278.60,360.39 C278.96,360.21 279.31,359.98 279.67,359.81 C280.03,359.64 280.38,359.48 280.74,359.38 C281.09,359.28 281.45,359.28 281.81,359.20 C282.16,359.11 282.52,359.05 282.88,358.89 C283.23,358.73 283.59,358.45 283.95,358.21 C284.30,357.97 284.66,357.65 285.02,357.45 C285.37,357.25 285.73,357.17 286.08,357.02 C286.44,356.87 286.80,356.69 287.15,356.56 C287.51,356.42 287.87,356.35 288.22,356.22 C288.58,356.09 288.94,355.90 289.29,355.79 C289.65,355.68 290.01,355.63 290.36,355.54 C290.72,355.45 291.07,355.31 291.43,355.24 C291.79,355.17 292.14,355.23 292.50,354.99 C292.86,354.75 293.21,353.74 293.57,353.39 C293.93,353.05 294.28,353.09 294.64,352.93 C294.99,352.77 295.35,352.71 295.71,352.44 C296.06,352.18 296.42,351.64 296.78,351.34 C297.13,351.03 297.49,350.83 297.85,350.63 C298.20,350.43 298.56,350.32 298.92,350.14 C299.27,349.95 299.63,349.68 299.98,349.52 C300.34,349.37 300.70,349.32 301.05,349.22 C301.41,349.11 301.77,349.01 302.12,348.88 C302.48,348.75 302.84,348.58 303.19,348.42 C303.55,348.26 303.91,348.08 304.26,347.90 C304.62,347.71 304.97,347.51 305.33,347.31 C305.69,347.11 306.04,346.85 306.40,346.70 C306.76,346.55 307.11,346.49 307.47,346.39 C307.83,346.29 308.18,346.23 308.54,346.12 C308.89,346.00 309.25,345.86 309.61,345.69 C309.96,345.51 310.32,345.24 310.68,345.07 C311.03,344.91 311.39,344.89 311.75,344.70 C312.10,344.52 312.46,344.19 312.82,343.97 C313.17,343.74 313.53,343.55 313.88,343.35 C314.24,343.15 314.60,342.97 314.95,342.77 C315.31,342.56 315.67,342.30 316.02,342.12 C316.38,341.94 316.74,341.82 317.09,341.69 C317.45,341.57 317.81,341.48 318.16,341.39 C318.52,341.29 318.87,341.22 319.23,341.11 C319.59,341.00 319.94,340.85 320.30,340.71 C320.66,340.57 321.01,340.37 321.37,340.25 C321.73,340.13 322.08,340.13 322.44,340.01 C322.79,339.88 323.15,339.62 323.51,339.48 C323.86,339.34 324.22,339.27 324.58,339.18 C324.93,339.08 325.29,339.03 325.65,338.90 C326.00,338.77 326.36,338.61 326.72,338.41 C327.07,338.21 327.43,337.90 327.78,337.70 C328.14,337.51 328.50,337.38 328.85,337.24 C329.21,337.10 329.57,336.97 329.92,336.84 C330.28,336.71 330.64,336.58 330.99,336.47 C331.35,336.37 331.71,336.34 332.06,336.23 C332.42,336.12 332.77,335.94 333.13,335.83 C333.49,335.72 333.84,335.64 334.20,335.55 C334.56,335.47 334.91,335.40 335.27,335.31 C335.63,335.21 335.98,335.09 336.34,335.00 C336.69,334.91 337.05,334.83 337.41,334.75 C337.76,334.68 338.12,334.63 338.48,334.57 C338.83,334.51 339.19,334.47 339.55,334.39 C339.90,334.30 340.26,334.18 340.62,334.08 C340.97,333.98 341.33,333.90 341.68,333.80 C342.04,333.71 342.40,333.61 342.75,333.50 C343.11,333.38 343.47,333.22 343.82,333.13 C344.18,333.03 344.54,332.99 344.89,332.91 C345.25,332.83 345.61,332.71 345.96,332.64 C346.32,332.56 346.67,332.55 347.03,332.48 C347.39,332.41 347.74,332.30 348.10,332.21 C348.46,332.11 348.81,332.01 349.17,331.93 C349.53,331.85 349.88,331.81 350.24,331.71 C350.59,331.62 350.95,331.47 351.31,331.38 C351.66,331.28 352.02,331.26 352.38,331.16 C352.73,331.06 353.09,330.93 353.45,330.79 C353.80,330.66 354.16,330.47 354.52,330.36 C354.87,330.26 355.23,330.26 355.58,330.15 C355.94,330.04 356.30,329.85 356.65,329.72 C357.01,329.59 357.37,329.51 357.72,329.38 C358.08,329.25 358.44,329.10 358.79,328.95 C359.15,328.80 359.51,328.59 359.86,328.46 C360.22,328.33 360.57,328.28 360.93,328.18 C361.29,328.09 361.64,327.98 362.00,327.88 C362.36,327.77 362.71,327.70 363.07,327.54 C363.43,327.38 363.78,327.09 364.14,326.92 C364.49,326.76 364.85,326.63 365.21,326.52 C365.56,326.42 365.92,326.39 366.28,326.31 C366.63,326.23 366.99,326.18 367.35,326.06 C367.70,325.95 368.06,325.71 368.42,325.63 C368.77,325.56 369.13,325.60 369.48,325.54 C369.84,325.49 370.20,325.33 370.55,325.27 C370.91,325.20 371.27,325.19 371.62,325.14 C371.98,325.10 372.34,325.07 372.69,324.99 C373.05,324.91 373.41,324.75 373.76,324.68 C374.12,324.61 374.47,324.63 374.83,324.56 C375.19,324.49 375.54,324.36 375.90,324.28 C376.26,324.21 376.61,324.21 376.97,324.13 C377.33,324.05 377.68,323.90 378.04,323.82 C378.39,323.75 378.75,323.74 379.11,323.67 C379.46,323.60 379.82,323.51 380.18,323.42 C380.53,323.34 380.89,323.27 381.25,323.18 C381.60,323.09 381.96,322.94 382.32,322.87 C382.67,322.80 383.03,322.84 383.38,322.78 C383.74,322.72 384.10,322.61 384.45,322.53 C384.81,322.46 385.17,322.39 385.52,322.32 C385.88,322.24 386.24,322.15 386.59,322.07 C386.95,322.00 387.31,321.95 387.66,321.86 C388.02,321.76 388.37,321.64 388.73,321.49 C389.09,321.34 389.44,321.07 389.80,320.94 C390.16,320.80 390.51,320.76 390.87,320.69 C391.23,320.62 391.58,320.59 391.94,320.51 C392.29,320.42 392.65,320.28 393.01,320.20 C393.36,320.12 393.72,320.06 394.08,320.02 C394.43,319.97 394.79,319.97 395.15,319.92 C395.50,319.87 395.86,319.89 396.22,319.71 C396.57,319.52 396.93,319.03 397.28,318.82 C397.64,318.60 398.00,318.54 398.35,318.42 C398.71,318.30 399.07,318.21 399.42,318.11 C399.78,318.01 400.14,317.95 400.49,317.83 C400.85,317.72 401.21,317.57 401.56,317.44 C401.92,317.30 402.27,317.17 402.63,317.04 C402.99,316.90 403.34,316.72 403.70,316.61 C404.06,316.49 404.41,316.45 404.77,316.33 C405.13,316.21 405.48,316.01 405.84,315.90 C406.19,315.79 406.55,315.77 406.91,315.69 C407.26,315.60 407.62,315.49 407.98,315.38 C408.33,315.27 408.69,315.13 409.05,315.04 C409.40,314.95 409.76,314.90 410.12,314.83 C410.47,314.75 410.83,314.65 411.18,314.58 C411.54,314.51 411.90,314.44 412.25,314.40 C412.61,314.35 412.97,314.38 413.32,314.33 C413.68,314.29 414.04,314.20 414.39,314.15 C414.75,314.10 415.11,314.09 415.46,314.03 C415.82,313.97 416.17,313.86 416.53,313.78 C416.89,313.70 417.24,313.63 417.60,313.54 C417.96,313.44 418.31,313.30 418.67,313.23 C419.03,313.16 419.38,313.16 419.74,313.11 C420.09,313.05 420.45,312.95 420.81,312.89 C421.16,312.83 421.52,312.81 421.88,312.74 C422.23,312.66 422.59,312.52 422.95,312.43 C423.30,312.34 423.66,312.28 424.02,312.22 C424.37,312.15 424.73,312.12 425.08,312.06 C425.44,312.00 425.80,311.92 426.15,311.85 C426.51,311.77 426.87,311.66 427.22,311.60 C427.58,311.54 427.94,311.52 428.29,311.48 C428.65,311.44 429.01,311.42 429.36,311.36 C429.72,311.29 430.07,311.16 430.43,311.08 C430.79,311.00 431.14,310.97 431.50,310.90 C431.86,310.82 432.21,310.71 432.57,310.65 C432.93,310.59 433.28,310.56 433.64,310.53 C433.99,310.50 434.35,310.50 434.71,310.47 C435.06,310.43 435.42,310.38 435.78,310.31 C436.13,310.24 436.49,310.11 436.85,310.04 C437.20,309.96 437.56,309.98 437.92,309.88 C438.27,309.78 438.63,309.48 438.98,309.45 C439.34,309.43 439.70,309.44 440.05,309.42 C440.41,309.41 440.77,309.24 441.12,309.18 C441.48,309.11 441.84,309.09 442.19,309.05 C442.55,309.01 442.91,308.97 443.26,308.93 C443.62,308.89 443.97,308.83 444.33,308.81 C444.69,308.79 445.04,308.80 445.40,308.78 C445.76,308.75 446.11,308.66 446.47,308.59 C446.83,308.53 447.18,308.43 447.54,308.38 C447.89,308.32 448.25,308.29 448.61,308.25 C448.96,308.22 449.32,308.23 449.68,308.19 C450.03,308.15 450.39,308.06 450.75,308.01 C451.10,307.96 451.46,307.94 451.82,307.89 C452.17,307.83 452.53,307.77 452.88,307.70 C453.24,307.63 453.60,307.51 453.95,307.46 C454.31,307.40 454.67,307.39 455.02,307.36 C455.38,307.34 455.74,307.35 456.09,307.30 C456.45,307.25 456.81,307.12 457.16,307.06 C457.52,307.00 457.87,307.00 458.23,306.93 C458.59,306.87 458.94,306.77 459.30,306.69 C459.66,306.61 460.01,306.52 460.37,306.44 C460.73,306.36 461.08,306.26 461.44,306.20 C461.79,306.13 462.15,306.11 462.51,306.04 C462.86,305.98 463.22,305.89 463.58,305.80 C463.93,305.71 464.29,305.56 464.65,305.49 C465.00,305.42 465.36,305.40 465.72,305.37 C466.07,305.34 466.43,305.37 466.78,305.18 C467.14,305.00 467.50,303.94 467.85,303.46 C468.21,302.99 468.57,302.58 468.92,302.33 C469.28,302.07 469.64,302.06 469.99,301.93 C470.35,301.80 470.71,301.68 471.06,301.56 C471.42,301.44 471.77,301.33 472.13,301.22 C472.49,301.12 472.84,301.07 473.20,300.92 C473.56,300.76 473.91,300.47 474.27,300.27 C474.63,300.08 474.98,299.90 475.34,299.75 C475.69,299.60 476.05,299.51 476.41,299.38 C476.76,299.25 477.12,299.08 477.48,298.95 C477.83,298.82 478.19,298.70 478.55,298.58 C478.90,298.46 479.26,298.34 479.62,298.24 C479.97,298.15 480.33,298.10 480.68,298.00 C481.04,297.90 481.40,297.77 481.75,297.66 C482.11,297.55 482.47,297.46 482.82,297.32 C483.18,297.19 483.54,296.98 483.89,296.86 C484.25,296.74 484.61,296.70 484.96,296.62 C485.32,296.53 485.67,296.43 486.03,296.34 C486.39,296.25 486.74,296.19 487.10,296.06 C487.46,295.94 487.81,295.72 488.17,295.60 C488.53,295.49 488.88,295.50 489.24,295.39 C489.59,295.28 489.95,295.09 490.31,294.96 C490.66,294.83 491.02,294.75 491.38,294.62 C491.73,294.49 492.09,294.30 492.45,294.16 C492.80,294.02 493.16,293.87 493.52,293.79 C493.87,293.71 494.23,293.78 494.58,293.55 C494.94,293.31 495.30,292.33 495.65,291.95 C496.01,291.57 496.37,291.46 496.72,291.27 C497.08,291.09 497.44,291.01 497.79,290.84 C498.15,290.67 498.51,290.47 498.86,290.26 C499.22,290.06 499.57,289.83 499.93,289.62 C500.29,289.41 500.64,289.05 501.00,289.00 C501.36,288.95 501.71,288.97 502.07,288.94 C502.43,288.91 502.78,288.68 503.14,288.57 C503.49,288.46 503.85,288.37 504.21,288.26 C504.56,288.16 504.92,288.02 505.28,287.93 C505.63,287.83 505.99,287.78 506.35,287.68 C506.70,287.58 507.06,287.44 507.42,287.31 C507.77,287.19 508.13,287.08 508.48,286.94 C508.84,286.81 509.20,286.66 509.55,286.51 C509.91,286.37 510.27,286.23 510.62,286.08 C510.98,285.94 511.34,285.75 511.69,285.62 C512.05,285.50 512.41,285.48 512.76,285.35 C513.12,285.22 513.47,285.02 513.83,284.86 C514.19,284.69 514.54,284.55 514.90,284.36 C515.26,284.18 515.61,283.90 515.97,283.72 C516.33,283.54 516.68,283.42 517.04,283.26 C517.39,283.10 517.75,282.89 518.11,282.77 C518.46,282.65 518.82,282.64 519.18,282.55 C519.53,282.47 519.89,282.39 520.25,282.25 C520.60,282.10 520.96,281.85 521.32,281.66 C521.67,281.48 522.03,281.26 522.38,281.14 C522.74,281.02 523.10,281.05 523.45,280.96 C523.81,280.86 524.17,280.70 524.52,280.59 C524.88,280.48 525.24,280.51 525.59,280.31 C525.95,280.11 526.31,279.64 526.66,279.39 C527.02,279.14 527.37,279.15 527.73,278.81 C528.09,278.46 528.44,277.77 528.80,277.33 C529.16,276.89 529.51,276.45 529.87,276.17 C530.23,275.88 530.58,275.81 530.94,275.61 C531.29,275.41 531.65,275.16 532.01,274.97 C532.36,274.77 532.72,274.59 533.08,274.45 C533.43,274.30 533.79,274.20 534.15,274.08 C534.50,273.96 534.86,273.86 535.22,273.74 C535.57,273.62 535.93,273.53 536.28,273.37 C536.64,273.22 537.00,272.98 537.35,272.82 C537.71,272.66 538.07,272.57 538.42,272.42 C538.78,272.27 539.14,271.96 539.49,271.93 C539.85,271.90 540.21,271.91 540.56,271.90 C540.92,271.89 541.27,271.83 541.63,271.71 C541.99,271.60 542.34,271.35 542.70,271.22 C543.06,271.09 543.41,271.06 543.77,270.95 C544.13,270.83 544.48,270.66 544.84,270.55 C545.19,270.43 545.55,270.37 545.91,270.27 C546.26,270.17 546.62,270.10 546.98,269.96 C547.33,269.83 547.69,269.59 548.05,269.44 C548.40,269.29 548.76,269.18 549.12,269.07 C549.47,268.97 549.83,268.91 550.18,268.83 C550.54,268.74 550.90,268.69 551.25,268.55 C551.61,268.41 551.97,268.13 552.32,268.00 C552.68,267.87 553.04,267.84 553.39,267.75 C553.75,267.67 554.11,267.57 554.46,267.48 C554.82,267.38 555.17,267.27 555.53,267.20 C555.89,267.13 556.24,267.14 556.60,267.05 C556.96,266.95 557.31,266.74 557.67,266.62 C558.03,266.49 558.38,266.39 558.74,266.28 C559.09,266.17 559.45,266.05 559.81,265.94 C560.16,265.83 560.52,265.76 560.88,265.63 C561.23,265.51 561.59,265.33 561.95,265.20 C562.30,265.08 562.66,265.01 563.02,264.87 C563.37,264.72 563.73,264.51 564.08,264.34 C564.44,264.18 564.80,264.01 565.15,263.88 C565.51,263.76 565.87,263.72 566.22,263.61 C566.58,263.49 566.94,263.33 567.29,263.21 C567.65,263.09 568.01,263.00 568.36,262.87 C568.72,262.74 569.07,262.53 569.43,262.44 C569.79,262.35 570.14,262.40 570.50,262.32 C570.86,262.24 571.21,262.07 571.57,261.95 C571.93,261.83 572.28,261.74 572.64,261.61 C572.99,261.48 573.35,261.30 573.71,261.18 C574.06,261.06 574.42,260.98 574.78,260.87 C575.13,260.77 575.49,260.66 575.85,260.57 C576.20,260.48 576.56,260.38 576.92,260.32 C577.27,260.26 577.63,260.27 577.98,260.20 C578.34,260.13 578.70,259.97 579.05,259.89 C579.41,259.81 579.77,259.82 580.12,259.74 C580.48,259.66 580.84,259.51 581.19,259.40 C581.55,259.29 581.91,259.24 582.26,259.06 C582.62,258.89 582.97,258.74 583.33,258.36 C583.69,257.97 584.04,257.18 584.40,256.76 C584.76,256.34 585.11,256.06 585.47,255.84 C585.83,255.61 586.18,255.56 586.54,255.41 C586.89,255.25 587.25,255.07 587.61,254.92 C587.96,254.76 588.32,254.62 588.68,254.49 C589.03,254.35 589.39,254.22 589.75,254.12 C590.10,254.02 590.46,253.99 590.82,253.90 C591.17,253.82 591.53,253.69 591.88,253.60 C592.24,253.50 592.60,253.44 592.95,253.32 C593.31,253.20 593.67,253.01 594.02,252.86 C594.38,252.71 594.74,252.63 595.09,252.43 C595.45,252.23 595.81,251.86 596.16,251.63 C596.52,251.40 596.87,251.20 597.23,251.05 C597.59,250.90 597.94,250.82 598.30,250.74 C598.66,250.66 599.01,250.66 599.37,250.59 C599.73,250.51 600.08,250.41 600.44,250.28 C600.79,250.15 601.15,249.93 601.51,249.79 C601.86,249.65 602.22,249.59 602.58,249.45 C602.93,249.31 603.29,249.07 603.65,248.93 C604.00,248.79 604.36,248.71 604.72,248.59 C605.07,248.47 605.43,248.36 605.78,248.22 C606.14,248.09 606.50,247.92 606.85,247.79 C607.21,247.67 607.57,247.77 607.92,247.42 C608.28,247.08 608.64,246.01 608.99,245.61 C609.35,245.21 609.71,245.29 610.06,245.03 C610.42,244.77 610.77,244.33 611.13,244.05 C611.49,243.77 611.84,243.55 612.20,243.34 C612.56,243.13 612.91,242.95 613.27,242.79 C613.63,242.62 613.98,242.50 614.34,242.36 C614.69,242.21 615.05,242.07 615.41,241.93 C615.76,241.78 616.12,241.61 616.48,241.50 C616.83,241.39 617.19,241.41 617.55,241.28 C617.90,241.16 618.26,240.91 618.62,240.76 C618.97,240.61 619.33,240.50 619.68,240.36 C620.04,240.22 620.40,240.08 620.75,239.93 C621.11,239.79 621.47,239.69 621.82,239.50 C622.18,239.32 622.54,239.02 622.89,238.83 C623.25,238.63 623.61,238.54 623.96,238.34 C624.32,238.14 624.67,237.87 625.03,237.63 C625.39,237.38 625.74,237.06 626.10,236.86 C626.46,236.67 626.81,236.61 627.17,236.46 C627.53,236.32 627.88,236.14 628.24,236.00 C628.59,235.86 628.95,235.79 629.31,235.63 C629.66,235.48 630.02,235.31 630.38,235.08 C630.73,234.86 631.09,234.52 631.45,234.28 C631.80,234.05 632.16,233.87 632.52,233.67 C632.87,233.46 633.23,233.26 633.58,233.05 C633.94,232.85 634.30,232.56 634.65,232.44 C635.01,232.32 635.37,232.39 635.72,232.29 C636.08,232.18 636.44,231.91 636.79,231.76 C637.15,231.62 637.51,231.56 637.86,231.40 C638.22,231.23 638.57,230.93 638.93,230.75 C639.29,230.58 639.64,230.51 640.00,230.35 C640.36,230.20 640.71,229.97 641.07,229.83 C641.43,229.69 641.78,229.69 642.14,229.49 C642.49,229.30 642.85,228.92 643.21,228.66 C643.56,228.40 643.92,228.14 644.28,227.93 C644.63,227.71 644.99,227.58 645.35,227.37 C645.70,227.17 646.06,226.89 646.42,226.70 C646.77,226.51 647.13,226.37 647.48,226.24 C647.84,226.11 648.20,226.05 648.55,225.93 C648.91,225.81 649.27,225.68 649.62,225.53 C649.98,225.38 650.34,225.21 650.69,225.04 C651.05,224.87 651.41,224.70 651.76,224.49 C652.12,224.27 652.47,223.95 652.83,223.75 C653.19,223.55 653.54,223.48 653.90,223.29 C654.26,223.09 654.61,222.80 654.97,222.58 C655.33,222.36 655.68,222.20 656.04,221.97 C656.39,221.73 656.75,221.46 657.11,221.17 C657.46,220.88 657.82,220.49 658.18,220.22 C658.53,219.95 658.89,219.75 659.25,219.54 C659.60,219.33 659.96,219.18 660.32,218.96 C660.67,218.74 661.03,218.43 661.38,218.22 C661.74,218.01 662.10,217.88 662.45,217.70 C662.81,217.52 663.17,217.30 663.52,217.12 C663.88,216.93 664.24,216.76 664.59,216.60 C664.95,216.43 665.31,216.30 665.66,216.13 C666.02,215.97 666.37,215.85 666.73,215.61 C667.09,215.37 667.44,214.95 667.80,214.69 C668.16,214.44 668.51,214.25 668.87,214.08 C669.23,213.91 669.58,213.82 669.94,213.68 C670.29,213.54 670.65,213.41 671.01,213.25 C671.36,213.08 671.72,212.84 672.08,212.70 C672.43,212.55 672.79,212.44 673.15,212.36 C673.50,212.27 673.86,212.27 674.22,212.17 C674.57,212.08 674.93,211.93 675.28,211.77 C675.64,211.62 676.00,211.38 676.35,211.22 C676.71,211.07 677.07,211.06 677.42,210.85 C677.78,210.65 678.14,210.21 678.49,209.99 C678.85,209.78 679.21,209.76 679.56,209.56 C679.92,209.37 680.27,209.13 680.63,208.83 C680.99,208.52 681.34,208.10 681.70,207.72 C682.06,207.34 682.41,206.91 682.77,206.55 C683.13,206.20 683.48,205.85 683.84,205.57 C684.19,205.29 684.55,205.11 684.91,204.87 C685.26,204.62 685.62,204.36 685.98,204.13 C686.33,203.90 686.69,203.68 687.05,203.48 C687.40,203.28 687.76,203.12 688.12,202.93 C688.47,202.75 688.83,202.58 689.18,202.38 C689.54,202.18 689.90,201.92 690.25,201.73 C690.61,201.54 690.97,201.39 691.32,201.24 C691.68,201.10 692.04,201.00 692.39,200.87 C692.75,200.75 693.11,200.71 693.46,200.50 C693.82,200.30 694.17,199.92 694.53,199.61 C694.89,199.31 695.24,198.91 695.60,198.69 C695.96,198.47 696.31,198.42 696.67,198.29 C697.03,198.17 697.38,198.08 697.74,197.96 C698.09,197.83 698.45,197.78 698.81,197.56 C699.16,197.34 699.52,197.03 699.88,196.64 C700.23,196.24 700.59,195.53 700.95,195.19 C701.30,194.85 701.66,194.83 702.02,194.61 C702.37,194.39 702.73,194.05 703.08,193.87 C703.44,193.69 703.80,193.65 704.15,193.53 C704.51,193.42 704.87,193.31 705.22,193.20 C705.58,193.08 705.94,192.94 706.29,192.83 C706.65,192.72 707.01,192.66 707.36,192.55 C707.72,192.44 708.07,192.31 708.43,192.15 C708.79,192.00 709.14,191.81 709.50,191.63 C709.86,191.45 710.21,191.25 710.57,191.08 C710.93,190.90 711.28,190.72 711.64,190.59 C711.99,190.45 712.35,190.47 712.71,190.28 C713.06,190.09 713.42,189.68 713.78,189.45 C714.13,189.23 714.49,189.11 714.85,188.93 C715.20,188.74 715.56,188.51 715.92,188.35 C716.27,188.18 716.63,188.09 716.98,187.95 C717.34,187.80 717.70,187.66 718.05,187.49 C718.41,187.31 718.77,187.06 719.12,186.87 C719.48,186.69 719.84,186.56 720.19,186.38 C720.55,186.20 720.91,185.98 721.26,185.77 C721.62,185.56 721.97,185.28 722.33,185.12 C722.69,184.96 723.04,184.95 723.40,184.81 C723.76,184.68 724.11,184.48 724.47,184.29 C724.83,184.11 725.18,183.89 725.54,183.71 C725.89,183.53 726.25,183.36 726.61,183.22 C726.96,183.07 727.32,183.02 727.68,182.85 C728.03,182.67 728.39,182.34 728.75,182.17 C729.10,182.01 729.46,182.02 729.82,181.87 C730.17,181.71 730.53,181.49 730.88,181.25 C731.24,181.02 731.60,180.69 731.95,180.45 C732.31,180.21 732.67,180.03 733.02,179.81 C733.38,179.59 733.74,179.38 734.09,179.13 C734.45,178.89 734.81,178.54 735.16,178.33 C735.52,178.12 735.87,177.99 736.23,177.87 C736.59,177.76 736.94,177.77 737.30,177.63 C737.66,177.49 738.01,177.17 738.37,177.01 C738.73,176.86 739.08,176.78 739.44,176.68 C739.79,176.57 740.15,176.50 740.51,176.37 C740.86,176.24 741.22,176.20 741.58,175.88 C741.93,175.56 742.29,174.95 742.65,174.47 C743.00,173.98 743.36,173.49 743.72,172.99 C744.07,172.49 744.43,172.00 744.78,171.46 C745.14,170.91 745.50,170.38 745.85,169.71 C746.21,169.04 746.57,168.07 746.92,167.43 C747.28,166.80 747.64,166.43 747.99,165.90 C748.35,165.37 748.71,164.76 749.06,164.24 C749.42,163.72 749.77,163.16 750.13,162.77 C750.49,162.38 750.84,162.24 751.20,161.91 C751.56,161.57 751.91,161.08 752.27,160.74 C752.63,160.40 752.98,160.11 753.34,159.85 C753.69,159.59 754.05,159.47 754.41,159.20 C754.76,158.94 755.12,158.57 755.48,158.28 C755.83,158.00 756.19,157.73 756.55,157.49 C756.90,157.24 757.26,157.10 757.62,156.84 C757.97,156.58 758.33,156.20 758.68,155.92 C759.04,155.64 759.40,155.46 759.75,155.15 C760.11,154.84 760.47,154.43 760.82,154.08 C761.18,153.72 761.54,153.33 761.89,153.00 C762.25,152.67 762.61,152.37 762.96,152.11 C763.32,151.86 763.67,151.68 764.03,151.47 C764.39,151.25 764.74,151.08 765.10,150.82 C765.46,150.57 765.81,150.22 766.17,149.93 C766.53,149.64 766.88,149.32 767.24,149.07 C767.59,148.83 767.95,148.71 768.31,148.46 C768.66,148.21 769.02,147.81 769.38,147.57 C769.73,147.32 770.09,147.17 770.45,146.98 C770.80,146.80 771.16,146.60 771.52,146.46 C771.87,146.32 772.23,146.27 772.58,146.15 C772.94,146.04 773.30,145.90 773.65,145.76 C774.01,145.61 774.37,145.44 774.72,145.26 C775.08,145.08 775.44,144.88 775.79,144.68 C776.15,144.48 776.51,144.29 776.86,144.07 C777.22,143.84 777.57,143.59 777.93,143.33 C778.29,143.07 778.64,142.76 779.00,142.53 C779.36,142.31 779.71,142.16 780.07,141.98 C780.43,141.79 780.78,141.64 781.14,141.43 C781.49,141.22 781.85,140.96 782.21,140.72 C782.56,140.47 782.92,140.18 783.28,139.95 C783.63,139.73 783.99,139.56 784.35,139.37 C784.70,139.18 785.06,138.98 785.42,138.82 C785.77,138.65 786.13,138.62 786.48,138.35 C786.84,138.09 787.20,137.50 787.55,137.22 C787.91,136.94 788.27,136.89 788.62,136.70 C788.98,136.50 789.34,136.27 789.69,136.05 C790.05,135.84 790.41,135.62 790.76,135.41 C791.12,135.19 791.47,134.99 791.83,134.76 C792.19,134.54 792.54,134.32 792.90,134.06 C793.26,133.79 793.61,133.44 793.97,133.17 C794.33,132.89 794.68,132.65 795.04,132.43 C795.39,132.20 795.75,131.98 796.11,131.81 C796.46,131.65 796.82,131.56 797.18,131.42 C797.53,131.27 797.89,131.10 798.25,130.92 C798.60,130.75 798.96,130.56 799.32,130.37 C799.67,130.19 800.03,130.01 800.38,129.82 C800.74,129.63 801.10,129.39 801.45,129.23 C801.81,129.08 802.17,129.01 802.52,128.90 C802.88,128.78 803.24,128.66 803.59,128.53 C803.95,128.40 804.31,128.27 804.66,128.10 C805.02,127.92 805.37,127.66 805.73,127.48 C806.09,127.31 806.44,127.24 806.80,127.05 C807.16,126.87 807.51,126.55 807.87,126.35 C808.23,126.15 808.58,126.03 808.94,125.86 C809.29,125.68 809.65,125.45 810.01,125.30 C810.36,125.16 810.72,125.09 811.08,124.97 C811.43,124.84 811.79,124.68 812.15,124.57 C812.50,124.45 812.86,124.43 813.22,124.29 C813.57,124.15 813.93,123.85 814.28,123.71 C814.64,123.56 815.00,123.55 815.35,123.43 C815.71,123.31 816.07,123.12 816.42,122.97 C816.78,122.82 817.14,122.64 817.49,122.51 C817.85,122.38 818.21,122.31 818.56,122.17 C818.92,122.04 819.27,121.84 819.63,121.71 C819.99,121.58 820.34,121.54 820.70,121.40 C821.06,121.27 821.41,121.04 821.77,120.88 C822.13,120.73 822.48,120.62 822.84,120.48 C823.19,120.35 823.55,120.22 823.91,120.08 C824.26,119.95 824.62,119.81 824.98,119.65 C825.33,119.50 825.69,119.35 826.05,119.16 C826.40,118.97 826.76,118.69 827.12,118.52 C827.47,118.34 827.83,118.27 828.18,118.12 C828.54,117.97 828.90,117.75 829.25,117.60 C829.61,117.45 829.97,117.32 830.32,117.23 C830.68,117.14 831.04,117.18 831.39,117.04 C831.75,116.91 832.11,116.60 832.46,116.43 C832.82,116.26 833.17,116.15 833.53,116.03 C833.89,115.91 834.24,115.82 834.60,115.69 C834.96,115.57 835.31,115.48 835.67,115.29 C836.03,115.10 836.38,114.75 836.74,114.56 C837.09,114.36 837.45,114.28 837.81,114.13 C838.16,113.98 838.52,113.79 838.88,113.67 C839.23,113.54 839.59,113.46 839.95,113.39 C840.30,113.32 840.66,113.30 841.02,113.24 C841.37,113.17 841.73,113.09 842.08,112.99 C842.44,112.89 842.80,112.77 843.15,112.65 C843.51,112.54 843.87,112.40 844.22,112.28 C844.58,112.17 844.94,112.09 845.29,111.98 C845.65,111.87 846.01,111.74 846.36,111.64 C846.72,111.54 847.07,111.49 847.43,111.36 C847.79,111.24 848.14,110.99 848.50,110.87 C848.86,110.75 849.21,110.73 849.57,110.66 C849.93,110.59 850.28,110.52 850.64,110.44 C850.99,110.36 851.35,110.28 851.71,110.17 C852.06,110.05 852.42,109.92 852.78,109.77 C853.13,109.61 853.49,109.40 853.85,109.24 C854.20,109.09 854.56,108.96 854.92,108.85 C855.27,108.73 855.63,108.65 855.98,108.54 C856.34,108.43 856.70,108.29 857.05,108.17 C857.41,108.05 857.77,107.94 858.12,107.83 C858.48,107.72 858.84,107.62 859.19,107.49 C859.55,107.37 859.91,107.21 860.26,107.10 C860.62,106.98 860.97,106.91 861.33,106.82 C861.69,106.73 862.04,106.65 862.40,106.54 C862.76,106.44 863.11,106.28 863.47,106.17 C863.83,106.07 864.18,106.02 864.54,105.93 C864.89,105.84 865.25,105.73 865.61,105.65 C865.96,105.57 866.32,105.53 866.68,105.44 C867.03,105.35 867.39,105.27 867.75,105.10 C868.10,104.93 868.46,104.58 868.82,104.42 C869.17,104.27 869.53,104.22 869.88,104.15 C870.24,104.08 870.60,104.06 870.95,103.99 C871.31,103.93 871.67,103.88 872.02,103.78 C872.38,103.68 872.74,103.51 873.09,103.41 C873.45,103.31 873.81,103.26 874.16,103.17 C874.52,103.07 874.87,102.94 875.23,102.83 C875.59,102.71 875.94,102.60 876.30,102.46 C876.66,102.32 877.01,102.13 877.37,102.00 C877.73,101.87 878.08,101.80 878.44,101.66 C878.79,101.52 879.15,101.30 879.51,101.14 C879.86,100.97 880.22,100.81 880.58,100.68 C880.93,100.54 881.29,100.49 881.65,100.34 C882.00,100.19 882.36,99.95 882.72,99.79 C883.07,99.63 883.43,99.51 883.78,99.39 C884.14,99.27 884.50,99.16 884.85,99.08 C885.21,99.00 885.57,99.02 885.92,98.93 C886.28,98.84 886.64,98.67 886.99,98.53 C887.35,98.39 887.71,98.27 888.06,98.10 C888.42,97.93 888.77,97.71 889.13,97.51 C889.49,97.32 889.84,97.10 890.20,96.93 C890.56,96.77 890.91,96.67 891.27,96.53 C891.63,96.40 891.98,96.25 892.34,96.13 C892.69,96.02 893.05,95.98 893.41,95.83 C893.76,95.67 894.12,95.37 894.48,95.21 C894.83,95.05 895.19,95.02 895.55,94.87 C895.90,94.73 896.26,94.50 896.62,94.35 C896.97,94.21 897.33,94.15 897.68,94.01 C898.04,93.88 898.40,93.73 898.75,93.55 C899.11,93.37 899.47,93.10 899.82,92.94 C900.18,92.78 900.54,92.68 900.89,92.57 C901.25,92.46 901.61,92.40 901.96,92.26 C902.32,92.13 902.67,91.91 903.03,91.77 C903.39,91.63 903.74,91.55 904.10,91.44 C904.46,91.32 904.81,91.22 905.17,91.07 C905.53,90.91 905.88,90.67 906.24,90.51 C906.59,90.36 906.95,90.22 907.31,90.11 C907.66,90.01 908.02,89.96 908.38,89.87 C908.73,89.78 909.09,89.71 909.45,89.59 C909.80,89.48 910.16,89.34 910.52,89.19 C910.87,89.05 911.23,88.94 911.58,88.73 C911.94,88.53 912.30,88.16 912.65,87.97 C913.01,87.77 913.37,87.71 913.72,87.57 C914.08,87.42 914.44,87.21 914.79,87.07 C915.15,86.94 915.51,86.90 915.86,86.77 C916.22,86.63 916.57,86.40 916.93,86.28 C917.29,86.15 917.64,86.09 918.00,86.00" fill="none" stroke="#0969da" stroke-width="3" stroke-linecap="round" stroke-linejoin="round" />
    <circle cx="918.00" cy="86.00" r="5" fill="#0969da" stroke="#ffffff" stroke-width="2" />
    <text x="918" y="466" text-anchor="end" fill="#656d76" font-size="11">Updated Sep 21, 2026</text>
  </g>
</svg>
