<?xml version="1.0" encoding="UTF-8"?>
<svg xmlns="http://www.w3.org/2000/svg" width="960" height="480" viewBox="0 0 960 480" role="img" aria-labelledby="title description">
  <title id="title">TheBoredTeam/boring.notch Star History</title>
  <desc id="description">10,702 current GitHub stargazers as of Sep 13, 2026.</desc>
  <rect width="960" height="480" rx="12" fill="#ffffff" stroke="#d0d7de" />
  <g font-family="-apple-system, BlinkMacSystemFont, 'Segoe UI', sans-serif">
    <text x="84" y="40" fill="#1f2328" font-size="24" font-weight="600">Star History</text>
    <text x="918" y="40" text-anchor="end" fill="#656d76" font-size="14" font-weight="500">10,702 stars</text>
    <text x="84" y="64" fill="#656d76" font-size="13">TheBoredTeam/boring.notch</text>
    <line x1="84" y1="418.00" x2="918" y2="418.00" stroke="#d8dee4" stroke-width="1" />
      <text x="70" y="422.00" text-anchor="end" fill="#656d76" font-size="12">0</text>
      <line x1="84" y1="355.96" x2="918" y2="355.96" stroke="#d8dee4" stroke-width="1" />
      <text x="70" y="359.96" text-anchor="end" fill="#656d76" font-size="12">2K</text>
      <line x1="84" y1="293.91" x2="918" y2="293.91" stroke="#d8dee4" stroke-width="1" />
      <text x="70" y="297.91" text-anchor="end" fill="#656d76" font-size="12">4K</text>
      <line x1="84" y1="231.87" x2="918" y2="231.87" stroke="#d8dee4" stroke-width="1" />
      <text x="70" y="235.87" text-anchor="end" fill="#656d76" font-size="12">6K</text>
      <line x1="84" y1="169.82" x2="918" y2="169.82" stroke="#d8dee4" stroke-width="1" />
      <text x="70" y="173.82" text-anchor="end" fill="#656d76" font-size="12">8K</text>
      <line x1="84" y1="107.78" x2="918" y2="107.78" stroke="#d8dee4" stroke-width="1" />
      <text x="70" y="111.78" text-anchor="end" fill="#656d76" font-size="12">10K</text>
    <text x="84.00" y="452" text-anchor="middle" fill="#656d76" font-size="12">Aug 2024</text>
      <text x="292.50" y="452" text-anchor="middle" fill="#656d76" font-size="12">Feb 2025</text>
      <text x="501.00" y="452" text-anchor="middle" fill="#656d76" font-size="12">Aug 2025</text>
      <text x="709.50" y="452" text-anchor="middle" fill="#656d76" font-size="12">Mar 2026</text>
      <text x="918.00" y="452" text-anchor="middle" fill="#656d76" font-size="12">Sep 2026</text>
    <path d="M84.00,417.78 C84.36,417.69 84.72,417.61 85.08,417.50 C85.44,417.40 85.80,417.26 86.16,417.16 C86.52,417.06 86.88,416.95 87.24,416.91 C87.60,416.88 87.96,416.91 88.32,416.82 C88.68,416.74 89.04,416.31 89.40,416.17 C89.76,416.02 90.12,416.01 90.48,415.95 C90.84,415.90 91.20,415.89 91.56,415.83 C91.92,415.77 92.28,415.65 92.64,415.61 C93.00,415.57 93.36,415.60 93.72,415.49 C94.08,415.37 94.44,414.83 94.80,414.59 C95.16,414.34 95.52,414.21 95.88,414.03 C96.24,413.85 96.60,413.63 96.96,413.50 C97.32,413.37 97.68,413.34 98.04,413.25 C98.40,413.17 98.76,413.04 99.12,412.97 C99.48,412.91 99.84,412.90 100.20,412.85 C100.56,412.80 100.92,412.76 101.28,412.70 C101.65,412.63 102.01,412.51 102.37,412.45 C102.73,412.38 103.09,412.36 103.45,412.32 C103.81,412.28 104.17,412.30 104.53,412.20 C104.89,412.10 105.25,411.84 105.61,411.70 C105.97,411.56 106.33,411.47 106.69,411.36 C107.05,411.25 107.41,411.13 107.77,411.05 C108.13,410.97 108.49,410.96 108.85,410.90 C109.21,410.83 109.57,410.74 109.93,410.68 C110.29,410.62 110.65,410.59 111.01,410.55 C111.37,410.52 111.73,410.54 112.09,410.46 C112.45,410.38 112.81,410.18 113.17,410.09 C113.53,410.00 113.89,409.98 114.25,409.93 C114.61,409.89 114.97,409.85 115.33,409.81 C115.69,409.77 116.05,409.75 116.41,409.72 C116.77,409.68 117.13,409.67 117.49,409.59 C117.85,409.52 118.21,409.35 118.57,409.28 C118.93,409.22 119.29,409.26 119.65,409.19 C120.01,409.12 120.37,408.95 120.73,408.88 C121.09,408.81 121.45,408.78 121.81,408.76 C122.17,408.73 122.53,408.74 122.89,408.72 C123.25,408.70 123.61,408.65 123.97,408.63 C124.33,408.62 124.69,408.63 125.05,408.54 C125.41,408.45 125.77,407.79 126.13,407.51 C126.49,407.24 126.85,407.06 127.21,406.89 C127.57,406.72 127.93,406.55 128.29,406.49 C128.65,406.43 129.01,406.45 129.37,406.43 C129.73,406.40 130.09,406.36 130.45,406.27 C130.81,406.19 131.17,406.03 131.53,405.90 C131.89,405.78 132.25,405.63 132.61,405.53 C132.97,405.43 133.33,405.38 133.69,405.28 C134.05,405.18 134.41,405.12 134.77,404.91 C135.13,404.70 135.49,404.22 135.85,404.01 C136.22,403.80 136.58,403.71 136.94,403.67 C137.30,403.63 137.66,403.66 138.02,403.54 C138.38,403.43 138.74,402.60 139.10,402.36 C139.46,402.13 139.82,402.20 140.18,402.12 C140.54,402.03 140.90,401.92 141.26,401.84 C141.62,401.75 141.98,401.68 142.34,401.62 C142.70,401.56 143.06,401.51 143.42,401.47 C143.78,401.42 144.14,401.39 144.50,401.34 C144.86,401.29 145.22,401.22 145.58,401.15 C145.94,401.09 146.30,401.04 146.66,400.97 C147.02,400.90 147.38,400.81 147.74,400.75 C148.10,400.69 148.46,400.71 148.82,400.63 C149.18,400.55 149.54,400.44 149.90,400.29 C150.26,400.13 150.62,399.86 150.98,399.70 C151.34,399.53 151.70,399.40 152.06,399.29 C152.42,399.19 152.78,399.14 153.14,399.05 C153.50,398.95 153.86,398.79 154.22,398.70 C154.58,398.62 154.94,398.58 155.30,398.52 C155.66,398.46 156.02,398.40 156.38,398.33 C156.74,398.26 157.10,398.18 157.46,398.11 C157.82,398.05 158.18,397.98 158.54,397.93 C158.90,397.88 159.26,397.85 159.62,397.80 C159.98,397.76 160.34,397.70 160.70,397.65 C161.06,397.60 161.42,397.55 161.78,397.49 C162.14,397.44 162.50,397.41 162.86,397.34 C163.22,397.27 163.58,397.19 163.94,397.09 C164.30,396.99 164.66,396.85 165.02,396.75 C165.38,396.65 165.74,396.56 166.10,396.47 C166.46,396.38 166.82,396.44 167.18,396.22 C167.54,396.00 167.90,395.43 168.26,395.14 C168.62,394.84 168.98,394.61 169.34,394.45 C169.70,394.29 170.06,394.27 170.42,394.17 C170.78,394.08 171.15,393.97 171.51,393.90 C171.87,393.82 172.23,393.77 172.59,393.71 C172.95,393.65 173.31,393.63 173.67,393.55 C174.03,393.48 174.39,393.36 174.75,393.24 C175.11,393.13 175.47,392.94 175.83,392.84 C176.19,392.74 176.55,392.73 176.91,392.65 C177.27,392.58 177.63,392.47 177.99,392.38 C178.35,392.28 178.71,392.18 179.07,392.10 C179.43,392.01 179.79,391.96 180.15,391.88 C180.51,391.80 180.87,391.69 181.23,391.60 C181.59,391.51 181.95,391.40 182.31,391.32 C182.67,391.24 183.03,391.18 183.39,391.10 C183.75,391.03 184.11,390.94 184.47,390.86 C184.83,390.77 185.19,390.67 185.55,390.58 C185.91,390.48 186.27,390.33 186.63,390.27 C186.99,390.21 187.35,390.24 187.71,390.17 C188.07,390.10 188.43,389.98 188.79,389.80 C189.15,389.62 189.51,389.24 189.87,389.09 C190.23,388.94 190.59,388.98 190.95,388.90 C191.31,388.82 191.67,388.73 192.03,388.62 C192.39,388.52 192.75,388.45 193.11,388.28 C193.47,388.12 193.83,387.78 194.19,387.63 C194.55,387.48 194.91,387.48 195.27,387.38 C195.63,387.28 195.99,387.15 196.35,387.04 C196.71,386.93 197.07,386.80 197.43,386.73 C197.79,386.66 198.15,386.67 198.51,386.61 C198.87,386.54 199.23,386.46 199.59,386.36 C199.95,386.25 200.31,386.07 200.67,385.99 C201.03,385.90 201.39,385.90 201.75,385.83 C202.11,385.76 202.47,385.69 202.83,385.58 C203.19,385.48 203.55,385.28 203.91,385.21 C204.27,385.14 204.63,385.18 204.99,385.12 C205.35,385.06 205.72,384.89 206.08,384.81 C206.44,384.72 206.80,384.70 207.16,384.62 C207.52,384.54 207.88,384.42 208.24,384.34 C208.60,384.26 208.96,384.22 209.32,384.12 C209.68,384.03 210.04,383.88 210.40,383.78 C210.76,383.69 211.12,383.63 211.48,383.57 C211.84,383.50 212.20,383.49 212.56,383.41 C212.92,383.33 213.28,383.18 213.64,383.10 C214.00,383.02 214.36,383.03 214.72,382.94 C215.08,382.86 215.44,382.70 215.80,382.60 C216.16,382.51 216.52,382.48 216.88,382.39 C217.24,382.29 217.60,382.18 217.96,382.05 C218.32,381.91 218.68,381.70 219.04,381.58 C219.40,381.46 219.76,381.39 220.12,381.30 C220.48,381.21 220.84,381.14 221.20,381.05 C221.56,380.96 221.92,380.89 222.28,380.77 C222.64,380.65 223.00,380.45 223.36,380.34 C223.72,380.23 224.08,380.15 224.44,380.09 C224.80,380.03 225.16,380.03 225.52,379.97 C225.88,379.90 226.24,379.78 226.60,379.69 C226.96,379.59 227.32,379.53 227.68,379.41 C228.04,379.29 228.40,379.05 228.76,378.97 C229.12,378.90 229.48,378.95 229.84,378.82 C230.20,378.68 230.56,378.16 230.92,377.92 C231.28,377.68 231.64,377.58 232.00,377.36 C232.36,377.14 232.72,376.77 233.08,376.62 C233.44,376.46 233.80,376.53 234.16,376.43 C234.52,376.33 234.88,376.13 235.24,376.00 C235.60,375.87 235.96,375.76 236.32,375.65 C236.68,375.55 237.04,375.44 237.40,375.34 C237.76,375.25 238.12,375.18 238.48,375.07 C238.84,374.95 239.20,374.79 239.56,374.63 C239.92,374.48 240.28,374.28 240.65,374.13 C241.01,373.98 241.37,373.86 241.73,373.73 C242.09,373.60 242.45,373.49 242.81,373.36 C243.17,373.22 243.53,373.04 243.89,372.92 C244.25,372.81 244.61,372.74 244.97,372.65 C245.33,372.55 245.69,372.44 246.05,372.34 C246.41,372.23 246.77,372.12 247.13,372.03 C247.49,371.93 247.85,371.85 248.21,371.75 C248.57,371.64 248.93,371.53 249.29,371.40 C249.65,371.28 250.01,371.12 250.37,371.00 C250.73,370.89 251.09,370.79 251.45,370.72 C251.81,370.65 252.17,370.64 252.53,370.60 C252.89,370.55 253.25,370.50 253.61,370.44 C253.97,370.39 254.33,370.33 254.69,370.26 C255.05,370.18 255.41,370.13 255.77,370.01 C256.13,369.88 256.49,369.64 256.85,369.51 C257.21,369.39 257.57,369.37 257.93,369.26 C258.29,369.16 258.65,368.98 259.01,368.86 C259.37,368.74 259.73,368.65 260.09,368.55 C260.45,368.45 260.81,368.42 261.17,368.27 C261.53,368.12 261.89,367.82 262.25,367.65 C262.61,367.48 262.97,367.37 263.33,367.25 C263.69,367.13 264.05,367.22 264.41,366.94 C264.77,366.66 265.13,365.92 265.49,365.57 C265.85,365.23 266.21,365.03 266.57,364.86 C266.93,364.68 267.29,364.67 267.65,364.52 C268.01,364.36 268.37,364.08 268.73,363.93 C269.09,363.77 269.45,363.69 269.81,363.59 C270.17,363.49 270.53,363.41 270.89,363.34 C271.25,363.27 271.61,363.24 271.97,363.18 C272.33,363.13 272.69,363.10 273.05,363.03 C273.41,362.96 273.77,362.86 274.13,362.78 C274.49,362.70 274.85,362.73 275.22,362.53 C275.58,362.34 275.94,361.78 276.30,361.60 C276.66,361.43 277.02,361.51 277.38,361.38 C277.74,361.26 278.10,360.94 278.46,360.76 C278.82,360.58 279.18,360.47 279.54,360.30 C279.90,360.13 280.26,359.93 280.62,359.74 C280.98,359.55 281.34,359.32 281.70,359.15 C282.06,358.98 282.42,358.82 282.78,358.72 C283.14,358.61 283.50,358.61 283.86,358.53 C284.22,358.45 284.58,358.39 284.94,358.22 C285.30,358.05 285.66,357.79 286.02,357.54 C286.38,357.29 286.74,356.94 287.10,356.73 C287.46,356.52 287.82,356.45 288.18,356.30 C288.54,356.15 288.90,355.97 289.26,355.83 C289.62,355.70 289.98,355.62 290.34,355.49 C290.70,355.36 291.06,355.17 291.42,355.06 C291.78,354.94 292.14,354.90 292.50,354.81 C292.86,354.71 293.22,354.57 293.58,354.50 C293.94,354.43 294.30,354.49 294.66,354.25 C295.02,354.01 295.38,352.98 295.74,352.64 C296.10,352.29 296.46,352.33 296.82,352.17 C297.18,352.01 297.54,351.94 297.90,351.67 C298.26,351.41 298.62,350.86 298.98,350.56 C299.34,350.25 299.70,350.05 300.06,349.84 C300.42,349.64 300.78,349.53 301.14,349.35 C301.50,349.16 301.86,348.88 302.22,348.73 C302.58,348.57 302.94,348.53 303.30,348.42 C303.66,348.31 304.02,348.21 304.38,348.08 C304.74,347.94 305.10,347.78 305.46,347.61 C305.82,347.45 306.18,347.27 306.54,347.08 C306.90,346.90 307.26,346.70 307.62,346.49 C307.98,346.29 308.34,346.03 308.70,345.87 C309.06,345.72 309.42,345.66 309.78,345.56 C310.15,345.46 310.51,345.40 310.87,345.28 C311.23,345.16 311.59,345.03 311.95,344.85 C312.31,344.67 312.67,344.39 313.03,344.23 C313.39,344.06 313.75,344.04 314.11,343.86 C314.47,343.67 314.83,343.34 315.19,343.11 C315.55,342.88 315.91,342.69 316.27,342.49 C316.63,342.29 316.99,342.11 317.35,341.90 C317.71,341.70 318.07,341.43 318.43,341.25 C318.79,341.07 319.15,340.94 319.51,340.82 C319.87,340.69 320.23,340.60 320.59,340.51 C320.95,340.41 321.31,340.34 321.67,340.23 C322.03,340.11 322.39,339.97 322.75,339.82 C323.11,339.68 323.47,339.48 323.83,339.36 C324.19,339.24 324.55,339.24 324.91,339.11 C325.27,338.98 325.63,338.72 325.99,338.58 C326.35,338.44 326.71,338.37 327.07,338.27 C327.43,338.17 327.79,338.12 328.15,337.99 C328.51,337.86 328.87,337.70 329.23,337.50 C329.59,337.30 329.95,336.98 330.31,336.78 C330.67,336.59 331.03,336.46 331.39,336.32 C331.75,336.17 332.11,336.04 332.47,335.92 C332.83,335.79 333.19,335.65 333.55,335.54 C333.91,335.44 334.27,335.40 334.63,335.29 C334.99,335.19 335.35,335.01 335.71,334.89 C336.07,334.78 336.43,334.70 336.79,334.61 C337.15,334.52 337.51,334.46 337.87,334.36 C338.23,334.27 338.59,334.15 338.95,334.05 C339.31,333.96 339.67,333.88 340.03,333.81 C340.39,333.73 340.75,333.66 341.11,333.59 C341.47,333.52 341.83,333.49 342.19,333.40 C342.55,333.32 342.91,333.19 343.27,333.09 C343.63,332.99 343.99,332.91 344.35,332.81 C344.72,332.71 345.08,332.62 345.44,332.50 C345.80,332.39 346.16,332.23 346.52,332.13 C346.88,332.03 347.24,332.00 347.60,331.91 C347.96,331.83 348.32,331.71 348.68,331.63 C349.04,331.56 349.40,331.55 349.76,331.48 C350.12,331.41 350.48,331.29 350.84,331.20 C351.20,331.11 351.56,331.00 351.92,330.92 C352.28,330.84 352.64,330.80 353.00,330.70 C353.36,330.61 353.72,330.46 354.08,330.36 C354.44,330.27 354.80,330.24 355.16,330.15 C355.52,330.05 355.88,329.91 356.24,329.77 C356.60,329.64 356.96,329.45 357.32,329.34 C357.68,329.23 358.04,329.23 358.40,329.12 C358.76,329.01 359.12,328.82 359.48,328.69 C359.84,328.56 360.20,328.47 360.56,328.35 C360.92,328.22 361.28,328.07 361.64,327.91 C362.00,327.76 362.36,327.54 362.72,327.42 C363.08,327.29 363.44,327.23 363.80,327.14 C364.16,327.04 364.52,326.93 364.88,326.83 C365.24,326.72 365.60,326.64 365.96,326.48 C366.32,326.32 366.68,326.03 367.04,325.86 C367.40,325.69 367.76,325.56 368.12,325.46 C368.48,325.36 368.84,325.32 369.20,325.24 C369.56,325.17 369.92,325.11 370.28,325.00 C370.64,324.88 371.00,324.64 371.36,324.56 C371.72,324.48 372.08,324.52 372.44,324.47 C372.80,324.41 373.16,324.26 373.52,324.19 C373.88,324.12 374.24,324.11 374.60,324.06 C374.96,324.02 375.32,323.99 375.68,323.91 C376.04,323.83 376.40,323.67 376.76,323.60 C377.12,323.53 377.48,323.54 377.84,323.48 C378.20,323.41 378.56,323.27 378.92,323.20 C379.28,323.12 379.65,323.12 380.01,323.04 C380.37,322.96 380.73,322.81 381.09,322.73 C381.45,322.65 381.81,322.64 382.17,322.58 C382.53,322.51 382.89,322.41 383.25,322.33 C383.61,322.24 383.97,322.17 384.33,322.08 C384.69,321.99 385.05,321.84 385.41,321.77 C385.77,321.70 386.13,321.73 386.49,321.68 C386.85,321.62 387.21,321.51 387.57,321.43 C387.93,321.35 388.29,321.29 388.65,321.21 C389.01,321.13 389.37,321.04 389.73,320.96 C390.09,320.88 390.45,320.84 390.81,320.75 C391.17,320.65 391.53,320.53 391.89,320.37 C392.25,320.22 392.61,319.95 392.97,319.81 C393.33,319.68 393.69,319.64 394.05,319.57 C394.41,319.49 394.77,319.46 395.13,319.38 C395.49,319.30 395.85,319.15 396.21,319.07 C396.57,318.99 396.93,318.93 397.29,318.88 C397.65,318.84 398.01,318.84 398.37,318.79 C398.73,318.74 399.09,318.76 399.45,318.57 C399.81,318.39 400.17,317.89 400.53,317.67 C400.89,317.46 401.25,317.39 401.61,317.27 C401.97,317.15 402.33,317.06 402.69,316.96 C403.05,316.86 403.41,316.80 403.77,316.68 C404.13,316.57 404.49,316.41 404.85,316.28 C405.21,316.14 405.57,316.01 405.93,315.87 C406.29,315.74 406.65,315.56 407.01,315.44 C407.37,315.32 407.73,315.28 408.09,315.16 C408.45,315.04 408.81,314.84 409.17,314.73 C409.53,314.62 409.89,314.60 410.25,314.51 C410.61,314.42 410.97,314.31 411.33,314.20 C411.69,314.09 412.05,313.95 412.41,313.86 C412.77,313.77 413.13,313.72 413.49,313.64 C413.85,313.56 414.22,313.47 414.58,313.39 C414.94,313.32 415.30,313.25 415.66,313.21 C416.02,313.17 416.38,313.19 416.74,313.14 C417.10,313.10 417.46,313.01 417.82,312.96 C418.18,312.91 418.54,312.90 418.90,312.83 C419.26,312.77 419.62,312.67 419.98,312.59 C420.34,312.50 420.70,312.43 421.06,312.34 C421.42,312.25 421.78,312.10 422.14,312.03 C422.50,311.96 422.86,311.96 423.22,311.90 C423.58,311.85 423.94,311.75 424.30,311.69 C424.66,311.62 425.02,311.61 425.38,311.53 C425.74,311.45 426.10,311.31 426.46,311.22 C426.82,311.13 427.18,311.07 427.54,311.00 C427.90,310.94 428.26,310.91 428.62,310.85 C428.98,310.79 429.34,310.71 429.70,310.63 C430.06,310.55 430.42,310.45 430.78,310.38 C431.14,310.32 431.50,310.30 431.86,310.26 C432.22,310.22 432.58,310.20 432.94,310.14 C433.30,310.07 433.66,309.93 434.02,309.86 C434.38,309.78 434.74,309.74 435.10,309.67 C435.46,309.60 435.82,309.48 436.18,309.42 C436.54,309.36 436.90,309.33 437.26,309.30 C437.62,309.27 437.98,309.27 438.34,309.24 C438.70,309.20 439.06,309.15 439.42,309.08 C439.78,309.01 440.14,308.87 440.50,308.80 C440.86,308.73 441.22,308.74 441.58,308.65 C441.94,308.55 442.30,308.24 442.66,308.21 C443.02,308.19 443.38,308.20 443.74,308.18 C444.10,308.17 444.46,308.00 444.82,307.93 C445.18,307.87 445.54,307.85 445.90,307.81 C446.26,307.77 446.62,307.73 446.98,307.68 C447.34,307.64 447.70,307.58 448.06,307.56 C448.42,307.54 448.78,307.56 449.15,307.53 C449.51,307.50 449.87,307.41 450.23,307.34 C450.59,307.28 450.95,307.18 451.31,307.13 C451.67,307.07 452.03,307.03 452.39,307.00 C452.75,306.97 453.11,306.98 453.47,306.94 C453.83,306.90 454.19,306.81 454.55,306.75 C454.91,306.70 455.27,306.68 455.63,306.63 C455.99,306.58 456.35,306.52 456.71,306.44 C457.07,306.37 457.43,306.25 457.79,306.20 C458.15,306.14 458.51,306.13 458.87,306.10 C459.23,306.08 459.59,306.09 459.95,306.04 C460.31,305.99 460.67,305.85 461.03,305.79 C461.39,305.73 461.75,305.73 462.11,305.67 C462.47,305.61 462.83,305.50 463.19,305.42 C463.55,305.34 463.91,305.25 464.27,305.17 C464.63,305.09 464.99,304.99 465.35,304.92 C465.71,304.86 466.07,304.84 466.43,304.77 C466.79,304.70 467.15,304.61 467.51,304.52 C467.87,304.43 468.23,304.28 468.59,304.21 C468.95,304.14 469.31,304.12 469.67,304.09 C470.03,304.06 470.39,304.08 470.75,303.90 C471.11,303.72 471.47,302.64 471.83,302.16 C472.19,301.68 472.55,301.27 472.91,301.02 C473.27,300.76 473.63,300.74 473.99,300.61 C474.35,300.48 474.71,300.36 475.07,300.24 C475.43,300.12 475.79,300.01 476.15,299.90 C476.51,299.79 476.87,299.75 477.23,299.59 C477.59,299.43 477.95,299.13 478.31,298.94 C478.67,298.74 479.03,298.56 479.39,298.41 C479.75,298.26 480.11,298.17 480.47,298.04 C480.83,297.90 481.19,297.74 481.55,297.60 C481.91,297.47 482.27,297.35 482.63,297.23 C482.99,297.11 483.35,296.99 483.72,296.89 C484.08,296.79 484.44,296.74 484.80,296.64 C485.16,296.54 485.52,296.41 485.88,296.30 C486.24,296.19 486.60,296.09 486.96,295.96 C487.32,295.82 487.68,295.61 488.04,295.49 C488.40,295.37 488.76,295.33 489.12,295.25 C489.48,295.16 489.84,295.06 490.20,294.97 C490.56,294.87 490.92,294.81 491.28,294.69 C491.64,294.56 492.00,294.34 492.36,294.22 C492.72,294.11 493.08,294.11 493.44,294.00 C493.80,293.90 494.16,293.70 494.52,293.57 C494.88,293.44 495.24,293.36 495.60,293.23 C495.96,293.09 496.32,292.90 496.68,292.76 C497.04,292.62 497.40,292.47 497.76,292.39 C498.12,292.31 498.48,292.38 498.84,292.14 C499.20,291.91 499.56,290.91 499.92,290.53 C500.28,290.15 500.64,290.03 501.00,289.85 C501.36,289.66 501.72,289.58 502.08,289.41 C502.44,289.24 502.80,289.03 503.16,288.82 C503.52,288.62 503.88,288.38 504.24,288.17 C504.60,287.96 504.96,287.63 505.32,287.55 C505.68,287.47 506.04,287.51 506.40,287.46 C506.76,287.41 507.12,287.20 507.48,287.09 C507.84,286.97 508.20,286.88 508.56,286.78 C508.92,286.67 509.28,286.53 509.64,286.43 C510.00,286.34 510.36,286.29 510.72,286.19 C511.08,286.08 511.44,285.94 511.80,285.81 C512.16,285.69 512.52,285.58 512.88,285.44 C513.24,285.31 513.60,285.15 513.96,285.01 C514.32,284.86 514.68,284.72 515.04,284.57 C515.40,284.42 515.76,284.23 516.12,284.11 C516.48,283.98 516.84,283.96 517.20,283.83 C517.56,283.70 517.92,283.50 518.28,283.33 C518.65,283.17 519.01,283.03 519.37,282.84 C519.73,282.64 520.09,282.37 520.45,282.18 C520.81,282.00 521.17,281.88 521.53,281.72 C521.89,281.56 522.25,281.34 522.61,281.22 C522.97,281.10 523.33,281.09 523.69,281.01 C524.05,280.92 524.41,280.85 524.77,280.70 C525.13,280.55 525.49,280.29 525.85,280.11 C526.21,279.92 526.57,279.70 526.93,279.58 C527.29,279.46 527.65,279.49 528.01,279.39 C528.37,279.30 528.73,279.13 529.09,279.02 C529.45,278.91 529.81,278.94 530.17,278.74 C530.53,278.54 530.89,278.06 531.25,277.81 C531.61,277.56 531.97,277.57 532.33,277.22 C532.69,276.87 533.05,276.18 533.41,275.73 C533.77,275.29 534.13,274.84 534.49,274.55 C534.85,274.26 535.21,274.20 535.57,273.99 C535.93,273.79 536.29,273.54 536.65,273.34 C537.01,273.15 537.37,272.97 537.73,272.82 C538.09,272.67 538.45,272.56 538.81,272.44 C539.17,272.32 539.53,272.22 539.89,272.10 C540.25,271.98 540.61,271.89 540.97,271.73 C541.33,271.58 541.69,271.33 542.05,271.17 C542.41,271.01 542.77,270.92 543.13,270.77 C543.49,270.62 543.85,270.30 544.21,270.27 C544.57,270.24 544.93,270.25 545.29,270.24 C545.65,270.23 546.01,270.17 546.37,270.05 C546.73,269.94 547.09,269.69 547.45,269.56 C547.81,269.43 548.17,269.39 548.53,269.28 C548.89,269.17 549.25,268.99 549.61,268.88 C549.97,268.76 550.33,268.70 550.69,268.60 C551.05,268.50 551.41,268.43 551.77,268.29 C552.13,268.15 552.49,267.91 552.85,267.76 C553.22,267.61 553.58,267.49 553.94,267.39 C554.30,267.28 554.66,267.23 555.02,267.14 C555.38,267.05 555.74,267.00 556.10,266.86 C556.46,266.72 556.82,266.44 557.18,266.30 C557.54,266.17 557.90,266.14 558.26,266.05 C558.62,265.97 558.98,265.87 559.34,265.77 C559.70,265.68 560.06,265.57 560.42,265.49 C560.78,265.42 561.14,265.44 561.50,265.34 C561.86,265.24 562.22,265.03 562.58,264.91 C562.94,264.78 563.30,264.68 563.66,264.56 C564.02,264.45 564.38,264.33 564.74,264.22 C565.10,264.11 565.46,264.04 565.82,263.91 C566.18,263.79 566.54,263.61 566.90,263.48 C567.26,263.35 567.62,263.28 567.98,263.14 C568.34,262.99 568.70,262.78 569.06,262.61 C569.42,262.44 569.78,262.27 570.14,262.14 C570.50,262.02 570.86,261.98 571.22,261.87 C571.58,261.75 571.94,261.59 572.30,261.46 C572.66,261.34 573.02,261.25 573.38,261.12 C573.74,260.99 574.10,260.78 574.46,260.69 C574.82,260.59 575.18,260.64 575.54,260.56 C575.90,260.48 576.26,260.31 576.62,260.19 C576.98,260.07 577.34,259.98 577.70,259.85 C578.06,259.72 578.42,259.54 578.78,259.41 C579.14,259.29 579.50,259.21 579.86,259.10 C580.22,259.00 580.58,258.89 580.94,258.79 C581.30,258.70 581.66,258.61 582.02,258.55 C582.38,258.48 582.74,258.49 583.10,258.42 C583.46,258.35 583.82,258.19 584.18,258.11 C584.54,258.03 584.90,258.04 585.26,257.96 C585.62,257.87 585.98,257.73 586.34,257.62 C586.70,257.50 587.06,257.45 587.42,257.27 C587.78,257.10 588.15,256.95 588.51,256.56 C588.87,256.17 589.23,255.37 589.59,254.95 C589.95,254.52 590.31,254.24 590.67,254.02 C591.03,253.79 591.39,253.74 591.75,253.58 C592.11,253.43 592.47,253.24 592.83,253.09 C593.19,252.93 593.55,252.79 593.91,252.65 C594.27,252.52 594.63,252.38 594.99,252.28 C595.35,252.18 595.71,252.15 596.07,252.06 C596.43,251.97 596.79,251.85 597.15,251.75 C597.51,251.65 597.87,251.60 598.23,251.47 C598.59,251.35 598.95,251.16 599.31,251.01 C599.67,250.86 600.03,250.78 600.39,250.57 C600.75,250.37 601.11,250.00 601.47,249.77 C601.83,249.53 602.19,249.33 602.55,249.18 C602.91,249.03 603.27,248.94 603.63,248.87 C603.99,248.79 604.35,248.79 604.71,248.71 C605.07,248.63 605.43,248.54 605.79,248.40 C606.15,248.27 606.51,248.04 606.87,247.91 C607.23,247.77 607.59,247.71 607.95,247.56 C608.31,247.42 608.67,247.18 609.03,247.04 C609.39,246.89 609.75,246.81 610.11,246.70 C610.47,246.58 610.83,246.46 611.19,246.32 C611.55,246.19 611.91,246.02 612.27,245.89 C612.63,245.76 612.99,245.87 613.35,245.52 C613.71,245.17 614.07,244.09 614.43,243.69 C614.79,243.28 615.15,243.36 615.51,243.10 C615.87,242.83 616.23,242.39 616.59,242.10 C616.95,241.82 617.31,241.60 617.67,241.39 C618.03,241.18 618.39,241.00 618.75,240.83 C619.11,240.67 619.47,240.54 619.83,240.40 C620.19,240.25 620.55,240.11 620.91,239.96 C621.27,239.82 621.63,239.64 621.99,239.53 C622.35,239.42 622.72,239.44 623.08,239.31 C623.44,239.19 623.80,238.94 624.16,238.78 C624.52,238.63 624.88,238.52 625.24,238.38 C625.60,238.24 625.96,238.09 626.32,237.95 C626.68,237.80 627.04,237.70 627.40,237.51 C627.76,237.33 628.12,237.03 628.48,236.83 C628.84,236.63 629.20,236.54 629.56,236.33 C629.92,236.13 630.28,235.87 630.64,235.62 C631.00,235.37 631.36,235.04 631.72,234.84 C632.08,234.65 632.44,234.59 632.80,234.44 C633.16,234.30 633.52,234.12 633.88,233.98 C634.24,233.84 634.60,233.76 634.96,233.60 C635.32,233.45 635.68,233.27 636.04,233.05 C636.40,232.82 636.76,232.48 637.12,232.24 C637.48,232.00 637.84,231.83 638.20,231.62 C638.56,231.41 638.92,231.20 639.28,231.00 C639.64,230.79 640.00,230.49 640.36,230.38 C640.72,230.26 641.08,230.32 641.44,230.22 C641.80,230.12 642.16,229.84 642.52,229.70 C642.88,229.55 643.24,229.49 643.60,229.32 C643.96,229.15 644.32,228.85 644.68,228.67 C645.04,228.50 645.40,228.42 645.76,228.27 C646.12,228.11 646.48,227.89 646.84,227.74 C647.20,227.60 647.56,227.60 647.92,227.40 C648.28,227.20 648.64,226.83 649.00,226.56 C649.36,226.30 649.72,226.03 650.08,225.82 C650.44,225.60 650.80,225.47 651.16,225.26 C651.52,225.05 651.88,224.77 652.24,224.58 C652.60,224.39 652.96,224.24 653.32,224.11 C653.68,223.98 654.04,223.92 654.40,223.80 C654.76,223.68 655.12,223.55 655.48,223.40 C655.84,223.25 656.20,223.08 656.56,222.90 C656.92,222.73 657.28,222.56 657.65,222.34 C658.01,222.13 658.37,221.80 658.73,221.60 C659.09,221.40 659.45,221.33 659.81,221.13 C660.17,220.94 660.53,220.64 660.89,220.42 C661.25,220.20 661.61,220.04 661.97,219.80 C662.33,219.56 662.69,219.29 663.05,218.99 C663.41,218.70 663.77,218.30 664.13,218.03 C664.49,217.76 664.85,217.56 665.21,217.35 C665.57,217.14 665.93,216.98 666.29,216.76 C666.65,216.54 667.01,216.23 667.37,216.01 C667.73,215.80 668.09,215.67 668.45,215.49 C668.81,215.30 669.17,215.08 669.53,214.90 C669.89,214.71 670.25,214.54 670.61,214.37 C670.97,214.20 671.33,214.07 671.69,213.90 C672.05,213.74 672.41,213.62 672.77,213.38 C673.13,213.13 673.49,212.71 673.85,212.45 C674.21,212.19 674.57,212.00 674.93,211.83 C675.29,211.66 675.65,211.56 676.01,211.42 C676.37,211.28 676.73,211.15 677.09,210.99 C677.45,210.82 677.81,210.58 678.17,210.43 C678.53,210.28 678.89,210.18 679.25,210.09 C679.61,210.00 679.97,210.00 680.33,209.90 C680.69,209.80 681.05,209.66 681.41,209.50 C681.77,209.34 682.13,209.10 682.49,208.94 C682.85,208.79 683.21,208.78 683.57,208.57 C683.93,208.36 684.29,207.92 684.65,207.70 C685.01,207.48 685.37,207.46 685.73,207.27 C686.09,207.07 686.45,206.83 686.81,206.52 C687.17,206.21 687.53,205.79 687.89,205.40 C688.25,205.02 688.61,204.59 688.97,204.23 C689.33,203.86 689.69,203.52 690.05,203.23 C690.41,202.95 690.77,202.77 691.13,202.52 C691.49,202.27 691.85,201.98 692.22,201.74 C692.58,201.51 692.94,201.29 693.30,201.09 C693.66,200.89 694.02,200.72 694.38,200.53 C694.74,200.35 695.10,200.18 695.46,199.98 C695.82,199.77 696.18,199.52 696.54,199.32 C696.90,199.13 697.26,198.97 697.62,198.83 C697.98,198.68 698.34,198.58 698.70,198.46 C699.06,198.33 699.42,198.30 699.78,198.08 C700.14,197.87 700.50,197.49 700.86,197.18 C701.22,196.88 701.58,196.48 701.94,196.25 C702.30,196.03 702.66,195.97 703.02,195.85 C703.38,195.73 703.74,195.63 704.10,195.51 C704.46,195.38 704.82,195.33 705.18,195.11 C705.54,194.88 705.90,194.57 706.26,194.17 C706.62,193.78 706.98,193.06 707.34,192.72 C707.70,192.38 708.06,192.35 708.42,192.13 C708.78,191.90 709.14,191.56 709.50,191.38 C709.86,191.20 710.22,191.16 710.58,191.04 C710.94,190.93 711.30,190.82 711.66,190.70 C712.02,190.58 712.38,190.44 712.74,190.33 C713.10,190.22 713.46,190.16 713.82,190.05 C714.18,189.93 714.54,189.80 714.90,189.65 C715.26,189.49 715.62,189.30 715.98,189.12 C716.34,188.94 716.70,188.74 717.06,188.56 C717.42,188.38 717.78,188.20 718.14,188.06 C718.50,187.93 718.86,187.94 719.22,187.75 C719.58,187.56 719.94,187.14 720.30,186.92 C720.66,186.69 721.02,186.57 721.38,186.39 C721.74,186.20 722.10,185.96 722.46,185.80 C722.82,185.63 723.18,185.54 723.54,185.40 C723.90,185.25 724.26,185.11 724.62,184.93 C724.98,184.75 725.34,184.50 725.70,184.31 C726.06,184.12 726.42,184.00 726.78,183.81 C727.15,183.63 727.51,183.40 727.87,183.19 C728.23,182.98 728.59,182.71 728.95,182.54 C729.31,182.38 729.67,182.34 730.03,182.20 C730.39,182.06 730.75,181.86 731.11,181.67 C731.47,181.49 731.83,181.26 732.19,181.08 C732.55,180.90 732.91,180.73 733.27,180.59 C733.63,180.44 733.99,180.39 734.35,180.21 C734.71,180.04 735.07,179.70 735.43,179.53 C735.79,179.37 736.15,179.38 736.51,179.22 C736.87,179.07 737.23,178.84 737.59,178.60 C737.95,178.36 738.31,178.04 738.67,177.79 C739.03,177.55 739.39,177.37 739.75,177.14 C740.11,176.92 740.47,176.71 740.83,176.46 C741.19,176.21 741.55,175.87 741.91,175.65 C742.27,175.44 742.63,175.31 742.99,175.19 C743.35,175.07 743.71,175.09 744.07,174.94 C744.43,174.80 744.79,174.48 745.15,174.32 C745.51,174.16 745.87,174.09 746.23,173.98 C746.59,173.87 746.95,173.80 747.31,173.67 C747.67,173.53 748.03,173.49 748.39,173.17 C748.75,172.85 749.11,172.23 749.47,171.75 C749.83,171.26 750.19,170.76 750.55,170.26 C750.91,169.75 751.27,169.26 751.63,168.71 C751.99,168.15 752.35,167.61 752.71,166.94 C753.07,166.26 753.43,165.28 753.79,164.64 C754.15,164.00 754.51,163.63 754.87,163.09 C755.23,162.55 755.59,161.94 755.95,161.42 C756.31,160.89 756.67,160.32 757.03,159.93 C757.39,159.53 757.75,159.40 758.11,159.06 C758.47,158.72 758.83,158.22 759.19,157.88 C759.55,157.53 759.91,157.24 760.27,156.98 C760.63,156.72 760.99,156.59 761.35,156.33 C761.72,156.06 762.08,155.69 762.44,155.40 C762.80,155.11 763.16,154.83 763.52,154.59 C763.88,154.35 764.24,154.20 764.60,153.94 C764.96,153.68 765.32,153.29 765.68,153.01 C766.04,152.72 766.40,152.54 766.76,152.23 C767.12,151.92 767.48,151.51 767.84,151.15 C768.20,150.78 768.56,150.39 768.92,150.06 C769.28,149.73 769.64,149.42 770.00,149.16 C770.36,148.90 770.72,148.73 771.08,148.51 C771.44,148.29 771.80,148.12 772.16,147.86 C772.52,147.60 772.88,147.26 773.24,146.96 C773.60,146.66 773.96,146.31 774.32,146.06 C774.68,145.81 775.04,145.69 775.40,145.44 C775.76,145.19 776.12,144.79 776.48,144.54 C776.84,144.29 777.20,144.14 777.56,143.95 C777.92,143.76 778.28,143.56 778.64,143.42 C779.00,143.28 779.36,143.23 779.72,143.11 C780.08,142.99 780.44,142.86 780.80,142.71 C781.16,142.56 781.52,142.39 781.88,142.21 C782.24,142.03 782.60,141.82 782.96,141.62 C783.32,141.42 783.68,141.23 784.04,141.00 C784.40,140.77 784.76,140.52 785.12,140.26 C785.48,140.00 785.84,139.68 786.20,139.45 C786.56,139.22 786.92,139.08 787.28,138.89 C787.64,138.71 788.00,138.55 788.36,138.33 C788.72,138.12 789.08,137.87 789.44,137.62 C789.80,137.37 790.16,137.07 790.52,136.85 C790.88,136.62 791.24,136.45 791.60,136.26 C791.96,136.06 792.32,135.87 792.68,135.70 C793.04,135.53 793.40,135.50 793.76,135.23 C794.12,134.96 794.48,134.36 794.84,134.08 C795.20,133.81 795.56,133.75 795.92,133.56 C796.28,133.36 796.65,133.12 797.01,132.91 C797.37,132.69 797.73,132.48 798.09,132.25 C798.45,132.03 798.81,131.80 799.17,131.57 C799.53,131.34 799.89,131.13 800.25,130.86 C800.61,130.59 800.97,130.23 801.33,129.96 C801.69,129.68 802.05,129.44 802.41,129.21 C802.77,128.99 803.13,128.76 803.49,128.59 C803.85,128.42 804.21,128.34 804.57,128.19 C804.93,128.04 805.29,127.87 805.65,127.69 C806.01,127.52 806.37,127.32 806.73,127.14 C807.09,126.95 807.45,126.77 807.81,126.58 C808.17,126.38 808.53,126.12 808.89,125.96 C809.25,125.80 809.61,125.73 809.97,125.62 C810.33,125.50 810.69,125.38 811.05,125.24 C811.41,125.11 811.77,124.98 812.13,124.81 C812.49,124.63 812.85,124.36 813.21,124.19 C813.57,124.02 813.93,123.97 814.29,123.79 C814.65,123.60 815.01,123.27 815.37,123.07 C815.73,122.87 816.09,122.75 816.45,122.58 C816.81,122.40 817.17,122.17 817.53,122.02 C817.89,121.87 818.25,121.80 818.61,121.68 C818.97,121.55 819.33,121.39 819.69,121.27 C820.05,121.16 820.41,121.14 820.77,120.99 C821.13,120.85 821.49,120.55 821.85,120.40 C822.21,120.26 822.57,120.25 822.93,120.12 C823.29,120.00 823.65,119.81 824.01,119.66 C824.37,119.50 824.73,119.33 825.09,119.19 C825.45,119.06 825.81,118.99 826.17,118.85 C826.53,118.72 826.89,118.52 827.25,118.39 C827.61,118.26 827.97,118.22 828.33,118.08 C828.69,117.94 829.05,117.70 829.41,117.55 C829.77,117.39 830.13,117.28 830.49,117.15 C830.85,117.01 831.22,116.88 831.58,116.74 C831.94,116.60 832.30,116.46 832.66,116.31 C833.02,116.15 833.38,116.00 833.74,115.81 C834.10,115.62 834.46,115.34 834.82,115.16 C835.18,114.99 835.54,114.91 835.90,114.76 C836.26,114.60 836.62,114.39 836.98,114.23 C837.34,114.08 837.70,113.93 838.06,113.83 C838.42,113.73 838.78,113.78 839.14,113.64 C839.50,113.51 839.86,113.19 840.22,113.02 C840.58,112.85 840.94,112.74 841.30,112.62 C841.66,112.49 842.02,112.40 842.38,112.28 C842.74,112.15 843.10,112.06 843.46,111.87 C843.82,111.68 844.18,111.32 844.54,111.13 C844.90,110.93 845.26,110.84 845.62,110.69 C845.98,110.54 846.34,110.35 846.70,110.23 C847.06,110.10 847.42,110.02 847.78,109.95 C848.14,109.88 848.50,109.86 848.86,109.79 C849.22,109.73 849.58,109.64 849.94,109.55 C850.30,109.45 850.66,109.32 851.02,109.20 C851.38,109.09 851.74,108.95 852.10,108.83 C852.46,108.72 852.82,108.63 853.18,108.52 C853.54,108.41 853.90,108.28 854.26,108.18 C854.62,108.08 854.98,108.03 855.34,107.90 C855.70,107.77 856.06,107.52 856.42,107.41 C856.78,107.29 857.14,107.27 857.50,107.19 C857.86,107.11 858.22,107.03 858.58,106.94 C858.94,106.85 859.30,106.77 859.66,106.66 C860.02,106.55 860.38,106.41 860.74,106.26 C861.10,106.10 861.46,105.89 861.82,105.73 C862.18,105.58 862.54,105.45 862.90,105.33 C863.26,105.21 863.62,105.13 863.98,105.02 C864.34,104.90 864.70,104.76 865.06,104.64 C865.42,104.53 865.78,104.42 866.15,104.30 C866.51,104.19 866.87,104.09 867.23,103.96 C867.59,103.84 867.95,103.67 868.31,103.56 C868.67,103.44 869.03,103.37 869.39,103.28 C869.75,103.19 870.11,103.11 870.47,103.00 C870.83,102.89 871.19,102.73 871.55,102.63 C871.91,102.52 872.27,102.47 872.63,102.38 C872.99,102.29 873.35,102.18 873.71,102.10 C874.07,102.02 874.43,101.98 874.79,101.88 C875.15,101.79 875.51,101.71 875.87,101.54 C876.23,101.37 876.59,101.02 876.95,100.86 C877.31,100.70 877.67,100.65 878.03,100.58 C878.39,100.51 878.75,100.49 879.11,100.43 C879.47,100.36 879.83,100.31 880.19,100.21 C880.55,100.11 880.91,99.94 881.27,99.84 C881.63,99.73 881.99,99.69 882.35,99.59 C882.71,99.49 883.07,99.37 883.43,99.25 C883.79,99.13 884.15,99.01 884.51,98.87 C884.87,98.73 885.23,98.54 885.59,98.41 C885.95,98.27 886.31,98.21 886.67,98.07 C887.03,97.92 887.39,97.71 887.75,97.54 C888.11,97.37 888.47,97.21 888.83,97.07 C889.19,96.94 889.55,96.89 889.91,96.73 C890.27,96.58 890.63,96.31 890.99,96.14 C891.35,95.98 891.71,95.86 892.07,95.74 C892.43,95.62 892.79,95.51 893.15,95.43 C893.51,95.35 893.87,95.37 894.23,95.28 C894.59,95.18 894.95,95.01 895.31,94.87 C895.67,94.73 896.03,94.61 896.39,94.44 C896.75,94.27 897.11,94.05 897.47,93.85 C897.83,93.65 898.19,93.42 898.55,93.26 C898.91,93.09 899.27,92.99 899.63,92.86 C899.99,92.72 900.35,92.57 900.72,92.45 C901.08,92.33 901.44,92.30 901.80,92.14 C902.16,91.99 902.52,91.68 902.88,91.52 C903.24,91.36 903.60,91.33 903.96,91.18 C904.32,91.03 904.68,90.77 905.04,90.62 C905.40,90.47 905.76,90.42 906.12,90.28 C906.48,90.15 906.84,90.00 907.20,89.82 C907.56,89.63 907.92,89.36 908.28,89.20 C908.64,89.03 909.00,88.94 909.36,88.82 C909.72,88.71 910.08,88.65 910.44,88.51 C910.80,88.38 911.16,88.16 911.52,88.02 C911.88,87.88 912.24,87.79 912.60,87.68 C912.96,87.56 913.32,87.46 913.68,87.30 C914.04,87.15 914.40,86.91 914.76,86.74 C915.12,86.58 915.48,86.42 915.84,86.31 C916.20,86.20 916.56,86.11 916.92,86.06 C917.28,86.01 917.64,86.02 918.00,86.00 L918.00,418.00 L84.00,418.00 Z" fill="#0969da" opacity="0.12" />
    <path d="M84.00,417.78 C84.36,417.69 84.72,417.61 85.08,417.50 C85.44,417.40 85.80,417.26 86.16,417.16 C86.52,417.06 86.88,416.95 87.24,416.91 C87.60,416.88 87.96,416.91 88.32,416.82 C88.68,416.74 89.04,416.31 89.40,416.17 C89.76,416.02 90.12,416.01 90.48,415.95 C90.84,415.90 91.20,415.89 91.56,415.83 C91.92,415.77 92.28,415.65 92.64,415.61 C93.00,415.57 93.36,415.60 93.72,415.49 C94.08,415.37 94.44,414.83 94.80,414.59 C95.16,414.34 95.52,414.21 95.88,414.03 C96.24,413.85 96.60,413.63 96.96,413.50 C97.32,413.37 97.68,413.34 98.04,413.25 C98.40,413.17 98.76,413.04 99.12,412.97 C99.48,412.91 99.84,412.90 100.20,412.85 C100.56,412.80 100.92,412.76 101.28,412.70 C101.65,412.63 102.01,412.51 102.37,412.45 C102.73,412.38 103.09,412.36 103.45,412.32 C103.81,412.28 104.17,412.30 104.53,412.20 C104.89,412.10 105.25,411.84 105.61,411.70 C105.97,411.56 106.33,411.47 106.69,411.36 C107.05,411.25 107.41,411.13 107.77,411.05 C108.13,410.97 108.49,410.96 108.85,410.90 C109.21,410.83 109.57,410.74 109.93,410.68 C110.29,410.62 110.65,410.59 111.01,410.55 C111.37,410.52 111.73,410.54 112.09,410.46 C112.45,410.38 112.81,410.18 113.17,410.09 C113.53,410.00 113.89,409.98 114.25,409.93 C114.61,409.89 114.97,409.85 115.33,409.81 C115.69,409.77 116.05,409.75 116.41,409.72 C116.77,409.68 117.13,409.67 117.49,409.59 C117.85,409.52 118.21,409.35 118.57,409.28 C118.93,409.22 119.29,409.26 119.65,409.19 C120.01,409.12 120.37,408.95 120.73,408.88 C121.09,408.81 121.45,408.78 121.81,408.76 C122.17,408.73 122.53,408.74 122.89,408.72 C123.25,408.70 123.61,408.65 123.97,408.63 C124.33,408.62 124.69,408.63 125.05,408.54 C125.41,408.45 125.77,407.79 126.13,407.51 C126.49,407.24 126.85,407.06 127.21,406.89 C127.57,406.72 127.93,406.55 128.29,406.49 C128.65,406.43 129.01,406.45 129.37,406.43 C129.73,406.40 130.09,406.36 130.45,406.27 C130.81,406.19 131.17,406.03 131.53,405.90 C131.89,405.78 132.25,405.63 132.61,405.53 C132.97,405.43 133.33,405.38 133.69,405.28 C134.05,405.18 134.41,405.12 134.77,404.91 C135.13,404.70 135.49,404.22 135.85,404.01 C136.22,403.80 136.58,403.71 136.94,403.67 C137.30,403.63 137.66,403.66 138.02,403.54 C138.38,403.43 138.74,402.60 139.10,402.36 C139.46,402.13 139.82,402.20 140.18,402.12 C140.54,402.03 140.90,401.92 141.26,401.84 C141.62,401.75 141.98,401.68 142.34,401.62 C142.70,401.56 143.06,401.51 143.42,401.47 C143.78,401.42 144.14,401.39 144.50,401.34 C144.86,401.29 145.22,401.22 145.58,401.15 C145.94,401.09 146.30,401.04 146.66,400.97 C147.02,400.90 147.38,400.81 147.74,400.75 C148.10,400.69 148.46,400.71 148.82,400.63 C149.18,400.55 149.54,400.44 149.90,400.29 C150.26,400.13 150.62,399.86 150.98,399.70 C151.34,399.53 151.70,399.40 152.06,399.29 C152.42,399.19 152.78,399.14 153.14,399.05 C153.50,398.95 153.86,398.79 154.22,398.70 C154.58,398.62 154.94,398.58 155.30,398.52 C155.66,398.46 156.02,398.40 156.38,398.33 C156.74,398.26 157.10,398.18 157.46,398.11 C157.82,398.05 158.18,397.98 158.54,397.93 C158.90,397.88 159.26,397.85 159.62,397.80 C159.98,397.76 160.34,397.70 160.70,397.65 C161.06,397.60 161.42,397.55 161.78,397.49 C162.14,397.44 162.50,397.41 162.86,397.34 C163.22,397.27 163.58,397.19 163.94,397.09 C164.30,396.99 164.66,396.85 165.02,396.75 C165.38,396.65 165.74,396.56 166.10,396.47 C166.46,396.38 166.82,396.44 167.18,396.22 C167.54,396.00 167.90,395.43 168.26,395.14 C168.62,394.84 168.98,394.61 169.34,394.45 C169.70,394.29 170.06,394.27 170.42,394.17 C170.78,394.08 171.15,393.97 171.51,393.90 C171.87,393.82 172.23,393.77 172.59,393.71 C172.95,393.65 173.31,393.63 173.67,393.55 C174.03,393.48 174.39,393.36 174.75,393.24 C175.11,393.13 175.47,392.94 175.83,392.84 C176.19,392.74 176.55,392.73 176.91,392.65 C177.27,392.58 177.63,392.47 177.99,392.38 C178.35,392.28 178.71,392.18 179.07,392.10 C179.43,392.01 179.79,391.96 180.15,391.88 C180.51,391.80 180.87,391.69 181.23,391.60 C181.59,391.51 181.95,391.40 182.31,391.32 C182.67,391.24 183.03,391.18 183.39,391.10 C183.75,391.03 184.11,390.94 184.47,390.86 C184.83,390.77 185.19,390.67 185.55,390.58 C185.91,390.48 186.27,390.33 186.63,390.27 C186.99,390.21 187.35,390.24 187.71,390.17 C188.07,390.10 188.43,389.98 188.79,389.80 C189.15,389.62 189.51,389.24 189.87,389.09 C190.23,388.94 190.59,388.98 190.95,388.90 C191.31,388.82 191.67,388.73 192.03,388.62 C192.39,388.52 192.75,388.45 193.11,388.28 C193.47,388.12 193.83,387.78 194.19,387.63 C194.55,387.48 194.91,387.48 195.27,387.38 C195.63,387.28 195.99,387.15 196.35,387.04 C196.71,386.93 197.07,386.80 197.43,386.73 C197.79,386.66 198.15,386.67 198.51,386.61 C198.87,386.54 199.23,386.46 199.59,386.36 C199.95,386.25 200.31,386.07 200.67,385.99 C201.03,385.90 201.39,385.90 201.75,385.83 C202.11,385.76 202.47,385.69 202.83,385.58 C203.19,385.48 203.55,385.28 203.91,385.21 C204.27,385.14 204.63,385.18 204.99,385.12 C205.35,385.06 205.72,384.89 206.08,384.81 C206.44,384.72 206.80,384.70 207.16,384.62 C207.52,384.54 207.88,384.42 208.24,384.34 C208.60,384.26 208.96,384.22 209.32,384.12 C209.68,384.03 210.04,383.88 210.40,383.78 C210.76,383.69 211.12,383.63 211.48,383.57 C211.84,383.50 212.20,383.49 212.56,383.41 C212.92,383.33 213.28,383.18 213.64,383.10 C214.00,383.02 214.36,383.03 214.72,382.94 C215.08,382.86 215.44,382.70 215.80,382.60 C216.16,382.51 216.52,382.48 216.88,382.39 C217.24,382.29 217.60,382.18 217.96,382.05 C218.32,381.91 218.68,381.70 219.04,381.58 C219.40,381.46 219.76,381.39 220.12,381.30 C220.48,381.21 220.84,381.14 221.20,381.05 C221.56,380.96 221.92,380.89 222.28,380.77 C222.64,380.65 223.00,380.45 223.36,380.34 C223.72,380.23 224.08,380.15 224.44,380.09 C224.80,380.03 225.16,380.03 225.52,379.97 C225.88,379.90 226.24,379.78 226.60,379.69 C226.96,379.59 227.32,379.53 227.68,379.41 C228.04,379.29 228.40,379.05 228.76,378.97 C229.12,378.90 229.48,378.95 229.84,378.82 C230.20,378.68 230.56,378.16 230.92,377.92 C231.28,377.68 231.64,377.58 232.00,377.36 C232.36,377.14 232.72,376.77 233.08,376.62 C233.44,376.46 233.80,376.53 234.16,376.43 C234.52,376.33 234.88,376.13 235.24,376.00 C235.60,375.87 235.96,375.76 236.32,375.65 C236.68,375.55 237.04,375.44 237.40,375.34 C237.76,375.25 238.12,375.18 238.48,375.07 C238.84,374.95 239.20,374.79 239.56,374.63 C239.92,374.48 240.28,374.28 240.65,374.13 C241.01,373.98 241.37,373.86 241.73,373.73 C242.09,373.60 242.45,373.49 242.81,373.36 C243.17,373.22 243.53,373.04 243.89,372.92 C244.25,372.81 244.61,372.74 244.97,372.65 C245.33,372.55 245.69,372.44 246.05,372.34 C246.41,372.23 246.77,372.12 247.13,372.03 C247.49,371.93 247.85,371.85 248.21,371.75 C248.57,371.64 248.93,371.53 249.29,371.40 C249.65,371.28 250.01,371.12 250.37,371.00 C250.73,370.89 251.09,370.79 251.45,370.72 C251.81,370.65 252.17,370.64 252.53,370.60 C252.89,370.55 253.25,370.50 253.61,370.44 C253.97,370.39 254.33,370.33 254.69,370.26 C255.05,370.18 255.41,370.13 255.77,370.01 C256.13,369.88 256.49,369.64 256.85,369.51 C257.21,369.39 257.57,369.37 257.93,369.26 C258.29,369.16 258.65,368.98 259.01,368.86 C259.37,368.74 259.73,368.65 260.09,368.55 C260.45,368.45 260.81,368.42 261.17,368.27 C261.53,368.12 261.89,367.82 262.25,367.65 C262.61,367.48 262.97,367.37 263.33,367.25 C263.69,367.13 264.05,367.22 264.41,366.94 C264.77,366.66 265.13,365.92 265.49,365.57 C265.85,365.23 266.21,365.03 266.57,364.86 C266.93,364.68 267.29,364.67 267.65,364.52 C268.01,364.36 268.37,364.08 268.73,363.93 C269.09,363.77 269.45,363.69 269.81,363.59 C270.17,363.49 270.53,363.41 270.89,363.34 C271.25,363.27 271.61,363.24 271.97,363.18 C272.33,363.13 272.69,363.10 273.05,363.03 C273.41,362.96 273.77,362.86 274.13,362.78 C274.49,362.70 274.85,362.73 275.22,362.53 C275.58,362.34 275.94,361.78 276.30,361.60 C276.66,361.43 277.02,361.51 277.38,361.38 C277.74,361.26 278.10,360.94 278.46,360.76 C278.82,360.58 279.18,360.47 279.54,360.30 C279.90,360.13 280.26,359.93 280.62,359.74 C280.98,359.55 281.34,359.32 281.70,359.15 C282.06,358.98 282.42,358.82 282.78,358.72 C283.14,358.61 283.50,358.61 283.86,358.53 C284.22,358.45 284.58,358.39 284.94,358.22 C285.30,358.05 285.66,357.79 286.02,357.54 C286.38,357.29 286.74,356.94 287.10,356.73 C287.46,356.52 287.82,356.45 288.18,356.30 C288.54,356.15 288.90,355.97 289.26,355.83 C289.62,355.70 289.98,355.62 290.34,355.49 C290.70,355.36 291.06,355.17 291.42,355.06 C291.78,354.94 292.14,354.90 292.50,354.81 C292.86,354.71 293.22,354.57 293.58,354.50 C293.94,354.43 294.30,354.49 294.66,354.25 C295.02,354.01 295.38,352.98 295.74,352.64 C296.10,352.29 296.46,352.33 296.82,352.17 C297.18,352.01 297.54,351.94 297.90,351.67 C298.26,351.41 298.62,350.86 298.98,350.56 C299.34,350.25 299.70,350.05 300.06,349.84 C300.42,349.64 300.78,349.53 301.14,349.35 C301.50,349.16 301.86,348.88 302.22,348.73 C302.58,348.57 302.94,348.53 303.30,348.42 C303.66,348.31 304.02,348.21 304.38,348.08 C304.74,347.94 305.10,347.78 305.46,347.61 C305.82,347.45 306.18,347.27 306.54,347.08 C306.90,346.90 307.26,346.70 307.62,346.49 C307.98,346.29 308.34,346.03 308.70,345.87 C309.06,345.72 309.42,345.66 309.78,345.56 C310.15,345.46 310.51,345.40 310.87,345.28 C311.23,345.16 311.59,345.03 311.95,344.85 C312.31,344.67 312.67,344.39 313.03,344.23 C313.39,344.06 313.75,344.04 314.11,343.86 C314.47,343.67 314.83,343.34 315.19,343.11 C315.55,342.88 315.91,342.69 316.27,342.49 C316.63,342.29 316.99,342.11 317.35,341.90 C317.71,341.70 318.07,341.43 318.43,341.25 C318.79,341.07 319.15,340.94 319.51,340.82 C319.87,340.69 320.23,340.60 320.59,340.51 C320.95,340.41 321.31,340.34 321.67,340.23 C322.03,340.11 322.39,339.97 322.75,339.82 C323.11,339.68 323.47,339.48 323.83,339.36 C324.19,339.24 324.55,339.24 324.91,339.11 C325.27,338.98 325.63,338.72 325.99,338.58 C326.35,338.44 326.71,338.37 327.07,338.27 C327.43,338.17 327.79,338.12 328.15,337.99 C328.51,337.86 328.87,337.70 329.23,337.50 C329.59,337.30 329.95,336.98 330.31,336.78 C330.67,336.59 331.03,336.46 331.39,336.32 C331.75,336.17 332.11,336.04 332.47,335.92 C332.83,335.79 333.19,335.65 333.55,335.54 C333.91,335.44 334.27,335.40 334.63,335.29 C334.99,335.19 335.35,335.01 335.71,334.89 C336.07,334.78 336.43,334.70 336.79,334.61 C337.15,334.52 337.51,334.46 337.87,334.36 C338.23,334.27 338.59,334.15 338.95,334.05 C339.31,333.96 339.67,333.88 340.03,333.81 C340.39,333.73 340.75,333.66 341.11,333.59 C341.47,333.52 341.83,333.49 342.19,333.40 C342.55,333.32 342.91,333.19 343.27,333.09 C343.63,332.99 343.99,332.91 344.35,332.81 C344.72,332.71 345.08,332.62 345.44,332.50 C345.80,332.39 346.16,332.23 346.52,332.13 C346.88,332.03 347.24,332.00 347.60,331.91 C347.96,331.83 348.32,331.71 348.68,331.63 C349.04,331.56 349.40,331.55 349.76,331.48 C350.12,331.41 350.48,331.29 350.84,331.20 C351.20,331.11 351.56,331.00 351.92,330.92 C352.28,330.84 352.64,330.80 353.00,330.70 C353.36,330.61 353.72,330.46 354.08,330.36 C354.44,330.27 354.80,330.24 355.16,330.15 C355.52,330.05 355.88,329.91 356.24,329.77 C356.60,329.64 356.96,329.45 357.32,329.34 C357.68,329.23 358.04,329.23 358.40,329.12 C358.76,329.01 359.12,328.82 359.48,328.69 C359.84,328.56 360.20,328.47 360.56,328.35 C360.92,328.22 361.28,328.07 361.64,327.91 C362.00,327.76 362.36,327.54 362.72,327.42 C363.08,327.29 363.44,327.23 363.80,327.14 C364.16,327.04 364.52,326.93 364.88,326.83 C365.24,326.72 365.60,326.64 365.96,326.48 C366.32,326.32 366.68,326.03 367.04,325.86 C367.40,325.69 367.76,325.56 368.12,325.46 C368.48,325.36 368.84,325.32 369.20,325.24 C369.56,325.17 369.92,325.11 370.28,325.00 C370.64,324.88 371.00,324.64 371.36,324.56 C371.72,324.48 372.08,324.52 372.44,324.47 C372.80,324.41 373.16,324.26 373.52,324.19 C373.88,324.12 374.24,324.11 374.60,324.06 C374.96,324.02 375.32,323.99 375.68,323.91 C376.04,323.83 376.40,323.67 376.76,323.60 C377.12,323.53 377.48,323.54 377.84,323.48 C378.20,323.41 378.56,323.27 378.92,323.20 C379.28,323.12 379.65,323.12 380.01,323.04 C380.37,322.96 380.73,322.81 381.09,322.73 C381.45,322.65 381.81,322.64 382.17,322.58 C382.53,322.51 382.89,322.41 383.25,322.33 C383.61,322.24 383.97,322.17 384.33,322.08 C384.69,321.99 385.05,321.84 385.41,321.77 C385.77,321.70 386.13,321.73 386.49,321.68 C386.85,321.62 387.21,321.51 387.57,321.43 C387.93,321.35 388.29,321.29 388.65,321.21 C389.01,321.13 389.37,321.04 389.73,320.96 C390.09,320.88 390.45,320.84 390.81,320.75 C391.17,320.65 391.53,320.53 391.89,320.37 C392.25,320.22 392.61,319.95 392.97,319.81 C393.33,319.68 393.69,319.64 394.05,319.57 C394.41,319.49 394.77,319.46 395.13,319.38 C395.49,319.30 395.85,319.15 396.21,319.07 C396.57,318.99 396.93,318.93 397.29,318.88 C397.65,318.84 398.01,318.84 398.37,318.79 C398.73,318.74 399.09,318.76 399.45,318.57 C399.81,318.39 400.17,317.89 400.53,317.67 C400.89,317.46 401.25,317.39 401.61,317.27 C401.97,317.15 402.33,317.06 402.69,316.96 C403.05,316.86 403.41,316.80 403.77,316.68 C404.13,316.57 404.49,316.41 404.85,316.28 C405.21,316.14 405.57,316.01 405.93,315.87 C406.29,315.74 406.65,315.56 407.01,315.44 C407.37,315.32 407.73,315.28 408.09,315.16 C408.45,315.04 408.81,314.84 409.17,314.73 C409.53,314.62 409.89,314.60 410.25,314.51 C410.61,314.42 410.97,314.31 411.33,314.20 C411.69,314.09 412.05,313.95 412.41,313.86 C412.77,313.77 413.13,313.72 413.49,313.64 C413.85,313.56 414.22,313.47 414.58,313.39 C414.94,313.32 415.30,313.25 415.66,313.21 C416.02,313.17 416.38,313.19 416.74,313.14 C417.10,313.10 417.46,313.01 417.82,312.96 C418.18,312.91 418.54,312.90 418.90,312.83 C419.26,312.77 419.62,312.67 419.98,312.59 C420.34,312.50 420.70,312.43 421.06,312.34 C421.42,312.25 421.78,312.10 422.14,312.03 C422.50,311.96 422.86,311.96 423.22,311.90 C423.58,311.85 423.94,311.75 424.30,311.69 C424.66,311.62 425.02,311.61 425.38,311.53 C425.74,311.45 426.10,311.31 426.46,311.22 C426.82,311.13 427.18,311.07 427.54,311.00 C427.90,310.94 428.26,310.91 428.62,310.85 C428.98,310.79 429.34,310.71 429.70,310.63 C430.06,310.55 430.42,310.45 430.78,310.38 C431.14,310.32 431.50,310.30 431.86,310.26 C432.22,310.22 432.58,310.20 432.94,310.14 C433.30,310.07 433.66,309.93 434.02,309.86 C434.38,309.78 434.74,309.74 435.10,309.67 C435.46,309.60 435.82,309.48 436.18,309.42 C436.54,309.36 436.90,309.33 437.26,309.30 C437.62,309.27 437.98,309.27 438.34,309.24 C438.70,309.20 439.06,309.15 439.42,309.08 C439.78,309.01 440.14,308.87 440.50,308.80 C440.86,308.73 441.22,308.74 441.58,308.65 C441.94,308.55 442.30,308.24 442.66,308.21 C443.02,308.19 443.38,308.20 443.74,308.18 C444.10,308.17 444.46,308.00 444.82,307.93 C445.18,307.87 445.54,307.85 445.90,307.81 C446.26,307.77 446.62,307.73 446.98,307.68 C447.34,307.64 447.70,307.58 448.06,307.56 C448.42,307.54 448.78,307.56 449.15,307.53 C449.51,307.50 449.87,307.41 450.23,307.34 C450.59,307.28 450.95,307.18 451.31,307.13 C451.67,307.07 452.03,307.03 452.39,307.00 C452.75,306.97 453.11,306.98 453.47,306.94 C453.83,306.90 454.19,306.81 454.55,306.75 C454.91,306.70 455.27,306.68 455.63,306.63 C455.99,306.58 456.35,306.52 456.71,306.44 C457.07,306.37 457.43,306.25 457.79,306.20 C458.15,306.14 458.51,306.13 458.87,306.10 C459.23,306.08 459.59,306.09 459.95,306.04 C460.31,305.99 460.67,305.85 461.03,305.79 C461.39,305.73 461.75,305.73 462.11,305.67 C462.47,305.61 462.83,305.50 463.19,305.42 C463.55,305.34 463.91,305.25 464.27,305.17 C464.63,305.09 464.99,304.99 465.35,304.92 C465.71,304.86 466.07,304.84 466.43,304.77 C466.79,304.70 467.15,304.61 467.51,304.52 C467.87,304.43 468.23,304.28 468.59,304.21 C468.95,304.14 469.31,304.12 469.67,304.09 C470.03,304.06 470.39,304.08 470.75,303.90 C471.11,303.72 471.47,302.64 471.83,302.16 C472.19,301.68 472.55,301.27 472.91,301.02 C473.27,300.76 473.63,300.74 473.99,300.61 C474.35,300.48 474.71,300.36 475.07,300.24 C475.43,300.12 475.79,300.01 476.15,299.90 C476.51,299.79 476.87,299.75 477.23,299.59 C477.59,299.43 477.95,299.13 478.31,298.94 C478.67,298.74 479.03,298.56 479.39,298.41 C479.75,298.26 480.11,298.17 480.47,298.04 C480.83,297.90 481.19,297.74 481.55,297.60 C481.91,297.47 482.27,297.35 482.63,297.23 C482.99,297.11 483.35,296.99 483.72,296.89 C484.08,296.79 484.44,296.74 484.80,296.64 C485.16,296.54 485.52,296.41 485.88,296.30 C486.24,296.19 486.60,296.09 486.96,295.96 C487.32,295.82 487.68,295.61 488.04,295.49 C488.40,295.37 488.76,295.33 489.12,295.25 C489.48,295.16 489.84,295.06 490.20,294.97 C490.56,294.87 490.92,294.81 491.28,294.69 C491.64,294.56 492.00,294.34 492.36,294.22 C492.72,294.11 493.08,294.11 493.44,294.00 C493.80,293.90 494.16,293.70 494.52,293.57 C494.88,293.44 495.24,293.36 495.60,293.23 C495.96,293.09 496.32,292.90 496.68,292.76 C497.04,292.62 497.40,292.47 497.76,292.39 C498.12,292.31 498.48,292.38 498.84,292.14 C499.20,291.91 499.56,290.91 499.92,290.53 C500.28,290.15 500.64,290.03 501.00,289.85 C501.36,289.66 501.72,289.58 502.08,289.41 C502.44,289.24 502.80,289.03 503.16,288.82 C503.52,288.62 503.88,288.38 504.24,288.17 C504.60,287.96 504.96,287.63 505.32,287.55 C505.68,287.47 506.04,287.51 506.40,287.46 C506.76,287.41 507.12,287.20 507.48,287.09 C507.84,286.97 508.20,286.88 508.56,286.78 C508.92,286.67 509.28,286.53 509.64,286.43 C510.00,286.34 510.36,286.29 510.72,286.19 C511.08,286.08 511.44,285.94 511.80,285.81 C512.16,285.69 512.52,285.58 512.88,285.44 C513.24,285.31 513.60,285.15 513.96,285.01 C514.32,284.86 514.68,284.72 515.04,284.57 C515.40,284.42 515.76,284.23 516.12,284.11 C516.48,283.98 516.84,283.96 517.20,283.83 C517.56,283.70 517.92,283.50 518.28,283.33 C518.65,283.17 519.01,283.03 519.37,282.84 C519.73,282.64 520.09,282.37 520.45,282.18 C520.81,282.00 521.17,281.88 521.53,281.72 C521.89,281.56 522.25,281.34 522.61,281.22 C522.97,281.10 523.33,281.09 523.69,281.01 C524.05,280.92 524.41,280.85 524.77,280.70 C525.13,280.55 525.49,280.29 525.85,280.11 C526.21,279.92 526.57,279.70 526.93,279.58 C527.29,279.46 527.65,279.49 528.01,279.39 C528.37,279.30 528.73,279.13 529.09,279.02 C529.45,278.91 529.81,278.94 530.17,278.74 C530.53,278.54 530.89,278.06 531.25,277.81 C531.61,277.56 531.97,277.57 532.33,277.22 C532.69,276.87 533.05,276.18 533.41,275.73 C533.77,275.29 534.13,274.84 534.49,274.55 C534.85,274.26 535.21,274.20 535.57,273.99 C535.93,273.79 536.29,273.54 536.65,273.34 C537.01,273.15 537.37,272.97 537.73,272.82 C538.09,272.67 538.45,272.56 538.81,272.44 C539.17,272.32 539.53,272.22 539.89,272.10 C540.25,271.98 540.61,271.89 540.97,271.73 C541.33,271.58 541.69,271.33 542.05,271.17 C542.41,271.01 542.77,270.92 543.13,270.77 C543.49,270.62 543.85,270.30 544.21,270.27 C544.57,270.24 544.93,270.25 545.29,270.24 C545.65,270.23 546.01,270.17 546.37,270.05 C546.73,269.94 547.09,269.69 547.45,269.56 C547.81,269.43 548.17,269.39 548.53,269.28 C548.89,269.17 549.25,268.99 549.61,268.88 C549.97,268.76 550.33,268.70 550.69,268.60 C551.05,268.50 551.41,268.43 551.77,268.29 C552.13,268.15 552.49,267.91 552.85,267.76 C553.22,267.61 553.58,267.49 553.94,267.39 C554.30,267.28 554.66,267.23 555.02,267.14 C555.38,267.05 555.74,267.00 556.10,266.86 C556.46,266.72 556.82,266.44 557.18,266.30 C557.54,266.17 557.90,266.14 558.26,266.05 C558.62,265.97 558.98,265.87 559.34,265.77 C559.70,265.68 560.06,265.57 560.42,265.49 C560.78,265.42 561.14,265.44 561.50,265.34 C561.86,265.24 562.22,265.03 562.58,264.91 C562.94,264.78 563.30,264.68 563.66,264.56 C564.02,264.45 564.38,264.33 564.74,264.22 C565.10,264.11 565.46,264.04 565.82,263.91 C566.18,263.79 566.54,263.61 566.90,263.48 C567.26,263.35 567.62,263.28 567.98,263.14 C568.34,262.99 568.70,262.78 569.06,262.61 C569.42,262.44 569.78,262.27 570.14,262.14 C570.50,262.02 570.86,261.98 571.22,261.87 C571.58,261.75 571.94,261.59 572.30,261.46 C572.66,261.34 573.02,261.25 573.38,261.12 C573.74,260.99 574.10,260.78 574.46,260.69 C574.82,260.59 575.18,260.64 575.54,260.56 C575.90,260.48 576.26,260.31 576.62,260.19 C576.98,260.07 577.34,259.98 577.70,259.85 C578.06,259.72 578.42,259.54 578.78,259.41 C579.14,259.29 579.50,259.21 579.86,259.10 C580.22,259.00 580.58,258.89 580.94,258.79 C581.30,258.70 581.66,258.61 582.02,258.55 C582.38,258.48 582.74,258.49 583.10,258.42 C583.46,258.35 583.82,258.19 584.18,258.11 C584.54,258.03 584.90,258.04 585.26,257.96 C585.62,257.87 585.98,257.73 586.34,257.62 C586.70,257.50 587.06,257.45 587.42,257.27 C587.78,257.10 588.15,256.95 588.51,256.56 C588.87,256.17 589.23,255.37 589.59,254.95 C589.95,254.52 590.31,254.24 590.67,254.02 C591.03,253.79 591.39,253.74 591.75,253.58 C592.11,253.43 592.47,253.24 592.83,253.09 C593.19,252.93 593.55,252.79 593.91,252.65 C594.27,252.52 594.63,252.38 594.99,252.28 C595.35,252.18 595.71,252.15 596.07,252.06 C596.43,251.97 596.79,251.85 597.15,251.75 C597.51,251.65 597.87,251.60 598.23,251.47 C598.59,251.35 598.95,251.16 599.31,251.01 C599.67,250.86 600.03,250.78 600.39,250.57 C600.75,250.37 601.11,250.00 601.47,249.77 C601.83,249.53 602.19,249.33 602.55,249.18 C602.91,249.03 603.27,248.94 603.63,248.87 C603.99,248.79 604.35,248.79 604.71,248.71 C605.07,248.63 605.43,248.54 605.79,248.40 C606.15,248.27 606.51,248.04 606.87,247.91 C607.23,247.77 607.59,247.71 607.95,247.56 C608.31,247.42 608.67,247.18 609.03,247.04 C609.39,246.89 609.75,246.81 610.11,246.70 C610.47,246.58 610.83,246.46 611.19,246.32 C611.55,246.19 611.91,246.02 612.27,245.89 C612.63,245.76 612.99,245.87 613.35,245.52 C613.71,245.17 614.07,244.09 614.43,243.69 C614.79,243.28 615.15,243.36 615.51,243.10 C615.87,242.83 616.23,242.39 616.59,242.10 C616.95,241.82 617.31,241.60 617.67,241.39 C618.03,241.18 618.39,241.00 618.75,240.83 C619.11,240.67 619.47,240.54 619.83,240.40 C620.19,240.25 620.55,240.11 620.91,239.96 C621.27,239.82 621.63,239.64 621.99,239.53 C622.35,239.42 622.72,239.44 623.08,239.31 C623.44,239.19 623.80,238.94 624.16,238.78 C624.52,238.63 624.88,238.52 625.24,238.38 C625.60,238.24 625.96,238.09 626.32,237.95 C626.68,237.80 627.04,237.70 627.40,237.51 C627.76,237.33 628.12,237.03 628.48,236.83 C628.84,236.63 629.20,236.54 629.56,236.33 C629.92,236.13 630.28,235.87 630.64,235.62 C631.00,235.37 631.36,235.04 631.72,234.84 C632.08,234.65 632.44,234.59 632.80,234.44 C633.16,234.30 633.52,234.12 633.88,233.98 C634.24,233.84 634.60,233.76 634.96,233.60 C635.32,233.45 635.68,233.27 636.04,233.05 C636.40,232.82 636.76,232.48 637.12,232.24 C637.48,232.00 637.84,231.83 638.20,231.62 C638.56,231.41 638.92,231.20 639.28,231.00 C639.64,230.79 640.00,230.49 640.36,230.38 C640.72,230.26 641.08,230.32 641.44,230.22 C641.80,230.12 642.16,229.84 642.52,229.70 C642.88,229.55 643.24,229.49 643.60,229.32 C643.96,229.15 644.32,228.85 644.68,228.67 C645.04,228.50 645.40,228.42 645.76,228.27 C646.12,228.11 646.48,227.89 646.84,227.74 C647.20,227.60 647.56,227.60 647.92,227.40 C648.28,227.20 648.64,226.83 649.00,226.56 C649.36,226.30 649.72,226.03 650.08,225.82 C650.44,225.60 650.80,225.47 651.16,225.26 C651.52,225.05 651.88,224.77 652.24,224.58 C652.60,224.39 652.96,224.24 653.32,224.11 C653.68,223.98 654.04,223.92 654.40,223.80 C654.76,223.68 655.12,223.55 655.48,223.40 C655.84,223.25 656.20,223.08 656.56,222.90 C656.92,222.73 657.28,222.56 657.65,222.34 C658.01,222.13 658.37,221.80 658.73,221.60 C659.09,221.40 659.45,221.33 659.81,221.13 C660.17,220.94 660.53,220.64 660.89,220.42 C661.25,220.20 661.61,220.04 661.97,219.80 C662.33,219.56 662.69,219.29 663.05,218.99 C663.41,218.70 663.77,218.30 664.13,218.03 C664.49,217.76 664.85,217.56 665.21,217.35 C665.57,217.14 665.93,216.98 666.29,216.76 C666.65,216.54 667.01,216.23 667.37,216.01 C667.73,215.80 668.09,215.67 668.45,215.49 C668.81,215.30 669.17,215.08 669.53,214.90 C669.89,214.71 670.25,214.54 670.61,214.37 C670.97,214.20 671.33,214.07 671.69,213.90 C672.05,213.74 672.41,213.62 672.77,213.38 C673.13,213.13 673.49,212.71 673.85,212.45 C674.21,212.19 674.57,212.00 674.93,211.83 C675.29,211.66 675.65,211.56 676.01,211.42 C676.37,211.28 676.73,211.15 677.09,210.99 C677.45,210.82 677.81,210.58 678.17,210.43 C678.53,210.28 678.89,210.18 679.25,210.09 C679.61,210.00 679.97,210.00 680.33,209.90 C680.69,209.80 681.05,209.66 681.41,209.50 C681.77,209.34 682.13,209.10 682.49,208.94 C682.85,208.79 683.21,208.78 683.57,208.57 C683.93,208.36 684.29,207.92 684.65,207.70 C685.01,207.48 685.37,207.46 685.73,207.27 C686.09,207.07 686.45,206.83 686.81,206.52 C687.17,206.21 687.53,205.79 687.89,205.40 C688.25,205.02 688.61,204.59 688.97,204.23 C689.33,203.86 689.69,203.52 690.05,203.23 C690.41,202.95 690.77,202.77 691.13,202.52 C691.49,202.27 691.85,201.98 692.22,201.74 C692.58,201.51 692.94,201.29 693.30,201.09 C693.66,200.89 694.02,200.72 694.38,200.53 C694.74,200.35 695.10,200.18 695.46,199.98 C695.82,199.77 696.18,199.52 696.54,199.32 C696.90,199.13 697.26,198.97 697.62,198.83 C697.98,198.68 698.34,198.58 698.70,198.46 C699.06,198.33 699.42,198.30 699.78,198.08 C700.14,197.87 700.50,197.49 700.86,197.18 C701.22,196.88 701.58,196.48 701.94,196.25 C702.30,196.03 702.66,195.97 703.02,195.85 C703.38,195.73 703.74,195.63 704.10,195.51 C704.46,195.38 704.82,195.33 705.18,195.11 C705.54,194.88 705.90,194.57 706.26,194.17 C706.62,193.78 706.98,193.06 707.34,192.72 C707.70,192.38 708.06,192.35 708.42,192.13 C708.78,191.90 709.14,191.56 709.50,191.38 C709.86,191.20 710.22,191.16 710.58,191.04 C710.94,190.93 711.30,190.82 711.66,190.70 C712.02,190.58 712.38,190.44 712.74,190.33 C713.10,190.22 713.46,190.16 713.82,190.05 C714.18,189.93 714.54,189.80 714.90,189.65 C715.26,189.49 715.62,189.30 715.98,189.12 C716.34,188.94 716.70,188.74 717.06,188.56 C717.42,188.38 717.78,188.20 718.14,188.06 C718.50,187.93 718.86,187.94 719.22,187.75 C719.58,187.56 719.94,187.14 720.30,186.92 C720.66,186.69 721.02,186.57 721.38,186.39 C721.74,186.20 722.10,185.96 722.46,185.80 C722.82,185.63 723.18,185.54 723.54,185.40 C723.90,185.25 724.26,185.11 724.62,184.93 C724.98,184.75 725.34,184.50 725.70,184.31 C726.06,184.12 726.42,184.00 726.78,183.81 C727.15,183.63 727.51,183.40 727.87,183.19 C728.23,182.98 728.59,182.71 728.95,182.54 C729.31,182.38 729.67,182.34 730.03,182.20 C730.39,182.06 730.75,181.86 731.11,181.67 C731.47,181.49 731.83,181.26 732.19,181.08 C732.55,180.90 732.91,180.73 733.27,180.59 C733.63,180.44 733.99,180.39 734.35,180.21 C734.71,180.04 735.07,179.70 735.43,179.53 C735.79,179.37 736.15,179.38 736.51,179.22 C736.87,179.07 737.23,178.84 737.59,178.60 C737.95,178.36 738.31,178.04 738.67,177.79 C739.03,177.55 739.39,177.37 739.75,177.14 C740.11,176.92 740.47,176.71 740.83,176.46 C741.19,176.21 741.55,175.87 741.91,175.65 C742.27,175.44 742.63,175.31 742.99,175.19 C743.35,175.07 743.71,175.09 744.07,174.94 C744.43,174.80 744.79,174.48 745.15,174.32 C745.51,174.16 745.87,174.09 746.23,173.98 C746.59,173.87 746.95,173.80 747.31,173.67 C747.67,173.53 748.03,173.49 748.39,173.17 C748.75,172.85 749.11,172.23 749.47,171.75 C749.83,171.26 750.19,170.76 750.55,170.26 C750.91,169.75 751.27,169.26 751.63,168.71 C751.99,168.15 752.35,167.61 752.71,166.94 C753.07,166.26 753.43,165.28 753.79,164.64 C754.15,164.00 754.51,163.63 754.87,163.09 C755.23,162.55 755.59,161.94 755.95,161.42 C756.31,160.89 756.67,160.32 757.03,159.93 C757.39,159.53 757.75,159.40 758.11,159.06 C758.47,158.72 758.83,158.22 759.19,157.88 C759.55,157.53 759.91,157.24 760.27,156.98 C760.63,156.72 760.99,156.59 761.35,156.33 C761.72,156.06 762.08,155.69 762.44,155.40 C762.80,155.11 763.16,154.83 763.52,154.59 C763.88,154.35 764.24,154.20 764.60,153.94 C764.96,153.68 765.32,153.29 765.68,153.01 C766.04,152.72 766.40,152.54 766.76,152.23 C767.12,151.92 767.48,151.51 767.84,151.15 C768.20,150.78 768.56,150.39 768.92,150.06 C769.28,149.73 769.64,149.42 770.00,149.16 C770.36,148.90 770.72,148.73 771.08,148.51 C771.44,148.29 771.80,148.12 772.16,147.86 C772.52,147.60 772.88,147.26 773.24,146.96 C773.60,146.66 773.96,146.31 774.32,146.06 C774.68,145.81 775.04,145.69 775.40,145.44 C775.76,145.19 776.12,144.79 776.48,144.54 C776.84,144.29 777.20,144.14 777.56,143.95 C777.92,143.76 778.28,143.56 778.64,143.42 C779.00,143.28 779.36,143.23 779.72,143.11 C780.08,142.99 780.44,142.86 780.80,142.71 C781.16,142.56 781.52,142.39 781.88,142.21 C782.24,142.03 782.60,141.82 782.96,141.62 C783.32,141.42 783.68,141.23 784.04,141.00 C784.40,140.77 784.76,140.52 785.12,140.26 C785.48,140.00 785.84,139.68 786.20,139.45 C786.56,139.22 786.92,139.08 787.28,138.89 C787.64,138.71 788.00,138.55 788.36,138.33 C788.72,138.12 789.08,137.87 789.44,137.62 C789.80,137.37 790.16,137.07 790.52,136.85 C790.88,136.62 791.24,136.45 791.60,136.26 C791.96,136.06 792.32,135.87 792.68,135.70 C793.04,135.53 793.40,135.50 793.76,135.23 C794.12,134.96 794.48,134.36 794.84,134.08 C795.20,133.81 795.56,133.75 795.92,133.56 C796.28,133.36 796.65,133.12 797.01,132.91 C797.37,132.69 797.73,132.48 798.09,132.25 C798.45,132.03 798.81,131.80 799.17,131.57 C799.53,131.34 799.89,131.13 800.25,130.86 C800.61,130.59 800.97,130.23 801.33,129.96 C801.69,129.68 802.05,129.44 802.41,129.21 C802.77,128.99 803.13,128.76 803.49,128.59 C803.85,128.42 804.21,128.34 804.57,128.19 C804.93,128.04 805.29,127.87 805.65,127.69 C806.01,127.52 806.37,127.32 806.73,127.14 C807.09,126.95 807.45,126.77 807.81,126.58 C808.17,126.38 808.53,126.12 808.89,125.96 C809.25,125.80 809.61,125.73 809.97,125.62 C810.33,125.50 810.69,125.38 811.05,125.24 C811.41,125.11 811.77,124.98 812.13,124.81 C812.49,124.63 812.85,124.36 813.21,124.19 C813.57,124.02 813.93,123.97 814.29,123.79 C814.65,123.60 815.01,123.27 815.37,123.07 C815.73,122.87 816.09,122.75 816.45,122.58 C816.81,122.40 817.17,122.17 817.53,122.02 C817.89,121.87 818.25,121.80 818.61,121.68 C818.97,121.55 819.33,121.39 819.69,121.27 C820.05,121.16 820.41,121.14 820.77,120.99 C821.13,120.85 821.49,120.55 821.85,120.40 C822.21,120.26 822.57,120.25 822.93,120.12 C823.29,120.00 823.65,119.81 824.01,119.66 C824.37,119.50 824.73,119.33 825.09,119.19 C825.45,119.06 825.81,118.99 826.17,118.85 C826.53,118.72 826.89,118.52 827.25,118.39 C827.61,118.26 827.97,118.22 828.33,118.08 C828.69,117.94 829.05,117.70 829.41,117.55 C829.77,117.39 830.13,117.28 830.49,117.15 C830.85,117.01 831.22,116.88 831.58,116.74 C831.94,116.60 832.30,116.46 832.66,116.31 C833.02,116.15 833.38,116.00 833.74,115.81 C834.10,115.62 834.46,115.34 834.82,115.16 C835.18,114.99 835.54,114.91 835.90,114.76 C836.26,114.60 836.62,114.39 836.98,114.23 C837.34,114.08 837.70,113.93 838.06,113.83 C838.42,113.73 838.78,113.78 839.14,113.64 C839.50,113.51 839.86,113.19 840.22,113.02 C840.58,112.85 840.94,112.74 841.30,112.62 C841.66,112.49 842.02,112.40 842.38,112.28 C842.74,112.15 843.10,112.06 843.46,111.87 C843.82,111.68 844.18,111.32 844.54,111.13 C844.90,110.93 845.26,110.84 845.62,110.69 C845.98,110.54 846.34,110.35 846.70,110.23 C847.06,110.10 847.42,110.02 847.78,109.95 C848.14,109.88 848.50,109.86 848.86,109.79 C849.22,109.73 849.58,109.64 849.94,109.55 C850.30,109.45 850.66,109.32 851.02,109.20 C851.38,109.09 851.74,108.95 852.10,108.83 C852.46,108.72 852.82,108.63 853.18,108.52 C853.54,108.41 853.90,108.28 854.26,108.18 C854.62,108.08 854.98,108.03 855.34,107.90 C855.70,107.77 856.06,107.52 856.42,107.41 C856.78,107.29 857.14,107.27 857.50,107.19 C857.86,107.11 858.22,107.03 858.58,106.94 C858.94,106.85 859.30,106.77 859.66,106.66 C860.02,106.55 860.38,106.41 860.74,106.26 C861.10,106.10 861.46,105.89 861.82,105.73 C862.18,105.58 862.54,105.45 862.90,105.33 C863.26,105.21 863.62,105.13 863.98,105.02 C864.34,104.90 864.70,104.76 865.06,104.64 C865.42,104.53 865.78,104.42 866.15,104.30 C866.51,104.19 866.87,104.09 867.23,103.96 C867.59,103.84 867.95,103.67 868.31,103.56 C868.67,103.44 869.03,103.37 869.39,103.28 C869.75,103.19 870.11,103.11 870.47,103.00 C870.83,102.89 871.19,102.73 871.55,102.63 C871.91,102.52 872.27,102.47 872.63,102.38 C872.99,102.29 873.35,102.18 873.71,102.10 C874.07,102.02 874.43,101.98 874.79,101.88 C875.15,101.79 875.51,101.71 875.87,101.54 C876.23,101.37 876.59,101.02 876.95,100.86 C877.31,100.70 877.67,100.65 878.03,100.58 C878.39,100.51 878.75,100.49 879.11,100.43 C879.47,100.36 879.83,100.31 880.19,100.21 C880.55,100.11 880.91,99.94 881.27,99.84 C881.63,99.73 881.99,99.69 882.35,99.59 C882.71,99.49 883.07,99.37 883.43,99.25 C883.79,99.13 884.15,99.01 884.51,98.87 C884.87,98.73 885.23,98.54 885.59,98.41 C885.95,98.27 886.31,98.21 886.67,98.07 C887.03,97.92 887.39,97.71 887.75,97.54 C888.11,97.37 888.47,97.21 888.83,97.07 C889.19,96.94 889.55,96.89 889.91,96.73 C890.27,96.58 890.63,96.31 890.99,96.14 C891.35,95.98 891.71,95.86 892.07,95.74 C892.43,95.62 892.79,95.51 893.15,95.43 C893.51,95.35 893.87,95.37 894.23,95.28 C894.59,95.18 894.95,95.01 895.31,94.87 C895.67,94.73 896.03,94.61 896.39,94.44 C896.75,94.27 897.11,94.05 897.47,93.85 C897.83,93.65 898.19,93.42 898.55,93.26 C898.91,93.09 899.27,92.99 899.63,92.86 C899.99,92.72 900.35,92.57 900.72,92.45 C901.08,92.33 901.44,92.30 901.80,92.14 C902.16,91.99 902.52,91.68 902.88,91.52 C903.24,91.36 903.60,91.33 903.96,91.18 C904.32,91.03 904.68,90.77 905.04,90.62 C905.40,90.47 905.76,90.42 906.12,90.28 C906.48,90.15 906.84,90.00 907.20,89.82 C907.56,89.63 907.92,89.36 908.28,89.20 C908.64,89.03 909.00,88.94 909.36,88.82 C909.72,88.71 910.08,88.65 910.44,88.51 C910.80,88.38 911.16,88.16 911.52,88.02 C911.88,87.88 912.24,87.79 912.60,87.68 C912.96,87.56 913.32,87.46 913.68,87.30 C914.04,87.15 914.40,86.91 914.76,86.74 C915.12,86.58 915.48,86.42 915.84,86.31 C916.20,86.20 916.56,86.11 916.92,86.06 C917.28,86.01 917.64,86.02 918.00,86.00" fill="none" stroke="#0969da" stroke-width="3" stroke-linecap="round" stroke-linejoin="round" />
    <circle cx="918.00" cy="86.00" r="5" fill="#0969da" stroke="#ffffff" stroke-width="2" />
    <text x="918" y="466" text-anchor="end" fill="#656d76" font-size="11">Updated Sep 13, 2026</text>
  </g>
</svg>
