<?xml version="1.0" encoding="UTF-8"?>
<svg xmlns="http://www.w3.org/2000/svg" width="960" height="480" viewBox="0 0 960 480" role="img" aria-labelledby="title description">
  <title id="title">TheBoredTeam/boring.notch Star History</title>
  <desc id="description">10,932 current GitHub stargazers as of Oct 1, 2026.</desc>
  <rect width="960" height="480" rx="12" fill="#ffffff" stroke="#d0d7de" />
  <g font-family="-apple-system, BlinkMacSystemFont, 'Segoe UI', sans-serif">
    <text x="84" y="40" fill="#1f2328" font-size="24" font-weight="600">Star History</text>
    <text x="918" y="40" text-anchor="end" fill="#656d76" font-size="14" font-weight="500">10,932 stars</text>
    <text x="84" y="64" fill="#656d76" font-size="13">TheBoredTeam/boring.notch</text>
    <line x1="84" y1="418.00" x2="918" y2="418.00" stroke="#d8dee4" stroke-width="1" />
      <text x="70" y="422.00" text-anchor="end" fill="#656d76" font-size="12">0</text>
      <line x1="84" y1="357.26" x2="918" y2="357.26" stroke="#d8dee4" stroke-width="1" />
      <text x="70" y="361.26" text-anchor="end" fill="#656d76" font-size="12">2K</text>
      <line x1="84" y1="296.52" x2="918" y2="296.52" stroke="#d8dee4" stroke-width="1" />
      <text x="70" y="300.52" text-anchor="end" fill="#656d76" font-size="12">4K</text>
      <line x1="84" y1="235.78" x2="918" y2="235.78" stroke="#d8dee4" stroke-width="1" />
      <text x="70" y="239.78" text-anchor="end" fill="#656d76" font-size="12">6K</text>
      <line x1="84" y1="175.04" x2="918" y2="175.04" stroke="#d8dee4" stroke-width="1" />
      <text x="70" y="179.04" text-anchor="end" fill="#656d76" font-size="12">8K</text>
      <line x1="84" y1="114.30" x2="918" y2="114.30" stroke="#d8dee4" stroke-width="1" />
      <text x="70" y="118.30" text-anchor="end" fill="#656d76" font-size="12">10K</text>
    <text x="84.00" y="452" text-anchor="middle" fill="#656d76" font-size="12">Aug 2024</text>
      <text x="292.50" y="452" text-anchor="middle" fill="#656d76" font-size="12">Feb 2025</text>
      <text x="501.00" y="452" text-anchor="middle" fill="#656d76" font-size="12">Sep 2025</text>
      <text x="709.50" y="452" text-anchor="middle" fill="#656d76" font-size="12">Mar 2026</text>
      <text x="918.00" y="452" text-anchor="middle" fill="#656d76" font-size="12">Oct 2026</text>
    <path d="M84.00,417.79 C84.35,417.70 84.70,417.62 85.06,417.51 C85.41,417.41 85.76,417.28 86.11,417.18 C86.46,417.08 86.82,416.98 87.17,416.94 C87.52,416.90 87.87,416.93 88.22,416.85 C88.57,416.76 88.93,416.35 89.28,416.21 C89.63,416.07 89.98,416.05 90.33,416.00 C90.69,415.94 91.04,415.96 91.39,415.90 C91.74,415.85 92.09,415.73 92.45,415.69 C92.80,415.65 93.15,415.69 93.50,415.57 C93.85,415.46 94.21,414.93 94.56,414.69 C94.91,414.45 95.26,414.32 95.61,414.14 C95.96,413.97 96.32,413.75 96.67,413.63 C97.02,413.50 97.37,413.47 97.72,413.38 C98.08,413.30 98.43,413.18 98.78,413.11 C99.13,413.04 99.48,413.03 99.84,412.99 C100.19,412.94 100.54,412.90 100.89,412.84 C101.24,412.77 101.59,412.65 101.95,412.59 C102.30,412.53 102.65,412.51 103.00,412.47 C103.35,412.43 103.71,412.45 104.06,412.35 C104.41,412.25 104.76,412.00 105.11,411.87 C105.47,411.73 105.82,411.64 106.17,411.53 C106.52,411.42 106.87,411.30 107.23,411.23 C107.58,411.15 107.93,411.14 108.28,411.08 C108.63,411.02 108.98,410.92 109.34,410.86 C109.69,410.81 110.04,410.78 110.39,410.74 C110.74,410.71 111.10,410.73 111.45,410.65 C111.80,410.57 112.15,410.37 112.50,410.29 C112.86,410.20 113.21,410.18 113.56,410.13 C113.91,410.09 114.26,410.05 114.62,410.01 C114.97,409.98 115.32,409.96 115.67,409.92 C116.02,409.89 116.37,409.87 116.73,409.80 C117.08,409.73 117.43,409.56 117.78,409.50 C118.13,409.43 118.49,409.47 118.84,409.41 C119.19,409.34 119.54,409.17 119.89,409.10 C120.25,409.03 120.60,409.00 120.95,408.98 C121.30,408.96 121.65,408.97 122.01,408.95 C122.36,408.93 122.71,408.87 123.06,408.86 C123.41,408.84 123.76,408.86 124.12,408.77 C124.47,408.68 124.82,408.03 125.17,407.77 C125.52,407.50 125.88,407.33 126.23,407.16 C126.58,406.99 126.93,406.82 127.28,406.76 C127.64,406.71 127.99,406.73 128.34,406.70 C128.69,406.68 129.04,406.64 129.39,406.55 C129.75,406.46 130.10,406.30 130.45,406.19 C130.80,406.07 131.15,405.95 131.51,405.85 C131.86,405.76 132.21,405.71 132.56,405.61 C132.91,405.51 133.27,405.45 133.62,405.24 C133.97,405.04 134.32,404.59 134.67,404.39 C135.03,404.20 135.38,404.10 135.73,404.06 C136.08,404.02 136.43,404.05 136.78,403.94 C137.14,403.82 137.49,403.04 137.84,402.82 C138.19,402.59 138.54,402.66 138.90,402.57 C139.25,402.49 139.60,402.38 139.95,402.30 C140.30,402.22 140.66,402.15 141.01,402.09 C141.36,402.03 141.71,401.98 142.06,401.93 C142.42,401.89 142.77,401.86 143.12,401.81 C143.47,401.76 143.82,401.69 144.17,401.63 C144.53,401.58 144.88,401.54 145.23,401.48 C145.58,401.42 145.93,401.32 146.29,401.27 C146.64,401.21 146.99,401.22 147.34,401.14 C147.69,401.07 148.05,400.96 148.40,400.81 C148.75,400.66 149.10,400.40 149.45,400.23 C149.81,400.07 150.16,399.95 150.51,399.84 C150.86,399.73 151.21,399.69 151.56,399.60 C151.92,399.50 152.27,399.35 152.62,399.26 C152.97,399.18 153.32,399.14 153.68,399.08 C154.03,399.02 154.38,398.96 154.73,398.90 C155.08,398.83 155.44,398.75 155.79,398.68 C156.14,398.62 156.49,398.55 156.84,398.50 C157.19,398.45 157.55,398.43 157.90,398.38 C158.25,398.34 158.60,398.28 158.95,398.23 C159.31,398.18 159.66,398.13 160.01,398.08 C160.36,398.03 160.71,397.99 161.07,397.93 C161.42,397.86 161.77,397.78 162.12,397.68 C162.47,397.59 162.83,397.45 163.18,397.35 C163.53,397.25 163.88,397.16 164.23,397.08 C164.58,396.99 164.94,397.05 165.29,396.83 C165.64,396.61 165.99,396.05 166.34,395.77 C166.70,395.49 167.05,395.28 167.40,395.13 C167.75,394.98 168.10,394.95 168.46,394.86 C168.81,394.77 169.16,394.66 169.51,394.59 C169.86,394.51 170.22,394.46 170.57,394.40 C170.92,394.35 171.27,394.33 171.62,394.25 C171.97,394.18 172.33,394.06 172.68,393.95 C173.03,393.83 173.38,393.65 173.73,393.55 C174.09,393.46 174.44,393.45 174.79,393.37 C175.14,393.29 175.49,393.19 175.85,393.10 C176.20,393.01 176.55,392.90 176.90,392.82 C177.25,392.74 177.61,392.69 177.96,392.61 C178.31,392.53 178.66,392.43 179.01,392.34 C179.36,392.25 179.72,392.15 180.07,392.06 C180.42,391.98 180.77,391.93 181.12,391.85 C181.48,391.78 181.83,391.69 182.18,391.61 C182.53,391.52 182.88,391.43 183.24,391.34 C183.59,391.24 183.94,391.09 184.29,391.03 C184.64,390.97 184.99,391.01 185.35,390.94 C185.70,390.87 186.05,390.75 186.40,390.58 C186.75,390.40 187.11,390.02 187.46,389.88 C187.81,389.73 188.16,389.77 188.51,389.70 C188.87,389.62 189.22,389.52 189.57,389.42 C189.92,389.32 190.27,389.25 190.63,389.09 C190.98,388.93 191.33,388.60 191.68,388.45 C192.03,388.30 192.38,388.30 192.74,388.21 C193.09,388.11 193.44,387.98 193.79,387.87 C194.14,387.77 194.50,387.64 194.85,387.57 C195.20,387.50 195.55,387.51 195.90,387.45 C196.26,387.39 196.61,387.31 196.96,387.21 C197.31,387.10 197.66,386.93 198.02,386.84 C198.37,386.75 198.72,386.75 199.07,386.69 C199.42,386.62 199.77,386.55 200.13,386.45 C200.48,386.34 200.83,386.15 201.18,386.08 C201.53,386.01 201.89,386.05 202.24,385.99 C202.59,385.93 202.94,385.77 203.29,385.69 C203.65,385.61 204.00,385.58 204.35,385.50 C204.70,385.43 205.05,385.31 205.41,385.23 C205.76,385.15 206.11,385.11 206.46,385.02 C206.81,384.93 207.16,384.78 207.52,384.68 C207.87,384.59 208.22,384.53 208.57,384.47 C208.92,384.41 209.28,384.40 209.63,384.32 C209.98,384.24 210.33,384.09 210.68,384.02 C211.04,383.94 211.39,383.95 211.74,383.86 C212.09,383.78 212.44,383.62 212.79,383.53 C213.15,383.44 213.50,383.41 213.85,383.32 C214.20,383.23 214.55,383.12 214.91,382.98 C215.26,382.85 215.61,382.65 215.96,382.53 C216.31,382.41 216.67,382.34 217.02,382.26 C217.37,382.17 217.72,382.10 218.07,382.01 C218.43,381.93 218.78,381.86 219.13,381.74 C219.48,381.62 219.83,381.42 220.18,381.31 C220.54,381.20 220.89,381.13 221.24,381.07 C221.59,381.01 221.94,381.01 222.30,380.95 C222.65,380.88 223.00,380.77 223.35,380.68 C223.70,380.58 224.06,380.52 224.41,380.40 C224.76,380.29 225.11,380.05 225.46,379.98 C225.82,379.90 226.17,379.96 226.52,379.83 C226.87,379.69 227.22,379.18 227.57,378.94 C227.93,378.71 228.28,378.61 228.63,378.40 C228.98,378.19 229.33,377.82 229.69,377.67 C230.04,377.52 230.39,377.59 230.74,377.49 C231.09,377.39 231.45,377.19 231.80,377.06 C232.15,376.94 232.50,376.83 232.85,376.73 C233.21,376.62 233.56,376.52 233.91,376.42 C234.26,376.33 234.61,376.27 234.96,376.15 C235.32,376.03 235.67,375.88 236.02,375.73 C236.37,375.57 236.72,375.39 237.08,375.24 C237.43,375.09 237.78,374.97 238.13,374.84 C238.48,374.72 238.84,374.61 239.19,374.48 C239.54,374.35 239.89,374.17 240.24,374.06 C240.59,373.94 240.95,373.88 241.30,373.78 C241.65,373.69 242.00,373.58 242.35,373.48 C242.71,373.38 243.06,373.27 243.41,373.17 C243.76,373.08 244.11,373.00 244.47,372.90 C244.82,372.80 245.17,372.69 245.52,372.57 C245.87,372.45 246.23,372.28 246.58,372.17 C246.93,372.06 247.28,371.96 247.63,371.90 C247.98,371.83 248.34,371.82 248.69,371.78 C249.04,371.73 249.39,371.68 249.74,371.63 C250.10,371.57 250.45,371.51 250.80,371.44 C251.15,371.37 251.50,371.32 251.86,371.20 C252.21,371.08 252.56,370.84 252.91,370.71 C253.26,370.59 253.62,370.58 253.97,370.47 C254.32,370.37 254.67,370.19 255.02,370.08 C255.37,369.96 255.73,369.87 256.08,369.77 C256.43,369.68 256.78,369.65 257.13,369.50 C257.49,369.35 257.84,369.06 258.19,368.89 C258.54,368.73 258.89,368.61 259.25,368.50 C259.60,368.38 259.95,368.47 260.30,368.19 C260.65,367.92 261.01,367.20 261.36,366.86 C261.71,366.52 262.06,366.33 262.41,366.16 C262.76,365.99 263.12,366.00 263.47,365.86 C263.82,365.71 264.17,365.43 264.52,365.28 C264.88,365.13 265.23,365.04 265.58,364.94 C265.93,364.85 266.28,364.77 266.64,364.70 C266.99,364.64 267.34,364.60 267.69,364.55 C268.04,364.50 268.39,364.46 268.75,364.40 C269.10,364.33 269.45,364.24 269.80,364.15 C270.15,364.07 270.51,364.10 270.86,363.91 C271.21,363.72 271.56,363.17 271.91,363.00 C272.27,362.83 272.62,362.91 272.97,362.79 C273.32,362.66 273.67,362.36 274.03,362.18 C274.38,362.00 274.73,361.89 275.08,361.73 C275.43,361.56 275.78,361.37 276.14,361.18 C276.49,360.99 276.84,360.77 277.19,360.60 C277.54,360.43 277.90,360.28 278.25,360.18 C278.60,360.08 278.95,360.08 279.30,359.99 C279.66,359.91 280.01,359.85 280.36,359.69 C280.71,359.53 281.06,359.26 281.42,359.02 C281.77,358.78 282.12,358.46 282.47,358.26 C282.82,358.07 283.17,357.98 283.53,357.84 C283.88,357.69 284.23,357.51 284.58,357.38 C284.93,357.25 285.29,357.17 285.64,357.05 C285.99,356.92 286.34,356.73 286.69,356.62 C287.05,356.51 287.40,356.47 287.75,356.38 C288.10,356.29 288.45,356.15 288.81,356.08 C289.16,356.01 289.51,356.07 289.86,355.83 C290.21,355.60 290.56,354.62 290.92,354.28 C291.27,353.95 291.62,353.99 291.97,353.83 C292.32,353.67 292.68,353.61 293.03,353.34 C293.38,353.08 293.73,352.55 294.08,352.25 C294.44,351.95 294.79,351.75 295.14,351.55 C295.49,351.35 295.84,351.25 296.19,351.07 C296.55,350.88 296.90,350.61 297.25,350.46 C297.60,350.31 297.95,350.26 298.31,350.15 C298.66,350.05 299.01,349.95 299.36,349.82 C299.71,349.69 300.07,349.53 300.42,349.36 C300.77,349.20 301.12,349.03 301.47,348.85 C301.83,348.67 302.18,348.47 302.53,348.27 C302.88,348.07 303.23,347.82 303.58,347.66 C303.94,347.51 304.29,347.46 304.64,347.36 C304.99,347.26 305.34,347.20 305.70,347.09 C306.05,346.97 306.40,346.83 306.75,346.66 C307.10,346.49 307.46,346.22 307.81,346.05 C308.16,345.89 308.51,345.87 308.86,345.69 C309.22,345.51 309.57,345.18 309.92,344.96 C310.27,344.74 310.62,344.55 310.97,344.35 C311.33,344.16 311.68,343.98 312.03,343.78 C312.38,343.57 312.73,343.32 313.09,343.14 C313.44,342.96 313.79,342.84 314.14,342.71 C314.49,342.59 314.85,342.51 315.20,342.41 C315.55,342.31 315.90,342.25 316.25,342.14 C316.61,342.03 316.96,341.88 317.31,341.74 C317.66,341.60 318.01,341.40 318.36,341.29 C318.72,341.17 319.07,341.17 319.42,341.04 C319.77,340.92 320.12,340.66 320.48,340.53 C320.83,340.39 321.18,340.32 321.53,340.22 C321.88,340.13 322.24,340.08 322.59,339.95 C322.94,339.82 323.29,339.66 323.64,339.46 C323.99,339.27 324.35,338.96 324.70,338.77 C325.05,338.57 325.40,338.45 325.75,338.31 C326.11,338.17 326.46,338.04 326.81,337.92 C327.16,337.79 327.51,337.65 327.87,337.55 C328.22,337.45 328.57,337.41 328.92,337.31 C329.27,337.20 329.63,337.02 329.98,336.91 C330.33,336.80 330.68,336.73 331.03,336.64 C331.38,336.55 331.74,336.49 332.09,336.40 C332.44,336.31 332.79,336.18 333.14,336.09 C333.50,336.00 333.85,335.92 334.20,335.85 C334.55,335.78 334.90,335.72 335.26,335.67 C335.61,335.61 335.96,335.59 336.31,335.52 C336.66,335.44 337.02,335.30 337.37,335.21 C337.72,335.12 338.07,335.06 338.42,334.97 C338.77,334.88 339.13,334.78 339.48,334.67 C339.83,334.55 340.18,334.40 340.53,334.30 C340.89,334.21 341.24,334.17 341.59,334.09 C341.94,334.01 342.29,333.89 342.65,333.82 C343.00,333.74 343.35,333.73 343.70,333.66 C344.05,333.59 344.41,333.48 344.76,333.39 C345.11,333.30 345.46,333.20 345.81,333.12 C346.16,333.04 346.52,333.00 346.87,332.90 C347.22,332.81 347.57,332.66 347.92,332.57 C348.28,332.48 348.63,332.45 348.98,332.36 C349.33,332.26 349.68,332.13 350.04,331.99 C350.39,331.86 350.74,331.67 351.09,331.57 C351.44,331.46 351.79,331.46 352.15,331.36 C352.50,331.25 352.85,331.06 353.20,330.93 C353.55,330.80 353.91,330.72 354.26,330.60 C354.61,330.47 354.96,330.32 355.31,330.17 C355.67,330.02 356.02,329.81 356.37,329.69 C356.72,329.56 357.07,329.51 357.43,329.41 C357.78,329.32 358.13,329.21 358.48,329.11 C358.83,329.00 359.18,328.93 359.54,328.77 C359.89,328.62 360.24,328.33 360.59,328.17 C360.94,328.00 361.30,327.87 361.65,327.77 C362.00,327.67 362.35,327.64 362.70,327.56 C363.06,327.48 363.41,327.43 363.76,327.32 C364.11,327.21 364.46,326.97 364.82,326.89 C365.17,326.82 365.52,326.85 365.87,326.80 C366.22,326.75 366.57,326.59 366.93,326.53 C367.28,326.46 367.63,326.45 367.98,326.41 C368.33,326.36 368.69,326.33 369.04,326.25 C369.39,326.18 369.74,326.02 370.09,325.95 C370.45,325.88 370.80,325.89 371.15,325.83 C371.50,325.76 371.85,325.63 372.21,325.56 C372.56,325.48 372.91,325.48 373.26,325.40 C373.61,325.33 373.96,325.18 374.32,325.10 C374.67,325.02 375.02,325.01 375.37,324.95 C375.72,324.88 376.08,324.79 376.43,324.70 C376.78,324.62 377.13,324.55 377.48,324.46 C377.84,324.37 378.19,324.22 378.54,324.16 C378.89,324.09 379.24,324.12 379.59,324.07 C379.95,324.01 380.30,323.90 380.65,323.82 C381.00,323.75 381.35,323.69 381.71,323.61 C382.06,323.54 382.41,323.44 382.76,323.37 C383.11,323.29 383.47,323.25 383.82,323.16 C384.17,323.06 384.52,322.94 384.87,322.79 C385.23,322.64 385.58,322.38 385.93,322.24 C386.28,322.11 386.63,322.07 386.98,322.00 C387.34,321.93 387.69,321.90 388.04,321.82 C388.39,321.74 388.74,321.60 389.10,321.52 C389.45,321.43 389.80,321.38 390.15,321.33 C390.50,321.29 390.86,321.29 391.21,321.24 C391.56,321.19 391.91,321.21 392.26,321.03 C392.62,320.85 392.97,320.36 393.32,320.15 C393.67,319.94 394.02,319.87 394.37,319.75 C394.73,319.64 395.08,319.55 395.43,319.45 C395.78,319.35 396.13,319.29 396.49,319.18 C396.84,319.07 397.19,318.91 397.54,318.78 C397.89,318.65 398.25,318.52 398.60,318.39 C398.95,318.25 399.30,318.08 399.65,317.96 C400.01,317.85 400.36,317.81 400.71,317.69 C401.06,317.57 401.41,317.37 401.76,317.26 C402.12,317.16 402.47,317.14 402.82,317.05 C403.17,316.97 403.52,316.85 403.88,316.75 C404.23,316.64 404.58,316.50 404.93,316.41 C405.28,316.32 405.64,316.28 405.99,316.20 C406.34,316.13 406.69,316.03 407.04,315.96 C407.39,315.89 407.75,315.82 408.10,315.78 C408.45,315.74 408.80,315.76 409.15,315.72 C409.51,315.67 409.86,315.58 410.21,315.53 C410.56,315.48 410.91,315.47 411.27,315.41 C411.62,315.35 411.97,315.25 412.32,315.17 C412.67,315.09 413.03,315.02 413.38,314.93 C413.73,314.83 414.08,314.69 414.43,314.62 C414.78,314.55 415.14,314.56 415.49,314.50 C415.84,314.44 416.19,314.35 416.54,314.29 C416.90,314.23 417.25,314.21 417.60,314.14 C417.95,314.06 418.30,313.92 418.66,313.83 C419.01,313.75 419.36,313.68 419.71,313.62 C420.06,313.56 420.42,313.53 420.77,313.47 C421.12,313.41 421.47,313.33 421.82,313.26 C422.17,313.18 422.53,313.07 422.88,313.01 C423.23,312.95 423.58,312.93 423.93,312.89 C424.29,312.85 424.64,312.84 424.99,312.77 C425.34,312.70 425.69,312.57 426.05,312.50 C426.40,312.42 426.75,312.38 427.10,312.31 C427.45,312.24 427.81,312.13 428.16,312.07 C428.51,312.01 428.86,311.98 429.21,311.95 C429.56,311.92 429.92,311.92 430.27,311.89 C430.62,311.85 430.97,311.81 431.32,311.74 C431.68,311.67 432.03,311.53 432.38,311.46 C432.73,311.39 433.08,311.41 433.44,311.31 C433.79,311.22 434.14,310.91 434.49,310.89 C434.84,310.86 435.19,310.87 435.55,310.86 C435.90,310.84 436.25,310.67 436.60,310.61 C436.95,310.55 437.31,310.53 437.66,310.49 C438.01,310.45 438.36,310.41 438.71,310.37 C439.07,310.33 439.42,310.27 439.77,310.25 C440.12,310.23 440.47,310.24 440.83,310.22 C441.18,310.19 441.53,310.10 441.88,310.04 C442.23,309.97 442.58,309.88 442.94,309.82 C443.29,309.77 443.64,309.73 443.99,309.70 C444.34,309.67 444.70,309.68 445.05,309.64 C445.40,309.60 445.75,309.51 446.10,309.46 C446.46,309.41 446.81,309.39 447.16,309.34 C447.51,309.29 447.86,309.23 448.22,309.16 C448.57,309.08 448.92,308.97 449.27,308.91 C449.62,308.86 449.97,308.85 450.33,308.82 C450.68,308.80 451.03,308.81 451.38,308.76 C451.73,308.71 452.09,308.58 452.44,308.52 C452.79,308.46 453.14,308.46 453.49,308.40 C453.85,308.34 454.20,308.23 454.55,308.15 C454.90,308.07 455.25,307.99 455.61,307.91 C455.96,307.83 456.31,307.73 456.66,307.67 C457.01,307.60 457.36,307.58 457.72,307.52 C458.07,307.45 458.42,307.36 458.77,307.27 C459.12,307.18 459.48,307.04 459.83,306.97 C460.18,306.90 460.53,306.88 460.88,306.85 C461.24,306.82 461.59,306.85 461.94,306.67 C462.29,306.49 462.64,305.44 462.99,304.96 C463.35,304.49 463.70,304.09 464.05,303.84 C464.40,303.59 464.75,303.60 465.11,303.48 C465.46,303.35 465.81,303.23 466.16,303.11 C466.51,303.00 466.87,302.88 467.22,302.78 C467.57,302.67 467.92,302.63 468.27,302.47 C468.63,302.32 468.98,302.03 469.33,301.84 C469.68,301.64 470.03,301.47 470.38,301.32 C470.74,301.17 471.09,301.09 471.44,300.96 C471.79,300.82 472.14,300.66 472.50,300.53 C472.85,300.40 473.20,300.28 473.55,300.17 C473.90,300.05 474.26,299.93 474.61,299.83 C474.96,299.74 475.31,299.69 475.66,299.59 C476.02,299.49 476.37,299.37 476.72,299.26 C477.07,299.14 477.42,299.05 477.77,298.92 C478.13,298.79 478.48,298.58 478.83,298.47 C479.18,298.35 479.53,298.31 479.89,298.22 C480.24,298.14 480.59,298.04 480.94,297.95 C481.29,297.86 481.65,297.80 482.00,297.68 C482.35,297.55 482.70,297.33 483.05,297.22 C483.41,297.11 483.76,297.11 484.11,297.01 C484.46,296.90 484.81,296.71 485.16,296.58 C485.52,296.46 485.87,296.38 486.22,296.25 C486.57,296.12 486.92,295.93 487.28,295.79 C487.63,295.66 487.98,295.51 488.33,295.43 C488.68,295.35 489.04,295.42 489.39,295.19 C489.74,294.96 490.09,293.98 490.44,293.61 C490.79,293.24 491.15,293.15 491.50,292.97 C491.85,292.79 492.20,292.71 492.55,292.54 C492.91,292.38 493.26,292.17 493.61,291.97 C493.96,291.76 494.31,291.54 494.67,291.33 C495.02,291.12 495.37,290.77 495.72,290.72 C496.07,290.67 496.43,290.69 496.78,290.66 C497.13,290.63 497.48,290.41 497.83,290.30 C498.18,290.18 498.54,290.10 498.89,289.99 C499.24,289.89 499.59,289.75 499.94,289.66 C500.30,289.56 500.65,289.52 501.00,289.42 C501.35,289.31 501.70,289.17 502.06,289.05 C502.41,288.93 502.76,288.81 503.11,288.69 C503.46,288.56 503.82,288.43 504.17,288.29 C504.52,288.15 504.87,288.01 505.22,287.87 C505.57,287.72 505.93,287.53 506.28,287.41 C506.63,287.29 506.98,287.26 507.33,287.14 C507.69,287.01 508.04,286.81 508.39,286.65 C508.74,286.49 509.09,286.38 509.45,286.20 C509.80,286.01 510.15,285.74 510.50,285.56 C510.85,285.38 511.21,285.25 511.56,285.10 C511.91,284.95 512.26,284.76 512.61,284.65 C512.96,284.54 513.32,284.52 513.67,284.43 C514.02,284.35 514.37,284.28 514.72,284.13 C515.08,283.98 515.43,283.74 515.78,283.55 C516.13,283.37 516.48,283.15 516.84,283.04 C517.19,282.92 517.54,282.95 517.89,282.86 C518.24,282.76 518.59,282.60 518.95,282.49 C519.30,282.38 519.65,282.42 520.00,282.22 C520.35,282.02 520.71,281.55 521.06,281.31 C521.41,281.06 521.76,281.07 522.11,280.73 C522.47,280.39 522.82,279.71 523.17,279.27 C523.52,278.84 523.87,278.40 524.23,278.12 C524.58,277.83 524.93,277.77 525.28,277.57 C525.63,277.37 525.98,277.13 526.34,276.93 C526.69,276.74 527.04,276.56 527.39,276.42 C527.74,276.27 528.10,276.17 528.45,276.05 C528.80,275.94 529.15,275.84 529.50,275.72 C529.86,275.60 530.21,275.51 530.56,275.35 C530.91,275.20 531.26,274.96 531.62,274.81 C531.97,274.65 532.32,274.56 532.67,274.41 C533.02,274.27 533.37,273.95 533.73,273.93 C534.08,273.90 534.43,273.91 534.78,273.90 C535.13,273.88 535.49,273.83 535.84,273.71 C536.19,273.60 536.54,273.35 536.89,273.23 C537.25,273.10 537.60,273.07 537.95,272.95 C538.30,272.84 538.65,272.67 539.01,272.56 C539.36,272.45 539.71,272.38 540.06,272.29 C540.41,272.19 540.76,272.12 541.12,271.98 C541.47,271.85 541.82,271.61 542.17,271.47 C542.52,271.32 542.88,271.20 543.23,271.10 C543.58,271.00 543.93,270.95 544.28,270.86 C544.64,270.77 544.99,270.72 545.34,270.59 C545.69,270.45 546.04,270.17 546.39,270.04 C546.75,269.91 547.10,269.88 547.45,269.80 C547.80,269.71 548.15,269.61 548.51,269.52 C548.86,269.43 549.21,269.32 549.56,269.25 C549.91,269.18 550.27,269.22 550.62,269.13 C550.97,269.04 551.32,268.83 551.67,268.70 C552.03,268.58 552.38,268.48 552.73,268.37 C553.08,268.26 553.43,268.14 553.78,268.04 C554.14,267.93 554.49,267.85 554.84,267.73 C555.19,267.61 555.54,267.43 555.90,267.31 C556.25,267.18 556.60,267.11 556.95,266.97 C557.30,266.83 557.66,266.62 558.01,266.46 C558.36,266.29 558.71,266.12 559.06,266.00 C559.42,265.88 559.77,265.84 560.12,265.73 C560.47,265.62 560.82,265.45 561.17,265.33 C561.53,265.21 561.88,265.12 562.23,265.00 C562.58,264.87 562.93,264.66 563.29,264.57 C563.64,264.48 563.99,264.53 564.34,264.45 C564.69,264.37 565.05,264.20 565.40,264.09 C565.75,263.98 566.10,263.90 566.45,263.78 C566.81,263.66 567.16,263.48 567.51,263.36 C567.86,263.24 568.21,263.16 568.56,263.05 C568.92,262.95 569.27,262.84 569.62,262.75 C569.97,262.66 570.32,262.57 570.68,262.51 C571.03,262.45 571.38,262.46 571.73,262.39 C572.08,262.32 572.44,262.16 572.79,262.08 C573.14,262.01 573.49,262.01 573.84,261.93 C574.19,261.85 574.55,261.71 574.90,261.60 C575.25,261.49 575.60,261.43 575.95,261.26 C576.31,261.09 576.66,260.94 577.01,260.56 C577.36,260.19 577.71,259.43 578.07,259.02 C578.42,258.61 578.77,258.33 579.12,258.10 C579.47,257.88 579.83,257.83 580.18,257.68 C580.53,257.53 580.88,257.35 581.23,257.19 C581.58,257.04 581.94,256.90 582.29,256.77 C582.64,256.64 582.99,256.50 583.34,256.40 C583.70,256.31 584.05,256.28 584.40,256.19 C584.75,256.10 585.10,255.98 585.46,255.89 C585.81,255.79 586.16,255.74 586.51,255.61 C586.86,255.49 587.22,255.31 587.57,255.16 C587.92,255.01 588.27,254.93 588.62,254.73 C588.97,254.54 589.33,254.20 589.68,253.97 C590.03,253.75 590.38,253.54 590.73,253.40 C591.09,253.25 591.44,253.17 591.79,253.09 C592.14,253.02 592.49,253.02 592.85,252.94 C593.20,252.87 593.55,252.77 593.90,252.64 C594.25,252.51 594.61,252.29 594.96,252.15 C595.31,252.02 595.66,251.96 596.01,251.82 C596.36,251.68 596.72,251.44 597.07,251.30 C597.42,251.16 597.77,251.08 598.12,250.97 C598.48,250.85 598.83,250.73 599.18,250.60 C599.53,250.48 599.88,250.33 600.24,250.21 C600.59,250.09 600.94,250.19 601.29,249.84 C601.64,249.50 601.99,248.45 602.35,248.05 C602.70,247.66 603.05,247.73 603.40,247.47 C603.75,247.22 604.11,246.78 604.46,246.50 C604.81,246.22 605.16,246.01 605.51,245.80 C605.87,245.60 606.22,245.42 606.57,245.26 C606.92,245.10 607.27,244.97 607.63,244.83 C607.98,244.69 608.33,244.55 608.68,244.41 C609.03,244.27 609.38,244.09 609.74,243.98 C610.09,243.88 610.44,243.89 610.79,243.77 C611.14,243.65 611.50,243.40 611.85,243.25 C612.20,243.11 612.55,243.02 612.90,242.89 C613.26,242.76 613.61,242.61 613.96,242.46 C614.31,242.32 614.66,242.22 615.02,242.04 C615.37,241.86 615.72,241.56 616.07,241.37 C616.42,241.18 616.77,241.08 617.13,240.88 C617.48,240.69 617.83,240.43 618.18,240.19 C618.53,239.94 618.89,239.62 619.24,239.43 C619.59,239.23 619.94,239.17 620.29,239.03 C620.65,238.89 621.00,238.71 621.35,238.58 C621.70,238.44 622.05,238.36 622.41,238.21 C622.76,238.06 623.11,237.89 623.46,237.67 C623.81,237.44 624.16,237.11 624.52,236.88 C624.87,236.64 625.22,236.47 625.57,236.27 C625.92,236.07 626.28,235.86 626.63,235.66 C626.98,235.46 627.33,235.17 627.68,235.05 C628.04,234.94 628.39,235.00 628.74,234.90 C629.09,234.80 629.44,234.53 629.79,234.39 C630.15,234.24 630.50,234.19 630.85,234.02 C631.20,233.85 631.55,233.56 631.91,233.38 C632.26,233.21 632.61,233.14 632.96,232.99 C633.31,232.84 633.67,232.61 634.02,232.47 C634.37,232.33 634.72,232.33 635.07,232.14 C635.43,231.95 635.78,231.60 636.13,231.35 C636.48,231.10 636.83,230.83 637.18,230.62 C637.54,230.41 637.89,230.28 638.24,230.07 C638.59,229.87 638.94,229.59 639.30,229.41 C639.65,229.22 640.00,229.08 640.35,228.95 C640.70,228.82 641.06,228.76 641.41,228.65 C641.76,228.53 642.11,228.40 642.46,228.25 C642.82,228.10 643.17,227.94 643.52,227.77 C643.87,227.59 644.22,227.43 644.57,227.22 C644.93,227.01 645.28,226.69 645.63,226.49 C645.98,226.29 646.33,226.23 646.69,226.03 C647.04,225.84 647.39,225.55 647.74,225.34 C648.09,225.12 648.45,224.96 648.80,224.73 C649.15,224.50 649.50,224.23 649.85,223.94 C650.21,223.65 650.56,223.27 650.91,223.00 C651.26,222.73 651.61,222.54 651.96,222.33 C652.32,222.12 652.67,221.97 653.02,221.75 C653.37,221.53 653.72,221.23 654.08,221.02 C654.43,220.82 654.78,220.69 655.13,220.51 C655.48,220.32 655.84,220.11 656.19,219.93 C656.54,219.75 656.89,219.58 657.24,219.41 C657.59,219.25 657.95,219.12 658.30,218.96 C658.65,218.80 659.00,218.68 659.35,218.44 C659.71,218.20 660.06,217.78 660.41,217.53 C660.76,217.28 661.11,217.09 661.47,216.92 C661.82,216.76 662.17,216.67 662.52,216.53 C662.87,216.39 663.23,216.27 663.58,216.10 C663.93,215.94 664.28,215.70 664.63,215.56 C664.98,215.41 665.34,215.31 665.69,215.22 C666.04,215.14 666.39,215.14 666.74,215.04 C667.10,214.94 667.45,214.80 667.80,214.65 C668.15,214.49 668.50,214.25 668.86,214.10 C669.21,213.95 669.56,213.94 669.91,213.73 C670.26,213.53 670.62,213.10 670.97,212.88 C671.32,212.67 671.67,212.65 672.02,212.46 C672.37,212.27 672.73,212.03 673.08,211.73 C673.43,211.43 673.78,211.04 674.13,210.67 C674.49,210.30 674.84,209.87 675.19,209.51 C675.54,209.16 675.89,208.82 676.25,208.54 C676.60,208.26 676.95,208.08 677.30,207.84 C677.65,207.60 678.01,207.34 678.36,207.11 C678.71,206.89 679.06,206.67 679.41,206.48 C679.76,206.28 680.12,206.11 680.47,205.93 C680.82,205.75 681.17,205.58 681.52,205.38 C681.88,205.19 682.23,204.93 682.58,204.74 C682.93,204.56 683.28,204.40 683.64,204.26 C683.99,204.12 684.34,204.02 684.69,203.89 C685.04,203.77 685.39,203.74 685.75,203.53 C686.10,203.32 686.45,202.95 686.80,202.65 C687.15,202.35 687.51,201.96 687.86,201.74 C688.21,201.52 688.56,201.47 688.91,201.34 C689.27,201.22 689.62,201.13 689.97,201.01 C690.32,200.89 690.67,200.83 691.03,200.61 C691.38,200.40 691.73,200.09 692.08,199.70 C692.43,199.31 692.78,198.61 693.14,198.28 C693.49,197.94 693.84,197.92 694.19,197.70 C694.54,197.48 694.90,197.12 695.25,196.94 C695.60,196.76 695.95,196.72 696.30,196.61 C696.66,196.49 697.01,196.39 697.36,196.27 C697.71,196.16 698.06,196.01 698.42,195.91 C698.77,195.80 699.12,195.75 699.47,195.63 C699.82,195.52 700.17,195.38 700.53,195.24 C700.88,195.10 701.23,194.95 701.58,194.78 C701.93,194.62 702.29,194.41 702.64,194.24 C702.99,194.07 703.34,193.88 703.69,193.75 C704.05,193.62 704.40,193.63 704.75,193.45 C705.10,193.26 705.45,192.85 705.81,192.63 C706.16,192.40 706.51,192.29 706.86,192.11 C707.21,191.93 707.56,191.70 707.92,191.53 C708.27,191.37 708.62,191.28 708.97,191.14 C709.32,191.00 709.68,190.86 710.03,190.68 C710.38,190.51 710.73,190.26 711.08,190.08 C711.44,189.89 711.79,189.77 712.14,189.59 C712.49,189.41 712.84,189.19 713.19,188.98 C713.55,188.78 713.90,188.50 714.25,188.35 C714.60,188.19 714.95,188.18 715.31,188.04 C715.66,187.91 716.01,187.70 716.36,187.53 C716.71,187.35 717.07,187.15 717.42,186.98 C717.77,186.81 718.12,186.66 718.47,186.52 C718.83,186.39 719.18,186.33 719.53,186.16 C719.88,185.99 720.23,185.65 720.58,185.49 C720.94,185.33 721.29,185.34 721.64,185.19 C721.99,185.04 722.34,184.81 722.70,184.58 C723.05,184.35 723.40,184.03 723.75,183.79 C724.10,183.55 724.46,183.37 724.81,183.15 C725.16,182.93 725.51,182.73 725.86,182.48 C726.22,182.24 726.57,181.90 726.92,181.69 C727.27,181.49 727.62,181.36 727.97,181.24 C728.33,181.12 728.68,181.14 729.03,181.00 C729.38,180.85 729.73,180.55 730.09,180.39 C730.44,180.23 730.79,180.16 731.14,180.05 C731.49,179.95 731.85,179.88 732.20,179.75 C732.55,179.62 732.90,179.58 733.25,179.26 C733.61,178.95 733.96,178.34 734.31,177.87 C734.66,177.39 735.01,176.91 735.36,176.41 C735.72,175.91 736.07,175.43 736.42,174.89 C736.77,174.35 737.12,173.82 737.48,173.16 C737.83,172.50 738.18,171.54 738.53,170.91 C738.88,170.29 739.24,169.95 739.59,169.43 C739.94,168.90 740.29,168.30 740.64,167.79 C740.99,167.27 741.35,166.71 741.70,166.33 C742.05,165.94 742.40,165.81 742.75,165.48 C743.11,165.15 743.46,164.69 743.81,164.35 C744.16,164.02 744.51,163.73 744.87,163.47 C745.22,163.22 745.57,163.09 745.92,162.83 C746.27,162.58 746.63,162.21 746.98,161.92 C747.33,161.64 747.68,161.37 748.03,161.13 C748.38,160.90 748.74,160.75 749.09,160.50 C749.44,160.24 749.79,159.86 750.14,159.59 C750.50,159.31 750.85,159.13 751.20,158.83 C751.55,158.52 751.90,158.12 752.26,157.76 C752.61,157.41 752.96,157.02 753.31,156.70 C753.66,156.38 754.02,156.07 754.37,155.82 C754.72,155.57 755.07,155.39 755.42,155.18 C755.77,154.97 756.13,154.80 756.48,154.54 C756.83,154.29 757.18,153.95 757.53,153.66 C757.89,153.37 758.24,153.06 758.59,152.81 C758.94,152.57 759.29,152.45 759.65,152.21 C760.00,151.96 760.35,151.57 760.70,151.32 C761.05,151.08 761.41,150.93 761.76,150.75 C762.11,150.57 762.46,150.37 762.81,150.23 C763.16,150.09 763.52,150.04 763.87,149.93 C764.22,149.81 764.57,149.68 764.92,149.53 C765.28,149.39 765.63,149.22 765.98,149.05 C766.33,148.87 766.68,148.67 767.04,148.47 C767.39,148.27 767.74,148.09 768.09,147.86 C768.44,147.64 768.79,147.38 769.15,147.13 C769.50,146.89 769.85,146.59 770.20,146.37 C770.55,146.16 770.91,146.01 771.26,145.83 C771.61,145.65 771.96,145.49 772.31,145.28 C772.67,145.07 773.02,144.83 773.37,144.58 C773.72,144.34 774.07,144.04 774.43,143.82 C774.78,143.61 775.13,143.46 775.48,143.28 C775.83,143.09 776.18,142.90 776.54,142.73 C776.89,142.56 777.24,142.54 777.59,142.27 C777.94,142.01 778.30,141.42 778.65,141.15 C779.00,140.88 779.35,140.83 779.70,140.63 C780.06,140.44 780.41,140.21 780.76,140.00 C781.11,139.78 781.46,139.57 781.82,139.36 C782.17,139.15 782.52,138.94 782.87,138.72 C783.22,138.50 783.57,138.29 783.93,138.02 C784.28,137.76 784.63,137.41 784.98,137.14 C785.33,136.87 785.69,136.64 786.04,136.41 C786.39,136.19 786.74,135.97 787.09,135.81 C787.45,135.64 787.80,135.56 788.15,135.41 C788.50,135.26 788.85,135.10 789.21,134.93 C789.56,134.75 789.91,134.56 790.26,134.38 C790.61,134.20 790.96,134.02 791.32,133.83 C791.67,133.64 792.02,133.41 792.37,133.26 C792.72,133.10 793.08,133.03 793.43,132.92 C793.78,132.81 794.13,132.71 794.48,132.59 C794.84,132.46 795.19,132.33 795.54,132.16 C795.89,131.99 796.24,131.73 796.59,131.55 C796.95,131.38 797.30,131.32 797.65,131.13 C798.00,130.94 798.35,130.63 798.71,130.43 C799.06,130.23 799.41,130.12 799.76,129.94 C800.11,129.77 800.47,129.54 800.82,129.40 C801.17,129.25 801.52,129.19 801.87,129.06 C802.23,128.94 802.58,128.78 802.93,128.67 C803.28,128.56 803.63,128.54 803.98,128.40 C804.34,128.25 804.69,127.96 805.04,127.82 C805.39,127.68 805.74,127.67 806.10,127.55 C806.45,127.42 806.80,127.24 807.15,127.09 C807.50,126.94 807.86,126.79 808.21,126.66 C808.56,126.54 808.91,126.46 809.26,126.33 C809.62,126.20 809.97,126.00 810.32,125.88 C810.67,125.75 811.02,125.71 811.37,125.57 C811.73,125.43 812.08,125.21 812.43,125.06 C812.78,124.90 813.13,124.79 813.49,124.66 C813.84,124.53 814.19,124.40 814.54,124.27 C814.89,124.13 815.25,123.99 815.60,123.84 C815.95,123.69 816.30,123.54 816.65,123.35 C817.01,123.17 817.36,122.89 817.71,122.72 C818.06,122.54 818.41,122.47 818.76,122.32 C819.12,122.17 819.47,121.95 819.82,121.81 C820.17,121.66 820.52,121.53 820.88,121.44 C821.23,121.35 821.58,121.39 821.93,121.26 C822.28,121.13 822.64,120.82 822.99,120.65 C823.34,120.48 823.69,120.38 824.04,120.26 C824.39,120.14 824.75,120.04 825.10,119.92 C825.45,119.80 825.80,119.72 826.15,119.53 C826.51,119.34 826.86,118.99 827.21,118.80 C827.56,118.61 827.91,118.52 828.27,118.37 C828.62,118.23 828.97,118.07 829.32,117.95 C829.67,117.83 830.03,117.75 830.38,117.68 C830.73,117.60 831.08,117.59 831.43,117.52 C831.78,117.46 832.14,117.38 832.49,117.28 C832.84,117.18 833.19,117.06 833.54,116.95 C833.90,116.83 834.25,116.69 834.60,116.58 C834.95,116.47 835.30,116.38 835.66,116.28 C836.01,116.17 836.36,116.05 836.71,115.94 C837.06,115.84 837.42,115.80 837.77,115.67 C838.12,115.54 838.47,115.30 838.82,115.19 C839.17,115.07 839.53,115.04 839.88,114.97 C840.23,114.90 840.58,114.84 840.93,114.76 C841.29,114.68 841.64,114.60 841.99,114.49 C842.34,114.38 842.69,114.24 843.05,114.09 C843.40,113.94 843.75,113.73 844.10,113.58 C844.45,113.42 844.81,113.30 845.16,113.18 C845.51,113.06 845.86,112.99 846.21,112.88 C846.56,112.77 846.92,112.62 847.27,112.51 C847.62,112.41 847.97,112.34 848.32,112.24 C848.68,112.14 849.03,112.03 849.38,111.91 C849.73,111.78 850.08,111.62 850.44,111.51 C850.79,111.40 851.14,111.33 851.49,111.24 C851.84,111.15 852.19,111.07 852.55,110.96 C852.90,110.86 853.25,110.70 853.60,110.60 C853.95,110.50 854.31,110.44 854.66,110.36 C855.01,110.27 855.36,110.16 855.71,110.08 C856.07,110.00 856.42,109.96 856.77,109.87 C857.12,109.78 857.47,109.70 857.83,109.54 C858.18,109.37 858.53,109.03 858.88,108.87 C859.23,108.71 859.58,108.67 859.94,108.59 C860.29,108.52 860.64,108.50 860.99,108.44 C861.34,108.38 861.70,108.33 862.05,108.23 C862.40,108.13 862.75,107.97 863.10,107.87 C863.46,107.76 863.81,107.72 864.16,107.62 C864.51,107.53 864.86,107.41 865.22,107.29 C865.57,107.17 865.92,107.06 866.27,106.92 C866.62,106.79 866.97,106.63 867.33,106.50 C867.68,106.37 868.03,106.31 868.38,106.17 C868.73,106.02 869.09,105.81 869.44,105.65 C869.79,105.49 870.14,105.33 870.49,105.19 C870.85,105.06 871.20,105.01 871.55,104.86 C871.90,104.71 872.25,104.47 872.61,104.31 C872.96,104.16 873.31,104.03 873.66,103.92 C874.01,103.80 874.36,103.69 874.72,103.61 C875.07,103.54 875.42,103.55 875.77,103.46 C876.12,103.37 876.48,103.20 876.83,103.07 C877.18,102.93 877.53,102.81 877.88,102.64 C878.24,102.48 878.59,102.26 878.94,102.07 C879.29,101.87 879.64,101.65 879.99,101.49 C880.35,101.33 880.70,101.23 881.05,101.09 C881.40,100.96 881.75,100.82 882.11,100.70 C882.46,100.58 882.81,100.55 883.16,100.40 C883.51,100.24 883.87,99.94 884.22,99.79 C884.57,99.63 884.92,99.60 885.27,99.45 C885.63,99.31 885.98,99.08 886.33,98.94 C886.68,98.80 887.03,98.73 887.38,98.60 C887.74,98.47 888.09,98.32 888.44,98.15 C888.79,97.97 889.14,97.70 889.50,97.54 C889.85,97.38 890.20,97.29 890.55,97.18 C890.90,97.06 891.26,97.00 891.61,96.87 C891.96,96.74 892.31,96.52 892.66,96.39 C893.02,96.25 893.37,96.17 893.72,96.05 C894.07,95.94 894.42,95.84 894.77,95.69 C895.13,95.54 895.48,95.30 895.83,95.14 C896.18,94.98 896.53,94.85 896.89,94.75 C897.24,94.64 897.59,94.59 897.94,94.50 C898.29,94.42 898.65,94.34 899.00,94.23 C899.35,94.12 899.70,93.98 900.05,93.84 C900.41,93.69 900.76,93.58 901.11,93.38 C901.46,93.18 901.81,92.81 902.16,92.62 C902.52,92.43 902.87,92.37 903.22,92.23 C903.57,92.08 903.92,91.87 904.28,91.74 C904.63,91.61 904.98,91.57 905.33,91.44 C905.68,91.30 906.04,91.10 906.39,90.95 C906.74,90.80 907.09,90.66 907.44,90.53 C907.79,90.39 908.15,90.31 908.50,90.16 C908.85,90.01 909.20,89.80 909.55,89.61 C909.91,89.43 910.26,89.23 910.61,89.04 C910.96,88.84 911.31,88.63 911.67,88.43 C912.02,88.23 912.37,88.05 912.72,87.85 C913.07,87.66 913.43,87.41 913.78,87.25 C914.13,87.08 914.48,87.02 914.83,86.88 C915.18,86.74 915.54,86.55 915.89,86.43 C916.24,86.30 916.59,86.22 916.94,86.15 C917.30,86.08 917.65,86.05 918.00,86.00 L918.00,418.00 L84.00,418.00 Z" fill="#0969da" opacity="0.12" />
    <path d="M84.00,417.79 C84.35,417.70 84.70,417.62 85.06,417.51 C85.41,417.41 85.76,417.28 86.11,417.18 C86.46,417.08 86.82,416.98 87.17,416.94 C87.52,416.90 87.87,416.93 88.22,416.85 C88.57,416.76 88.93,416.35 89.28,416.21 C89.63,416.07 89.98,416.05 90.33,416.00 C90.69,415.94 91.04,415.96 91.39,415.90 C91.74,415.85 92.09,415.73 92.45,415.69 C92.80,415.65 93.15,415.69 93.50,415.57 C93.85,415.46 94.21,414.93 94.56,414.69 C94.91,414.45 95.26,414.32 95.61,414.14 C95.96,413.97 96.32,413.75 96.67,413.63 C97.02,413.50 97.37,413.47 97.72,413.38 C98.08,413.30 98.43,413.18 98.78,413.11 C99.13,413.04 99.48,413.03 99.84,412.99 C100.19,412.94 100.54,412.90 100.89,412.84 C101.24,412.77 101.59,412.65 101.95,412.59 C102.30,412.53 102.65,412.51 103.00,412.47 C103.35,412.43 103.71,412.45 104.06,412.35 C104.41,412.25 104.76,412.00 105.11,411.87 C105.47,411.73 105.82,411.64 106.17,411.53 C106.52,411.42 106.87,411.30 107.23,411.23 C107.58,411.15 107.93,411.14 108.28,411.08 C108.63,411.02 108.98,410.92 109.34,410.86 C109.69,410.81 110.04,410.78 110.39,410.74 C110.74,410.71 111.10,410.73 111.45,410.65 C111.80,410.57 112.15,410.37 112.50,410.29 C112.86,410.20 113.21,410.18 113.56,410.13 C113.91,410.09 114.26,410.05 114.62,410.01 C114.97,409.98 115.32,409.96 115.67,409.92 C116.02,409.89 116.37,409.87 116.73,409.80 C117.08,409.73 117.43,409.56 117.78,409.50 C118.13,409.43 118.49,409.47 118.84,409.41 C119.19,409.34 119.54,409.17 119.89,409.10 C120.25,409.03 120.60,409.00 120.95,408.98 C121.30,408.96 121.65,408.97 122.01,408.95 C122.36,408.93 122.71,408.87 123.06,408.86 C123.41,408.84 123.76,408.86 124.12,408.77 C124.47,408.68 124.82,408.03 125.17,407.77 C125.52,407.50 125.88,407.33 126.23,407.16 C126.58,406.99 126.93,406.82 127.28,406.76 C127.64,406.71 127.99,406.73 128.34,406.70 C128.69,406.68 129.04,406.64 129.39,406.55 C129.75,406.46 130.10,406.30 130.45,406.19 C130.80,406.07 131.15,405.95 131.51,405.85 C131.86,405.76 132.21,405.71 132.56,405.61 C132.91,405.51 133.27,405.45 133.62,405.24 C133.97,405.04 134.32,404.59 134.67,404.39 C135.03,404.20 135.38,404.10 135.73,404.06 C136.08,404.02 136.43,404.05 136.78,403.94 C137.14,403.82 137.49,403.04 137.84,402.82 C138.19,402.59 138.54,402.66 138.90,402.57 C139.25,402.49 139.60,402.38 139.95,402.30 C140.30,402.22 140.66,402.15 141.01,402.09 C141.36,402.03 141.71,401.98 142.06,401.93 C142.42,401.89 142.77,401.86 143.12,401.81 C143.47,401.76 143.82,401.69 144.17,401.63 C144.53,401.58 144.88,401.54 145.23,401.48 C145.58,401.42 145.93,401.32 146.29,401.27 C146.64,401.21 146.99,401.22 147.34,401.14 C147.69,401.07 148.05,400.96 148.40,400.81 C148.75,400.66 149.10,400.40 149.45,400.23 C149.81,400.07 150.16,399.95 150.51,399.84 C150.86,399.73 151.21,399.69 151.56,399.60 C151.92,399.50 152.27,399.35 152.62,399.26 C152.97,399.18 153.32,399.14 153.68,399.08 C154.03,399.02 154.38,398.96 154.73,398.90 C155.08,398.83 155.44,398.75 155.79,398.68 C156.14,398.62 156.49,398.55 156.84,398.50 C157.19,398.45 157.55,398.43 157.90,398.38 C158.25,398.34 158.60,398.28 158.95,398.23 C159.31,398.18 159.66,398.13 160.01,398.08 C160.36,398.03 160.71,397.99 161.07,397.93 C161.42,397.86 161.77,397.78 162.12,397.68 C162.47,397.59 162.83,397.45 163.18,397.35 C163.53,397.25 163.88,397.16 164.23,397.08 C164.58,396.99 164.94,397.05 165.29,396.83 C165.64,396.61 165.99,396.05 166.34,395.77 C166.70,395.49 167.05,395.28 167.40,395.13 C167.75,394.98 168.10,394.95 168.46,394.86 C168.81,394.77 169.16,394.66 169.51,394.59 C169.86,394.51 170.22,394.46 170.57,394.40 C170.92,394.35 171.27,394.33 171.62,394.25 C171.97,394.18 172.33,394.06 172.68,393.95 C173.03,393.83 173.38,393.65 173.73,393.55 C174.09,393.46 174.44,393.45 174.79,393.37 C175.14,393.29 175.49,393.19 175.85,393.10 C176.20,393.01 176.55,392.90 176.90,392.82 C177.25,392.74 177.61,392.69 177.96,392.61 C178.31,392.53 178.66,392.43 179.01,392.34 C179.36,392.25 179.72,392.15 180.07,392.06 C180.42,391.98 180.77,391.93 181.12,391.85 C181.48,391.78 181.83,391.69 182.18,391.61 C182.53,391.52 182.88,391.43 183.24,391.34 C183.59,391.24 183.94,391.09 184.29,391.03 C184.64,390.97 184.99,391.01 185.35,390.94 C185.70,390.87 186.05,390.75 186.40,390.58 C186.75,390.40 187.11,390.02 187.46,389.88 C187.81,389.73 188.16,389.77 188.51,389.70 C188.87,389.62 189.22,389.52 189.57,389.42 C189.92,389.32 190.27,389.25 190.63,389.09 C190.98,388.93 191.33,388.60 191.68,388.45 C192.03,388.30 192.38,388.30 192.74,388.21 C193.09,388.11 193.44,387.98 193.79,387.87 C194.14,387.77 194.50,387.64 194.85,387.57 C195.20,387.50 195.55,387.51 195.90,387.45 C196.26,387.39 196.61,387.31 196.96,387.21 C197.31,387.10 197.66,386.93 198.02,386.84 C198.37,386.75 198.72,386.75 199.07,386.69 C199.42,386.62 199.77,386.55 200.13,386.45 C200.48,386.34 200.83,386.15 201.18,386.08 C201.53,386.01 201.89,386.05 202.24,385.99 C202.59,385.93 202.94,385.77 203.29,385.69 C203.65,385.61 204.00,385.58 204.35,385.50 C204.70,385.43 205.05,385.31 205.41,385.23 C205.76,385.15 206.11,385.11 206.46,385.02 C206.81,384.93 207.16,384.78 207.52,384.68 C207.87,384.59 208.22,384.53 208.57,384.47 C208.92,384.41 209.28,384.40 209.63,384.32 C209.98,384.24 210.33,384.09 210.68,384.02 C211.04,383.94 211.39,383.95 211.74,383.86 C212.09,383.78 212.44,383.62 212.79,383.53 C213.15,383.44 213.50,383.41 213.85,383.32 C214.20,383.23 214.55,383.12 214.91,382.98 C215.26,382.85 215.61,382.65 215.96,382.53 C216.31,382.41 216.67,382.34 217.02,382.26 C217.37,382.17 217.72,382.10 218.07,382.01 C218.43,381.93 218.78,381.86 219.13,381.74 C219.48,381.62 219.83,381.42 220.18,381.31 C220.54,381.20 220.89,381.13 221.24,381.07 C221.59,381.01 221.94,381.01 222.30,380.95 C222.65,380.88 223.00,380.77 223.35,380.68 C223.70,380.58 224.06,380.52 224.41,380.40 C224.76,380.29 225.11,380.05 225.46,379.98 C225.82,379.90 226.17,379.96 226.52,379.83 C226.87,379.69 227.22,379.18 227.57,378.94 C227.93,378.71 228.28,378.61 228.63,378.40 C228.98,378.19 229.33,377.82 229.69,377.67 C230.04,377.52 230.39,377.59 230.74,377.49 C231.09,377.39 231.45,377.19 231.80,377.06 C232.15,376.94 232.50,376.83 232.85,376.73 C233.21,376.62 233.56,376.52 233.91,376.42 C234.26,376.33 234.61,376.27 234.96,376.15 C235.32,376.03 235.67,375.88 236.02,375.73 C236.37,375.57 236.72,375.39 237.08,375.24 C237.43,375.09 237.78,374.97 238.13,374.84 C238.48,374.72 238.84,374.61 239.19,374.48 C239.54,374.35 239.89,374.17 240.24,374.06 C240.59,373.94 240.95,373.88 241.30,373.78 C241.65,373.69 242.00,373.58 242.35,373.48 C242.71,373.38 243.06,373.27 243.41,373.17 C243.76,373.08 244.11,373.00 244.47,372.90 C244.82,372.80 245.17,372.69 245.52,372.57 C245.87,372.45 246.23,372.28 246.58,372.17 C246.93,372.06 247.28,371.96 247.63,371.90 C247.98,371.83 248.34,371.82 248.69,371.78 C249.04,371.73 249.39,371.68 249.74,371.63 C250.10,371.57 250.45,371.51 250.80,371.44 C251.15,371.37 251.50,371.32 251.86,371.20 C252.21,371.08 252.56,370.84 252.91,370.71 C253.26,370.59 253.62,370.58 253.97,370.47 C254.32,370.37 254.67,370.19 255.02,370.08 C255.37,369.96 255.73,369.87 256.08,369.77 C256.43,369.68 256.78,369.65 257.13,369.50 C257.49,369.35 257.84,369.06 258.19,368.89 C258.54,368.73 258.89,368.61 259.25,368.50 C259.60,368.38 259.95,368.47 260.30,368.19 C260.65,367.92 261.01,367.20 261.36,366.86 C261.71,366.52 262.06,366.33 262.41,366.16 C262.76,365.99 263.12,366.00 263.47,365.86 C263.82,365.71 264.17,365.43 264.52,365.28 C264.88,365.13 265.23,365.04 265.58,364.94 C265.93,364.85 266.28,364.77 266.64,364.70 C266.99,364.64 267.34,364.60 267.69,364.55 C268.04,364.50 268.39,364.46 268.75,364.40 C269.10,364.33 269.45,364.24 269.80,364.15 C270.15,364.07 270.51,364.10 270.86,363.91 C271.21,363.72 271.56,363.17 271.91,363.00 C272.27,362.83 272.62,362.91 272.97,362.79 C273.32,362.66 273.67,362.36 274.03,362.18 C274.38,362.00 274.73,361.89 275.08,361.73 C275.43,361.56 275.78,361.37 276.14,361.18 C276.49,360.99 276.84,360.77 277.19,360.60 C277.54,360.43 277.90,360.28 278.25,360.18 C278.60,360.08 278.95,360.08 279.30,359.99 C279.66,359.91 280.01,359.85 280.36,359.69 C280.71,359.53 281.06,359.26 281.42,359.02 C281.77,358.78 282.12,358.46 282.47,358.26 C282.82,358.07 283.17,357.98 283.53,357.84 C283.88,357.69 284.23,357.51 284.58,357.38 C284.93,357.25 285.29,357.17 285.64,357.05 C285.99,356.92 286.34,356.73 286.69,356.62 C287.05,356.51 287.40,356.47 287.75,356.38 C288.10,356.29 288.45,356.15 288.81,356.08 C289.16,356.01 289.51,356.07 289.86,355.83 C290.21,355.60 290.56,354.62 290.92,354.28 C291.27,353.95 291.62,353.99 291.97,353.83 C292.32,353.67 292.68,353.61 293.03,353.34 C293.38,353.08 293.73,352.55 294.08,352.25 C294.44,351.95 294.79,351.75 295.14,351.55 C295.49,351.35 295.84,351.25 296.19,351.07 C296.55,350.88 296.90,350.61 297.25,350.46 C297.60,350.31 297.95,350.26 298.31,350.15 C298.66,350.05 299.01,349.95 299.36,349.82 C299.71,349.69 300.07,349.53 300.42,349.36 C300.77,349.20 301.12,349.03 301.47,348.85 C301.83,348.67 302.18,348.47 302.53,348.27 C302.88,348.07 303.23,347.82 303.58,347.66 C303.94,347.51 304.29,347.46 304.64,347.36 C304.99,347.26 305.34,347.20 305.70,347.09 C306.05,346.97 306.40,346.83 306.75,346.66 C307.10,346.49 307.46,346.22 307.81,346.05 C308.16,345.89 308.51,345.87 308.86,345.69 C309.22,345.51 309.57,345.18 309.92,344.96 C310.27,344.74 310.62,344.55 310.97,344.35 C311.33,344.16 311.68,343.98 312.03,343.78 C312.38,343.57 312.73,343.32 313.09,343.14 C313.44,342.96 313.79,342.84 314.14,342.71 C314.49,342.59 314.85,342.51 315.20,342.41 C315.55,342.31 315.90,342.25 316.25,342.14 C316.61,342.03 316.96,341.88 317.31,341.74 C317.66,341.60 318.01,341.40 318.36,341.29 C318.72,341.17 319.07,341.17 319.42,341.04 C319.77,340.92 320.12,340.66 320.48,340.53 C320.83,340.39 321.18,340.32 321.53,340.22 C321.88,340.13 322.24,340.08 322.59,339.95 C322.94,339.82 323.29,339.66 323.64,339.46 C323.99,339.27 324.35,338.96 324.70,338.77 C325.05,338.57 325.40,338.45 325.75,338.31 C326.11,338.17 326.46,338.04 326.81,337.92 C327.16,337.79 327.51,337.65 327.87,337.55 C328.22,337.45 328.57,337.41 328.92,337.31 C329.27,337.20 329.63,337.02 329.98,336.91 C330.33,336.80 330.68,336.73 331.03,336.64 C331.38,336.55 331.74,336.49 332.09,336.40 C332.44,336.31 332.79,336.18 333.14,336.09 C333.50,336.00 333.85,335.92 334.20,335.85 C334.55,335.78 334.90,335.72 335.26,335.67 C335.61,335.61 335.96,335.59 336.31,335.52 C336.66,335.44 337.02,335.30 337.37,335.21 C337.72,335.12 338.07,335.06 338.42,334.97 C338.77,334.88 339.13,334.78 339.48,334.67 C339.83,334.55 340.18,334.40 340.53,334.30 C340.89,334.21 341.24,334.17 341.59,334.09 C341.94,334.01 342.29,333.89 342.65,333.82 C343.00,333.74 343.35,333.73 343.70,333.66 C344.05,333.59 344.41,333.48 344.76,333.39 C345.11,333.30 345.46,333.20 345.81,333.12 C346.16,333.04 346.52,333.00 346.87,332.90 C347.22,332.81 347.57,332.66 347.92,332.57 C348.28,332.48 348.63,332.45 348.98,332.36 C349.33,332.26 349.68,332.13 350.04,331.99 C350.39,331.86 350.74,331.67 351.09,331.57 C351.44,331.46 351.79,331.46 352.15,331.36 C352.50,331.25 352.85,331.06 353.20,330.93 C353.55,330.80 353.91,330.72 354.26,330.60 C354.61,330.47 354.96,330.32 355.31,330.17 C355.67,330.02 356.02,329.81 356.37,329.69 C356.72,329.56 357.07,329.51 357.43,329.41 C357.78,329.32 358.13,329.21 358.48,329.11 C358.83,329.00 359.18,328.93 359.54,328.77 C359.89,328.62 360.24,328.33 360.59,328.17 C360.94,328.00 361.30,327.87 361.65,327.77 C362.00,327.67 362.35,327.64 362.70,327.56 C363.06,327.48 363.41,327.43 363.76,327.32 C364.11,327.21 364.46,326.97 364.82,326.89 C365.17,326.82 365.52,326.85 365.87,326.80 C366.22,326.75 366.57,326.59 366.93,326.53 C367.28,326.46 367.63,326.45 367.98,326.41 C368.33,326.36 368.69,326.33 369.04,326.25 C369.39,326.18 369.74,326.02 370.09,325.95 C370.45,325.88 370.80,325.89 371.15,325.83 C371.50,325.76 371.85,325.63 372.21,325.56 C372.56,325.48 372.91,325.48 373.26,325.40 C373.61,325.33 373.96,325.18 374.32,325.10 C374.67,325.02 375.02,325.01 375.37,324.95 C375.72,324.88 376.08,324.79 376.43,324.70 C376.78,324.62 377.13,324.55 377.48,324.46 C377.84,324.37 378.19,324.22 378.54,324.16 C378.89,324.09 379.24,324.12 379.59,324.07 C379.95,324.01 380.30,323.90 380.65,323.82 C381.00,323.75 381.35,323.69 381.71,323.61 C382.06,323.54 382.41,323.44 382.76,323.37 C383.11,323.29 383.47,323.25 383.82,323.16 C384.17,323.06 384.52,322.94 384.87,322.79 C385.23,322.64 385.58,322.38 385.93,322.24 C386.28,322.11 386.63,322.07 386.98,322.00 C387.34,321.93 387.69,321.90 388.04,321.82 C388.39,321.74 388.74,321.60 389.10,321.52 C389.45,321.43 389.80,321.38 390.15,321.33 C390.50,321.29 390.86,321.29 391.21,321.24 C391.56,321.19 391.91,321.21 392.26,321.03 C392.62,320.85 392.97,320.36 393.32,320.15 C393.67,319.94 394.02,319.87 394.37,319.75 C394.73,319.64 395.08,319.55 395.43,319.45 C395.78,319.35 396.13,319.29 396.49,319.18 C396.84,319.07 397.19,318.91 397.54,318.78 C397.89,318.65 398.25,318.52 398.60,318.39 C398.95,318.25 399.30,318.08 399.65,317.96 C400.01,317.85 400.36,317.81 400.71,317.69 C401.06,317.57 401.41,317.37 401.76,317.26 C402.12,317.16 402.47,317.14 402.82,317.05 C403.17,316.97 403.52,316.85 403.88,316.75 C404.23,316.64 404.58,316.50 404.93,316.41 C405.28,316.32 405.64,316.28 405.99,316.20 C406.34,316.13 406.69,316.03 407.04,315.96 C407.39,315.89 407.75,315.82 408.10,315.78 C408.45,315.74 408.80,315.76 409.15,315.72 C409.51,315.67 409.86,315.58 410.21,315.53 C410.56,315.48 410.91,315.47 411.27,315.41 C411.62,315.35 411.97,315.25 412.32,315.17 C412.67,315.09 413.03,315.02 413.38,314.93 C413.73,314.83 414.08,314.69 414.43,314.62 C414.78,314.55 415.14,314.56 415.49,314.50 C415.84,314.44 416.19,314.35 416.54,314.29 C416.90,314.23 417.25,314.21 417.60,314.14 C417.95,314.06 418.30,313.92 418.66,313.83 C419.01,313.75 419.36,313.68 419.71,313.62 C420.06,313.56 420.42,313.53 420.77,313.47 C421.12,313.41 421.47,313.33 421.82,313.26 C422.17,313.18 422.53,313.07 422.88,313.01 C423.23,312.95 423.58,312.93 423.93,312.89 C424.29,312.85 424.64,312.84 424.99,312.77 C425.34,312.70 425.69,312.57 426.05,312.50 C426.40,312.42 426.75,312.38 427.10,312.31 C427.45,312.24 427.81,312.13 428.16,312.07 C428.51,312.01 428.86,311.98 429.21,311.95 C429.56,311.92 429.92,311.92 430.27,311.89 C430.62,311.85 430.97,311.81 431.32,311.74 C431.68,311.67 432.03,311.53 432.38,311.46 C432.73,311.39 433.08,311.41 433.44,311.31 C433.79,311.22 434.14,310.91 434.49,310.89 C434.84,310.86 435.19,310.87 435.55,310.86 C435.90,310.84 436.25,310.67 436.60,310.61 C436.95,310.55 437.31,310.53 437.66,310.49 C438.01,310.45 438.36,310.41 438.71,310.37 C439.07,310.33 439.42,310.27 439.77,310.25 C440.12,310.23 440.47,310.24 440.83,310.22 C441.18,310.19 441.53,310.10 441.88,310.04 C442.23,309.97 442.58,309.88 442.94,309.82 C443.29,309.77 443.64,309.73 443.99,309.70 C444.34,309.67 444.70,309.68 445.05,309.64 C445.40,309.60 445.75,309.51 446.10,309.46 C446.46,309.41 446.81,309.39 447.16,309.34 C447.51,309.29 447.86,309.23 448.22,309.16 C448.57,309.08 448.92,308.97 449.27,308.91 C449.62,308.86 449.97,308.85 450.33,308.82 C450.68,308.80 451.03,308.81 451.38,308.76 C451.73,308.71 452.09,308.58 452.44,308.52 C452.79,308.46 453.14,308.46 453.49,308.40 C453.85,308.34 454.20,308.23 454.55,308.15 C454.90,308.07 455.25,307.99 455.61,307.91 C455.96,307.83 456.31,307.73 456.66,307.67 C457.01,307.60 457.36,307.58 457.72,307.52 C458.07,307.45 458.42,307.36 458.77,307.27 C459.12,307.18 459.48,307.04 459.83,306.97 C460.18,306.90 460.53,306.88 460.88,306.85 C461.24,306.82 461.59,306.85 461.94,306.67 C462.29,306.49 462.64,305.44 462.99,304.96 C463.35,304.49 463.70,304.09 464.05,303.84 C464.40,303.59 464.75,303.60 465.11,303.48 C465.46,303.35 465.81,303.23 466.16,303.11 C466.51,303.00 466.87,302.88 467.22,302.78 C467.57,302.67 467.92,302.63 468.27,302.47 C468.63,302.32 468.98,302.03 469.33,301.84 C469.68,301.64 470.03,301.47 470.38,301.32 C470.74,301.17 471.09,301.09 471.44,300.96 C471.79,300.82 472.14,300.66 472.50,300.53 C472.85,300.40 473.20,300.28 473.55,300.17 C473.90,300.05 474.26,299.93 474.61,299.83 C474.96,299.74 475.31,299.69 475.66,299.59 C476.02,299.49 476.37,299.37 476.72,299.26 C477.07,299.14 477.42,299.05 477.77,298.92 C478.13,298.79 478.48,298.58 478.83,298.47 C479.18,298.35 479.53,298.31 479.89,298.22 C480.24,298.14 480.59,298.04 480.94,297.95 C481.29,297.86 481.65,297.80 482.00,297.68 C482.35,297.55 482.70,297.33 483.05,297.22 C483.41,297.11 483.76,297.11 484.11,297.01 C484.46,296.90 484.81,296.71 485.16,296.58 C485.52,296.46 485.87,296.38 486.22,296.25 C486.57,296.12 486.92,295.93 487.28,295.79 C487.63,295.66 487.98,295.51 488.33,295.43 C488.68,295.35 489.04,295.42 489.39,295.19 C489.74,294.96 490.09,293.98 490.44,293.61 C490.79,293.24 491.15,293.15 491.50,292.97 C491.85,292.79 492.20,292.71 492.55,292.54 C492.91,292.38 493.26,292.17 493.61,291.97 C493.96,291.76 494.31,291.54 494.67,291.33 C495.02,291.12 495.37,290.77 495.72,290.72 C496.07,290.67 496.43,290.69 496.78,290.66 C497.13,290.63 497.48,290.41 497.83,290.30 C498.18,290.18 498.54,290.10 498.89,289.99 C499.24,289.89 499.59,289.75 499.94,289.66 C500.30,289.56 500.65,289.52 501.00,289.42 C501.35,289.31 501.70,289.17 502.06,289.05 C502.41,288.93 502.76,288.81 503.11,288.69 C503.46,288.56 503.82,288.43 504.17,288.29 C504.52,288.15 504.87,288.01 505.22,287.87 C505.57,287.72 505.93,287.53 506.28,287.41 C506.63,287.29 506.98,287.26 507.33,287.14 C507.69,287.01 508.04,286.81 508.39,286.65 C508.74,286.49 509.09,286.38 509.45,286.20 C509.80,286.01 510.15,285.74 510.50,285.56 C510.85,285.38 511.21,285.25 511.56,285.10 C511.91,284.95 512.26,284.76 512.61,284.65 C512.96,284.54 513.32,284.52 513.67,284.43 C514.02,284.35 514.37,284.28 514.72,284.13 C515.08,283.98 515.43,283.74 515.78,283.55 C516.13,283.37 516.48,283.15 516.84,283.04 C517.19,282.92 517.54,282.95 517.89,282.86 C518.24,282.76 518.59,282.60 518.95,282.49 C519.30,282.38 519.65,282.42 520.00,282.22 C520.35,282.02 520.71,281.55 521.06,281.31 C521.41,281.06 521.76,281.07 522.11,280.73 C522.47,280.39 522.82,279.71 523.17,279.27 C523.52,278.84 523.87,278.40 524.23,278.12 C524.58,277.83 524.93,277.77 525.28,277.57 C525.63,277.37 525.98,277.13 526.34,276.93 C526.69,276.74 527.04,276.56 527.39,276.42 C527.74,276.27 528.10,276.17 528.45,276.05 C528.80,275.94 529.15,275.84 529.50,275.72 C529.86,275.60 530.21,275.51 530.56,275.35 C530.91,275.20 531.26,274.96 531.62,274.81 C531.97,274.65 532.32,274.56 532.67,274.41 C533.02,274.27 533.37,273.95 533.73,273.93 C534.08,273.90 534.43,273.91 534.78,273.90 C535.13,273.88 535.49,273.83 535.84,273.71 C536.19,273.60 536.54,273.35 536.89,273.23 C537.25,273.10 537.60,273.07 537.95,272.95 C538.30,272.84 538.65,272.67 539.01,272.56 C539.36,272.45 539.71,272.38 540.06,272.29 C540.41,272.19 540.76,272.12 541.12,271.98 C541.47,271.85 541.82,271.61 542.17,271.47 C542.52,271.32 542.88,271.20 543.23,271.10 C543.58,271.00 543.93,270.95 544.28,270.86 C544.64,270.77 544.99,270.72 545.34,270.59 C545.69,270.45 546.04,270.17 546.39,270.04 C546.75,269.91 547.10,269.88 547.45,269.80 C547.80,269.71 548.15,269.61 548.51,269.52 C548.86,269.43 549.21,269.32 549.56,269.25 C549.91,269.18 550.27,269.22 550.62,269.13 C550.97,269.04 551.32,268.83 551.67,268.70 C552.03,268.58 552.38,268.48 552.73,268.37 C553.08,268.26 553.43,268.14 553.78,268.04 C554.14,267.93 554.49,267.85 554.84,267.73 C555.19,267.61 555.54,267.43 555.90,267.31 C556.25,267.18 556.60,267.11 556.95,266.97 C557.30,266.83 557.66,266.62 558.01,266.46 C558.36,266.29 558.71,266.12 559.06,266.00 C559.42,265.88 559.77,265.84 560.12,265.73 C560.47,265.62 560.82,265.45 561.17,265.33 C561.53,265.21 561.88,265.12 562.23,265.00 C562.58,264.87 562.93,264.66 563.29,264.57 C563.64,264.48 563.99,264.53 564.34,264.45 C564.69,264.37 565.05,264.20 565.40,264.09 C565.75,263.98 566.10,263.90 566.45,263.78 C566.81,263.66 567.16,263.48 567.51,263.36 C567.86,263.24 568.21,263.16 568.56,263.05 C568.92,262.95 569.27,262.84 569.62,262.75 C569.97,262.66 570.32,262.57 570.68,262.51 C571.03,262.45 571.38,262.46 571.73,262.39 C572.08,262.32 572.44,262.16 572.79,262.08 C573.14,262.01 573.49,262.01 573.84,261.93 C574.19,261.85 574.55,261.71 574.90,261.60 C575.25,261.49 575.60,261.43 575.95,261.26 C576.31,261.09 576.66,260.94 577.01,260.56 C577.36,260.19 577.71,259.43 578.07,259.02 C578.42,258.61 578.77,258.33 579.12,258.10 C579.47,257.88 579.83,257.83 580.18,257.68 C580.53,257.53 580.88,257.35 581.23,257.19 C581.58,257.04 581.94,256.90 582.29,256.77 C582.64,256.64 582.99,256.50 583.34,256.40 C583.70,256.31 584.05,256.28 584.40,256.19 C584.75,256.10 585.10,255.98 585.46,255.89 C585.81,255.79 586.16,255.74 586.51,255.61 C586.86,255.49 587.22,255.31 587.57,255.16 C587.92,255.01 588.27,254.93 588.62,254.73 C588.97,254.54 589.33,254.20 589.68,253.97 C590.03,253.75 590.38,253.54 590.73,253.40 C591.09,253.25 591.44,253.17 591.79,253.09 C592.14,253.02 592.49,253.02 592.85,252.94 C593.20,252.87 593.55,252.77 593.90,252.64 C594.25,252.51 594.61,252.29 594.96,252.15 C595.31,252.02 595.66,251.96 596.01,251.82 C596.36,251.68 596.72,251.44 597.07,251.30 C597.42,251.16 597.77,251.08 598.12,250.97 C598.48,250.85 598.83,250.73 599.18,250.60 C599.53,250.48 599.88,250.33 600.24,250.21 C600.59,250.09 600.94,250.19 601.29,249.84 C601.64,249.50 601.99,248.45 602.35,248.05 C602.70,247.66 603.05,247.73 603.40,247.47 C603.75,247.22 604.11,246.78 604.46,246.50 C604.81,246.22 605.16,246.01 605.51,245.80 C605.87,245.60 606.22,245.42 606.57,245.26 C606.92,245.10 607.27,244.97 607.63,244.83 C607.98,244.69 608.33,244.55 608.68,244.41 C609.03,244.27 609.38,244.09 609.74,243.98 C610.09,243.88 610.44,243.89 610.79,243.77 C611.14,243.65 611.50,243.40 611.85,243.25 C612.20,243.11 612.55,243.02 612.90,242.89 C613.26,242.76 613.61,242.61 613.96,242.46 C614.31,242.32 614.66,242.22 615.02,242.04 C615.37,241.86 615.72,241.56 616.07,241.37 C616.42,241.18 616.77,241.08 617.13,240.88 C617.48,240.69 617.83,240.43 618.18,240.19 C618.53,239.94 618.89,239.62 619.24,239.43 C619.59,239.23 619.94,239.17 620.29,239.03 C620.65,238.89 621.00,238.71 621.35,238.58 C621.70,238.44 622.05,238.36 622.41,238.21 C622.76,238.06 623.11,237.89 623.46,237.67 C623.81,237.44 624.16,237.11 624.52,236.88 C624.87,236.64 625.22,236.47 625.57,236.27 C625.92,236.07 626.28,235.86 626.63,235.66 C626.98,235.46 627.33,235.17 627.68,235.05 C628.04,234.94 628.39,235.00 628.74,234.90 C629.09,234.80 629.44,234.53 629.79,234.39 C630.15,234.24 630.50,234.19 630.85,234.02 C631.20,233.85 631.55,233.56 631.91,233.38 C632.26,233.21 632.61,233.14 632.96,232.99 C633.31,232.84 633.67,232.61 634.02,232.47 C634.37,232.33 634.72,232.33 635.07,232.14 C635.43,231.95 635.78,231.60 636.13,231.35 C636.48,231.10 636.83,230.83 637.18,230.62 C637.54,230.41 637.89,230.28 638.24,230.07 C638.59,229.87 638.94,229.59 639.30,229.41 C639.65,229.22 640.00,229.08 640.35,228.95 C640.70,228.82 641.06,228.76 641.41,228.65 C641.76,228.53 642.11,228.40 642.46,228.25 C642.82,228.10 643.17,227.94 643.52,227.77 C643.87,227.59 644.22,227.43 644.57,227.22 C644.93,227.01 645.28,226.69 645.63,226.49 C645.98,226.29 646.33,226.23 646.69,226.03 C647.04,225.84 647.39,225.55 647.74,225.34 C648.09,225.12 648.45,224.96 648.80,224.73 C649.15,224.50 649.50,224.23 649.85,223.94 C650.21,223.65 650.56,223.27 650.91,223.00 C651.26,222.73 651.61,222.54 651.96,222.33 C652.32,222.12 652.67,221.97 653.02,221.75 C653.37,221.53 653.72,221.23 654.08,221.02 C654.43,220.82 654.78,220.69 655.13,220.51 C655.48,220.32 655.84,220.11 656.19,219.93 C656.54,219.75 656.89,219.58 657.24,219.41 C657.59,219.25 657.95,219.12 658.30,218.96 C658.65,218.80 659.00,218.68 659.35,218.44 C659.71,218.20 660.06,217.78 660.41,217.53 C660.76,217.28 661.11,217.09 661.47,216.92 C661.82,216.76 662.17,216.67 662.52,216.53 C662.87,216.39 663.23,216.27 663.58,216.10 C663.93,215.94 664.28,215.70 664.63,215.56 C664.98,215.41 665.34,215.31 665.69,215.22 C666.04,215.14 666.39,215.14 666.74,215.04 C667.10,214.94 667.45,214.80 667.80,214.65 C668.15,214.49 668.50,214.25 668.86,214.10 C669.21,213.95 669.56,213.94 669.91,213.73 C670.26,213.53 670.62,213.10 670.97,212.88 C671.32,212.67 671.67,212.65 672.02,212.46 C672.37,212.27 672.73,212.03 673.08,211.73 C673.43,211.43 673.78,211.04 674.13,210.67 C674.49,210.30 674.84,209.87 675.19,209.51 C675.54,209.16 675.89,208.82 676.25,208.54 C676.60,208.26 676.95,208.08 677.30,207.84 C677.65,207.60 678.01,207.34 678.36,207.11 C678.71,206.89 679.06,206.67 679.41,206.48 C679.76,206.28 680.12,206.11 680.47,205.93 C680.82,205.75 681.17,205.58 681.52,205.38 C681.88,205.19 682.23,204.93 682.58,204.74 C682.93,204.56 683.28,204.40 683.64,204.26 C683.99,204.12 684.34,204.02 684.69,203.89 C685.04,203.77 685.39,203.74 685.75,203.53 C686.10,203.32 686.45,202.95 686.80,202.65 C687.15,202.35 687.51,201.96 687.86,201.74 C688.21,201.52 688.56,201.47 688.91,201.34 C689.27,201.22 689.62,201.13 689.97,201.01 C690.32,200.89 690.67,200.83 691.03,200.61 C691.38,200.40 691.73,200.09 692.08,199.70 C692.43,199.31 692.78,198.61 693.14,198.28 C693.49,197.94 693.84,197.92 694.19,197.70 C694.54,197.48 694.90,197.12 695.25,196.94 C695.60,196.76 695.95,196.72 696.30,196.61 C696.66,196.49 697.01,196.39 697.36,196.27 C697.71,196.16 698.06,196.01 698.42,195.91 C698.77,195.80 699.12,195.75 699.47,195.63 C699.82,195.52 700.17,195.38 700.53,195.24 C700.88,195.10 701.23,194.95 701.58,194.78 C701.93,194.62 702.29,194.41 702.64,194.24 C702.99,194.07 703.34,193.88 703.69,193.75 C704.05,193.62 704.40,193.63 704.75,193.45 C705.10,193.26 705.45,192.85 705.81,192.63 C706.16,192.40 706.51,192.29 706.86,192.11 C707.21,191.93 707.56,191.70 707.92,191.53 C708.27,191.37 708.62,191.28 708.97,191.14 C709.32,191.00 709.68,190.86 710.03,190.68 C710.38,190.51 710.73,190.26 711.08,190.08 C711.44,189.89 711.79,189.77 712.14,189.59 C712.49,189.41 712.84,189.19 713.19,188.98 C713.55,188.78 713.90,188.50 714.25,188.35 C714.60,188.19 714.95,188.18 715.31,188.04 C715.66,187.91 716.01,187.70 716.36,187.53 C716.71,187.35 717.07,187.15 717.42,186.98 C717.77,186.81 718.12,186.66 718.47,186.52 C718.83,186.39 719.18,186.33 719.53,186.16 C719.88,185.99 720.23,185.65 720.58,185.49 C720.94,185.33 721.29,185.34 721.64,185.19 C721.99,185.04 722.34,184.81 722.70,184.58 C723.05,184.35 723.40,184.03 723.75,183.79 C724.10,183.55 724.46,183.37 724.81,183.15 C725.16,182.93 725.51,182.73 725.86,182.48 C726.22,182.24 726.57,181.90 726.92,181.69 C727.27,181.49 727.62,181.36 727.97,181.24 C728.33,181.12 728.68,181.14 729.03,181.00 C729.38,180.85 729.73,180.55 730.09,180.39 C730.44,180.23 730.79,180.16 731.14,180.05 C731.49,179.95 731.85,179.88 732.20,179.75 C732.55,179.62 732.90,179.58 733.25,179.26 C733.61,178.95 733.96,178.34 734.31,177.87 C734.66,177.39 735.01,176.91 735.36,176.41 C735.72,175.91 736.07,175.43 736.42,174.89 C736.77,174.35 737.12,173.82 737.48,173.16 C737.83,172.50 738.18,171.54 738.53,170.91 C738.88,170.29 739.24,169.95 739.59,169.43 C739.94,168.90 740.29,168.30 740.64,167.79 C740.99,167.27 741.35,166.71 741.70,166.33 C742.05,165.94 742.40,165.81 742.75,165.48 C743.11,165.15 743.46,164.69 743.81,164.35 C744.16,164.02 744.51,163.73 744.87,163.47 C745.22,163.22 745.57,163.09 745.92,162.83 C746.27,162.58 746.63,162.21 746.98,161.92 C747.33,161.64 747.68,161.37 748.03,161.13 C748.38,160.90 748.74,160.75 749.09,160.50 C749.44,160.24 749.79,159.86 750.14,159.59 C750.50,159.31 750.85,159.13 751.20,158.83 C751.55,158.52 751.90,158.12 752.26,157.76 C752.61,157.41 752.96,157.02 753.31,156.70 C753.66,156.38 754.02,156.07 754.37,155.82 C754.72,155.57 755.07,155.39 755.42,155.18 C755.77,154.97 756.13,154.80 756.48,154.54 C756.83,154.29 757.18,153.95 757.53,153.66 C757.89,153.37 758.24,153.06 758.59,152.81 C758.94,152.57 759.29,152.45 759.65,152.21 C760.00,151.96 760.35,151.57 760.70,151.32 C761.05,151.08 761.41,150.93 761.76,150.75 C762.11,150.57 762.46,150.37 762.81,150.23 C763.16,150.09 763.52,150.04 763.87,149.93 C764.22,149.81 764.57,149.68 764.92,149.53 C765.28,149.39 765.63,149.22 765.98,149.05 C766.33,148.87 766.68,148.67 767.04,148.47 C767.39,148.27 767.74,148.09 768.09,147.86 C768.44,147.64 768.79,147.38 769.15,147.13 C769.50,146.89 769.85,146.59 770.20,146.37 C770.55,146.16 770.91,146.01 771.26,145.83 C771.61,145.65 771.96,145.49 772.31,145.28 C772.67,145.07 773.02,144.83 773.37,144.58 C773.72,144.34 774.07,144.04 774.43,143.82 C774.78,143.61 775.13,143.46 775.48,143.28 C775.83,143.09 776.18,142.90 776.54,142.73 C776.89,142.56 777.24,142.54 777.59,142.27 C777.94,142.01 778.30,141.42 778.65,141.15 C779.00,140.88 779.35,140.83 779.70,140.63 C780.06,140.44 780.41,140.21 780.76,140.00 C781.11,139.78 781.46,139.57 781.82,139.36 C782.17,139.15 782.52,138.94 782.87,138.72 C783.22,138.50 783.57,138.29 783.93,138.02 C784.28,137.76 784.63,137.41 784.98,137.14 C785.33,136.87 785.69,136.64 786.04,136.41 C786.39,136.19 786.74,135.97 787.09,135.81 C787.45,135.64 787.80,135.56 788.15,135.41 C788.50,135.26 788.85,135.10 789.21,134.93 C789.56,134.75 789.91,134.56 790.26,134.38 C790.61,134.20 790.96,134.02 791.32,133.83 C791.67,133.64 792.02,133.41 792.37,133.26 C792.72,133.10 793.08,133.03 793.43,132.92 C793.78,132.81 794.13,132.71 794.48,132.59 C794.84,132.46 795.19,132.33 795.54,132.16 C795.89,131.99 796.24,131.73 796.59,131.55 C796.95,131.38 797.30,131.32 797.65,131.13 C798.00,130.94 798.35,130.63 798.71,130.43 C799.06,130.23 799.41,130.12 799.76,129.94 C800.11,129.77 800.47,129.54 800.82,129.40 C801.17,129.25 801.52,129.19 801.87,129.06 C802.23,128.94 802.58,128.78 802.93,128.67 C803.28,128.56 803.63,128.54 803.98,128.40 C804.34,128.25 804.69,127.96 805.04,127.82 C805.39,127.68 805.74,127.67 806.10,127.55 C806.45,127.42 806.80,127.24 807.15,127.09 C807.50,126.94 807.86,126.79 808.21,126.66 C808.56,126.54 808.91,126.46 809.26,126.33 C809.62,126.20 809.97,126.00 810.32,125.88 C810.67,125.75 811.02,125.71 811.37,125.57 C811.73,125.43 812.08,125.21 812.43,125.06 C812.78,124.90 813.13,124.79 813.49,124.66 C813.84,124.53 814.19,124.40 814.54,124.27 C814.89,124.13 815.25,123.99 815.60,123.84 C815.95,123.69 816.30,123.54 816.65,123.35 C817.01,123.17 817.36,122.89 817.71,122.72 C818.06,122.54 818.41,122.47 818.76,122.32 C819.12,122.17 819.47,121.95 819.82,121.81 C820.17,121.66 820.52,121.53 820.88,121.44 C821.23,121.35 821.58,121.39 821.93,121.26 C822.28,121.13 822.64,120.82 822.99,120.65 C823.34,120.48 823.69,120.38 824.04,120.26 C824.39,120.14 824.75,120.04 825.10,119.92 C825.45,119.80 825.80,119.72 826.15,119.53 C826.51,119.34 826.86,118.99 827.21,118.80 C827.56,118.61 827.91,118.52 828.27,118.37 C828.62,118.23 828.97,118.07 829.32,117.95 C829.67,117.83 830.03,117.75 830.38,117.68 C830.73,117.60 831.08,117.59 831.43,117.52 C831.78,117.46 832.14,117.38 832.49,117.28 C832.84,117.18 833.19,117.06 833.54,116.95 C833.90,116.83 834.25,116.69 834.60,116.58 C834.95,116.47 835.30,116.38 835.66,116.28 C836.01,116.17 836.36,116.05 836.71,115.94 C837.06,115.84 837.42,115.80 837.77,115.67 C838.12,115.54 838.47,115.30 838.82,115.19 C839.17,115.07 839.53,115.04 839.88,114.97 C840.23,114.90 840.58,114.84 840.93,114.76 C841.29,114.68 841.64,114.60 841.99,114.49 C842.34,114.38 842.69,114.24 843.05,114.09 C843.40,113.94 843.75,113.73 844.10,113.58 C844.45,113.42 844.81,113.30 845.16,113.18 C845.51,113.06 845.86,112.99 846.21,112.88 C846.56,112.77 846.92,112.62 847.27,112.51 C847.62,112.41 847.97,112.34 848.32,112.24 C848.68,112.14 849.03,112.03 849.38,111.91 C849.73,111.78 850.08,111.62 850.44,111.51 C850.79,111.40 851.14,111.33 851.49,111.24 C851.84,111.15 852.19,111.07 852.55,110.96 C852.90,110.86 853.25,110.70 853.60,110.60 C853.95,110.50 854.31,110.44 854.66,110.36 C855.01,110.27 855.36,110.16 855.71,110.08 C856.07,110.00 856.42,109.96 856.77,109.87 C857.12,109.78 857.47,109.70 857.83,109.54 C858.18,109.37 858.53,109.03 858.88,108.87 C859.23,108.71 859.58,108.67 859.94,108.59 C860.29,108.52 860.64,108.50 860.99,108.44 C861.34,108.38 861.70,108.33 862.05,108.23 C862.40,108.13 862.75,107.97 863.10,107.87 C863.46,107.76 863.81,107.72 864.16,107.62 C864.51,107.53 864.86,107.41 865.22,107.29 C865.57,107.17 865.92,107.06 866.27,106.92 C866.62,106.79 866.97,106.63 867.33,106.50 C867.68,106.37 868.03,106.31 868.38,106.17 C868.73,106.02 869.09,105.81 869.44,105.65 C869.79,105.49 870.14,105.33 870.49,105.19 C870.85,105.06 871.20,105.01 871.55,104.86 C871.90,104.71 872.25,104.47 872.61,104.31 C872.96,104.16 873.31,104.03 873.66,103.92 C874.01,103.80 874.36,103.69 874.72,103.61 C875.07,103.54 875.42,103.55 875.77,103.46 C876.12,103.37 876.48,103.20 876.83,103.07 C877.18,102.93 877.53,102.81 877.88,102.64 C878.24,102.48 878.59,102.26 878.94,102.07 C879.29,101.87 879.64,101.65 879.99,101.49 C880.35,101.33 880.70,101.23 881.05,101.09 C881.40,100.96 881.75,100.82 882.11,100.70 C882.46,100.58 882.81,100.55 883.16,100.40 C883.51,100.24 883.87,99.94 884.22,99.79 C884.57,99.63 884.92,99.60 885.27,99.45 C885.63,99.31 885.98,99.08 886.33,98.94 C886.68,98.80 887.03,98.73 887.38,98.60 C887.74,98.47 888.09,98.32 888.44,98.15 C888.79,97.97 889.14,97.70 889.50,97.54 C889.85,97.38 890.20,97.29 890.55,97.18 C890.90,97.06 891.26,97.00 891.61,96.87 C891.96,96.74 892.31,96.52 892.66,96.39 C893.02,96.25 893.37,96.17 893.72,96.05 C894.07,95.94 894.42,95.84 894.77,95.69 C895.13,95.54 895.48,95.30 895.83,95.14 C896.18,94.98 896.53,94.85 896.89,94.75 C897.24,94.64 897.59,94.59 897.94,94.50 C898.29,94.42 898.65,94.34 899.00,94.23 C899.35,94.12 899.70,93.98 900.05,93.84 C900.41,93.69 900.76,93.58 901.11,93.38 C901.46,93.18 901.81,92.81 902.16,92.62 C902.52,92.43 902.87,92.37 903.22,92.23 C903.57,92.08 903.92,91.87 904.28,91.74 C904.63,91.61 904.98,91.57 905.33,91.44 C905.68,91.30 906.04,91.10 906.39,90.95 C906.74,90.80 907.09,90.66 907.44,90.53 C907.79,90.39 908.15,90.31 908.50,90.16 C908.85,90.01 909.20,89.80 909.55,89.61 C909.91,89.43 910.26,89.23 910.61,89.04 C910.96,88.84 911.31,88.63 911.67,88.43 C912.02,88.23 912.37,88.05 912.72,87.85 C913.07,87.66 913.43,87.41 913.78,87.25 C914.13,87.08 914.48,87.02 914.83,86.88 C915.18,86.74 915.54,86.55 915.89,86.43 C916.24,86.30 916.59,86.22 916.94,86.15 C917.30,86.08 917.65,86.05 918.00,86.00" fill="none" stroke="#0969da" stroke-width="3" stroke-linecap="round" stroke-linejoin="round" />
    <circle cx="918.00" cy="86.00" r="5" fill="#0969da" stroke="#ffffff" stroke-width="2" />
    <text x="918" y="466" text-anchor="end" fill="#656d76" font-size="11">Updated Oct 1, 2026</text>
  </g>
</svg>
