<?xml version="1.0" encoding="UTF-8"?>
<svg xmlns="http://www.w3.org/2000/svg" width="960" height="480" viewBox="0 0 960 480" role="img" aria-labelledby="title description">
  <title id="title">TheBoredTeam/boring.notch Star History</title>
  <desc id="description">10,954 current GitHub stargazers as of Oct 6, 2026.</desc>
  <rect width="960" height="480" rx="12" fill="#ffffff" stroke="#d0d7de" />
  <g font-family="-apple-system, BlinkMacSystemFont, 'Segoe UI', sans-serif">
    <text x="84" y="40" fill="#1f2328" font-size="24" font-weight="600">Star History</text>
    <text x="918" y="40" text-anchor="end" fill="#656d76" font-size="14" font-weight="500">10,954 stars</text>
    <text x="84" y="64" fill="#656d76" font-size="13">TheBoredTeam/boring.notch</text>
    <line x1="84" y1="418.00" x2="918" y2="418.00" stroke="#d8dee4" stroke-width="1" />
      <text x="70" y="422.00" text-anchor="end" fill="#656d76" font-size="12">0</text>
      <line x1="84" y1="357.38" x2="918" y2="357.38" stroke="#d8dee4" stroke-width="1" />
      <text x="70" y="361.38" text-anchor="end" fill="#656d76" font-size="12">2K</text>
      <line x1="84" y1="296.77" x2="918" y2="296.77" stroke="#d8dee4" stroke-width="1" />
      <text x="70" y="300.77" text-anchor="end" fill="#656d76" font-size="12">4K</text>
      <line x1="84" y1="236.15" x2="918" y2="236.15" stroke="#d8dee4" stroke-width="1" />
      <text x="70" y="240.15" text-anchor="end" fill="#656d76" font-size="12">6K</text>
      <line x1="84" y1="175.53" x2="918" y2="175.53" stroke="#d8dee4" stroke-width="1" />
      <text x="70" y="179.53" text-anchor="end" fill="#656d76" font-size="12">8K</text>
      <line x1="84" y1="114.91" x2="918" y2="114.91" stroke="#d8dee4" stroke-width="1" />
      <text x="70" y="118.91" text-anchor="end" fill="#656d76" font-size="12">10K</text>
    <text x="84.00" y="452" text-anchor="middle" fill="#656d76" font-size="12">Aug 2024</text>
      <text x="292.50" y="452" text-anchor="middle" fill="#656d76" font-size="12">Feb 2025</text>
      <text x="501.00" y="452" text-anchor="middle" fill="#656d76" font-size="12">Sep 2025</text>
      <text x="709.50" y="452" text-anchor="middle" fill="#656d76" font-size="12">Mar 2026</text>
      <text x="918.00" y="452" text-anchor="middle" fill="#656d76" font-size="12">Oct 2026</text>
    <path d="M84.00,417.79 C84.35,417.70 84.70,417.62 85.05,417.52 C85.40,417.41 85.75,417.28 86.10,417.18 C86.45,417.09 86.80,416.98 87.15,416.94 C87.50,416.90 87.85,416.93 88.20,416.85 C88.55,416.77 88.90,416.35 89.25,416.21 C89.59,416.07 89.94,416.05 90.29,416.00 C90.64,415.95 90.99,415.96 91.34,415.91 C91.69,415.86 92.04,415.73 92.39,415.70 C92.74,415.66 93.09,415.69 93.44,415.58 C93.79,415.46 94.14,414.93 94.49,414.70 C94.84,414.46 95.19,414.33 95.54,414.15 C95.89,413.97 96.24,413.76 96.59,413.64 C96.94,413.51 97.29,413.48 97.64,413.39 C97.99,413.31 98.34,413.19 98.69,413.12 C99.04,413.05 99.39,413.04 99.74,413.00 C100.09,412.95 100.44,412.91 100.78,412.85 C101.13,412.78 101.48,412.67 101.83,412.61 C102.18,412.54 102.53,412.52 102.88,412.48 C103.23,412.44 103.58,412.46 103.93,412.36 C104.28,412.26 104.63,412.01 104.98,411.88 C105.33,411.74 105.68,411.65 106.03,411.54 C106.38,411.44 106.73,411.32 107.08,411.24 C107.43,411.17 107.78,411.15 108.13,411.09 C108.48,411.03 108.83,410.93 109.18,410.88 C109.53,410.82 109.88,410.79 110.23,410.76 C110.58,410.72 110.93,410.74 111.28,410.67 C111.63,410.59 111.97,410.39 112.32,410.30 C112.67,410.22 113.02,410.20 113.37,410.15 C113.72,410.10 114.07,410.06 114.42,410.03 C114.77,409.99 115.12,409.97 115.47,409.94 C115.82,409.90 116.17,409.89 116.52,409.82 C116.87,409.75 117.22,409.58 117.57,409.51 C117.92,409.45 118.27,409.49 118.62,409.42 C118.97,409.36 119.32,409.19 119.67,409.12 C120.02,409.05 120.37,409.02 120.72,409.00 C121.07,408.97 121.42,408.99 121.77,408.97 C122.12,408.95 122.47,408.89 122.82,408.88 C123.16,408.86 123.51,408.88 123.86,408.79 C124.21,408.70 124.56,408.05 124.91,407.79 C125.26,407.52 125.61,407.35 125.96,407.18 C126.31,407.01 126.66,406.84 127.01,406.79 C127.36,406.73 127.71,406.75 128.06,406.73 C128.41,406.70 128.76,406.66 129.11,406.57 C129.46,406.49 129.81,406.33 130.16,406.21 C130.51,406.09 130.86,405.97 131.21,405.88 C131.56,405.78 131.91,405.74 132.26,405.63 C132.61,405.53 132.96,405.47 133.31,405.27 C133.66,405.07 134.01,404.62 134.35,404.42 C134.70,404.22 135.05,404.13 135.40,404.09 C135.75,404.05 136.10,404.08 136.45,403.97 C136.80,403.85 137.15,403.10 137.50,402.88 C137.85,402.65 138.20,402.72 138.55,402.63 C138.90,402.55 139.25,402.44 139.60,402.36 C139.95,402.28 140.30,402.21 140.65,402.15 C141.00,402.09 141.35,402.04 141.70,402.00 C142.05,401.95 142.40,401.93 142.75,401.88 C143.10,401.83 143.45,401.75 143.80,401.69 C144.15,401.64 144.50,401.60 144.85,401.54 C145.19,401.48 145.54,401.39 145.89,401.33 C146.24,401.27 146.59,401.28 146.94,401.21 C147.29,401.13 147.64,401.03 147.99,400.88 C148.34,400.72 148.69,400.46 149.04,400.30 C149.39,400.14 149.74,400.01 150.09,399.91 C150.44,399.80 150.79,399.76 151.14,399.66 C151.49,399.57 151.84,399.42 152.19,399.33 C152.54,399.24 152.89,399.21 153.24,399.15 C153.59,399.09 153.94,399.03 154.29,398.97 C154.64,398.90 154.99,398.82 155.34,398.75 C155.69,398.69 156.04,398.62 156.38,398.57 C156.73,398.52 157.08,398.50 157.43,398.45 C157.78,398.41 158.13,398.35 158.48,398.30 C158.83,398.25 159.18,398.20 159.53,398.15 C159.88,398.10 160.23,398.06 160.58,398.00 C160.93,397.93 161.28,397.85 161.63,397.75 C161.98,397.66 162.33,397.52 162.68,397.42 C163.03,397.32 163.38,397.23 163.73,397.15 C164.08,397.06 164.43,397.12 164.78,396.91 C165.13,396.69 165.48,396.13 165.83,395.84 C166.18,395.56 166.53,395.36 166.88,395.21 C167.23,395.06 167.57,395.03 167.92,394.94 C168.27,394.84 168.62,394.74 168.97,394.66 C169.32,394.59 169.67,394.54 170.02,394.48 C170.37,394.42 170.72,394.40 171.07,394.33 C171.42,394.25 171.77,394.14 172.12,394.03 C172.47,393.91 172.82,393.73 173.17,393.63 C173.52,393.54 173.87,393.53 174.22,393.45 C174.57,393.37 174.92,393.27 175.27,393.18 C175.62,393.09 175.97,392.99 176.32,392.90 C176.67,392.82 177.02,392.77 177.37,392.69 C177.72,392.61 178.07,392.51 178.42,392.42 C178.76,392.33 179.11,392.23 179.46,392.15 C179.81,392.07 180.16,392.01 180.51,391.93 C180.86,391.86 181.21,391.78 181.56,391.69 C181.91,391.61 182.26,391.52 182.61,391.42 C182.96,391.32 183.31,391.18 183.66,391.12 C184.01,391.06 184.36,391.09 184.71,391.03 C185.06,390.96 185.41,390.84 185.76,390.66 C186.11,390.48 186.46,390.11 186.81,389.96 C187.16,389.82 187.51,389.86 187.86,389.78 C188.21,389.71 188.56,389.61 188.91,389.51 C189.26,389.41 189.61,389.34 189.95,389.18 C190.30,389.01 190.65,388.69 191.00,388.54 C191.35,388.39 191.70,388.39 192.05,388.30 C192.40,388.20 192.75,388.07 193.10,387.96 C193.45,387.86 193.80,387.73 194.15,387.66 C194.50,387.59 194.85,387.60 195.20,387.54 C195.55,387.48 195.90,387.40 196.25,387.30 C196.60,387.20 196.95,387.02 197.30,386.93 C197.65,386.85 198.00,386.85 198.35,386.78 C198.70,386.72 199.05,386.64 199.40,386.54 C199.75,386.44 200.10,386.24 200.45,386.18 C200.79,386.11 201.14,386.14 201.49,386.09 C201.84,386.03 202.19,385.86 202.54,385.78 C202.89,385.70 203.24,385.68 203.59,385.60 C203.94,385.52 204.29,385.41 204.64,385.33 C204.99,385.25 205.34,385.21 205.69,385.12 C206.04,385.02 206.39,384.87 206.74,384.78 C207.09,384.69 207.44,384.63 207.79,384.57 C208.14,384.51 208.49,384.49 208.84,384.42 C209.19,384.34 209.54,384.19 209.89,384.12 C210.24,384.04 210.59,384.04 210.94,383.96 C211.29,383.88 211.64,383.72 211.98,383.63 C212.33,383.54 212.68,383.51 213.03,383.42 C213.38,383.33 213.73,383.22 214.08,383.08 C214.43,382.95 214.78,382.75 215.13,382.63 C215.48,382.51 215.83,382.44 216.18,382.36 C216.53,382.27 216.88,382.20 217.23,382.11 C217.58,382.03 217.93,381.96 218.28,381.84 C218.63,381.73 218.98,381.53 219.33,381.42 C219.68,381.31 220.03,381.24 220.38,381.18 C220.73,381.11 221.08,381.12 221.43,381.05 C221.78,380.99 222.13,380.87 222.48,380.78 C222.83,380.69 223.17,380.62 223.52,380.51 C223.87,380.39 224.22,380.16 224.57,380.08 C224.92,380.01 225.27,380.06 225.62,379.93 C225.97,379.80 226.32,379.29 226.67,379.05 C227.02,378.82 227.37,378.72 227.72,378.51 C228.07,378.30 228.42,377.93 228.77,377.78 C229.12,377.63 229.47,377.70 229.82,377.60 C230.17,377.50 230.52,377.30 230.87,377.17 C231.22,377.05 231.57,376.95 231.92,376.84 C232.27,376.73 232.62,376.63 232.97,376.54 C233.32,376.44 233.67,376.38 234.02,376.27 C234.36,376.15 234.71,375.99 235.06,375.84 C235.41,375.69 235.76,375.50 236.11,375.36 C236.46,375.21 236.81,375.09 237.16,374.96 C237.51,374.84 237.86,374.73 238.21,374.60 C238.56,374.47 238.91,374.29 239.26,374.17 C239.61,374.06 239.96,374.00 240.31,373.90 C240.66,373.81 241.01,373.70 241.36,373.60 C241.71,373.50 242.06,373.39 242.41,373.29 C242.76,373.20 243.11,373.12 243.46,373.02 C243.81,372.92 244.16,372.81 244.51,372.69 C244.86,372.57 245.21,372.41 245.55,372.29 C245.90,372.18 246.25,372.09 246.60,372.02 C246.95,371.96 247.30,371.95 247.65,371.90 C248.00,371.86 248.35,371.80 248.70,371.75 C249.05,371.69 249.40,371.64 249.75,371.57 C250.10,371.50 250.45,371.45 250.80,371.32 C251.15,371.20 251.50,370.96 251.85,370.84 C252.20,370.72 252.55,370.70 252.90,370.60 C253.25,370.49 253.60,370.32 253.95,370.20 C254.30,370.09 254.65,370.00 255.00,369.90 C255.35,369.80 255.70,369.77 256.05,369.63 C256.39,369.48 256.74,369.19 257.09,369.02 C257.44,368.85 257.79,368.74 258.14,368.63 C258.49,368.51 258.84,368.60 259.19,368.32 C259.54,368.05 259.89,367.33 260.24,366.99 C260.59,366.65 260.94,366.46 261.29,366.29 C261.64,366.13 261.99,366.14 262.34,365.99 C262.69,365.84 263.04,365.57 263.39,365.41 C263.74,365.26 264.09,365.18 264.44,365.08 C264.79,364.99 265.14,364.90 265.49,364.84 C265.84,364.77 266.19,364.74 266.54,364.69 C266.89,364.64 267.24,364.60 267.58,364.54 C267.93,364.47 268.28,364.37 268.63,364.29 C268.98,364.21 269.33,364.25 269.68,364.05 C270.03,363.85 270.38,363.28 270.73,363.11 C271.08,362.94 271.43,363.02 271.78,362.90 C272.13,362.78 272.48,362.47 272.83,362.29 C273.18,362.12 273.53,362.00 273.88,361.84 C274.23,361.67 274.58,361.48 274.93,361.29 C275.28,361.11 275.63,360.88 275.98,360.72 C276.33,360.55 276.68,360.39 277.03,360.29 C277.38,360.20 277.73,360.22 278.08,360.14 C278.43,360.07 278.77,360.00 279.12,359.84 C279.47,359.68 279.82,359.41 280.17,359.17 C280.52,358.93 280.87,358.61 281.22,358.41 C281.57,358.22 281.92,358.14 282.27,357.99 C282.62,357.84 282.97,357.67 283.32,357.53 C283.67,357.40 284.02,357.33 284.37,357.20 C284.72,357.07 285.07,356.89 285.42,356.78 C285.77,356.67 286.12,356.63 286.47,356.53 C286.82,356.44 287.17,356.30 287.52,356.23 C287.87,356.16 288.22,356.22 288.57,355.99 C288.92,355.76 289.27,354.78 289.62,354.44 C289.96,354.11 290.31,354.14 290.66,353.99 C291.01,353.83 291.36,353.77 291.71,353.50 C292.06,353.24 292.41,352.71 292.76,352.41 C293.11,352.11 293.46,351.91 293.81,351.72 C294.16,351.52 294.51,351.41 294.86,351.23 C295.21,351.05 295.56,350.78 295.91,350.62 C296.26,350.47 296.61,350.43 296.96,350.32 C297.31,350.21 297.66,350.12 298.01,349.99 C298.36,349.86 298.71,349.69 299.06,349.53 C299.41,349.37 299.76,349.20 300.11,349.02 C300.46,348.84 300.81,348.64 301.15,348.44 C301.50,348.24 301.85,347.99 302.20,347.84 C302.55,347.68 302.90,347.63 303.25,347.53 C303.60,347.44 303.95,347.38 304.30,347.26 C304.65,347.14 305.00,347.01 305.35,346.84 C305.70,346.66 306.05,346.39 306.40,346.23 C306.75,346.07 307.10,346.05 307.45,345.87 C307.80,345.68 308.15,345.36 308.50,345.14 C308.85,344.92 309.20,344.73 309.55,344.53 C309.90,344.34 310.25,344.16 310.60,343.96 C310.95,343.75 311.30,343.50 311.65,343.32 C311.99,343.14 312.34,343.02 312.69,342.90 C313.04,342.77 313.39,342.69 313.74,342.59 C314.09,342.50 314.44,342.43 314.79,342.32 C315.14,342.21 315.49,342.07 315.84,341.93 C316.19,341.78 316.54,341.59 316.89,341.47 C317.24,341.35 317.59,341.35 317.94,341.23 C318.29,341.10 318.64,340.85 318.99,340.71 C319.34,340.58 319.69,340.51 320.04,340.41 C320.39,340.31 320.74,340.26 321.09,340.14 C321.44,340.01 321.79,339.85 322.14,339.65 C322.49,339.46 322.84,339.15 323.18,338.96 C323.53,338.76 323.88,338.64 324.23,338.50 C324.58,338.36 324.93,338.23 325.28,338.11 C325.63,337.98 325.98,337.84 326.33,337.74 C326.68,337.64 327.03,337.61 327.38,337.50 C327.73,337.39 328.08,337.22 328.43,337.11 C328.78,337.00 329.13,336.91 329.48,336.83 C329.83,336.75 330.18,336.71 330.53,336.62 C330.88,336.54 331.23,336.41 331.58,336.32 C331.93,336.23 332.28,336.15 332.63,336.08 C332.98,336.01 333.33,335.95 333.68,335.89 C334.03,335.84 334.37,335.82 334.72,335.74 C335.07,335.67 335.42,335.53 335.77,335.44 C336.12,335.35 336.47,335.29 336.82,335.20 C337.17,335.11 337.52,335.01 337.87,334.89 C338.22,334.78 338.57,334.63 338.92,334.53 C339.27,334.43 339.62,334.40 339.97,334.32 C340.32,334.24 340.67,334.12 341.02,334.05 C341.37,333.97 341.72,333.96 342.07,333.89 C342.42,333.82 342.77,333.71 343.12,333.62 C343.47,333.53 343.82,333.43 344.17,333.35 C344.52,333.27 344.87,333.23 345.22,333.14 C345.56,333.05 345.91,332.89 346.26,332.80 C346.61,332.71 346.96,332.69 347.31,332.59 C347.66,332.49 348.01,332.36 348.36,332.23 C348.71,332.10 349.06,331.91 349.41,331.80 C349.76,331.70 350.11,331.70 350.46,331.59 C350.81,331.48 351.16,331.29 351.51,331.17 C351.86,331.04 352.21,330.96 352.56,330.83 C352.91,330.71 353.26,330.56 353.61,330.41 C353.96,330.26 354.31,330.04 354.66,329.92 C355.01,329.80 355.36,329.77 355.71,329.68 C356.06,329.59 356.41,329.48 356.75,329.38 C357.10,329.27 357.45,329.20 357.80,329.04 C358.15,328.89 358.50,328.60 358.85,328.44 C359.20,328.27 359.55,328.15 359.90,328.04 C360.25,327.94 360.60,327.91 360.95,327.83 C361.30,327.76 361.65,327.70 362.00,327.59 C362.35,327.48 362.70,327.24 363.05,327.17 C363.40,327.09 363.75,327.13 364.10,327.07 C364.45,327.02 364.80,326.87 365.15,326.80 C365.50,326.74 365.85,326.73 366.20,326.68 C366.55,326.63 366.90,326.60 367.25,326.53 C367.59,326.45 367.94,326.30 368.29,326.23 C368.64,326.15 368.99,326.17 369.34,326.10 C369.69,326.04 370.04,325.90 370.39,325.83 C370.74,325.76 371.09,325.76 371.44,325.68 C371.79,325.60 372.14,325.45 372.49,325.38 C372.84,325.30 373.19,325.29 373.54,325.23 C373.89,325.16 374.24,325.06 374.59,324.98 C374.94,324.90 375.29,324.83 375.64,324.74 C375.99,324.65 376.34,324.50 376.69,324.44 C377.04,324.37 377.39,324.40 377.74,324.35 C378.09,324.29 378.44,324.18 378.78,324.10 C379.13,324.03 379.48,323.97 379.83,323.89 C380.18,323.82 380.53,323.73 380.88,323.65 C381.23,323.57 381.58,323.53 381.93,323.44 C382.28,323.34 382.63,323.23 382.98,323.07 C383.33,322.92 383.68,322.66 384.03,322.53 C384.38,322.40 384.73,322.36 385.08,322.29 C385.43,322.21 385.78,322.18 386.13,322.10 C386.48,322.02 386.83,321.88 387.18,321.80 C387.53,321.72 387.88,321.66 388.23,321.62 C388.58,321.57 388.93,321.58 389.28,321.53 C389.63,321.48 389.97,321.50 390.32,321.32 C390.67,321.13 391.02,320.65 391.37,320.44 C391.72,320.22 392.07,320.16 392.42,320.04 C392.77,319.93 393.12,319.84 393.47,319.74 C393.82,319.64 394.17,319.58 394.52,319.47 C394.87,319.36 395.22,319.20 395.57,319.07 C395.92,318.94 396.27,318.82 396.62,318.68 C396.97,318.54 397.32,318.37 397.67,318.25 C398.02,318.14 398.37,318.10 398.72,317.98 C399.07,317.87 399.42,317.66 399.77,317.56 C400.12,317.45 400.47,317.43 400.82,317.35 C401.16,317.26 401.51,317.15 401.86,317.04 C402.21,316.94 402.56,316.80 402.91,316.71 C403.26,316.62 403.61,316.57 403.96,316.50 C404.31,316.42 404.66,316.32 405.01,316.25 C405.36,316.18 405.71,316.11 406.06,316.07 C406.41,316.03 406.76,316.05 407.11,316.01 C407.46,315.97 407.81,315.88 408.16,315.83 C408.51,315.78 408.86,315.77 409.21,315.71 C409.56,315.65 409.91,315.55 410.26,315.47 C410.61,315.39 410.96,315.31 411.31,315.22 C411.66,315.13 412.01,314.99 412.35,314.92 C412.70,314.85 413.05,314.85 413.40,314.80 C413.75,314.74 414.10,314.65 414.45,314.59 C414.80,314.53 415.15,314.51 415.50,314.44 C415.85,314.36 416.20,314.22 416.55,314.13 C416.90,314.05 417.25,313.98 417.60,313.92 C417.95,313.86 418.30,313.83 418.65,313.77 C419.00,313.71 419.35,313.63 419.70,313.56 C420.05,313.48 420.40,313.37 420.75,313.31 C421.10,313.25 421.45,313.23 421.80,313.19 C422.15,313.15 422.50,313.14 422.85,313.07 C423.19,313.01 423.54,312.87 423.89,312.80 C424.24,312.72 424.59,312.69 424.94,312.62 C425.29,312.55 425.64,312.44 425.99,312.37 C426.34,312.31 426.69,312.28 427.04,312.25 C427.39,312.22 427.74,312.23 428.09,312.19 C428.44,312.16 428.79,312.11 429.14,312.04 C429.49,311.97 429.84,311.84 430.19,311.77 C430.54,311.70 430.89,311.71 431.24,311.62 C431.59,311.52 431.94,311.22 432.29,311.19 C432.64,311.17 432.99,311.18 433.34,311.16 C433.69,311.15 434.04,310.98 434.38,310.92 C434.73,310.86 435.08,310.84 435.43,310.80 C435.78,310.76 436.13,310.72 436.48,310.68 C436.83,310.64 437.18,310.57 437.53,310.56 C437.88,310.54 438.23,310.55 438.58,310.53 C438.93,310.50 439.28,310.41 439.63,310.34 C439.98,310.28 440.33,310.19 440.68,310.13 C441.03,310.08 441.38,310.04 441.73,310.01 C442.08,309.98 442.43,309.99 442.78,309.95 C443.13,309.91 443.48,309.82 443.83,309.77 C444.18,309.72 444.53,309.70 444.88,309.65 C445.23,309.60 445.57,309.54 445.92,309.47 C446.27,309.39 446.62,309.28 446.97,309.22 C447.32,309.17 447.67,309.16 448.02,309.13 C448.37,309.11 448.72,309.12 449.07,309.07 C449.42,309.02 449.77,308.89 450.12,308.83 C450.47,308.77 450.82,308.77 451.17,308.71 C451.52,308.65 451.87,308.55 452.22,308.46 C452.57,308.38 452.92,308.30 453.27,308.22 C453.62,308.14 453.97,308.05 454.32,307.98 C454.67,307.91 455.02,307.89 455.37,307.83 C455.72,307.76 456.07,307.68 456.42,307.59 C456.76,307.49 457.11,307.35 457.46,307.28 C457.81,307.21 458.16,307.19 458.51,307.16 C458.86,307.13 459.21,307.16 459.56,306.98 C459.91,306.80 460.26,305.75 460.61,305.28 C460.96,304.81 461.31,304.41 461.66,304.16 C462.01,303.91 462.36,303.92 462.71,303.80 C463.06,303.68 463.41,303.55 463.76,303.43 C464.11,303.32 464.46,303.21 464.81,303.10 C465.16,302.99 465.51,302.95 465.86,302.80 C466.21,302.64 466.56,302.35 466.91,302.16 C467.26,301.97 467.61,301.79 467.95,301.65 C468.30,301.50 468.65,301.41 469.00,301.28 C469.35,301.15 469.70,300.99 470.05,300.86 C470.40,300.73 470.75,300.61 471.10,300.49 C471.45,300.38 471.80,300.26 472.15,300.16 C472.50,300.06 472.85,300.01 473.20,299.92 C473.55,299.82 473.90,299.70 474.25,299.58 C474.60,299.47 474.95,299.38 475.30,299.25 C475.65,299.12 476.00,298.91 476.35,298.80 C476.70,298.68 477.05,298.64 477.40,298.55 C477.75,298.47 478.10,298.37 478.45,298.28 C478.79,298.19 479.14,298.13 479.49,298.01 C479.84,297.89 480.19,297.66 480.54,297.55 C480.89,297.44 481.24,297.45 481.59,297.34 C481.94,297.24 482.29,297.04 482.64,296.92 C482.99,296.79 483.34,296.72 483.69,296.58 C484.04,296.45 484.39,296.27 484.74,296.13 C485.09,295.99 485.44,295.84 485.79,295.77 C486.14,295.69 486.49,295.75 486.84,295.52 C487.19,295.29 487.54,294.32 487.89,293.95 C488.24,293.58 488.59,293.49 488.94,293.31 C489.29,293.13 489.64,293.05 489.98,292.89 C490.33,292.72 490.68,292.51 491.03,292.31 C491.38,292.11 491.73,291.91 492.08,291.70 C492.43,291.50 492.78,291.15 493.13,291.10 C493.48,291.05 493.83,291.07 494.18,291.04 C494.53,291.00 494.88,290.78 495.23,290.67 C495.58,290.56 495.93,290.48 496.28,290.37 C496.63,290.26 496.98,290.13 497.33,290.04 C497.68,289.94 498.03,289.90 498.38,289.79 C498.73,289.69 499.08,289.55 499.43,289.43 C499.78,289.31 500.13,289.19 500.48,289.07 C500.83,288.94 501.17,288.81 501.52,288.67 C501.87,288.54 502.22,288.40 502.57,288.25 C502.92,288.10 503.27,287.92 503.62,287.79 C503.97,287.67 504.32,287.65 504.67,287.52 C505.02,287.40 505.37,287.19 505.72,287.04 C506.07,286.88 506.42,286.76 506.77,286.58 C507.12,286.40 507.47,286.13 507.82,285.95 C508.17,285.76 508.52,285.64 508.87,285.49 C509.22,285.34 509.57,285.15 509.92,285.04 C510.27,284.93 510.62,284.91 510.97,284.82 C511.32,284.74 511.67,284.67 512.02,284.52 C512.36,284.37 512.71,284.13 513.06,283.95 C513.41,283.76 513.76,283.55 514.11,283.43 C514.46,283.31 514.81,283.34 515.16,283.25 C515.51,283.16 515.86,282.99 516.21,282.88 C516.56,282.78 516.91,282.81 517.26,282.61 C517.61,282.41 517.96,281.95 518.31,281.70 C518.66,281.45 519.01,281.46 519.36,281.13 C519.71,280.79 520.06,280.11 520.41,279.67 C520.76,279.24 521.11,278.80 521.46,278.52 C521.81,278.24 522.16,278.17 522.51,277.97 C522.86,277.78 523.21,277.53 523.55,277.34 C523.90,277.15 524.25,276.97 524.60,276.82 C524.95,276.68 525.30,276.58 525.65,276.46 C526.00,276.34 526.35,276.24 526.70,276.13 C527.05,276.01 527.40,275.91 527.75,275.76 C528.10,275.61 528.45,275.37 528.80,275.22 C529.15,275.06 529.50,274.97 529.85,274.82 C530.20,274.68 530.55,274.37 530.90,274.34 C531.25,274.31 531.60,274.32 531.95,274.31 C532.30,274.30 532.65,274.24 533.00,274.13 C533.35,274.01 533.70,273.77 534.05,273.64 C534.39,273.51 534.74,273.48 535.09,273.37 C535.44,273.26 535.79,273.08 536.14,272.97 C536.49,272.86 536.84,272.80 537.19,272.70 C537.54,272.60 537.89,272.53 538.24,272.40 C538.59,272.26 538.94,272.03 539.29,271.88 C539.64,271.74 539.99,271.62 540.34,271.52 C540.69,271.42 541.04,271.36 541.39,271.28 C541.74,271.19 542.09,271.14 542.44,271.00 C542.79,270.87 543.14,270.59 543.49,270.46 C543.84,270.33 544.19,270.30 544.54,270.22 C544.89,270.13 545.24,270.03 545.58,269.94 C545.93,269.85 546.28,269.74 546.63,269.67 C546.98,269.60 547.33,269.64 547.68,269.55 C548.03,269.46 548.38,269.25 548.73,269.12 C549.08,269.00 549.43,268.90 549.78,268.79 C550.13,268.68 550.48,268.56 550.83,268.46 C551.18,268.35 551.53,268.28 551.88,268.15 C552.23,268.03 552.58,267.86 552.93,267.73 C553.28,267.60 553.63,267.54 553.98,267.40 C554.33,267.26 554.68,267.04 555.03,266.88 C555.38,266.72 555.73,266.55 556.08,266.43 C556.43,266.31 556.77,266.27 557.12,266.15 C557.47,266.04 557.82,265.88 558.17,265.76 C558.52,265.64 558.87,265.55 559.22,265.43 C559.57,265.30 559.92,265.09 560.27,265.00 C560.62,264.91 560.97,264.96 561.32,264.88 C561.67,264.80 562.02,264.63 562.37,264.52 C562.72,264.41 563.07,264.34 563.42,264.21 C563.77,264.09 564.12,263.91 564.47,263.79 C564.82,263.67 565.17,263.59 565.52,263.49 C565.87,263.39 566.22,263.27 566.57,263.18 C566.92,263.09 567.27,263.00 567.62,262.94 C567.96,262.89 568.31,262.92 568.66,262.85 C569.01,262.78 569.36,262.62 569.71,262.55 C570.06,262.47 570.41,262.48 570.76,262.40 C571.11,262.32 571.46,262.17 571.81,262.06 C572.16,261.95 572.51,261.90 572.86,261.73 C573.21,261.56 573.56,261.41 573.91,261.03 C574.26,260.66 574.61,259.90 574.96,259.49 C575.31,259.08 575.66,258.80 576.01,258.58 C576.36,258.35 576.71,258.30 577.06,258.15 C577.41,258.00 577.76,257.82 578.11,257.67 C578.46,257.52 578.81,257.37 579.15,257.24 C579.50,257.11 579.85,256.98 580.20,256.88 C580.55,256.78 580.90,256.75 581.25,256.67 C581.60,256.58 581.95,256.46 582.30,256.36 C582.65,256.27 583.00,256.21 583.35,256.09 C583.70,255.97 584.05,255.78 584.40,255.64 C584.75,255.50 585.10,255.43 585.45,255.24 C585.80,255.05 586.15,254.71 586.50,254.49 C586.85,254.26 587.20,254.06 587.55,253.91 C587.90,253.76 588.25,253.68 588.60,253.61 C588.95,253.53 589.30,253.53 589.65,253.45 C589.99,253.38 590.34,253.28 590.69,253.15 C591.04,253.02 591.39,252.80 591.74,252.67 C592.09,252.53 592.44,252.47 592.79,252.33 C593.14,252.19 593.49,251.96 593.84,251.82 C594.19,251.68 594.54,251.60 594.89,251.48 C595.24,251.37 595.59,251.25 595.94,251.12 C596.29,250.99 596.64,250.85 596.99,250.73 C597.34,250.61 597.69,250.71 598.04,250.36 C598.39,250.02 598.74,248.97 599.09,248.58 C599.44,248.18 599.79,248.26 600.14,248.00 C600.49,247.74 600.84,247.31 601.18,247.03 C601.53,246.75 601.88,246.54 602.23,246.33 C602.58,246.13 602.93,245.95 603.28,245.79 C603.63,245.63 603.98,245.50 604.33,245.36 C604.68,245.22 605.03,245.08 605.38,244.94 C605.73,244.80 606.08,244.62 606.43,244.51 C606.78,244.41 607.13,244.42 607.48,244.30 C607.83,244.18 608.18,243.93 608.53,243.79 C608.88,243.64 609.23,243.55 609.58,243.42 C609.93,243.29 610.28,243.14 610.63,243.00 C610.98,242.86 611.33,242.76 611.68,242.57 C612.03,242.39 612.37,242.10 612.72,241.91 C613.07,241.72 613.42,241.62 613.77,241.42 C614.12,241.23 614.47,240.97 614.82,240.73 C615.17,240.48 615.52,240.16 615.87,239.97 C616.22,239.78 616.57,239.71 616.92,239.57 C617.27,239.43 617.62,239.26 617.97,239.12 C618.32,238.98 618.67,238.91 619.02,238.76 C619.37,238.60 619.72,238.43 620.07,238.21 C620.42,237.99 620.77,237.65 621.12,237.42 C621.47,237.19 621.82,237.02 622.17,236.82 C622.52,236.61 622.87,236.41 623.22,236.21 C623.56,236.01 623.91,235.72 624.26,235.60 C624.61,235.49 624.96,235.55 625.31,235.45 C625.66,235.35 626.01,235.08 626.36,234.94 C626.71,234.79 627.06,234.74 627.41,234.57 C627.76,234.41 628.11,234.11 628.46,233.94 C628.81,233.76 629.16,233.69 629.51,233.54 C629.86,233.39 630.21,233.17 630.56,233.03 C630.91,232.89 631.26,232.88 631.61,232.69 C631.96,232.51 632.31,232.16 632.66,231.91 C633.01,231.65 633.36,231.39 633.71,231.18 C634.06,230.97 634.41,230.83 634.75,230.63 C635.10,230.43 635.45,230.15 635.80,229.97 C636.15,229.78 636.50,229.64 636.85,229.51 C637.20,229.38 637.55,229.32 637.90,229.21 C638.25,229.09 638.60,228.96 638.95,228.81 C639.30,228.67 639.65,228.50 640.00,228.33 C640.35,228.16 640.70,228.00 641.05,227.78 C641.40,227.57 641.75,227.25 642.10,227.06 C642.45,226.86 642.80,226.79 643.15,226.60 C643.50,226.41 643.85,226.12 644.20,225.90 C644.55,225.69 644.90,225.53 645.25,225.30 C645.59,225.07 645.94,224.80 646.29,224.51 C646.64,224.22 646.99,223.84 647.34,223.57 C647.69,223.30 648.04,223.11 648.39,222.90 C648.74,222.70 649.09,222.55 649.44,222.33 C649.79,222.11 650.14,221.81 650.49,221.60 C650.84,221.39 651.19,221.27 651.54,221.09 C651.89,220.90 652.24,220.69 652.59,220.51 C652.94,220.33 653.29,220.16 653.64,219.99 C653.99,219.83 654.34,219.70 654.69,219.54 C655.04,219.38 655.39,219.26 655.74,219.02 C656.09,218.79 656.44,218.37 656.78,218.12 C657.13,217.86 657.48,217.68 657.83,217.51 C658.18,217.34 658.53,217.25 658.88,217.11 C659.23,216.98 659.58,216.85 659.93,216.69 C660.28,216.53 660.63,216.29 660.98,216.14 C661.33,216.00 661.68,215.90 662.03,215.81 C662.38,215.73 662.73,215.73 663.08,215.63 C663.43,215.53 663.78,215.39 664.13,215.24 C664.48,215.08 664.83,214.84 665.18,214.69 C665.53,214.54 665.88,214.53 666.23,214.33 C666.58,214.12 666.93,213.69 667.28,213.48 C667.63,213.27 667.97,213.25 668.32,213.05 C668.67,212.86 669.02,212.62 669.37,212.33 C669.72,212.03 670.07,211.63 670.42,211.27 C670.77,210.90 671.12,210.47 671.47,210.11 C671.82,209.76 672.17,209.42 672.52,209.14 C672.87,208.87 673.22,208.68 673.57,208.45 C673.92,208.21 674.27,207.95 674.62,207.72 C674.97,207.49 675.32,207.28 675.67,207.08 C676.02,206.89 676.37,206.72 676.72,206.54 C677.07,206.36 677.42,206.19 677.77,205.99 C678.12,205.79 678.47,205.54 678.82,205.36 C679.16,205.17 679.51,205.01 679.86,204.87 C680.21,204.73 680.56,204.63 680.91,204.51 C681.26,204.39 681.61,204.35 681.96,204.14 C682.31,203.94 682.66,203.56 683.01,203.26 C683.36,202.97 683.71,202.57 684.06,202.35 C684.41,202.14 684.76,202.08 685.11,201.96 C685.46,201.84 685.81,201.75 686.16,201.63 C686.51,201.51 686.86,201.45 687.21,201.23 C687.56,201.02 687.91,200.71 688.26,200.32 C688.61,199.93 688.96,199.23 689.31,198.90 C689.66,198.57 690.01,198.55 690.35,198.32 C690.70,198.10 691.05,197.75 691.40,197.57 C691.75,197.38 692.10,197.34 692.45,197.23 C692.80,197.12 693.15,197.02 693.50,196.90 C693.85,196.78 694.20,196.64 694.55,196.54 C694.90,196.43 695.25,196.37 695.60,196.26 C695.95,196.15 696.30,196.01 696.65,195.87 C697.00,195.73 697.35,195.58 697.70,195.41 C698.05,195.25 698.40,195.04 698.75,194.87 C699.10,194.70 699.45,194.51 699.80,194.38 C700.15,194.25 700.50,194.27 700.85,194.08 C701.19,193.89 701.54,193.48 701.89,193.26 C702.24,193.04 702.59,192.93 702.94,192.75 C703.29,192.56 703.64,192.33 703.99,192.17 C704.34,192.01 704.69,191.92 705.04,191.78 C705.39,191.64 705.74,191.50 706.09,191.32 C706.44,191.15 706.79,190.90 707.14,190.72 C707.49,190.53 707.84,190.41 708.19,190.23 C708.54,190.05 708.89,189.83 709.24,189.62 C709.59,189.42 709.94,189.15 710.29,188.99 C710.64,188.83 710.99,188.82 711.34,188.69 C711.69,188.55 712.04,188.35 712.38,188.17 C712.73,187.99 713.08,187.79 713.43,187.62 C713.78,187.46 714.13,187.31 714.48,187.17 C714.83,187.03 715.18,186.98 715.53,186.81 C715.88,186.63 716.23,186.30 716.58,186.14 C716.93,185.98 717.28,185.99 717.63,185.84 C717.98,185.68 718.33,185.46 718.68,185.23 C719.03,185.00 719.38,184.70 719.73,184.47 C720.08,184.24 720.43,184.05 720.78,183.84 C721.13,183.62 721.48,183.41 721.83,183.17 C722.18,182.93 722.53,182.59 722.88,182.38 C723.23,182.17 723.57,182.04 723.92,181.93 C724.27,181.81 724.62,181.83 724.97,181.68 C725.32,181.54 725.67,181.23 726.02,181.08 C726.37,180.92 726.72,180.85 727.07,180.74 C727.42,180.64 727.77,180.57 728.12,180.44 C728.47,180.31 728.82,180.27 729.17,179.96 C729.52,179.64 729.87,179.04 730.22,178.56 C730.57,178.09 730.92,177.60 731.27,177.11 C731.62,176.61 731.97,176.13 732.32,175.59 C732.67,175.05 733.02,174.53 733.37,173.86 C733.72,173.20 734.07,172.24 734.42,171.62 C734.76,171.00 735.11,170.66 735.46,170.14 C735.81,169.62 736.16,169.02 736.51,168.50 C736.86,167.98 737.21,167.42 737.56,167.05 C737.91,166.67 738.26,166.55 738.61,166.23 C738.96,165.90 739.31,165.44 739.66,165.11 C740.01,164.77 740.36,164.48 740.71,164.23 C741.06,163.97 741.41,163.85 741.76,163.59 C742.11,163.33 742.46,162.96 742.81,162.68 C743.16,162.40 743.51,162.13 743.86,161.89 C744.21,161.66 744.56,161.51 744.91,161.26 C745.26,161.00 745.61,160.65 745.95,160.38 C746.30,160.10 746.65,159.92 747.00,159.62 C747.35,159.32 747.70,158.91 748.05,158.56 C748.40,158.21 748.75,157.82 749.10,157.50 C749.45,157.17 749.80,156.87 750.15,156.62 C750.50,156.37 750.85,156.19 751.20,155.98 C751.55,155.77 751.90,155.60 752.25,155.35 C752.60,155.09 752.95,154.75 753.30,154.47 C753.65,154.18 754.00,153.86 754.35,153.62 C754.70,153.38 755.05,153.26 755.40,153.01 C755.75,152.76 756.10,152.38 756.45,152.13 C756.79,151.89 757.14,151.74 757.49,151.56 C757.84,151.38 758.19,151.18 758.54,151.04 C758.89,150.91 759.24,150.86 759.59,150.74 C759.94,150.62 760.29,150.49 760.64,150.35 C760.99,150.20 761.34,150.04 761.69,149.86 C762.04,149.68 762.39,149.48 762.74,149.28 C763.09,149.09 763.44,148.90 763.79,148.68 C764.14,148.46 764.49,148.20 764.84,147.95 C765.19,147.70 765.54,147.41 765.89,147.19 C766.24,146.98 766.59,146.83 766.94,146.65 C767.29,146.47 767.64,146.31 767.98,146.10 C768.33,145.89 768.68,145.65 769.03,145.40 C769.38,145.16 769.73,144.86 770.08,144.65 C770.43,144.43 770.78,144.28 771.13,144.10 C771.48,143.92 771.83,143.72 772.18,143.56 C772.53,143.39 772.88,143.36 773.23,143.10 C773.58,142.84 773.93,142.25 774.28,141.98 C774.63,141.71 774.98,141.68 775.33,141.49 C775.68,141.31 776.03,141.07 776.38,140.86 C776.73,140.65 777.08,140.43 777.43,140.22 C777.78,140.01 778.13,139.80 778.48,139.59 C778.83,139.37 779.17,139.18 779.52,138.92 C779.87,138.66 780.22,138.31 780.57,138.04 C780.92,137.77 781.27,137.53 781.62,137.31 C781.97,137.09 782.32,136.87 782.67,136.71 C783.02,136.54 783.37,136.48 783.72,136.34 C784.07,136.20 784.42,136.03 784.77,135.86 C785.12,135.69 785.47,135.49 785.82,135.31 C786.17,135.13 786.52,134.95 786.87,134.77 C787.22,134.58 787.57,134.34 787.92,134.19 C788.27,134.04 788.62,133.97 788.97,133.86 C789.32,133.75 789.67,133.65 790.02,133.52 C790.36,133.40 790.71,133.27 791.06,133.10 C791.41,132.93 791.76,132.67 792.11,132.49 C792.46,132.32 792.81,132.26 793.16,132.07 C793.51,131.88 793.86,131.57 794.21,131.37 C794.56,131.17 794.91,131.06 795.26,130.89 C795.61,130.72 795.96,130.49 796.31,130.34 C796.66,130.19 797.01,130.13 797.36,130.01 C797.71,129.89 798.06,129.73 798.41,129.61 C798.76,129.50 799.11,129.48 799.46,129.34 C799.81,129.20 800.16,128.91 800.51,128.77 C800.86,128.62 801.21,128.61 801.55,128.49 C801.90,128.37 802.25,128.18 802.60,128.04 C802.95,127.89 803.30,127.74 803.65,127.61 C804.00,127.49 804.35,127.41 804.70,127.28 C805.05,127.15 805.40,126.95 805.75,126.83 C806.10,126.70 806.45,126.66 806.80,126.52 C807.15,126.39 807.50,126.16 807.85,126.01 C808.20,125.86 808.55,125.74 808.90,125.61 C809.25,125.48 809.60,125.36 809.95,125.22 C810.30,125.08 810.65,124.95 811.00,124.79 C811.35,124.64 811.70,124.50 812.05,124.31 C812.39,124.12 812.74,123.85 813.09,123.67 C813.44,123.50 813.79,123.43 814.14,123.28 C814.49,123.13 814.84,122.91 815.19,122.76 C815.54,122.62 815.89,122.49 816.24,122.40 C816.59,122.31 816.94,122.35 817.29,122.22 C817.64,122.09 817.99,121.78 818.34,121.61 C818.69,121.45 819.04,121.34 819.39,121.22 C819.74,121.10 820.09,121.01 820.44,120.89 C820.79,120.76 821.14,120.67 821.49,120.49 C821.84,120.31 822.19,119.98 822.54,119.79 C822.89,119.61 823.24,119.51 823.58,119.37 C823.93,119.23 824.28,119.06 824.63,118.95 C824.98,118.83 825.33,118.74 825.68,118.67 C826.03,118.60 826.38,118.59 826.73,118.52 C827.08,118.46 827.43,118.37 827.78,118.28 C828.13,118.18 828.48,118.06 828.83,117.95 C829.18,117.83 829.53,117.69 829.88,117.58 C830.23,117.47 830.58,117.38 830.93,117.28 C831.28,117.17 831.63,117.05 831.98,116.95 C832.33,116.84 832.68,116.80 833.03,116.67 C833.38,116.55 833.73,116.30 834.08,116.19 C834.43,116.07 834.77,116.05 835.12,115.98 C835.47,115.90 835.82,115.84 836.17,115.76 C836.52,115.68 836.87,115.60 837.22,115.49 C837.57,115.38 837.92,115.25 838.27,115.10 C838.62,114.94 838.97,114.73 839.32,114.58 C839.67,114.43 840.02,114.30 840.37,114.19 C840.72,114.07 841.07,114.00 841.42,113.88 C841.77,113.77 842.12,113.63 842.47,113.52 C842.82,113.41 843.17,113.35 843.52,113.25 C843.87,113.15 844.22,113.04 844.57,112.91 C844.92,112.79 845.27,112.63 845.62,112.52 C845.96,112.41 846.31,112.34 846.66,112.25 C847.01,112.16 847.36,112.08 847.71,111.97 C848.06,111.87 848.41,111.71 848.76,111.61 C849.11,111.51 849.46,111.45 849.81,111.37 C850.16,111.28 850.51,111.18 850.86,111.10 C851.21,111.01 851.56,110.97 851.91,110.88 C852.26,110.79 852.61,110.72 852.96,110.55 C853.31,110.38 853.66,110.04 854.01,109.88 C854.36,109.73 854.71,109.68 855.06,109.61 C855.41,109.54 855.76,109.52 856.11,109.46 C856.46,109.40 856.81,109.34 857.15,109.25 C857.50,109.15 857.85,108.98 858.20,108.88 C858.55,108.78 858.90,108.74 859.25,108.64 C859.60,108.54 859.95,108.42 860.30,108.31 C860.65,108.19 861.00,108.07 861.35,107.94 C861.70,107.81 862.05,107.65 862.40,107.52 C862.75,107.39 863.10,107.33 863.45,107.19 C863.80,107.04 864.15,106.83 864.50,106.67 C864.85,106.51 865.20,106.35 865.55,106.22 C865.90,106.08 866.25,106.03 866.60,105.88 C866.95,105.74 867.30,105.49 867.65,105.34 C867.99,105.18 868.34,105.06 868.69,104.94 C869.04,104.83 869.39,104.72 869.74,104.64 C870.09,104.56 870.44,104.58 870.79,104.49 C871.14,104.40 871.49,104.23 871.84,104.09 C872.19,103.96 872.54,103.84 872.89,103.67 C873.24,103.50 873.59,103.29 873.94,103.09 C874.29,102.90 874.64,102.68 874.99,102.52 C875.34,102.36 875.69,102.26 876.04,102.12 C876.39,101.99 876.74,101.85 877.09,101.73 C877.44,101.61 877.79,101.58 878.14,101.43 C878.49,101.28 878.84,100.98 879.18,100.82 C879.53,100.66 879.88,100.63 880.23,100.49 C880.58,100.35 880.93,100.11 881.28,99.97 C881.63,99.83 881.98,99.77 882.33,99.64 C882.68,99.51 883.03,99.36 883.38,99.18 C883.73,99.01 884.08,98.74 884.43,98.58 C884.78,98.42 885.13,98.33 885.48,98.21 C885.83,98.10 886.18,98.04 886.53,97.91 C886.88,97.78 887.23,97.56 887.58,97.43 C887.93,97.29 888.28,97.21 888.63,97.09 C888.98,96.98 889.33,96.88 889.68,96.73 C890.03,96.58 890.37,96.34 890.72,96.18 C891.07,96.03 891.42,95.90 891.77,95.79 C892.12,95.68 892.47,95.63 892.82,95.55 C893.17,95.46 893.52,95.39 893.87,95.27 C894.22,95.16 894.57,95.02 894.92,94.88 C895.27,94.74 895.62,94.63 895.97,94.43 C896.32,94.22 896.67,93.86 897.02,93.67 C897.37,93.48 897.72,93.42 898.07,93.27 C898.42,93.13 898.77,92.92 899.12,92.79 C899.47,92.66 899.82,92.62 900.17,92.49 C900.52,92.35 900.87,92.15 901.22,92.00 C901.56,91.85 901.91,91.71 902.26,91.58 C902.61,91.45 902.96,91.36 903.31,91.21 C903.66,91.06 904.01,90.85 904.36,90.67 C904.71,90.48 905.06,90.29 905.41,90.09 C905.76,89.89 906.11,89.68 906.46,89.49 C906.81,89.29 907.16,89.11 907.51,88.91 C907.86,88.71 908.21,88.47 908.56,88.30 C908.91,88.14 909.26,88.08 909.61,87.94 C909.96,87.80 910.31,87.61 910.66,87.49 C911.01,87.36 911.36,87.30 911.71,87.21 C912.06,87.13 912.41,87.04 912.75,86.97 C913.10,86.90 913.45,86.89 913.80,86.82 C914.15,86.74 914.50,86.60 914.85,86.52 C915.20,86.43 915.55,86.37 915.90,86.30 C916.25,86.23 916.60,86.14 916.95,86.09 C917.30,86.04 917.65,86.03 918.00,86.00 L918.00,418.00 L84.00,418.00 Z" fill="#0969da" opacity="0.12" />
    <path d="M84.00,417.79 C84.35,417.70 84.70,417.62 85.05,417.52 C85.40,417.41 85.75,417.28 86.10,417.18 C86.45,417.09 86.80,416.98 87.15,416.94 C87.50,416.90 87.85,416.93 88.20,416.85 C88.55,416.77 88.90,416.35 89.25,416.21 C89.59,416.07 89.94,416.05 90.29,416.00 C90.64,415.95 90.99,415.96 91.34,415.91 C91.69,415.86 92.04,415.73 92.39,415.70 C92.74,415.66 93.09,415.69 93.44,415.58 C93.79,415.46 94.14,414.93 94.49,414.70 C94.84,414.46 95.19,414.33 95.54,414.15 C95.89,413.97 96.24,413.76 96.59,413.64 C96.94,413.51 97.29,413.48 97.64,413.39 C97.99,413.31 98.34,413.19 98.69,413.12 C99.04,413.05 99.39,413.04 99.74,413.00 C100.09,412.95 100.44,412.91 100.78,412.85 C101.13,412.78 101.48,412.67 101.83,412.61 C102.18,412.54 102.53,412.52 102.88,412.48 C103.23,412.44 103.58,412.46 103.93,412.36 C104.28,412.26 104.63,412.01 104.98,411.88 C105.33,411.74 105.68,411.65 106.03,411.54 C106.38,411.44 106.73,411.32 107.08,411.24 C107.43,411.17 107.78,411.15 108.13,411.09 C108.48,411.03 108.83,410.93 109.18,410.88 C109.53,410.82 109.88,410.79 110.23,410.76 C110.58,410.72 110.93,410.74 111.28,410.67 C111.63,410.59 111.97,410.39 112.32,410.30 C112.67,410.22 113.02,410.20 113.37,410.15 C113.72,410.10 114.07,410.06 114.42,410.03 C114.77,409.99 115.12,409.97 115.47,409.94 C115.82,409.90 116.17,409.89 116.52,409.82 C116.87,409.75 117.22,409.58 117.57,409.51 C117.92,409.45 118.27,409.49 118.62,409.42 C118.97,409.36 119.32,409.19 119.67,409.12 C120.02,409.05 120.37,409.02 120.72,409.00 C121.07,408.97 121.42,408.99 121.77,408.97 C122.12,408.95 122.47,408.89 122.82,408.88 C123.16,408.86 123.51,408.88 123.86,408.79 C124.21,408.70 124.56,408.05 124.91,407.79 C125.26,407.52 125.61,407.35 125.96,407.18 C126.31,407.01 126.66,406.84 127.01,406.79 C127.36,406.73 127.71,406.75 128.06,406.73 C128.41,406.70 128.76,406.66 129.11,406.57 C129.46,406.49 129.81,406.33 130.16,406.21 C130.51,406.09 130.86,405.97 131.21,405.88 C131.56,405.78 131.91,405.74 132.26,405.63 C132.61,405.53 132.96,405.47 133.31,405.27 C133.66,405.07 134.01,404.62 134.35,404.42 C134.70,404.22 135.05,404.13 135.40,404.09 C135.75,404.05 136.10,404.08 136.45,403.97 C136.80,403.85 137.15,403.10 137.50,402.88 C137.85,402.65 138.20,402.72 138.55,402.63 C138.90,402.55 139.25,402.44 139.60,402.36 C139.95,402.28 140.30,402.21 140.65,402.15 C141.00,402.09 141.35,402.04 141.70,402.00 C142.05,401.95 142.40,401.93 142.75,401.88 C143.10,401.83 143.45,401.75 143.80,401.69 C144.15,401.64 144.50,401.60 144.85,401.54 C145.19,401.48 145.54,401.39 145.89,401.33 C146.24,401.27 146.59,401.28 146.94,401.21 C147.29,401.13 147.64,401.03 147.99,400.88 C148.34,400.72 148.69,400.46 149.04,400.30 C149.39,400.14 149.74,400.01 150.09,399.91 C150.44,399.80 150.79,399.76 151.14,399.66 C151.49,399.57 151.84,399.42 152.19,399.33 C152.54,399.24 152.89,399.21 153.24,399.15 C153.59,399.09 153.94,399.03 154.29,398.97 C154.64,398.90 154.99,398.82 155.34,398.75 C155.69,398.69 156.04,398.62 156.38,398.57 C156.73,398.52 157.08,398.50 157.43,398.45 C157.78,398.41 158.13,398.35 158.48,398.30 C158.83,398.25 159.18,398.20 159.53,398.15 C159.88,398.10 160.23,398.06 160.58,398.00 C160.93,397.93 161.28,397.85 161.63,397.75 C161.98,397.66 162.33,397.52 162.68,397.42 C163.03,397.32 163.38,397.23 163.73,397.15 C164.08,397.06 164.43,397.12 164.78,396.91 C165.13,396.69 165.48,396.13 165.83,395.84 C166.18,395.56 166.53,395.36 166.88,395.21 C167.23,395.06 167.57,395.03 167.92,394.94 C168.27,394.84 168.62,394.74 168.97,394.66 C169.32,394.59 169.67,394.54 170.02,394.48 C170.37,394.42 170.72,394.40 171.07,394.33 C171.42,394.25 171.77,394.14 172.12,394.03 C172.47,393.91 172.82,393.73 173.17,393.63 C173.52,393.54 173.87,393.53 174.22,393.45 C174.57,393.37 174.92,393.27 175.27,393.18 C175.62,393.09 175.97,392.99 176.32,392.90 C176.67,392.82 177.02,392.77 177.37,392.69 C177.72,392.61 178.07,392.51 178.42,392.42 C178.76,392.33 179.11,392.23 179.46,392.15 C179.81,392.07 180.16,392.01 180.51,391.93 C180.86,391.86 181.21,391.78 181.56,391.69 C181.91,391.61 182.26,391.52 182.61,391.42 C182.96,391.32 183.31,391.18 183.66,391.12 C184.01,391.06 184.36,391.09 184.71,391.03 C185.06,390.96 185.41,390.84 185.76,390.66 C186.11,390.48 186.46,390.11 186.81,389.96 C187.16,389.82 187.51,389.86 187.86,389.78 C188.21,389.71 188.56,389.61 188.91,389.51 C189.26,389.41 189.61,389.34 189.95,389.18 C190.30,389.01 190.65,388.69 191.00,388.54 C191.35,388.39 191.70,388.39 192.05,388.30 C192.40,388.20 192.75,388.07 193.10,387.96 C193.45,387.86 193.80,387.73 194.15,387.66 C194.50,387.59 194.85,387.60 195.20,387.54 C195.55,387.48 195.90,387.40 196.25,387.30 C196.60,387.20 196.95,387.02 197.30,386.93 C197.65,386.85 198.00,386.85 198.35,386.78 C198.70,386.72 199.05,386.64 199.40,386.54 C199.75,386.44 200.10,386.24 200.45,386.18 C200.79,386.11 201.14,386.14 201.49,386.09 C201.84,386.03 202.19,385.86 202.54,385.78 C202.89,385.70 203.24,385.68 203.59,385.60 C203.94,385.52 204.29,385.41 204.64,385.33 C204.99,385.25 205.34,385.21 205.69,385.12 C206.04,385.02 206.39,384.87 206.74,384.78 C207.09,384.69 207.44,384.63 207.79,384.57 C208.14,384.51 208.49,384.49 208.84,384.42 C209.19,384.34 209.54,384.19 209.89,384.12 C210.24,384.04 210.59,384.04 210.94,383.96 C211.29,383.88 211.64,383.72 211.98,383.63 C212.33,383.54 212.68,383.51 213.03,383.42 C213.38,383.33 213.73,383.22 214.08,383.08 C214.43,382.95 214.78,382.75 215.13,382.63 C215.48,382.51 215.83,382.44 216.18,382.36 C216.53,382.27 216.88,382.20 217.23,382.11 C217.58,382.03 217.93,381.96 218.28,381.84 C218.63,381.73 218.98,381.53 219.33,381.42 C219.68,381.31 220.03,381.24 220.38,381.18 C220.73,381.11 221.08,381.12 221.43,381.05 C221.78,380.99 222.13,380.87 222.48,380.78 C222.83,380.69 223.17,380.62 223.52,380.51 C223.87,380.39 224.22,380.16 224.57,380.08 C224.92,380.01 225.27,380.06 225.62,379.93 C225.97,379.80 226.32,379.29 226.67,379.05 C227.02,378.82 227.37,378.72 227.72,378.51 C228.07,378.30 228.42,377.93 228.77,377.78 C229.12,377.63 229.47,377.70 229.82,377.60 C230.17,377.50 230.52,377.30 230.87,377.17 C231.22,377.05 231.57,376.95 231.92,376.84 C232.27,376.73 232.62,376.63 232.97,376.54 C233.32,376.44 233.67,376.38 234.02,376.27 C234.36,376.15 234.71,375.99 235.06,375.84 C235.41,375.69 235.76,375.50 236.11,375.36 C236.46,375.21 236.81,375.09 237.16,374.96 C237.51,374.84 237.86,374.73 238.21,374.60 C238.56,374.47 238.91,374.29 239.26,374.17 C239.61,374.06 239.96,374.00 240.31,373.90 C240.66,373.81 241.01,373.70 241.36,373.60 C241.71,373.50 242.06,373.39 242.41,373.29 C242.76,373.20 243.11,373.12 243.46,373.02 C243.81,372.92 244.16,372.81 244.51,372.69 C244.86,372.57 245.21,372.41 245.55,372.29 C245.90,372.18 246.25,372.09 246.60,372.02 C246.95,371.96 247.30,371.95 247.65,371.90 C248.00,371.86 248.35,371.80 248.70,371.75 C249.05,371.69 249.40,371.64 249.75,371.57 C250.10,371.50 250.45,371.45 250.80,371.32 C251.15,371.20 251.50,370.96 251.85,370.84 C252.20,370.72 252.55,370.70 252.90,370.60 C253.25,370.49 253.60,370.32 253.95,370.20 C254.30,370.09 254.65,370.00 255.00,369.90 C255.35,369.80 255.70,369.77 256.05,369.63 C256.39,369.48 256.74,369.19 257.09,369.02 C257.44,368.85 257.79,368.74 258.14,368.63 C258.49,368.51 258.84,368.60 259.19,368.32 C259.54,368.05 259.89,367.33 260.24,366.99 C260.59,366.65 260.94,366.46 261.29,366.29 C261.64,366.13 261.99,366.14 262.34,365.99 C262.69,365.84 263.04,365.57 263.39,365.41 C263.74,365.26 264.09,365.18 264.44,365.08 C264.79,364.99 265.14,364.90 265.49,364.84 C265.84,364.77 266.19,364.74 266.54,364.69 C266.89,364.64 267.24,364.60 267.58,364.54 C267.93,364.47 268.28,364.37 268.63,364.29 C268.98,364.21 269.33,364.25 269.68,364.05 C270.03,363.85 270.38,363.28 270.73,363.11 C271.08,362.94 271.43,363.02 271.78,362.90 C272.13,362.78 272.48,362.47 272.83,362.29 C273.18,362.12 273.53,362.00 273.88,361.84 C274.23,361.67 274.58,361.48 274.93,361.29 C275.28,361.11 275.63,360.88 275.98,360.72 C276.33,360.55 276.68,360.39 277.03,360.29 C277.38,360.20 277.73,360.22 278.08,360.14 C278.43,360.07 278.77,360.00 279.12,359.84 C279.47,359.68 279.82,359.41 280.17,359.17 C280.52,358.93 280.87,358.61 281.22,358.41 C281.57,358.22 281.92,358.14 282.27,357.99 C282.62,357.84 282.97,357.67 283.32,357.53 C283.67,357.40 284.02,357.33 284.37,357.20 C284.72,357.07 285.07,356.89 285.42,356.78 C285.77,356.67 286.12,356.63 286.47,356.53 C286.82,356.44 287.17,356.30 287.52,356.23 C287.87,356.16 288.22,356.22 288.57,355.99 C288.92,355.76 289.27,354.78 289.62,354.44 C289.96,354.11 290.31,354.14 290.66,353.99 C291.01,353.83 291.36,353.77 291.71,353.50 C292.06,353.24 292.41,352.71 292.76,352.41 C293.11,352.11 293.46,351.91 293.81,351.72 C294.16,351.52 294.51,351.41 294.86,351.23 C295.21,351.05 295.56,350.78 295.91,350.62 C296.26,350.47 296.61,350.43 296.96,350.32 C297.31,350.21 297.66,350.12 298.01,349.99 C298.36,349.86 298.71,349.69 299.06,349.53 C299.41,349.37 299.76,349.20 300.11,349.02 C300.46,348.84 300.81,348.64 301.15,348.44 C301.50,348.24 301.85,347.99 302.20,347.84 C302.55,347.68 302.90,347.63 303.25,347.53 C303.60,347.44 303.95,347.38 304.30,347.26 C304.65,347.14 305.00,347.01 305.35,346.84 C305.70,346.66 306.05,346.39 306.40,346.23 C306.75,346.07 307.10,346.05 307.45,345.87 C307.80,345.68 308.15,345.36 308.50,345.14 C308.85,344.92 309.20,344.73 309.55,344.53 C309.90,344.34 310.25,344.16 310.60,343.96 C310.95,343.75 311.30,343.50 311.65,343.32 C311.99,343.14 312.34,343.02 312.69,342.90 C313.04,342.77 313.39,342.69 313.74,342.59 C314.09,342.50 314.44,342.43 314.79,342.32 C315.14,342.21 315.49,342.07 315.84,341.93 C316.19,341.78 316.54,341.59 316.89,341.47 C317.24,341.35 317.59,341.35 317.94,341.23 C318.29,341.10 318.64,340.85 318.99,340.71 C319.34,340.58 319.69,340.51 320.04,340.41 C320.39,340.31 320.74,340.26 321.09,340.14 C321.44,340.01 321.79,339.85 322.14,339.65 C322.49,339.46 322.84,339.15 323.18,338.96 C323.53,338.76 323.88,338.64 324.23,338.50 C324.58,338.36 324.93,338.23 325.28,338.11 C325.63,337.98 325.98,337.84 326.33,337.74 C326.68,337.64 327.03,337.61 327.38,337.50 C327.73,337.39 328.08,337.22 328.43,337.11 C328.78,337.00 329.13,336.91 329.48,336.83 C329.83,336.75 330.18,336.71 330.53,336.62 C330.88,336.54 331.23,336.41 331.58,336.32 C331.93,336.23 332.28,336.15 332.63,336.08 C332.98,336.01 333.33,335.95 333.68,335.89 C334.03,335.84 334.37,335.82 334.72,335.74 C335.07,335.67 335.42,335.53 335.77,335.44 C336.12,335.35 336.47,335.29 336.82,335.20 C337.17,335.11 337.52,335.01 337.87,334.89 C338.22,334.78 338.57,334.63 338.92,334.53 C339.27,334.43 339.62,334.40 339.97,334.32 C340.32,334.24 340.67,334.12 341.02,334.05 C341.37,333.97 341.72,333.96 342.07,333.89 C342.42,333.82 342.77,333.71 343.12,333.62 C343.47,333.53 343.82,333.43 344.17,333.35 C344.52,333.27 344.87,333.23 345.22,333.14 C345.56,333.05 345.91,332.89 346.26,332.80 C346.61,332.71 346.96,332.69 347.31,332.59 C347.66,332.49 348.01,332.36 348.36,332.23 C348.71,332.10 349.06,331.91 349.41,331.80 C349.76,331.70 350.11,331.70 350.46,331.59 C350.81,331.48 351.16,331.29 351.51,331.17 C351.86,331.04 352.21,330.96 352.56,330.83 C352.91,330.71 353.26,330.56 353.61,330.41 C353.96,330.26 354.31,330.04 354.66,329.92 C355.01,329.80 355.36,329.77 355.71,329.68 C356.06,329.59 356.41,329.48 356.75,329.38 C357.10,329.27 357.45,329.20 357.80,329.04 C358.15,328.89 358.50,328.60 358.85,328.44 C359.20,328.27 359.55,328.15 359.90,328.04 C360.25,327.94 360.60,327.91 360.95,327.83 C361.30,327.76 361.65,327.70 362.00,327.59 C362.35,327.48 362.70,327.24 363.05,327.17 C363.40,327.09 363.75,327.13 364.10,327.07 C364.45,327.02 364.80,326.87 365.15,326.80 C365.50,326.74 365.85,326.73 366.20,326.68 C366.55,326.63 366.90,326.60 367.25,326.53 C367.59,326.45 367.94,326.30 368.29,326.23 C368.64,326.15 368.99,326.17 369.34,326.10 C369.69,326.04 370.04,325.90 370.39,325.83 C370.74,325.76 371.09,325.76 371.44,325.68 C371.79,325.60 372.14,325.45 372.49,325.38 C372.84,325.30 373.19,325.29 373.54,325.23 C373.89,325.16 374.24,325.06 374.59,324.98 C374.94,324.90 375.29,324.83 375.64,324.74 C375.99,324.65 376.34,324.50 376.69,324.44 C377.04,324.37 377.39,324.40 377.74,324.35 C378.09,324.29 378.44,324.18 378.78,324.10 C379.13,324.03 379.48,323.97 379.83,323.89 C380.18,323.82 380.53,323.73 380.88,323.65 C381.23,323.57 381.58,323.53 381.93,323.44 C382.28,323.34 382.63,323.23 382.98,323.07 C383.33,322.92 383.68,322.66 384.03,322.53 C384.38,322.40 384.73,322.36 385.08,322.29 C385.43,322.21 385.78,322.18 386.13,322.10 C386.48,322.02 386.83,321.88 387.18,321.80 C387.53,321.72 387.88,321.66 388.23,321.62 C388.58,321.57 388.93,321.58 389.28,321.53 C389.63,321.48 389.97,321.50 390.32,321.32 C390.67,321.13 391.02,320.65 391.37,320.44 C391.72,320.22 392.07,320.16 392.42,320.04 C392.77,319.93 393.12,319.84 393.47,319.74 C393.82,319.64 394.17,319.58 394.52,319.47 C394.87,319.36 395.22,319.20 395.57,319.07 C395.92,318.94 396.27,318.82 396.62,318.68 C396.97,318.54 397.32,318.37 397.67,318.25 C398.02,318.14 398.37,318.10 398.72,317.98 C399.07,317.87 399.42,317.66 399.77,317.56 C400.12,317.45 400.47,317.43 400.82,317.35 C401.16,317.26 401.51,317.15 401.86,317.04 C402.21,316.94 402.56,316.80 402.91,316.71 C403.26,316.62 403.61,316.57 403.96,316.50 C404.31,316.42 404.66,316.32 405.01,316.25 C405.36,316.18 405.71,316.11 406.06,316.07 C406.41,316.03 406.76,316.05 407.11,316.01 C407.46,315.97 407.81,315.88 408.16,315.83 C408.51,315.78 408.86,315.77 409.21,315.71 C409.56,315.65 409.91,315.55 410.26,315.47 C410.61,315.39 410.96,315.31 411.31,315.22 C411.66,315.13 412.01,314.99 412.35,314.92 C412.70,314.85 413.05,314.85 413.40,314.80 C413.75,314.74 414.10,314.65 414.45,314.59 C414.80,314.53 415.15,314.51 415.50,314.44 C415.85,314.36 416.20,314.22 416.55,314.13 C416.90,314.05 417.25,313.98 417.60,313.92 C417.95,313.86 418.30,313.83 418.65,313.77 C419.00,313.71 419.35,313.63 419.70,313.56 C420.05,313.48 420.40,313.37 420.75,313.31 C421.10,313.25 421.45,313.23 421.80,313.19 C422.15,313.15 422.50,313.14 422.85,313.07 C423.19,313.01 423.54,312.87 423.89,312.80 C424.24,312.72 424.59,312.69 424.94,312.62 C425.29,312.55 425.64,312.44 425.99,312.37 C426.34,312.31 426.69,312.28 427.04,312.25 C427.39,312.22 427.74,312.23 428.09,312.19 C428.44,312.16 428.79,312.11 429.14,312.04 C429.49,311.97 429.84,311.84 430.19,311.77 C430.54,311.70 430.89,311.71 431.24,311.62 C431.59,311.52 431.94,311.22 432.29,311.19 C432.64,311.17 432.99,311.18 433.34,311.16 C433.69,311.15 434.04,310.98 434.38,310.92 C434.73,310.86 435.08,310.84 435.43,310.80 C435.78,310.76 436.13,310.72 436.48,310.68 C436.83,310.64 437.18,310.57 437.53,310.56 C437.88,310.54 438.23,310.55 438.58,310.53 C438.93,310.50 439.28,310.41 439.63,310.34 C439.98,310.28 440.33,310.19 440.68,310.13 C441.03,310.08 441.38,310.04 441.73,310.01 C442.08,309.98 442.43,309.99 442.78,309.95 C443.13,309.91 443.48,309.82 443.83,309.77 C444.18,309.72 444.53,309.70 444.88,309.65 C445.23,309.60 445.57,309.54 445.92,309.47 C446.27,309.39 446.62,309.28 446.97,309.22 C447.32,309.17 447.67,309.16 448.02,309.13 C448.37,309.11 448.72,309.12 449.07,309.07 C449.42,309.02 449.77,308.89 450.12,308.83 C450.47,308.77 450.82,308.77 451.17,308.71 C451.52,308.65 451.87,308.55 452.22,308.46 C452.57,308.38 452.92,308.30 453.27,308.22 C453.62,308.14 453.97,308.05 454.32,307.98 C454.67,307.91 455.02,307.89 455.37,307.83 C455.72,307.76 456.07,307.68 456.42,307.59 C456.76,307.49 457.11,307.35 457.46,307.28 C457.81,307.21 458.16,307.19 458.51,307.16 C458.86,307.13 459.21,307.16 459.56,306.98 C459.91,306.80 460.26,305.75 460.61,305.28 C460.96,304.81 461.31,304.41 461.66,304.16 C462.01,303.91 462.36,303.92 462.71,303.80 C463.06,303.68 463.41,303.55 463.76,303.43 C464.11,303.32 464.46,303.21 464.81,303.10 C465.16,302.99 465.51,302.95 465.86,302.80 C466.21,302.64 466.56,302.35 466.91,302.16 C467.26,301.97 467.61,301.79 467.95,301.65 C468.30,301.50 468.65,301.41 469.00,301.28 C469.35,301.15 469.70,300.99 470.05,300.86 C470.40,300.73 470.75,300.61 471.10,300.49 C471.45,300.38 471.80,300.26 472.15,300.16 C472.50,300.06 472.85,300.01 473.20,299.92 C473.55,299.82 473.90,299.70 474.25,299.58 C474.60,299.47 474.95,299.38 475.30,299.25 C475.65,299.12 476.00,298.91 476.35,298.80 C476.70,298.68 477.05,298.64 477.40,298.55 C477.75,298.47 478.10,298.37 478.45,298.28 C478.79,298.19 479.14,298.13 479.49,298.01 C479.84,297.89 480.19,297.66 480.54,297.55 C480.89,297.44 481.24,297.45 481.59,297.34 C481.94,297.24 482.29,297.04 482.64,296.92 C482.99,296.79 483.34,296.72 483.69,296.58 C484.04,296.45 484.39,296.27 484.74,296.13 C485.09,295.99 485.44,295.84 485.79,295.77 C486.14,295.69 486.49,295.75 486.84,295.52 C487.19,295.29 487.54,294.32 487.89,293.95 C488.24,293.58 488.59,293.49 488.94,293.31 C489.29,293.13 489.64,293.05 489.98,292.89 C490.33,292.72 490.68,292.51 491.03,292.31 C491.38,292.11 491.73,291.91 492.08,291.70 C492.43,291.50 492.78,291.15 493.13,291.10 C493.48,291.05 493.83,291.07 494.18,291.04 C494.53,291.00 494.88,290.78 495.23,290.67 C495.58,290.56 495.93,290.48 496.28,290.37 C496.63,290.26 496.98,290.13 497.33,290.04 C497.68,289.94 498.03,289.90 498.38,289.79 C498.73,289.69 499.08,289.55 499.43,289.43 C499.78,289.31 500.13,289.19 500.48,289.07 C500.83,288.94 501.17,288.81 501.52,288.67 C501.87,288.54 502.22,288.40 502.57,288.25 C502.92,288.10 503.27,287.92 503.62,287.79 C503.97,287.67 504.32,287.65 504.67,287.52 C505.02,287.40 505.37,287.19 505.72,287.04 C506.07,286.88 506.42,286.76 506.77,286.58 C507.12,286.40 507.47,286.13 507.82,285.95 C508.17,285.76 508.52,285.64 508.87,285.49 C509.22,285.34 509.57,285.15 509.92,285.04 C510.27,284.93 510.62,284.91 510.97,284.82 C511.32,284.74 511.67,284.67 512.02,284.52 C512.36,284.37 512.71,284.13 513.06,283.95 C513.41,283.76 513.76,283.55 514.11,283.43 C514.46,283.31 514.81,283.34 515.16,283.25 C515.51,283.16 515.86,282.99 516.21,282.88 C516.56,282.78 516.91,282.81 517.26,282.61 C517.61,282.41 517.96,281.95 518.31,281.70 C518.66,281.45 519.01,281.46 519.36,281.13 C519.71,280.79 520.06,280.11 520.41,279.67 C520.76,279.24 521.11,278.80 521.46,278.52 C521.81,278.24 522.16,278.17 522.51,277.97 C522.86,277.78 523.21,277.53 523.55,277.34 C523.90,277.15 524.25,276.97 524.60,276.82 C524.95,276.68 525.30,276.58 525.65,276.46 C526.00,276.34 526.35,276.24 526.70,276.13 C527.05,276.01 527.40,275.91 527.75,275.76 C528.10,275.61 528.45,275.37 528.80,275.22 C529.15,275.06 529.50,274.97 529.85,274.82 C530.20,274.68 530.55,274.37 530.90,274.34 C531.25,274.31 531.60,274.32 531.95,274.31 C532.30,274.30 532.65,274.24 533.00,274.13 C533.35,274.01 533.70,273.77 534.05,273.64 C534.39,273.51 534.74,273.48 535.09,273.37 C535.44,273.26 535.79,273.08 536.14,272.97 C536.49,272.86 536.84,272.80 537.19,272.70 C537.54,272.60 537.89,272.53 538.24,272.40 C538.59,272.26 538.94,272.03 539.29,271.88 C539.64,271.74 539.99,271.62 540.34,271.52 C540.69,271.42 541.04,271.36 541.39,271.28 C541.74,271.19 542.09,271.14 542.44,271.00 C542.79,270.87 543.14,270.59 543.49,270.46 C543.84,270.33 544.19,270.30 544.54,270.22 C544.89,270.13 545.24,270.03 545.58,269.94 C545.93,269.85 546.28,269.74 546.63,269.67 C546.98,269.60 547.33,269.64 547.68,269.55 C548.03,269.46 548.38,269.25 548.73,269.12 C549.08,269.00 549.43,268.90 549.78,268.79 C550.13,268.68 550.48,268.56 550.83,268.46 C551.18,268.35 551.53,268.28 551.88,268.15 C552.23,268.03 552.58,267.86 552.93,267.73 C553.28,267.60 553.63,267.54 553.98,267.40 C554.33,267.26 554.68,267.04 555.03,266.88 C555.38,266.72 555.73,266.55 556.08,266.43 C556.43,266.31 556.77,266.27 557.12,266.15 C557.47,266.04 557.82,265.88 558.17,265.76 C558.52,265.64 558.87,265.55 559.22,265.43 C559.57,265.30 559.92,265.09 560.27,265.00 C560.62,264.91 560.97,264.96 561.32,264.88 C561.67,264.80 562.02,264.63 562.37,264.52 C562.72,264.41 563.07,264.34 563.42,264.21 C563.77,264.09 564.12,263.91 564.47,263.79 C564.82,263.67 565.17,263.59 565.52,263.49 C565.87,263.39 566.22,263.27 566.57,263.18 C566.92,263.09 567.27,263.00 567.62,262.94 C567.96,262.89 568.31,262.92 568.66,262.85 C569.01,262.78 569.36,262.62 569.71,262.55 C570.06,262.47 570.41,262.48 570.76,262.40 C571.11,262.32 571.46,262.17 571.81,262.06 C572.16,261.95 572.51,261.90 572.86,261.73 C573.21,261.56 573.56,261.41 573.91,261.03 C574.26,260.66 574.61,259.90 574.96,259.49 C575.31,259.08 575.66,258.80 576.01,258.58 C576.36,258.35 576.71,258.30 577.06,258.15 C577.41,258.00 577.76,257.82 578.11,257.67 C578.46,257.52 578.81,257.37 579.15,257.24 C579.50,257.11 579.85,256.98 580.20,256.88 C580.55,256.78 580.90,256.75 581.25,256.67 C581.60,256.58 581.95,256.46 582.30,256.36 C582.65,256.27 583.00,256.21 583.35,256.09 C583.70,255.97 584.05,255.78 584.40,255.64 C584.75,255.50 585.10,255.43 585.45,255.24 C585.80,255.05 586.15,254.71 586.50,254.49 C586.85,254.26 587.20,254.06 587.55,253.91 C587.90,253.76 588.25,253.68 588.60,253.61 C588.95,253.53 589.30,253.53 589.65,253.45 C589.99,253.38 590.34,253.28 590.69,253.15 C591.04,253.02 591.39,252.80 591.74,252.67 C592.09,252.53 592.44,252.47 592.79,252.33 C593.14,252.19 593.49,251.96 593.84,251.82 C594.19,251.68 594.54,251.60 594.89,251.48 C595.24,251.37 595.59,251.25 595.94,251.12 C596.29,250.99 596.64,250.85 596.99,250.73 C597.34,250.61 597.69,250.71 598.04,250.36 C598.39,250.02 598.74,248.97 599.09,248.58 C599.44,248.18 599.79,248.26 600.14,248.00 C600.49,247.74 600.84,247.31 601.18,247.03 C601.53,246.75 601.88,246.54 602.23,246.33 C602.58,246.13 602.93,245.95 603.28,245.79 C603.63,245.63 603.98,245.50 604.33,245.36 C604.68,245.22 605.03,245.08 605.38,244.94 C605.73,244.80 606.08,244.62 606.43,244.51 C606.78,244.41 607.13,244.42 607.48,244.30 C607.83,244.18 608.18,243.93 608.53,243.79 C608.88,243.64 609.23,243.55 609.58,243.42 C609.93,243.29 610.28,243.14 610.63,243.00 C610.98,242.86 611.33,242.76 611.68,242.57 C612.03,242.39 612.37,242.10 612.72,241.91 C613.07,241.72 613.42,241.62 613.77,241.42 C614.12,241.23 614.47,240.97 614.82,240.73 C615.17,240.48 615.52,240.16 615.87,239.97 C616.22,239.78 616.57,239.71 616.92,239.57 C617.27,239.43 617.62,239.26 617.97,239.12 C618.32,238.98 618.67,238.91 619.02,238.76 C619.37,238.60 619.72,238.43 620.07,238.21 C620.42,237.99 620.77,237.65 621.12,237.42 C621.47,237.19 621.82,237.02 622.17,236.82 C622.52,236.61 622.87,236.41 623.22,236.21 C623.56,236.01 623.91,235.72 624.26,235.60 C624.61,235.49 624.96,235.55 625.31,235.45 C625.66,235.35 626.01,235.08 626.36,234.94 C626.71,234.79 627.06,234.74 627.41,234.57 C627.76,234.41 628.11,234.11 628.46,233.94 C628.81,233.76 629.16,233.69 629.51,233.54 C629.86,233.39 630.21,233.17 630.56,233.03 C630.91,232.89 631.26,232.88 631.61,232.69 C631.96,232.51 632.31,232.16 632.66,231.91 C633.01,231.65 633.36,231.39 633.71,231.18 C634.06,230.97 634.41,230.83 634.75,230.63 C635.10,230.43 635.45,230.15 635.80,229.97 C636.15,229.78 636.50,229.64 636.85,229.51 C637.20,229.38 637.55,229.32 637.90,229.21 C638.25,229.09 638.60,228.96 638.95,228.81 C639.30,228.67 639.65,228.50 640.00,228.33 C640.35,228.16 640.70,228.00 641.05,227.78 C641.40,227.57 641.75,227.25 642.10,227.06 C642.45,226.86 642.80,226.79 643.15,226.60 C643.50,226.41 643.85,226.12 644.20,225.90 C644.55,225.69 644.90,225.53 645.25,225.30 C645.59,225.07 645.94,224.80 646.29,224.51 C646.64,224.22 646.99,223.84 647.34,223.57 C647.69,223.30 648.04,223.11 648.39,222.90 C648.74,222.70 649.09,222.55 649.44,222.33 C649.79,222.11 650.14,221.81 650.49,221.60 C650.84,221.39 651.19,221.27 651.54,221.09 C651.89,220.90 652.24,220.69 652.59,220.51 C652.94,220.33 653.29,220.16 653.64,219.99 C653.99,219.83 654.34,219.70 654.69,219.54 C655.04,219.38 655.39,219.26 655.74,219.02 C656.09,218.79 656.44,218.37 656.78,218.12 C657.13,217.86 657.48,217.68 657.83,217.51 C658.18,217.34 658.53,217.25 658.88,217.11 C659.23,216.98 659.58,216.85 659.93,216.69 C660.28,216.53 660.63,216.29 660.98,216.14 C661.33,216.00 661.68,215.90 662.03,215.81 C662.38,215.73 662.73,215.73 663.08,215.63 C663.43,215.53 663.78,215.39 664.13,215.24 C664.48,215.08 664.83,214.84 665.18,214.69 C665.53,214.54 665.88,214.53 666.23,214.33 C666.58,214.12 666.93,213.69 667.28,213.48 C667.63,213.27 667.97,213.25 668.32,213.05 C668.67,212.86 669.02,212.62 669.37,212.33 C669.72,212.03 670.07,211.63 670.42,211.27 C670.77,210.90 671.12,210.47 671.47,210.11 C671.82,209.76 672.17,209.42 672.52,209.14 C672.87,208.87 673.22,208.68 673.57,208.45 C673.92,208.21 674.27,207.95 674.62,207.72 C674.97,207.49 675.32,207.28 675.67,207.08 C676.02,206.89 676.37,206.72 676.72,206.54 C677.07,206.36 677.42,206.19 677.77,205.99 C678.12,205.79 678.47,205.54 678.82,205.36 C679.16,205.17 679.51,205.01 679.86,204.87 C680.21,204.73 680.56,204.63 680.91,204.51 C681.26,204.39 681.61,204.35 681.96,204.14 C682.31,203.94 682.66,203.56 683.01,203.26 C683.36,202.97 683.71,202.57 684.06,202.35 C684.41,202.14 684.76,202.08 685.11,201.96 C685.46,201.84 685.81,201.75 686.16,201.63 C686.51,201.51 686.86,201.45 687.21,201.23 C687.56,201.02 687.91,200.71 688.26,200.32 C688.61,199.93 688.96,199.23 689.31,198.90 C689.66,198.57 690.01,198.55 690.35,198.32 C690.70,198.10 691.05,197.75 691.40,197.57 C691.75,197.38 692.10,197.34 692.45,197.23 C692.80,197.12 693.15,197.02 693.50,196.90 C693.85,196.78 694.20,196.64 694.55,196.54 C694.90,196.43 695.25,196.37 695.60,196.26 C695.95,196.15 696.30,196.01 696.65,195.87 C697.00,195.73 697.35,195.58 697.70,195.41 C698.05,195.25 698.40,195.04 698.75,194.87 C699.10,194.70 699.45,194.51 699.80,194.38 C700.15,194.25 700.50,194.27 700.85,194.08 C701.19,193.89 701.54,193.48 701.89,193.26 C702.24,193.04 702.59,192.93 702.94,192.75 C703.29,192.56 703.64,192.33 703.99,192.17 C704.34,192.01 704.69,191.92 705.04,191.78 C705.39,191.64 705.74,191.50 706.09,191.32 C706.44,191.15 706.79,190.90 707.14,190.72 C707.49,190.53 707.84,190.41 708.19,190.23 C708.54,190.05 708.89,189.83 709.24,189.62 C709.59,189.42 709.94,189.15 710.29,188.99 C710.64,188.83 710.99,188.82 711.34,188.69 C711.69,188.55 712.04,188.35 712.38,188.17 C712.73,187.99 713.08,187.79 713.43,187.62 C713.78,187.46 714.13,187.31 714.48,187.17 C714.83,187.03 715.18,186.98 715.53,186.81 C715.88,186.63 716.23,186.30 716.58,186.14 C716.93,185.98 717.28,185.99 717.63,185.84 C717.98,185.68 718.33,185.46 718.68,185.23 C719.03,185.00 719.38,184.70 719.73,184.47 C720.08,184.24 720.43,184.05 720.78,183.84 C721.13,183.62 721.48,183.41 721.83,183.17 C722.18,182.93 722.53,182.59 722.88,182.38 C723.23,182.17 723.57,182.04 723.92,181.93 C724.27,181.81 724.62,181.83 724.97,181.68 C725.32,181.54 725.67,181.23 726.02,181.08 C726.37,180.92 726.72,180.85 727.07,180.74 C727.42,180.64 727.77,180.57 728.12,180.44 C728.47,180.31 728.82,180.27 729.17,179.96 C729.52,179.64 729.87,179.04 730.22,178.56 C730.57,178.09 730.92,177.60 731.27,177.11 C731.62,176.61 731.97,176.13 732.32,175.59 C732.67,175.05 733.02,174.53 733.37,173.86 C733.72,173.20 734.07,172.24 734.42,171.62 C734.76,171.00 735.11,170.66 735.46,170.14 C735.81,169.62 736.16,169.02 736.51,168.50 C736.86,167.98 737.21,167.42 737.56,167.05 C737.91,166.67 738.26,166.55 738.61,166.23 C738.96,165.90 739.31,165.44 739.66,165.11 C740.01,164.77 740.36,164.48 740.71,164.23 C741.06,163.97 741.41,163.85 741.76,163.59 C742.11,163.33 742.46,162.96 742.81,162.68 C743.16,162.40 743.51,162.13 743.86,161.89 C744.21,161.66 744.56,161.51 744.91,161.26 C745.26,161.00 745.61,160.65 745.95,160.38 C746.30,160.10 746.65,159.92 747.00,159.62 C747.35,159.32 747.70,158.91 748.05,158.56 C748.40,158.21 748.75,157.82 749.10,157.50 C749.45,157.17 749.80,156.87 750.15,156.62 C750.50,156.37 750.85,156.19 751.20,155.98 C751.55,155.77 751.90,155.60 752.25,155.35 C752.60,155.09 752.95,154.75 753.30,154.47 C753.65,154.18 754.00,153.86 754.35,153.62 C754.70,153.38 755.05,153.26 755.40,153.01 C755.75,152.76 756.10,152.38 756.45,152.13 C756.79,151.89 757.14,151.74 757.49,151.56 C757.84,151.38 758.19,151.18 758.54,151.04 C758.89,150.91 759.24,150.86 759.59,150.74 C759.94,150.62 760.29,150.49 760.64,150.35 C760.99,150.20 761.34,150.04 761.69,149.86 C762.04,149.68 762.39,149.48 762.74,149.28 C763.09,149.09 763.44,148.90 763.79,148.68 C764.14,148.46 764.49,148.20 764.84,147.95 C765.19,147.70 765.54,147.41 765.89,147.19 C766.24,146.98 766.59,146.83 766.94,146.65 C767.29,146.47 767.64,146.31 767.98,146.10 C768.33,145.89 768.68,145.65 769.03,145.40 C769.38,145.16 769.73,144.86 770.08,144.65 C770.43,144.43 770.78,144.28 771.13,144.10 C771.48,143.92 771.83,143.72 772.18,143.56 C772.53,143.39 772.88,143.36 773.23,143.10 C773.58,142.84 773.93,142.25 774.28,141.98 C774.63,141.71 774.98,141.68 775.33,141.49 C775.68,141.31 776.03,141.07 776.38,140.86 C776.73,140.65 777.08,140.43 777.43,140.22 C777.78,140.01 778.13,139.80 778.48,139.59 C778.83,139.37 779.17,139.18 779.52,138.92 C779.87,138.66 780.22,138.31 780.57,138.04 C780.92,137.77 781.27,137.53 781.62,137.31 C781.97,137.09 782.32,136.87 782.67,136.71 C783.02,136.54 783.37,136.48 783.72,136.34 C784.07,136.20 784.42,136.03 784.77,135.86 C785.12,135.69 785.47,135.49 785.82,135.31 C786.17,135.13 786.52,134.95 786.87,134.77 C787.22,134.58 787.57,134.34 787.92,134.19 C788.27,134.04 788.62,133.97 788.97,133.86 C789.32,133.75 789.67,133.65 790.02,133.52 C790.36,133.40 790.71,133.27 791.06,133.10 C791.41,132.93 791.76,132.67 792.11,132.49 C792.46,132.32 792.81,132.26 793.16,132.07 C793.51,131.88 793.86,131.57 794.21,131.37 C794.56,131.17 794.91,131.06 795.26,130.89 C795.61,130.72 795.96,130.49 796.31,130.34 C796.66,130.19 797.01,130.13 797.36,130.01 C797.71,129.89 798.06,129.73 798.41,129.61 C798.76,129.50 799.11,129.48 799.46,129.34 C799.81,129.20 800.16,128.91 800.51,128.77 C800.86,128.62 801.21,128.61 801.55,128.49 C801.90,128.37 802.25,128.18 802.60,128.04 C802.95,127.89 803.30,127.74 803.65,127.61 C804.00,127.49 804.35,127.41 804.70,127.28 C805.05,127.15 805.40,126.95 805.75,126.83 C806.10,126.70 806.45,126.66 806.80,126.52 C807.15,126.39 807.50,126.16 807.85,126.01 C808.20,125.86 808.55,125.74 808.90,125.61 C809.25,125.48 809.60,125.36 809.95,125.22 C810.30,125.08 810.65,124.95 811.00,124.79 C811.35,124.64 811.70,124.50 812.05,124.31 C812.39,124.12 812.74,123.85 813.09,123.67 C813.44,123.50 813.79,123.43 814.14,123.28 C814.49,123.13 814.84,122.91 815.19,122.76 C815.54,122.62 815.89,122.49 816.24,122.40 C816.59,122.31 816.94,122.35 817.29,122.22 C817.64,122.09 817.99,121.78 818.34,121.61 C818.69,121.45 819.04,121.34 819.39,121.22 C819.74,121.10 820.09,121.01 820.44,120.89 C820.79,120.76 821.14,120.67 821.49,120.49 C821.84,120.31 822.19,119.98 822.54,119.79 C822.89,119.61 823.24,119.51 823.58,119.37 C823.93,119.23 824.28,119.06 824.63,118.95 C824.98,118.83 825.33,118.74 825.68,118.67 C826.03,118.60 826.38,118.59 826.73,118.52 C827.08,118.46 827.43,118.37 827.78,118.28 C828.13,118.18 828.48,118.06 828.83,117.95 C829.18,117.83 829.53,117.69 829.88,117.58 C830.23,117.47 830.58,117.38 830.93,117.28 C831.28,117.17 831.63,117.05 831.98,116.95 C832.33,116.84 832.68,116.80 833.03,116.67 C833.38,116.55 833.73,116.30 834.08,116.19 C834.43,116.07 834.77,116.05 835.12,115.98 C835.47,115.90 835.82,115.84 836.17,115.76 C836.52,115.68 836.87,115.60 837.22,115.49 C837.57,115.38 837.92,115.25 838.27,115.10 C838.62,114.94 838.97,114.73 839.32,114.58 C839.67,114.43 840.02,114.30 840.37,114.19 C840.72,114.07 841.07,114.00 841.42,113.88 C841.77,113.77 842.12,113.63 842.47,113.52 C842.82,113.41 843.17,113.35 843.52,113.25 C843.87,113.15 844.22,113.04 844.57,112.91 C844.92,112.79 845.27,112.63 845.62,112.52 C845.96,112.41 846.31,112.34 846.66,112.25 C847.01,112.16 847.36,112.08 847.71,111.97 C848.06,111.87 848.41,111.71 848.76,111.61 C849.11,111.51 849.46,111.45 849.81,111.37 C850.16,111.28 850.51,111.18 850.86,111.10 C851.21,111.01 851.56,110.97 851.91,110.88 C852.26,110.79 852.61,110.72 852.96,110.55 C853.31,110.38 853.66,110.04 854.01,109.88 C854.36,109.73 854.71,109.68 855.06,109.61 C855.41,109.54 855.76,109.52 856.11,109.46 C856.46,109.40 856.81,109.34 857.15,109.25 C857.50,109.15 857.85,108.98 858.20,108.88 C858.55,108.78 858.90,108.74 859.25,108.64 C859.60,108.54 859.95,108.42 860.30,108.31 C860.65,108.19 861.00,108.07 861.35,107.94 C861.70,107.81 862.05,107.65 862.40,107.52 C862.75,107.39 863.10,107.33 863.45,107.19 C863.80,107.04 864.15,106.83 864.50,106.67 C864.85,106.51 865.20,106.35 865.55,106.22 C865.90,106.08 866.25,106.03 866.60,105.88 C866.95,105.74 867.30,105.49 867.65,105.34 C867.99,105.18 868.34,105.06 868.69,104.94 C869.04,104.83 869.39,104.72 869.74,104.64 C870.09,104.56 870.44,104.58 870.79,104.49 C871.14,104.40 871.49,104.23 871.84,104.09 C872.19,103.96 872.54,103.84 872.89,103.67 C873.24,103.50 873.59,103.29 873.94,103.09 C874.29,102.90 874.64,102.68 874.99,102.52 C875.34,102.36 875.69,102.26 876.04,102.12 C876.39,101.99 876.74,101.85 877.09,101.73 C877.44,101.61 877.79,101.58 878.14,101.43 C878.49,101.28 878.84,100.98 879.18,100.82 C879.53,100.66 879.88,100.63 880.23,100.49 C880.58,100.35 880.93,100.11 881.28,99.97 C881.63,99.83 881.98,99.77 882.33,99.64 C882.68,99.51 883.03,99.36 883.38,99.18 C883.73,99.01 884.08,98.74 884.43,98.58 C884.78,98.42 885.13,98.33 885.48,98.21 C885.83,98.10 886.18,98.04 886.53,97.91 C886.88,97.78 887.23,97.56 887.58,97.43 C887.93,97.29 888.28,97.21 888.63,97.09 C888.98,96.98 889.33,96.88 889.68,96.73 C890.03,96.58 890.37,96.34 890.72,96.18 C891.07,96.03 891.42,95.90 891.77,95.79 C892.12,95.68 892.47,95.63 892.82,95.55 C893.17,95.46 893.52,95.39 893.87,95.27 C894.22,95.16 894.57,95.02 894.92,94.88 C895.27,94.74 895.62,94.63 895.97,94.43 C896.32,94.22 896.67,93.86 897.02,93.67 C897.37,93.48 897.72,93.42 898.07,93.27 C898.42,93.13 898.77,92.92 899.12,92.79 C899.47,92.66 899.82,92.62 900.17,92.49 C900.52,92.35 900.87,92.15 901.22,92.00 C901.56,91.85 901.91,91.71 902.26,91.58 C902.61,91.45 902.96,91.36 903.31,91.21 C903.66,91.06 904.01,90.85 904.36,90.67 C904.71,90.48 905.06,90.29 905.41,90.09 C905.76,89.89 906.11,89.68 906.46,89.49 C906.81,89.29 907.16,89.11 907.51,88.91 C907.86,88.71 908.21,88.47 908.56,88.30 C908.91,88.14 909.26,88.08 909.61,87.94 C909.96,87.80 910.31,87.61 910.66,87.49 C911.01,87.36 911.36,87.30 911.71,87.21 C912.06,87.13 912.41,87.04 912.75,86.97 C913.10,86.90 913.45,86.89 913.80,86.82 C914.15,86.74 914.50,86.60 914.85,86.52 C915.20,86.43 915.55,86.37 915.90,86.30 C916.25,86.23 916.60,86.14 916.95,86.09 C917.30,86.04 917.65,86.03 918.00,86.00" fill="none" stroke="#0969da" stroke-width="3" stroke-linecap="round" stroke-linejoin="round" />
    <circle cx="918.00" cy="86.00" r="5" fill="#0969da" stroke="#ffffff" stroke-width="2" />
    <text x="918" y="466" text-anchor="end" fill="#656d76" font-size="11">Updated Oct 6, 2026</text>
  </g>
</svg>
