<?xml version="1.0" encoding="UTF-8"?>
<svg xmlns="http://www.w3.org/2000/svg" width="960" height="480" viewBox="0 0 960 480" role="img" aria-labelledby="title description">
  <title id="title">TheBoredTeam/boring.notch Star History</title>
  <desc id="description">10,586 current GitHub stargazers as of Sep 3, 2026.</desc>
  <rect width="960" height="480" rx="12" fill="#0d1117" stroke="#30363d" />
  <g font-family="-apple-system, BlinkMacSystemFont, 'Segoe UI', sans-serif">
    <text x="84" y="40" fill="#f0f6fc" font-size="24" font-weight="600">Star History</text>
    <text x="918" y="40" text-anchor="end" fill="#8b949e" font-size="14" font-weight="500">10,586 stars</text>
    <text x="84" y="64" fill="#8b949e" font-size="13">TheBoredTeam/boring.notch</text>
    <line x1="84" y1="418.00" x2="918" y2="418.00" stroke="#21262d" stroke-width="1" />
      <text x="70" y="422.00" text-anchor="end" fill="#8b949e" font-size="12">0</text>
      <line x1="84" y1="355.28" x2="918" y2="355.28" stroke="#21262d" stroke-width="1" />
      <text x="70" y="359.28" text-anchor="end" fill="#8b949e" font-size="12">2K</text>
      <line x1="84" y1="292.55" x2="918" y2="292.55" stroke="#21262d" stroke-width="1" />
      <text x="70" y="296.55" text-anchor="end" fill="#8b949e" font-size="12">4K</text>
      <line x1="84" y1="229.83" x2="918" y2="229.83" stroke="#21262d" stroke-width="1" />
      <text x="70" y="233.83" text-anchor="end" fill="#8b949e" font-size="12">6K</text>
      <line x1="84" y1="167.10" x2="918" y2="167.10" stroke="#21262d" stroke-width="1" />
      <text x="70" y="171.10" text-anchor="end" fill="#8b949e" font-size="12">8K</text>
      <line x1="84" y1="104.38" x2="918" y2="104.38" stroke="#21262d" stroke-width="1" />
      <text x="70" y="108.38" text-anchor="end" fill="#8b949e" font-size="12">10K</text>
    <text x="84.00" y="452" text-anchor="middle" fill="#8b949e" font-size="12">Aug 2024</text>
      <text x="292.50" y="452" text-anchor="middle" fill="#8b949e" font-size="12">Feb 2025</text>
      <text x="501.00" y="452" text-anchor="middle" fill="#8b949e" font-size="12">Aug 2025</text>
      <text x="709.50" y="452" text-anchor="middle" fill="#8b949e" font-size="12">Feb 2026</text>
      <text x="918.00" y="452" text-anchor="middle" fill="#8b949e" font-size="12">Sep 2026</text>
    <path d="M84.00,417.78 C84.36,417.69 84.73,417.60 85.09,417.50 C85.46,417.39 85.82,417.25 86.19,417.15 C86.55,417.05 86.92,416.94 87.28,416.90 C87.65,416.86 88.01,416.89 88.38,416.81 C88.74,416.72 89.11,416.30 89.47,416.15 C89.84,416.00 90.20,415.99 90.57,415.93 C90.93,415.87 91.30,415.86 91.66,415.80 C92.03,415.75 92.39,415.62 92.76,415.59 C93.12,415.55 93.49,415.58 93.85,415.46 C94.22,415.34 94.58,414.80 94.94,414.55 C95.31,414.30 95.67,414.17 96.04,413.99 C96.40,413.80 96.77,413.58 97.13,413.45 C97.50,413.32 97.86,413.29 98.23,413.20 C98.59,413.11 98.96,412.99 99.32,412.92 C99.69,412.85 100.05,412.84 100.42,412.79 C100.78,412.75 101.15,412.71 101.51,412.64 C101.88,412.57 102.24,412.45 102.61,412.39 C102.97,412.32 103.34,412.30 103.70,412.26 C104.07,412.22 104.43,412.24 104.80,412.14 C105.16,412.03 105.52,411.77 105.89,411.63 C106.25,411.49 106.62,411.40 106.98,411.29 C107.35,411.18 107.71,411.05 108.08,410.97 C108.44,410.90 108.81,410.88 109.17,410.82 C109.54,410.76 109.90,410.66 110.27,410.60 C110.63,410.54 111.00,410.51 111.36,410.47 C111.73,410.44 112.09,410.46 112.46,410.38 C112.82,410.30 113.19,410.09 113.55,410.00 C113.92,409.91 114.28,409.89 114.65,409.85 C115.01,409.80 115.38,409.76 115.74,409.72 C116.10,409.68 116.47,409.66 116.83,409.63 C117.20,409.59 117.56,409.57 117.93,409.50 C118.29,409.43 118.66,409.25 119.02,409.19 C119.39,409.12 119.75,409.16 120.12,409.09 C120.48,409.03 120.85,408.85 121.21,408.78 C121.58,408.71 121.94,408.68 122.31,408.65 C122.67,408.63 123.04,408.64 123.40,408.62 C123.77,408.60 124.13,408.54 124.50,408.53 C124.86,408.51 125.23,408.53 125.59,408.43 C125.96,408.34 126.32,407.68 126.69,407.40 C127.05,407.12 127.41,406.94 127.78,406.77 C128.14,406.60 128.51,406.42 128.87,406.36 C129.24,406.31 129.60,406.33 129.97,406.30 C130.33,406.28 130.70,406.23 131.06,406.15 C131.43,406.06 131.79,405.89 132.16,405.77 C132.52,405.64 132.89,405.50 133.25,405.39 C133.62,405.29 133.98,405.25 134.35,405.14 C134.71,405.04 135.08,404.98 135.44,404.77 C135.81,404.55 136.17,404.06 136.54,403.86 C136.90,403.65 137.27,403.55 137.63,403.51 C137.99,403.47 138.36,403.50 138.72,403.39 C139.09,403.27 139.45,402.43 139.82,402.19 C140.18,401.96 140.55,402.03 140.91,401.94 C141.28,401.86 141.64,401.74 142.01,401.66 C142.37,401.58 142.74,401.50 143.10,401.44 C143.47,401.38 143.83,401.33 144.20,401.28 C144.56,401.24 144.93,401.21 145.29,401.16 C145.66,401.11 146.02,401.03 146.39,400.97 C146.75,400.91 147.12,400.85 147.48,400.78 C147.85,400.71 148.21,400.62 148.57,400.56 C148.94,400.51 149.30,400.52 149.67,400.44 C150.03,400.36 150.40,400.25 150.76,400.09 C151.13,399.94 151.49,399.66 151.86,399.50 C152.22,399.33 152.59,399.20 152.95,399.09 C153.32,398.98 153.68,398.94 154.05,398.84 C154.41,398.74 154.78,398.58 155.14,398.49 C155.51,398.40 155.87,398.37 156.24,398.30 C156.60,398.24 156.97,398.18 157.33,398.12 C157.70,398.05 158.06,397.96 158.43,397.90 C158.79,397.83 159.15,397.76 159.52,397.71 C159.88,397.66 160.25,397.63 160.61,397.58 C160.98,397.54 161.34,397.48 161.71,397.43 C162.07,397.37 162.44,397.32 162.80,397.27 C163.17,397.22 163.53,397.18 163.90,397.11 C164.26,397.04 164.63,396.96 164.99,396.86 C165.36,396.76 165.72,396.62 166.09,396.52 C166.45,396.41 166.82,396.32 167.18,396.23 C167.55,396.15 167.91,396.21 168.28,395.98 C168.64,395.76 169.01,395.19 169.37,394.89 C169.73,394.58 170.10,394.33 170.46,394.16 C170.83,394.00 171.19,393.98 171.56,393.88 C171.92,393.79 172.29,393.68 172.65,393.60 C173.02,393.52 173.38,393.47 173.75,393.41 C174.11,393.35 174.48,393.33 174.84,393.26 C175.21,393.18 175.57,393.06 175.94,392.94 C176.30,392.82 176.67,392.63 177.03,392.53 C177.40,392.43 177.76,392.42 178.13,392.35 C178.49,392.27 178.86,392.16 179.22,392.06 C179.59,391.97 179.95,391.86 180.31,391.78 C180.68,391.70 181.04,391.65 181.41,391.56 C181.77,391.48 182.14,391.37 182.50,391.28 C182.87,391.19 183.23,391.08 183.60,391.00 C183.96,390.91 184.33,390.86 184.69,390.78 C185.06,390.70 185.42,390.62 185.79,390.53 C186.15,390.44 186.52,390.34 186.88,390.24 C187.25,390.15 187.61,389.99 187.98,389.93 C188.34,389.87 188.71,389.91 189.07,389.84 C189.44,389.77 189.80,389.64 190.17,389.46 C190.53,389.28 190.90,388.89 191.26,388.74 C191.62,388.59 191.99,388.63 192.35,388.55 C192.72,388.47 193.08,388.37 193.45,388.27 C193.81,388.16 194.18,388.09 194.54,387.92 C194.91,387.76 195.27,387.42 195.64,387.27 C196.00,387.11 196.37,387.11 196.73,387.01 C197.10,386.91 197.46,386.78 197.83,386.67 C198.19,386.56 198.56,386.43 198.92,386.36 C199.29,386.28 199.65,386.29 200.02,386.23 C200.38,386.17 200.75,386.08 201.11,385.98 C201.48,385.87 201.84,385.69 202.20,385.60 C202.57,385.51 202.93,385.51 203.30,385.45 C203.66,385.38 204.03,385.30 204.39,385.20 C204.76,385.09 205.12,384.89 205.49,384.82 C205.85,384.75 206.22,384.79 206.58,384.72 C206.95,384.66 207.31,384.49 207.68,384.41 C208.04,384.33 208.41,384.30 208.77,384.22 C209.14,384.14 209.50,384.02 209.87,383.94 C210.23,383.86 210.60,383.82 210.96,383.72 C211.33,383.63 211.69,383.47 212.06,383.38 C212.42,383.28 212.78,383.22 213.15,383.16 C213.51,383.09 213.88,383.08 214.24,383.00 C214.61,382.92 214.97,382.76 215.34,382.69 C215.70,382.61 216.07,382.61 216.43,382.53 C216.80,382.45 217.16,382.28 217.53,382.18 C217.89,382.09 218.26,382.06 218.62,381.96 C218.99,381.87 219.35,381.76 219.72,381.62 C220.08,381.48 220.45,381.27 220.81,381.15 C221.18,381.02 221.54,380.96 221.91,380.87 C222.27,380.78 222.64,380.71 223.00,380.62 C223.36,380.53 223.73,380.45 224.09,380.33 C224.46,380.21 224.82,380.01 225.19,379.89 C225.55,379.78 225.92,379.71 226.28,379.64 C226.65,379.58 227.01,379.59 227.38,379.52 C227.74,379.45 228.11,379.33 228.47,379.24 C228.84,379.14 229.20,379.07 229.57,378.95 C229.93,378.83 230.30,378.59 230.66,378.52 C231.03,378.44 231.39,378.50 231.76,378.36 C232.12,378.22 232.49,377.69 232.85,377.45 C233.22,377.20 233.58,377.10 233.94,376.88 C234.31,376.66 234.67,376.29 235.04,376.13 C235.40,375.97 235.77,376.05 236.13,375.94 C236.50,375.84 236.86,375.63 237.23,375.50 C237.59,375.37 237.96,375.27 238.32,375.16 C238.69,375.05 239.05,374.94 239.42,374.85 C239.78,374.75 240.15,374.68 240.51,374.56 C240.88,374.44 241.24,374.28 241.61,374.12 C241.97,373.97 242.34,373.77 242.70,373.62 C243.07,373.47 243.43,373.35 243.80,373.21 C244.16,373.08 244.52,372.97 244.89,372.84 C245.25,372.70 245.62,372.52 245.98,372.40 C246.35,372.28 246.71,372.22 247.08,372.12 C247.44,372.02 247.81,371.91 248.17,371.80 C248.54,371.70 248.90,371.59 249.27,371.49 C249.63,371.39 250.00,371.31 250.36,371.21 C250.73,371.10 251.09,370.99 251.46,370.86 C251.82,370.74 252.19,370.57 252.55,370.45 C252.92,370.34 253.28,370.24 253.65,370.17 C254.01,370.10 254.38,370.09 254.74,370.05 C255.10,370.00 255.47,369.95 255.83,369.89 C256.20,369.83 256.56,369.78 256.93,369.70 C257.29,369.63 257.66,369.58 258.02,369.45 C258.39,369.33 258.75,369.08 259.12,368.95 C259.48,368.82 259.85,368.81 260.21,368.70 C260.58,368.59 260.94,368.41 261.31,368.29 C261.67,368.17 262.04,368.08 262.40,367.98 C262.77,367.88 263.13,367.85 263.50,367.70 C263.86,367.54 264.23,367.24 264.59,367.07 C264.96,366.90 265.32,366.78 265.69,366.66 C266.05,366.54 266.41,366.63 266.78,366.35 C267.14,366.06 267.51,365.29 267.87,364.94 C268.24,364.58 268.60,364.40 268.97,364.21 C269.33,364.03 269.70,364.00 270.06,363.84 C270.43,363.68 270.79,363.40 271.16,363.24 C271.52,363.08 271.89,363.00 272.25,362.90 C272.62,362.80 272.98,362.71 273.35,362.65 C273.71,362.58 274.08,362.54 274.44,362.49 C274.81,362.44 275.17,362.40 275.54,362.33 C275.90,362.26 276.27,362.16 276.63,362.08 C276.99,362.00 277.36,362.03 277.72,361.83 C278.09,361.63 278.45,361.07 278.82,360.89 C279.18,360.71 279.55,360.80 279.91,360.67 C280.28,360.54 280.64,360.23 281.01,360.04 C281.37,359.86 281.74,359.74 282.10,359.57 C282.47,359.40 282.83,359.20 283.20,359.01 C283.56,358.81 283.93,358.58 284.29,358.41 C284.66,358.24 285.02,358.08 285.39,357.97 C285.75,357.87 286.12,357.87 286.48,357.78 C286.85,357.70 287.21,357.64 287.57,357.47 C287.94,357.30 288.30,357.03 288.67,356.78 C289.03,356.53 289.40,356.17 289.76,355.97 C290.13,355.76 290.49,355.68 290.86,355.53 C291.22,355.37 291.59,355.19 291.95,355.06 C292.32,354.92 292.68,354.84 293.05,354.71 C293.41,354.58 293.78,354.39 294.14,354.27 C294.51,354.16 294.87,354.12 295.24,354.02 C295.60,353.93 295.97,353.78 296.33,353.71 C296.70,353.64 297.06,353.70 297.43,353.46 C297.79,353.22 298.15,352.18 298.52,351.83 C298.88,351.48 299.25,351.52 299.61,351.36 C299.98,351.19 300.34,351.13 300.71,350.85 C301.07,350.58 301.44,350.03 301.80,349.72 C302.17,349.42 302.53,349.21 302.90,349.00 C303.26,348.80 303.63,348.69 303.99,348.50 C304.36,348.31 304.72,348.03 305.09,347.87 C305.45,347.72 305.82,347.67 306.18,347.56 C306.55,347.45 306.91,347.35 307.28,347.22 C307.64,347.08 308.01,346.91 308.37,346.75 C308.73,346.58 309.10,346.40 309.46,346.21 C309.83,346.02 310.19,345.82 310.56,345.62 C310.92,345.41 311.29,345.15 311.65,344.99 C312.02,344.83 312.38,344.77 312.75,344.68 C313.11,344.58 313.48,344.51 313.84,344.39 C314.21,344.27 314.57,344.13 314.94,343.95 C315.30,343.78 315.67,343.49 316.03,343.33 C316.40,343.16 316.76,343.14 317.13,342.95 C317.49,342.76 317.86,342.43 318.22,342.20 C318.59,341.97 318.95,341.77 319.31,341.57 C319.68,341.37 320.04,341.18 320.41,340.97 C320.77,340.77 321.14,340.50 321.50,340.32 C321.87,340.13 322.23,340.00 322.60,339.88 C322.96,339.75 323.33,339.66 323.69,339.56 C324.06,339.46 324.42,339.40 324.79,339.28 C325.15,339.17 325.52,339.02 325.88,338.87 C326.25,338.73 326.61,338.52 326.98,338.40 C327.34,338.28 327.71,338.28 328.07,338.15 C328.44,338.02 328.80,337.76 329.17,337.62 C329.53,337.48 329.90,337.40 330.26,337.31 C330.62,337.21 330.99,337.15 331.35,337.02 C331.72,336.89 332.08,336.72 332.45,336.52 C332.81,336.32 333.18,336.00 333.54,335.80 C333.91,335.60 334.27,335.48 334.64,335.33 C335.00,335.18 335.37,335.05 335.73,334.92 C336.10,334.79 336.46,334.65 336.83,334.55 C337.19,334.44 337.56,334.40 337.92,334.29 C338.29,334.18 338.65,334.00 339.02,333.89 C339.38,333.77 339.75,333.69 340.11,333.60 C340.48,333.52 340.84,333.45 341.20,333.35 C341.57,333.26 341.93,333.13 342.30,333.04 C342.66,332.95 343.03,332.87 343.39,332.79 C343.76,332.71 344.12,332.64 344.49,332.57 C344.85,332.50 345.22,332.46 345.58,332.38 C345.95,332.30 346.31,332.17 346.68,332.07 C347.04,331.97 347.41,331.88 347.77,331.79 C348.14,331.69 348.50,331.59 348.87,331.47 C349.23,331.36 349.60,331.19 349.96,331.10 C350.33,331.00 350.69,330.96 351.06,330.88 C351.42,330.79 351.78,330.67 352.15,330.59 C352.51,330.52 352.88,330.51 353.24,330.44 C353.61,330.36 353.97,330.25 354.34,330.15 C354.70,330.06 355.07,329.96 355.43,329.87 C355.80,329.79 356.16,329.75 356.53,329.65 C356.89,329.56 357.26,329.40 357.62,329.31 C357.99,329.21 358.35,329.19 358.72,329.09 C359.08,328.99 359.45,328.85 359.81,328.71 C360.18,328.58 360.54,328.38 360.91,328.27 C361.27,328.16 361.64,328.16 362.00,328.05 C362.36,327.94 362.73,327.74 363.09,327.61 C363.46,327.48 363.82,327.40 364.19,327.27 C364.55,327.14 364.92,326.99 365.28,326.83 C365.65,326.67 366.01,326.46 366.38,326.33 C366.74,326.20 367.11,326.15 367.47,326.05 C367.84,325.95 368.20,325.84 368.57,325.73 C368.93,325.62 369.30,325.55 369.66,325.39 C370.03,325.23 370.39,324.93 370.76,324.76 C371.12,324.59 371.49,324.46 371.85,324.35 C372.22,324.25 372.58,324.21 372.94,324.13 C373.31,324.05 373.67,324.00 374.04,323.88 C374.40,323.77 374.77,323.52 375.13,323.44 C375.50,323.37 375.86,323.40 376.23,323.35 C376.59,323.29 376.96,323.13 377.32,323.07 C377.69,323.00 378.05,322.99 378.42,322.94 C378.78,322.89 379.15,322.86 379.51,322.78 C379.88,322.71 380.24,322.54 380.61,322.47 C380.97,322.40 381.34,322.41 381.70,322.35 C382.07,322.28 382.43,322.14 382.80,322.06 C383.16,321.99 383.52,321.98 383.89,321.91 C384.25,321.83 384.62,321.67 384.98,321.59 C385.35,321.51 385.71,321.50 386.08,321.44 C386.44,321.37 386.81,321.27 387.17,321.18 C387.54,321.10 387.90,321.03 388.27,320.93 C388.63,320.84 389.00,320.69 389.36,320.62 C389.73,320.55 390.09,320.58 390.46,320.53 C390.82,320.47 391.19,320.35 391.55,320.28 C391.92,320.20 392.28,320.13 392.65,320.06 C393.01,319.98 393.38,319.88 393.74,319.81 C394.10,319.73 394.47,319.68 394.83,319.59 C395.20,319.49 395.56,319.37 395.93,319.21 C396.29,319.05 396.66,318.78 397.02,318.64 C397.39,318.51 397.75,318.47 398.12,318.39 C398.48,318.32 398.85,318.29 399.21,318.21 C399.58,318.12 399.94,317.98 400.31,317.89 C400.67,317.81 401.04,317.75 401.40,317.70 C401.77,317.66 402.13,317.66 402.50,317.61 C402.86,317.56 403.23,317.58 403.59,317.39 C403.96,317.20 404.32,316.70 404.69,316.48 C405.05,316.26 405.41,316.19 405.78,316.07 C406.14,315.95 406.51,315.86 406.87,315.76 C407.24,315.66 407.60,315.59 407.97,315.48 C408.33,315.36 408.70,315.21 409.06,315.07 C409.43,314.93 409.79,314.80 410.16,314.66 C410.52,314.52 410.89,314.34 411.25,314.22 C411.62,314.10 411.98,314.06 412.35,313.94 C412.71,313.82 413.08,313.61 413.44,313.50 C413.81,313.39 414.17,313.37 414.54,313.28 C414.90,313.19 415.27,313.08 415.63,312.97 C415.99,312.86 416.36,312.72 416.72,312.62 C417.09,312.53 417.45,312.48 417.82,312.40 C418.18,312.33 418.55,312.23 418.91,312.15 C419.28,312.08 419.64,312.01 420.01,311.96 C420.37,311.92 420.74,311.94 421.10,311.90 C421.47,311.86 421.83,311.77 422.20,311.71 C422.56,311.66 422.93,311.65 423.29,311.59 C423.66,311.53 424.02,311.42 424.39,311.34 C424.75,311.25 425.12,311.18 425.48,311.09 C425.85,310.99 426.21,310.85 426.57,310.77 C426.94,310.70 427.30,310.70 427.67,310.65 C428.03,310.59 428.40,310.49 428.76,310.43 C429.13,310.37 429.49,310.35 429.86,310.27 C430.22,310.19 430.59,310.05 430.95,309.96 C431.32,309.87 431.68,309.80 432.05,309.74 C432.41,309.68 432.78,309.64 433.14,309.58 C433.51,309.52 433.87,309.44 434.24,309.36 C434.60,309.28 434.97,309.17 435.33,309.11 C435.70,309.05 436.06,309.03 436.43,308.99 C436.79,308.94 437.15,308.93 437.52,308.86 C437.88,308.79 438.25,308.66 438.61,308.58 C438.98,308.50 439.34,308.46 439.71,308.39 C440.07,308.32 440.44,308.20 440.80,308.14 C441.17,308.08 441.53,308.04 441.90,308.01 C442.26,307.98 442.63,307.99 442.99,307.95 C443.36,307.91 443.72,307.87 444.09,307.79 C444.45,307.72 444.82,307.58 445.18,307.51 C445.55,307.44 445.91,307.45 446.28,307.35 C446.64,307.25 447.01,306.94 447.37,306.92 C447.73,306.89 448.10,306.90 448.46,306.88 C448.83,306.87 449.19,306.70 449.56,306.63 C449.92,306.57 450.29,306.55 450.65,306.51 C451.02,306.47 451.38,306.43 451.75,306.38 C452.11,306.33 452.48,306.25 452.84,306.23 C453.21,306.20 453.57,306.22 453.94,306.19 C454.30,306.17 454.67,306.07 455.03,306.01 C455.40,305.94 455.76,305.84 456.13,305.79 C456.49,305.73 456.86,305.69 457.22,305.66 C457.59,305.63 457.95,305.64 458.31,305.60 C458.68,305.56 459.04,305.46 459.41,305.41 C459.77,305.36 460.14,305.34 460.50,305.28 C460.87,305.23 461.23,305.17 461.60,305.10 C461.96,305.02 462.33,304.90 462.69,304.85 C463.06,304.79 463.42,304.78 463.79,304.75 C464.15,304.73 464.52,304.74 464.88,304.69 C465.25,304.64 465.61,304.50 465.98,304.44 C466.34,304.37 466.71,304.37 467.07,304.31 C467.44,304.25 467.80,304.14 468.17,304.06 C468.53,303.98 468.90,303.89 469.26,303.81 C469.62,303.73 469.99,303.63 470.35,303.56 C470.72,303.49 471.08,303.47 471.45,303.40 C471.81,303.33 472.18,303.25 472.54,303.15 C472.91,303.06 473.27,302.91 473.64,302.84 C474.00,302.76 474.37,302.74 474.73,302.71 C475.10,302.68 475.46,302.71 475.83,302.52 C476.19,302.34 476.56,301.25 476.92,300.77 C477.29,300.28 477.65,299.87 478.02,299.61 C478.38,299.35 478.75,299.33 479.11,299.20 C479.48,299.07 479.84,298.94 480.20,298.82 C480.57,298.70 480.93,298.59 481.30,298.48 C481.66,298.37 482.03,298.33 482.39,298.17 C482.76,298.00 483.12,297.71 483.49,297.51 C483.85,297.31 484.22,297.12 484.58,296.97 C484.95,296.82 485.31,296.73 485.68,296.60 C486.04,296.46 486.41,296.29 486.77,296.16 C487.14,296.02 487.50,295.90 487.87,295.78 C488.23,295.66 488.60,295.54 488.96,295.44 C489.33,295.34 489.69,295.29 490.06,295.19 C490.42,295.09 490.78,294.96 491.15,294.84 C491.51,294.73 491.88,294.63 492.24,294.50 C492.61,294.36 492.97,294.15 493.34,294.03 C493.70,293.91 494.07,293.86 494.43,293.77 C494.80,293.69 495.16,293.59 495.53,293.49 C495.89,293.40 496.26,293.34 496.62,293.21 C496.99,293.08 497.35,292.85 497.72,292.74 C498.08,292.62 498.45,292.63 498.81,292.52 C499.18,292.41 499.54,292.21 499.91,292.08 C500.27,291.95 500.64,291.87 501.00,291.74 C501.36,291.60 501.73,291.41 502.09,291.27 C502.46,291.12 502.82,290.97 503.19,290.89 C503.55,290.81 503.92,290.88 504.28,290.64 C504.65,290.40 505.01,289.39 505.38,289.01 C505.74,288.62 506.11,288.51 506.47,288.32 C506.84,288.13 507.20,288.05 507.57,287.88 C507.93,287.71 508.30,287.49 508.66,287.28 C509.03,287.07 509.39,286.84 509.76,286.62 C510.12,286.41 510.49,286.08 510.85,286.00 C511.22,285.92 511.58,285.95 511.94,285.90 C512.31,285.85 512.67,285.64 513.04,285.53 C513.40,285.41 513.77,285.32 514.13,285.21 C514.50,285.10 514.86,284.97 515.23,284.87 C515.59,284.77 515.96,284.72 516.32,284.62 C516.69,284.51 517.05,284.37 517.42,284.24 C517.78,284.11 518.15,284.00 518.51,283.86 C518.88,283.73 519.24,283.57 519.61,283.42 C519.97,283.28 520.34,283.14 520.70,282.99 C521.07,282.83 521.43,282.64 521.80,282.52 C522.16,282.39 522.52,282.36 522.89,282.23 C523.25,282.10 523.62,281.90 523.98,281.73 C524.35,281.56 524.71,281.42 525.08,281.23 C525.44,281.04 525.81,280.76 526.17,280.57 C526.54,280.38 526.90,280.26 527.27,280.10 C527.63,279.94 528.00,279.72 528.36,279.60 C528.73,279.48 529.09,279.47 529.46,279.38 C529.82,279.29 530.19,279.22 530.55,279.07 C530.92,278.91 531.28,278.66 531.65,278.47 C532.01,278.28 532.38,278.06 532.74,277.94 C533.10,277.82 533.47,277.84 533.83,277.75 C534.20,277.65 534.56,277.48 534.93,277.37 C535.29,277.26 535.66,277.29 536.02,277.09 C536.39,276.89 536.75,276.41 537.12,276.15 C537.48,275.89 537.85,275.90 538.21,275.55 C538.58,275.20 538.94,274.50 539.31,274.05 C539.67,273.60 540.04,273.15 540.40,272.86 C540.77,272.56 541.13,272.50 541.50,272.29 C541.86,272.09 542.23,271.83 542.59,271.63 C542.96,271.43 543.32,271.25 543.69,271.10 C544.05,270.95 544.41,270.84 544.78,270.72 C545.14,270.60 545.51,270.50 545.87,270.38 C546.24,270.26 546.60,270.16 546.97,270.00 C547.33,269.85 547.70,269.60 548.06,269.44 C548.43,269.28 548.79,269.18 549.16,269.03 C549.52,268.88 549.89,268.56 550.25,268.53 C550.62,268.50 550.98,268.51 551.35,268.50 C551.71,268.48 552.08,268.42 552.44,268.31 C552.81,268.19 553.17,267.94 553.54,267.81 C553.90,267.68 554.27,267.64 554.63,267.52 C554.99,267.41 555.36,267.23 555.72,267.12 C556.09,267.00 556.45,266.93 556.82,266.83 C557.18,266.73 557.55,266.66 557.91,266.52 C558.28,266.38 558.64,266.14 559.01,265.99 C559.37,265.83 559.74,265.69 560.10,265.58 C560.47,265.47 560.83,265.42 561.20,265.33 C561.56,265.24 561.93,265.19 562.29,265.05 C562.66,264.91 563.02,264.62 563.39,264.48 C563.75,264.35 564.12,264.32 564.48,264.23 C564.85,264.14 565.21,264.04 565.57,263.95 C565.94,263.85 566.30,263.74 566.67,263.67 C567.03,263.59 567.40,263.61 567.76,263.51 C568.13,263.41 568.49,263.20 568.86,263.07 C569.22,262.94 569.59,262.84 569.95,262.73 C570.32,262.61 570.68,262.49 571.05,262.38 C571.41,262.27 571.78,262.19 572.14,262.07 C572.51,261.94 572.87,261.76 573.24,261.63 C573.60,261.50 573.97,261.43 574.33,261.28 C574.70,261.14 575.06,260.92 575.43,260.75 C575.79,260.58 576.15,260.41 576.52,260.28 C576.88,260.15 577.25,260.11 577.61,260.00 C577.98,259.88 578.34,259.72 578.71,259.59 C579.07,259.46 579.44,259.35 579.80,259.21 C580.17,259.08 580.53,258.87 580.90,258.77 C581.26,258.68 581.63,258.73 581.99,258.65 C582.36,258.57 582.72,258.39 583.09,258.27 C583.45,258.15 583.82,258.06 584.18,257.93 C584.55,257.80 584.91,257.61 585.28,257.49 C585.64,257.36 586.01,257.28 586.37,257.17 C586.73,257.07 587.10,256.96 587.46,256.86 C587.83,256.77 588.19,256.67 588.56,256.61 C588.92,256.55 589.29,256.56 589.65,256.48 C590.02,256.41 590.38,256.25 590.75,256.17 C591.11,256.09 591.48,256.10 591.84,256.01 C592.21,255.93 592.57,255.78 592.94,255.67 C593.30,255.55 593.67,255.50 594.03,255.32 C594.40,255.15 594.76,255.00 595.13,254.60 C595.49,254.21 595.86,253.40 596.22,252.97 C596.59,252.54 596.95,252.26 597.31,252.03 C597.68,251.80 598.04,251.75 598.41,251.59 C598.77,251.44 599.14,251.25 599.50,251.09 C599.87,250.93 600.23,250.79 600.60,250.65 C600.96,250.52 601.33,250.37 601.69,250.28 C602.06,250.18 602.42,250.14 602.79,250.06 C603.15,249.97 603.52,249.84 603.88,249.74 C604.25,249.64 604.61,249.59 604.98,249.46 C605.34,249.33 605.71,249.14 606.07,248.99 C606.44,248.84 606.80,248.76 607.17,248.55 C607.53,248.34 607.90,247.97 608.26,247.73 C608.62,247.50 608.99,247.29 609.35,247.14 C609.72,246.99 610.08,246.90 610.45,246.83 C610.81,246.75 611.18,246.75 611.54,246.67 C611.91,246.59 612.27,246.49 612.64,246.35 C613.00,246.22 613.37,245.99 613.73,245.85 C614.10,245.71 614.46,245.65 614.83,245.51 C615.19,245.36 615.56,245.12 615.92,244.97 C616.29,244.83 616.65,244.75 617.02,244.63 C617.38,244.51 617.75,244.39 618.11,244.25 C618.48,244.12 618.84,243.94 619.20,243.81 C619.57,243.69 619.93,243.79 620.30,243.44 C620.66,243.08 621.03,242.00 621.39,241.59 C621.76,241.18 622.12,241.26 622.49,240.99 C622.85,240.73 623.22,240.28 623.58,239.99 C623.95,239.70 624.31,239.48 624.68,239.27 C625.04,239.05 625.41,238.87 625.77,238.70 C626.14,238.54 626.50,238.41 626.87,238.26 C627.23,238.12 627.60,237.97 627.96,237.82 C628.33,237.68 628.69,237.49 629.06,237.39 C629.42,237.28 629.78,237.29 630.15,237.17 C630.51,237.04 630.88,236.79 631.24,236.63 C631.61,236.48 631.97,236.37 632.34,236.22 C632.70,236.08 633.07,235.93 633.43,235.79 C633.80,235.64 634.16,235.53 634.53,235.35 C634.89,235.16 635.26,234.86 635.62,234.66 C635.99,234.46 636.35,234.36 636.72,234.15 C637.08,233.95 637.45,233.68 637.81,233.43 C638.18,233.18 638.54,232.85 638.91,232.65 C639.27,232.45 639.64,232.39 640.00,232.24 C640.36,232.10 640.73,231.91 641.09,231.77 C641.46,231.63 641.82,231.55 642.19,231.40 C642.55,231.24 642.92,231.06 643.28,230.83 C643.65,230.60 644.01,230.26 644.38,230.02 C644.74,229.77 645.11,229.60 645.47,229.39 C645.84,229.18 646.20,228.97 646.57,228.76 C646.93,228.55 647.30,228.25 647.66,228.13 C648.03,228.02 648.39,228.08 648.76,227.98 C649.12,227.87 649.49,227.59 649.85,227.44 C650.22,227.29 650.58,227.24 650.94,227.07 C651.31,226.89 651.67,226.59 652.04,226.41 C652.40,226.23 652.77,226.16 653.13,226.00 C653.50,225.84 653.86,225.61 654.23,225.47 C654.59,225.32 654.96,225.32 655.32,225.12 C655.69,224.92 656.05,224.54 656.42,224.28 C656.78,224.01 657.15,223.74 657.51,223.52 C657.88,223.30 658.24,223.17 658.61,222.96 C658.97,222.74 659.34,222.44 659.70,222.24 C660.07,222.04 660.43,221.90 660.80,221.77 C661.16,221.64 661.52,221.57 661.89,221.45 C662.25,221.33 662.62,221.20 662.98,221.05 C663.35,220.89 663.71,220.72 664.08,220.54 C664.44,220.37 664.81,220.20 665.17,219.98 C665.54,219.76 665.90,219.43 666.27,219.23 C666.63,219.02 667.00,218.95 667.36,218.76 C667.73,218.56 668.09,218.26 668.46,218.03 C668.82,217.81 669.19,217.65 669.55,217.41 C669.92,217.17 670.28,216.89 670.65,216.59 C671.01,216.29 671.38,215.90 671.74,215.62 C672.10,215.34 672.47,215.14 672.83,214.93 C673.20,214.72 673.56,214.56 673.93,214.33 C674.29,214.11 674.66,213.80 675.02,213.58 C675.39,213.37 675.75,213.24 676.12,213.05 C676.48,212.86 676.85,212.64 677.21,212.45 C677.58,212.26 677.94,212.09 678.31,211.92 C678.67,211.75 679.04,211.62 679.40,211.45 C679.77,211.28 680.13,211.16 680.50,210.92 C680.86,210.67 681.23,210.24 681.59,209.97 C681.96,209.71 682.32,209.52 682.69,209.35 C683.05,209.17 683.41,209.08 683.78,208.94 C684.14,208.80 684.51,208.67 684.87,208.50 C685.24,208.33 685.60,208.09 685.97,207.94 C686.33,207.78 686.70,207.68 687.06,207.59 C687.43,207.50 687.79,207.50 688.16,207.40 C688.52,207.30 688.89,207.16 689.25,207.00 C689.62,206.83 689.98,206.59 690.35,206.43 C690.71,206.27 691.08,206.26 691.44,206.05 C691.81,205.85 692.17,205.40 692.54,205.18 C692.90,204.96 693.27,204.94 693.63,204.74 C693.99,204.54 694.36,204.30 694.72,203.98 C695.09,203.67 695.45,203.24 695.82,202.86 C696.18,202.47 696.55,202.03 696.91,201.66 C697.28,201.30 697.64,200.95 698.01,200.66 C698.37,200.37 698.74,200.19 699.10,199.94 C699.47,199.69 699.83,199.40 700.20,199.15 C700.56,198.91 700.93,198.70 701.29,198.50 C701.66,198.29 702.02,198.12 702.39,197.93 C702.75,197.74 703.12,197.57 703.48,197.37 C703.85,197.16 704.21,196.90 704.57,196.71 C704.94,196.52 705.30,196.35 705.67,196.21 C706.03,196.06 706.40,195.96 706.76,195.83 C707.13,195.70 707.49,195.67 707.86,195.45 C708.22,195.24 708.59,194.85 708.95,194.54 C709.32,194.24 709.68,193.83 710.05,193.60 C710.41,193.38 710.78,193.32 711.14,193.20 C711.51,193.07 711.87,192.98 712.24,192.85 C712.60,192.73 712.97,192.67 713.33,192.44 C713.70,192.22 714.06,191.90 714.43,191.50 C714.79,191.10 715.15,190.37 715.52,190.03 C715.88,189.68 716.25,189.66 716.61,189.43 C716.98,189.21 717.34,188.86 717.71,188.68 C718.07,188.50 718.44,188.45 718.80,188.33 C719.17,188.22 719.53,188.11 719.90,187.99 C720.26,187.87 720.63,187.72 720.99,187.61 C721.36,187.50 721.72,187.45 722.09,187.33 C722.45,187.22 722.82,187.08 723.18,186.92 C723.55,186.77 723.91,186.57 724.28,186.39 C724.64,186.21 725.01,186.00 725.37,185.83 C725.73,185.65 726.10,185.46 726.46,185.32 C726.83,185.19 727.19,185.20 727.56,185.01 C727.92,184.82 728.29,184.39 728.65,184.16 C729.02,183.93 729.38,183.82 729.75,183.63 C730.11,183.44 730.48,183.21 730.84,183.03 C731.21,182.86 731.57,182.75 731.94,182.60 C732.30,182.44 732.67,182.31 733.03,182.13 C733.40,181.94 733.76,181.69 734.13,181.50 C734.49,181.31 734.86,181.18 735.22,181.00 C735.59,180.81 735.95,180.58 736.31,180.37 C736.68,180.15 737.04,179.88 737.41,179.71 C737.77,179.54 738.14,179.51 738.50,179.37 C738.87,179.22 739.23,179.02 739.60,178.83 C739.96,178.64 740.33,178.42 740.69,178.24 C741.06,178.05 741.42,177.88 741.79,177.73 C742.15,177.59 742.52,177.54 742.88,177.36 C743.25,177.18 743.61,176.84 743.98,176.67 C744.34,176.50 744.71,176.51 745.07,176.35 C745.44,176.20 745.80,175.97 746.17,175.73 C746.53,175.49 746.90,175.16 747.26,174.91 C747.62,174.67 747.99,174.48 748.35,174.25 C748.72,174.03 749.08,173.81 749.45,173.56 C749.81,173.31 750.18,172.96 750.54,172.75 C750.91,172.53 751.27,172.40 751.64,172.28 C752.00,172.16 752.37,172.17 752.73,172.03 C753.10,171.88 753.46,171.56 753.83,171.40 C754.19,171.24 754.56,171.16 754.92,171.05 C755.29,170.94 755.65,170.88 756.02,170.74 C756.38,170.60 756.75,170.56 757.11,170.24 C757.48,169.91 757.84,169.29 758.20,168.80 C758.57,168.30 758.93,167.80 759.30,167.29 C759.66,166.78 760.03,166.28 760.39,165.72 C760.76,165.16 761.12,164.62 761.49,163.94 C761.85,163.25 762.22,162.26 762.58,161.61 C762.95,160.97 763.31,160.59 763.68,160.05 C764.04,159.50 764.41,158.86 764.77,158.32 C765.14,157.78 765.50,157.21 765.87,156.82 C766.23,156.42 766.60,156.28 766.96,155.94 C767.33,155.59 767.69,155.10 768.06,154.75 C768.42,154.40 768.78,154.10 769.15,153.84 C769.51,153.58 769.88,153.44 770.24,153.18 C770.61,152.91 770.97,152.53 771.34,152.24 C771.70,151.94 772.07,151.64 772.43,151.39 C772.80,151.14 773.16,151.00 773.53,150.73 C773.89,150.46 774.26,150.08 774.62,149.79 C774.99,149.50 775.35,149.29 775.72,148.98 C776.08,148.66 776.45,148.24 776.81,147.88 C777.18,147.51 777.54,147.11 777.91,146.78 C778.27,146.45 778.64,146.13 779.00,145.87 C779.36,145.61 779.73,145.43 780.09,145.21 C780.46,144.99 780.82,144.81 781.19,144.55 C781.55,144.29 781.92,143.95 782.28,143.64 C782.65,143.34 783.01,142.99 783.38,142.73 C783.74,142.48 784.11,142.36 784.47,142.11 C784.84,141.85 785.20,141.45 785.57,141.20 C785.93,140.95 786.30,140.79 786.66,140.60 C787.03,140.41 787.39,140.21 787.76,140.07 C788.12,139.93 788.49,139.87 788.85,139.75 C789.22,139.63 789.58,139.50 789.94,139.35 C790.31,139.20 790.67,139.03 791.04,138.85 C791.40,138.66 791.77,138.45 792.13,138.25 C792.50,138.05 792.86,137.85 793.23,137.62 C793.59,137.39 793.96,137.13 794.32,136.87 C794.69,136.61 795.05,136.28 795.42,136.05 C795.78,135.82 796.15,135.68 796.51,135.49 C796.88,135.30 797.24,135.14 797.61,134.92 C797.97,134.71 798.34,134.46 798.70,134.20 C799.07,133.95 799.43,133.62 799.80,133.39 C800.16,133.15 800.52,132.99 800.89,132.79 C801.25,132.60 801.62,132.40 801.98,132.23 C802.35,132.06 802.71,132.03 803.08,131.76 C803.44,131.49 803.81,130.88 804.17,130.60 C804.54,130.31 804.90,130.24 805.27,130.03 C805.63,129.83 806.00,129.59 806.36,129.37 C806.73,129.15 807.09,128.94 807.46,128.72 C807.82,128.49 808.19,128.26 808.55,128.03 C808.92,127.79 809.28,127.58 809.65,127.30 C810.01,127.03 810.38,126.67 810.74,126.39 C811.10,126.12 811.47,125.87 811.83,125.64 C812.20,125.41 812.56,125.19 812.93,125.01 C813.29,124.84 813.66,124.76 814.02,124.61 C814.39,124.46 814.75,124.28 815.12,124.11 C815.48,123.93 815.85,123.73 816.21,123.54 C816.58,123.35 816.94,123.17 817.31,122.98 C817.67,122.78 818.04,122.51 818.40,122.35 C818.77,122.19 819.13,122.12 819.50,122.00 C819.86,121.88 820.23,121.76 820.59,121.63 C820.96,121.49 821.32,121.37 821.69,121.19 C822.05,121.01 822.41,120.74 822.78,120.56 C823.14,120.38 823.51,120.32 823.87,120.12 C824.24,119.92 824.60,119.58 824.97,119.37 C825.33,119.16 825.70,119.05 826.06,118.87 C826.43,118.69 826.79,118.45 827.16,118.30 C827.52,118.15 827.89,118.08 828.25,117.96 C828.62,117.83 828.98,117.67 829.35,117.55 C829.71,117.44 830.08,117.41 830.44,117.27 C830.81,117.12 831.17,116.82 831.54,116.67 C831.90,116.53 832.27,116.52 832.63,116.39 C832.99,116.26 833.36,116.08 833.72,115.92 C834.09,115.76 834.45,115.58 834.82,115.45 C835.18,115.31 835.55,115.24 835.91,115.10 C836.28,114.97 836.64,114.76 837.01,114.63 C837.37,114.50 837.74,114.46 838.10,114.32 C838.47,114.18 838.83,113.94 839.20,113.79 C839.56,113.63 839.93,113.52 840.29,113.38 C840.66,113.24 841.02,113.11 841.39,112.97 C841.75,112.83 842.12,112.69 842.48,112.53 C842.85,112.38 843.21,112.22 843.57,112.03 C843.94,111.84 844.30,111.55 844.67,111.37 C845.03,111.19 845.40,111.12 845.76,110.96 C846.13,110.81 846.49,110.59 846.86,110.43 C847.22,110.27 847.59,110.12 847.95,110.02 C848.32,109.92 848.68,109.97 849.05,109.84 C849.41,109.70 849.78,109.38 850.14,109.21 C850.51,109.04 850.87,108.93 851.24,108.80 C851.60,108.67 851.97,108.55 852.33,108.42 C852.70,108.29 853.06,108.21 853.43,108.02 C853.79,107.82 854.15,107.46 854.52,107.26 C854.88,107.06 855.25,106.98 855.61,106.82 C855.98,106.67 856.34,106.48 856.71,106.35 C857.07,106.23 857.44,106.14 857.80,106.07 C858.17,106.00 858.53,105.98 858.90,105.91 C859.26,105.85 859.63,105.76 859.99,105.66 C860.36,105.56 860.72,105.44 861.09,105.32 C861.45,105.20 861.82,105.06 862.18,104.94 C862.55,104.83 862.91,104.74 863.28,104.63 C863.64,104.52 864.01,104.39 864.37,104.28 C864.73,104.18 865.10,104.13 865.46,104.00 C865.83,103.87 866.19,103.62 866.56,103.50 C866.92,103.38 867.29,103.36 867.65,103.28 C868.02,103.20 868.38,103.12 868.75,103.03 C869.11,102.94 869.48,102.86 869.84,102.75 C870.21,102.63 870.57,102.50 870.94,102.34 C871.30,102.18 871.67,101.96 872.03,101.81 C872.40,101.65 872.76,101.52 873.13,101.40 C873.49,101.28 873.86,101.20 874.22,101.09 C874.59,100.97 874.95,100.83 875.31,100.71 C875.68,100.59 876.04,100.48 876.41,100.36 C876.77,100.25 877.14,100.14 877.50,100.02 C877.87,99.89 878.23,99.73 878.60,99.61 C878.96,99.50 879.33,99.42 879.69,99.33 C880.06,99.23 880.42,99.16 880.79,99.05 C881.15,98.94 881.52,98.77 881.88,98.67 C882.25,98.57 882.61,98.51 882.98,98.42 C883.34,98.33 883.71,98.22 884.07,98.14 C884.44,98.05 884.80,98.01 885.17,97.92 C885.53,97.82 885.90,97.75 886.26,97.57 C886.62,97.40 886.99,97.04 887.35,96.88 C887.72,96.72 888.08,96.67 888.45,96.60 C888.81,96.53 889.18,96.51 889.54,96.44 C889.91,96.38 890.27,96.32 890.64,96.22 C891.00,96.12 891.37,95.95 891.73,95.85 C892.10,95.74 892.46,95.70 892.83,95.60 C893.19,95.50 893.56,95.37 893.92,95.25 C894.29,95.13 894.65,95.02 895.02,94.88 C895.38,94.73 895.75,94.54 896.11,94.41 C896.48,94.27 896.84,94.21 897.20,94.06 C897.57,93.91 897.93,93.69 898.30,93.53 C898.66,93.36 899.03,93.19 899.39,93.06 C899.76,92.92 900.12,92.87 900.49,92.71 C900.85,92.55 901.22,92.28 901.58,92.12 C901.95,91.95 902.31,91.83 902.68,91.71 C903.04,91.59 903.41,91.47 903.77,91.39 C904.14,91.32 904.50,91.33 904.87,91.24 C905.23,91.14 905.60,90.97 905.96,90.83 C906.33,90.69 906.69,90.57 907.06,90.39 C907.42,90.21 907.78,89.97 908.15,89.76 C908.51,89.56 908.88,89.33 909.24,89.17 C909.61,89.00 909.97,88.90 910.34,88.76 C910.70,88.62 911.07,88.47 911.43,88.35 C911.80,88.23 912.16,88.20 912.53,88.04 C912.89,87.88 913.26,87.57 913.62,87.41 C913.99,87.25 914.35,87.22 914.72,87.07 C915.08,86.91 915.45,86.65 915.81,86.50 C916.18,86.35 916.54,86.24 916.91,86.16 C917.27,86.07 917.64,86.05 918.00,86.00 L918.00,418.00 L84.00,418.00 Z" fill="#58a6ff" opacity="0.12" />
    <path d="M84.00,417.78 C84.36,417.69 84.73,417.60 85.09,417.50 C85.46,417.39 85.82,417.25 86.19,417.15 C86.55,417.05 86.92,416.94 87.28,416.90 C87.65,416.86 88.01,416.89 88.38,416.81 C88.74,416.72 89.11,416.30 89.47,416.15 C89.84,416.00 90.20,415.99 90.57,415.93 C90.93,415.87 91.30,415.86 91.66,415.80 C92.03,415.75 92.39,415.62 92.76,415.59 C93.12,415.55 93.49,415.58 93.85,415.46 C94.22,415.34 94.58,414.80 94.94,414.55 C95.31,414.30 95.67,414.17 96.04,413.99 C96.40,413.80 96.77,413.58 97.13,413.45 C97.50,413.32 97.86,413.29 98.23,413.20 C98.59,413.11 98.96,412.99 99.32,412.92 C99.69,412.85 100.05,412.84 100.42,412.79 C100.78,412.75 101.15,412.71 101.51,412.64 C101.88,412.57 102.24,412.45 102.61,412.39 C102.97,412.32 103.34,412.30 103.70,412.26 C104.07,412.22 104.43,412.24 104.80,412.14 C105.16,412.03 105.52,411.77 105.89,411.63 C106.25,411.49 106.62,411.40 106.98,411.29 C107.35,411.18 107.71,411.05 108.08,410.97 C108.44,410.90 108.81,410.88 109.17,410.82 C109.54,410.76 109.90,410.66 110.27,410.60 C110.63,410.54 111.00,410.51 111.36,410.47 C111.73,410.44 112.09,410.46 112.46,410.38 C112.82,410.30 113.19,410.09 113.55,410.00 C113.92,409.91 114.28,409.89 114.65,409.85 C115.01,409.80 115.38,409.76 115.74,409.72 C116.10,409.68 116.47,409.66 116.83,409.63 C117.20,409.59 117.56,409.57 117.93,409.50 C118.29,409.43 118.66,409.25 119.02,409.19 C119.39,409.12 119.75,409.16 120.12,409.09 C120.48,409.03 120.85,408.85 121.21,408.78 C121.58,408.71 121.94,408.68 122.31,408.65 C122.67,408.63 123.04,408.64 123.40,408.62 C123.77,408.60 124.13,408.54 124.50,408.53 C124.86,408.51 125.23,408.53 125.59,408.43 C125.96,408.34 126.32,407.68 126.69,407.40 C127.05,407.12 127.41,406.94 127.78,406.77 C128.14,406.60 128.51,406.42 128.87,406.36 C129.24,406.31 129.60,406.33 129.97,406.30 C130.33,406.28 130.70,406.23 131.06,406.15 C131.43,406.06 131.79,405.89 132.16,405.77 C132.52,405.64 132.89,405.50 133.25,405.39 C133.62,405.29 133.98,405.25 134.35,405.14 C134.71,405.04 135.08,404.98 135.44,404.77 C135.81,404.55 136.17,404.06 136.54,403.86 C136.90,403.65 137.27,403.55 137.63,403.51 C137.99,403.47 138.36,403.50 138.72,403.39 C139.09,403.27 139.45,402.43 139.82,402.19 C140.18,401.96 140.55,402.03 140.91,401.94 C141.28,401.86 141.64,401.74 142.01,401.66 C142.37,401.58 142.74,401.50 143.10,401.44 C143.47,401.38 143.83,401.33 144.20,401.28 C144.56,401.24 144.93,401.21 145.29,401.16 C145.66,401.11 146.02,401.03 146.39,400.97 C146.75,400.91 147.12,400.85 147.48,400.78 C147.85,400.71 148.21,400.62 148.57,400.56 C148.94,400.51 149.30,400.52 149.67,400.44 C150.03,400.36 150.40,400.25 150.76,400.09 C151.13,399.94 151.49,399.66 151.86,399.50 C152.22,399.33 152.59,399.20 152.95,399.09 C153.32,398.98 153.68,398.94 154.05,398.84 C154.41,398.74 154.78,398.58 155.14,398.49 C155.51,398.40 155.87,398.37 156.24,398.30 C156.60,398.24 156.97,398.18 157.33,398.12 C157.70,398.05 158.06,397.96 158.43,397.90 C158.79,397.83 159.15,397.76 159.52,397.71 C159.88,397.66 160.25,397.63 160.61,397.58 C160.98,397.54 161.34,397.48 161.71,397.43 C162.07,397.37 162.44,397.32 162.80,397.27 C163.17,397.22 163.53,397.18 163.90,397.11 C164.26,397.04 164.63,396.96 164.99,396.86 C165.36,396.76 165.72,396.62 166.09,396.52 C166.45,396.41 166.82,396.32 167.18,396.23 C167.55,396.15 167.91,396.21 168.28,395.98 C168.64,395.76 169.01,395.19 169.37,394.89 C169.73,394.58 170.10,394.33 170.46,394.16 C170.83,394.00 171.19,393.98 171.56,393.88 C171.92,393.79 172.29,393.68 172.65,393.60 C173.02,393.52 173.38,393.47 173.75,393.41 C174.11,393.35 174.48,393.33 174.84,393.26 C175.21,393.18 175.57,393.06 175.94,392.94 C176.30,392.82 176.67,392.63 177.03,392.53 C177.40,392.43 177.76,392.42 178.13,392.35 C178.49,392.27 178.86,392.16 179.22,392.06 C179.59,391.97 179.95,391.86 180.31,391.78 C180.68,391.70 181.04,391.65 181.41,391.56 C181.77,391.48 182.14,391.37 182.50,391.28 C182.87,391.19 183.23,391.08 183.60,391.00 C183.96,390.91 184.33,390.86 184.69,390.78 C185.06,390.70 185.42,390.62 185.79,390.53 C186.15,390.44 186.52,390.34 186.88,390.24 C187.25,390.15 187.61,389.99 187.98,389.93 C188.34,389.87 188.71,389.91 189.07,389.84 C189.44,389.77 189.80,389.64 190.17,389.46 C190.53,389.28 190.90,388.89 191.26,388.74 C191.62,388.59 191.99,388.63 192.35,388.55 C192.72,388.47 193.08,388.37 193.45,388.27 C193.81,388.16 194.18,388.09 194.54,387.92 C194.91,387.76 195.27,387.42 195.64,387.27 C196.00,387.11 196.37,387.11 196.73,387.01 C197.10,386.91 197.46,386.78 197.83,386.67 C198.19,386.56 198.56,386.43 198.92,386.36 C199.29,386.28 199.65,386.29 200.02,386.23 C200.38,386.17 200.75,386.08 201.11,385.98 C201.48,385.87 201.84,385.69 202.20,385.60 C202.57,385.51 202.93,385.51 203.30,385.45 C203.66,385.38 204.03,385.30 204.39,385.20 C204.76,385.09 205.12,384.89 205.49,384.82 C205.85,384.75 206.22,384.79 206.58,384.72 C206.95,384.66 207.31,384.49 207.68,384.41 C208.04,384.33 208.41,384.30 208.77,384.22 C209.14,384.14 209.50,384.02 209.87,383.94 C210.23,383.86 210.60,383.82 210.96,383.72 C211.33,383.63 211.69,383.47 212.06,383.38 C212.42,383.28 212.78,383.22 213.15,383.16 C213.51,383.09 213.88,383.08 214.24,383.00 C214.61,382.92 214.97,382.76 215.34,382.69 C215.70,382.61 216.07,382.61 216.43,382.53 C216.80,382.45 217.16,382.28 217.53,382.18 C217.89,382.09 218.26,382.06 218.62,381.96 C218.99,381.87 219.35,381.76 219.72,381.62 C220.08,381.48 220.45,381.27 220.81,381.15 C221.18,381.02 221.54,380.96 221.91,380.87 C222.27,380.78 222.64,380.71 223.00,380.62 C223.36,380.53 223.73,380.45 224.09,380.33 C224.46,380.21 224.82,380.01 225.19,379.89 C225.55,379.78 225.92,379.71 226.28,379.64 C226.65,379.58 227.01,379.59 227.38,379.52 C227.74,379.45 228.11,379.33 228.47,379.24 C228.84,379.14 229.20,379.07 229.57,378.95 C229.93,378.83 230.30,378.59 230.66,378.52 C231.03,378.44 231.39,378.50 231.76,378.36 C232.12,378.22 232.49,377.69 232.85,377.45 C233.22,377.20 233.58,377.10 233.94,376.88 C234.31,376.66 234.67,376.29 235.04,376.13 C235.40,375.97 235.77,376.05 236.13,375.94 C236.50,375.84 236.86,375.63 237.23,375.50 C237.59,375.37 237.96,375.27 238.32,375.16 C238.69,375.05 239.05,374.94 239.42,374.85 C239.78,374.75 240.15,374.68 240.51,374.56 C240.88,374.44 241.24,374.28 241.61,374.12 C241.97,373.97 242.34,373.77 242.70,373.62 C243.07,373.47 243.43,373.35 243.80,373.21 C244.16,373.08 244.52,372.97 244.89,372.84 C245.25,372.70 245.62,372.52 245.98,372.40 C246.35,372.28 246.71,372.22 247.08,372.12 C247.44,372.02 247.81,371.91 248.17,371.80 C248.54,371.70 248.90,371.59 249.27,371.49 C249.63,371.39 250.00,371.31 250.36,371.21 C250.73,371.10 251.09,370.99 251.46,370.86 C251.82,370.74 252.19,370.57 252.55,370.45 C252.92,370.34 253.28,370.24 253.65,370.17 C254.01,370.10 254.38,370.09 254.74,370.05 C255.10,370.00 255.47,369.95 255.83,369.89 C256.20,369.83 256.56,369.78 256.93,369.70 C257.29,369.63 257.66,369.58 258.02,369.45 C258.39,369.33 258.75,369.08 259.12,368.95 C259.48,368.82 259.85,368.81 260.21,368.70 C260.58,368.59 260.94,368.41 261.31,368.29 C261.67,368.17 262.04,368.08 262.40,367.98 C262.77,367.88 263.13,367.85 263.50,367.70 C263.86,367.54 264.23,367.24 264.59,367.07 C264.96,366.90 265.32,366.78 265.69,366.66 C266.05,366.54 266.41,366.63 266.78,366.35 C267.14,366.06 267.51,365.29 267.87,364.94 C268.24,364.58 268.60,364.40 268.97,364.21 C269.33,364.03 269.70,364.00 270.06,363.84 C270.43,363.68 270.79,363.40 271.16,363.24 C271.52,363.08 271.89,363.00 272.25,362.90 C272.62,362.80 272.98,362.71 273.35,362.65 C273.71,362.58 274.08,362.54 274.44,362.49 C274.81,362.44 275.17,362.40 275.54,362.33 C275.90,362.26 276.27,362.16 276.63,362.08 C276.99,362.00 277.36,362.03 277.72,361.83 C278.09,361.63 278.45,361.07 278.82,360.89 C279.18,360.71 279.55,360.80 279.91,360.67 C280.28,360.54 280.64,360.23 281.01,360.04 C281.37,359.86 281.74,359.74 282.10,359.57 C282.47,359.40 282.83,359.20 283.20,359.01 C283.56,358.81 283.93,358.58 284.29,358.41 C284.66,358.24 285.02,358.08 285.39,357.97 C285.75,357.87 286.12,357.87 286.48,357.78 C286.85,357.70 287.21,357.64 287.57,357.47 C287.94,357.30 288.30,357.03 288.67,356.78 C289.03,356.53 289.40,356.17 289.76,355.97 C290.13,355.76 290.49,355.68 290.86,355.53 C291.22,355.37 291.59,355.19 291.95,355.06 C292.32,354.92 292.68,354.84 293.05,354.71 C293.41,354.58 293.78,354.39 294.14,354.27 C294.51,354.16 294.87,354.12 295.24,354.02 C295.60,353.93 295.97,353.78 296.33,353.71 C296.70,353.64 297.06,353.70 297.43,353.46 C297.79,353.22 298.15,352.18 298.52,351.83 C298.88,351.48 299.25,351.52 299.61,351.36 C299.98,351.19 300.34,351.13 300.71,350.85 C301.07,350.58 301.44,350.03 301.80,349.72 C302.17,349.42 302.53,349.21 302.90,349.00 C303.26,348.80 303.63,348.69 303.99,348.50 C304.36,348.31 304.72,348.03 305.09,347.87 C305.45,347.72 305.82,347.67 306.18,347.56 C306.55,347.45 306.91,347.35 307.28,347.22 C307.64,347.08 308.01,346.91 308.37,346.75 C308.73,346.58 309.10,346.40 309.46,346.21 C309.83,346.02 310.19,345.82 310.56,345.62 C310.92,345.41 311.29,345.15 311.65,344.99 C312.02,344.83 312.38,344.77 312.75,344.68 C313.11,344.58 313.48,344.51 313.84,344.39 C314.21,344.27 314.57,344.13 314.94,343.95 C315.30,343.78 315.67,343.49 316.03,343.33 C316.40,343.16 316.76,343.14 317.13,342.95 C317.49,342.76 317.86,342.43 318.22,342.20 C318.59,341.97 318.95,341.77 319.31,341.57 C319.68,341.37 320.04,341.18 320.41,340.97 C320.77,340.77 321.14,340.50 321.50,340.32 C321.87,340.13 322.23,340.00 322.60,339.88 C322.96,339.75 323.33,339.66 323.69,339.56 C324.06,339.46 324.42,339.40 324.79,339.28 C325.15,339.17 325.52,339.02 325.88,338.87 C326.25,338.73 326.61,338.52 326.98,338.40 C327.34,338.28 327.71,338.28 328.07,338.15 C328.44,338.02 328.80,337.76 329.17,337.62 C329.53,337.48 329.90,337.40 330.26,337.31 C330.62,337.21 330.99,337.15 331.35,337.02 C331.72,336.89 332.08,336.72 332.45,336.52 C332.81,336.32 333.18,336.00 333.54,335.80 C333.91,335.60 334.27,335.48 334.64,335.33 C335.00,335.18 335.37,335.05 335.73,334.92 C336.10,334.79 336.46,334.65 336.83,334.55 C337.19,334.44 337.56,334.40 337.92,334.29 C338.29,334.18 338.65,334.00 339.02,333.89 C339.38,333.77 339.75,333.69 340.11,333.60 C340.48,333.52 340.84,333.45 341.20,333.35 C341.57,333.26 341.93,333.13 342.30,333.04 C342.66,332.95 343.03,332.87 343.39,332.79 C343.76,332.71 344.12,332.64 344.49,332.57 C344.85,332.50 345.22,332.46 345.58,332.38 C345.95,332.30 346.31,332.17 346.68,332.07 C347.04,331.97 347.41,331.88 347.77,331.79 C348.14,331.69 348.50,331.59 348.87,331.47 C349.23,331.36 349.60,331.19 349.96,331.10 C350.33,331.00 350.69,330.96 351.06,330.88 C351.42,330.79 351.78,330.67 352.15,330.59 C352.51,330.52 352.88,330.51 353.24,330.44 C353.61,330.36 353.97,330.25 354.34,330.15 C354.70,330.06 355.07,329.96 355.43,329.87 C355.80,329.79 356.16,329.75 356.53,329.65 C356.89,329.56 357.26,329.40 357.62,329.31 C357.99,329.21 358.35,329.19 358.72,329.09 C359.08,328.99 359.45,328.85 359.81,328.71 C360.18,328.58 360.54,328.38 360.91,328.27 C361.27,328.16 361.64,328.16 362.00,328.05 C362.36,327.94 362.73,327.74 363.09,327.61 C363.46,327.48 363.82,327.40 364.19,327.27 C364.55,327.14 364.92,326.99 365.28,326.83 C365.65,326.67 366.01,326.46 366.38,326.33 C366.74,326.20 367.11,326.15 367.47,326.05 C367.84,325.95 368.20,325.84 368.57,325.73 C368.93,325.62 369.30,325.55 369.66,325.39 C370.03,325.23 370.39,324.93 370.76,324.76 C371.12,324.59 371.49,324.46 371.85,324.35 C372.22,324.25 372.58,324.21 372.94,324.13 C373.31,324.05 373.67,324.00 374.04,323.88 C374.40,323.77 374.77,323.52 375.13,323.44 C375.50,323.37 375.86,323.40 376.23,323.35 C376.59,323.29 376.96,323.13 377.32,323.07 C377.69,323.00 378.05,322.99 378.42,322.94 C378.78,322.89 379.15,322.86 379.51,322.78 C379.88,322.71 380.24,322.54 380.61,322.47 C380.97,322.40 381.34,322.41 381.70,322.35 C382.07,322.28 382.43,322.14 382.80,322.06 C383.16,321.99 383.52,321.98 383.89,321.91 C384.25,321.83 384.62,321.67 384.98,321.59 C385.35,321.51 385.71,321.50 386.08,321.44 C386.44,321.37 386.81,321.27 387.17,321.18 C387.54,321.10 387.90,321.03 388.27,320.93 C388.63,320.84 389.00,320.69 389.36,320.62 C389.73,320.55 390.09,320.58 390.46,320.53 C390.82,320.47 391.19,320.35 391.55,320.28 C391.92,320.20 392.28,320.13 392.65,320.06 C393.01,319.98 393.38,319.88 393.74,319.81 C394.10,319.73 394.47,319.68 394.83,319.59 C395.20,319.49 395.56,319.37 395.93,319.21 C396.29,319.05 396.66,318.78 397.02,318.64 C397.39,318.51 397.75,318.47 398.12,318.39 C398.48,318.32 398.85,318.29 399.21,318.21 C399.58,318.12 399.94,317.98 400.31,317.89 C400.67,317.81 401.04,317.75 401.40,317.70 C401.77,317.66 402.13,317.66 402.50,317.61 C402.86,317.56 403.23,317.58 403.59,317.39 C403.96,317.20 404.32,316.70 404.69,316.48 C405.05,316.26 405.41,316.19 405.78,316.07 C406.14,315.95 406.51,315.86 406.87,315.76 C407.24,315.66 407.60,315.59 407.97,315.48 C408.33,315.36 408.70,315.21 409.06,315.07 C409.43,314.93 409.79,314.80 410.16,314.66 C410.52,314.52 410.89,314.34 411.25,314.22 C411.62,314.10 411.98,314.06 412.35,313.94 C412.71,313.82 413.08,313.61 413.44,313.50 C413.81,313.39 414.17,313.37 414.54,313.28 C414.90,313.19 415.27,313.08 415.63,312.97 C415.99,312.86 416.36,312.72 416.72,312.62 C417.09,312.53 417.45,312.48 417.82,312.40 C418.18,312.33 418.55,312.23 418.91,312.15 C419.28,312.08 419.64,312.01 420.01,311.96 C420.37,311.92 420.74,311.94 421.10,311.90 C421.47,311.86 421.83,311.77 422.20,311.71 C422.56,311.66 422.93,311.65 423.29,311.59 C423.66,311.53 424.02,311.42 424.39,311.34 C424.75,311.25 425.12,311.18 425.48,311.09 C425.85,310.99 426.21,310.85 426.57,310.77 C426.94,310.70 427.30,310.70 427.67,310.65 C428.03,310.59 428.40,310.49 428.76,310.43 C429.13,310.37 429.49,310.35 429.86,310.27 C430.22,310.19 430.59,310.05 430.95,309.96 C431.32,309.87 431.68,309.80 432.05,309.74 C432.41,309.68 432.78,309.64 433.14,309.58 C433.51,309.52 433.87,309.44 434.24,309.36 C434.60,309.28 434.97,309.17 435.33,309.11 C435.70,309.05 436.06,309.03 436.43,308.99 C436.79,308.94 437.15,308.93 437.52,308.86 C437.88,308.79 438.25,308.66 438.61,308.58 C438.98,308.50 439.34,308.46 439.71,308.39 C440.07,308.32 440.44,308.20 440.80,308.14 C441.17,308.08 441.53,308.04 441.90,308.01 C442.26,307.98 442.63,307.99 442.99,307.95 C443.36,307.91 443.72,307.87 444.09,307.79 C444.45,307.72 444.82,307.58 445.18,307.51 C445.55,307.44 445.91,307.45 446.28,307.35 C446.64,307.25 447.01,306.94 447.37,306.92 C447.73,306.89 448.10,306.90 448.46,306.88 C448.83,306.87 449.19,306.70 449.56,306.63 C449.92,306.57 450.29,306.55 450.65,306.51 C451.02,306.47 451.38,306.43 451.75,306.38 C452.11,306.33 452.48,306.25 452.84,306.23 C453.21,306.20 453.57,306.22 453.94,306.19 C454.30,306.17 454.67,306.07 455.03,306.01 C455.40,305.94 455.76,305.84 456.13,305.79 C456.49,305.73 456.86,305.69 457.22,305.66 C457.59,305.63 457.95,305.64 458.31,305.60 C458.68,305.56 459.04,305.46 459.41,305.41 C459.77,305.36 460.14,305.34 460.50,305.28 C460.87,305.23 461.23,305.17 461.60,305.10 C461.96,305.02 462.33,304.90 462.69,304.85 C463.06,304.79 463.42,304.78 463.79,304.75 C464.15,304.73 464.52,304.74 464.88,304.69 C465.25,304.64 465.61,304.50 465.98,304.44 C466.34,304.37 466.71,304.37 467.07,304.31 C467.44,304.25 467.80,304.14 468.17,304.06 C468.53,303.98 468.90,303.89 469.26,303.81 C469.62,303.73 469.99,303.63 470.35,303.56 C470.72,303.49 471.08,303.47 471.45,303.40 C471.81,303.33 472.18,303.25 472.54,303.15 C472.91,303.06 473.27,302.91 473.64,302.84 C474.00,302.76 474.37,302.74 474.73,302.71 C475.10,302.68 475.46,302.71 475.83,302.52 C476.19,302.34 476.56,301.25 476.92,300.77 C477.29,300.28 477.65,299.87 478.02,299.61 C478.38,299.35 478.75,299.33 479.11,299.20 C479.48,299.07 479.84,298.94 480.20,298.82 C480.57,298.70 480.93,298.59 481.30,298.48 C481.66,298.37 482.03,298.33 482.39,298.17 C482.76,298.00 483.12,297.71 483.49,297.51 C483.85,297.31 484.22,297.12 484.58,296.97 C484.95,296.82 485.31,296.73 485.68,296.60 C486.04,296.46 486.41,296.29 486.77,296.16 C487.14,296.02 487.50,295.90 487.87,295.78 C488.23,295.66 488.60,295.54 488.96,295.44 C489.33,295.34 489.69,295.29 490.06,295.19 C490.42,295.09 490.78,294.96 491.15,294.84 C491.51,294.73 491.88,294.63 492.24,294.50 C492.61,294.36 492.97,294.15 493.34,294.03 C493.70,293.91 494.07,293.86 494.43,293.77 C494.80,293.69 495.16,293.59 495.53,293.49 C495.89,293.40 496.26,293.34 496.62,293.21 C496.99,293.08 497.35,292.85 497.72,292.74 C498.08,292.62 498.45,292.63 498.81,292.52 C499.18,292.41 499.54,292.21 499.91,292.08 C500.27,291.95 500.64,291.87 501.00,291.74 C501.36,291.60 501.73,291.41 502.09,291.27 C502.46,291.12 502.82,290.97 503.19,290.89 C503.55,290.81 503.92,290.88 504.28,290.64 C504.65,290.40 505.01,289.39 505.38,289.01 C505.74,288.62 506.11,288.51 506.47,288.32 C506.84,288.13 507.20,288.05 507.57,287.88 C507.93,287.71 508.30,287.49 508.66,287.28 C509.03,287.07 509.39,286.84 509.76,286.62 C510.12,286.41 510.49,286.08 510.85,286.00 C511.22,285.92 511.58,285.95 511.94,285.90 C512.31,285.85 512.67,285.64 513.04,285.53 C513.40,285.41 513.77,285.32 514.13,285.21 C514.50,285.10 514.86,284.97 515.23,284.87 C515.59,284.77 515.96,284.72 516.32,284.62 C516.69,284.51 517.05,284.37 517.42,284.24 C517.78,284.11 518.15,284.00 518.51,283.86 C518.88,283.73 519.24,283.57 519.61,283.42 C519.97,283.28 520.34,283.14 520.70,282.99 C521.07,282.83 521.43,282.64 521.80,282.52 C522.16,282.39 522.52,282.36 522.89,282.23 C523.25,282.10 523.62,281.90 523.98,281.73 C524.35,281.56 524.71,281.42 525.08,281.23 C525.44,281.04 525.81,280.76 526.17,280.57 C526.54,280.38 526.90,280.26 527.27,280.10 C527.63,279.94 528.00,279.72 528.36,279.60 C528.73,279.48 529.09,279.47 529.46,279.38 C529.82,279.29 530.19,279.22 530.55,279.07 C530.92,278.91 531.28,278.66 531.65,278.47 C532.01,278.28 532.38,278.06 532.74,277.94 C533.10,277.82 533.47,277.84 533.83,277.75 C534.20,277.65 534.56,277.48 534.93,277.37 C535.29,277.26 535.66,277.29 536.02,277.09 C536.39,276.89 536.75,276.41 537.12,276.15 C537.48,275.89 537.85,275.90 538.21,275.55 C538.58,275.20 538.94,274.50 539.31,274.05 C539.67,273.60 540.04,273.15 540.40,272.86 C540.77,272.56 541.13,272.50 541.50,272.29 C541.86,272.09 542.23,271.83 542.59,271.63 C542.96,271.43 543.32,271.25 543.69,271.10 C544.05,270.95 544.41,270.84 544.78,270.72 C545.14,270.60 545.51,270.50 545.87,270.38 C546.24,270.26 546.60,270.16 546.97,270.00 C547.33,269.85 547.70,269.60 548.06,269.44 C548.43,269.28 548.79,269.18 549.16,269.03 C549.52,268.88 549.89,268.56 550.25,268.53 C550.62,268.50 550.98,268.51 551.35,268.50 C551.71,268.48 552.08,268.42 552.44,268.31 C552.81,268.19 553.17,267.94 553.54,267.81 C553.90,267.68 554.27,267.64 554.63,267.52 C554.99,267.41 555.36,267.23 555.72,267.12 C556.09,267.00 556.45,266.93 556.82,266.83 C557.18,266.73 557.55,266.66 557.91,266.52 C558.28,266.38 558.64,266.14 559.01,265.99 C559.37,265.83 559.74,265.69 560.10,265.58 C560.47,265.47 560.83,265.42 561.20,265.33 C561.56,265.24 561.93,265.19 562.29,265.05 C562.66,264.91 563.02,264.62 563.39,264.48 C563.75,264.35 564.12,264.32 564.48,264.23 C564.85,264.14 565.21,264.04 565.57,263.95 C565.94,263.85 566.30,263.74 566.67,263.67 C567.03,263.59 567.40,263.61 567.76,263.51 C568.13,263.41 568.49,263.20 568.86,263.07 C569.22,262.94 569.59,262.84 569.95,262.73 C570.32,262.61 570.68,262.49 571.05,262.38 C571.41,262.27 571.78,262.19 572.14,262.07 C572.51,261.94 572.87,261.76 573.24,261.63 C573.60,261.50 573.97,261.43 574.33,261.28 C574.70,261.14 575.06,260.92 575.43,260.75 C575.79,260.58 576.15,260.41 576.52,260.28 C576.88,260.15 577.25,260.11 577.61,260.00 C577.98,259.88 578.34,259.72 578.71,259.59 C579.07,259.46 579.44,259.35 579.80,259.21 C580.17,259.08 580.53,258.87 580.90,258.77 C581.26,258.68 581.63,258.73 581.99,258.65 C582.36,258.57 582.72,258.39 583.09,258.27 C583.45,258.15 583.82,258.06 584.18,257.93 C584.55,257.80 584.91,257.61 585.28,257.49 C585.64,257.36 586.01,257.28 586.37,257.17 C586.73,257.07 587.10,256.96 587.46,256.86 C587.83,256.77 588.19,256.67 588.56,256.61 C588.92,256.55 589.29,256.56 589.65,256.48 C590.02,256.41 590.38,256.25 590.75,256.17 C591.11,256.09 591.48,256.10 591.84,256.01 C592.21,255.93 592.57,255.78 592.94,255.67 C593.30,255.55 593.67,255.50 594.03,255.32 C594.40,255.15 594.76,255.00 595.13,254.60 C595.49,254.21 595.86,253.40 596.22,252.97 C596.59,252.54 596.95,252.26 597.31,252.03 C597.68,251.80 598.04,251.75 598.41,251.59 C598.77,251.44 599.14,251.25 599.50,251.09 C599.87,250.93 600.23,250.79 600.60,250.65 C600.96,250.52 601.33,250.37 601.69,250.28 C602.06,250.18 602.42,250.14 602.79,250.06 C603.15,249.97 603.52,249.84 603.88,249.74 C604.25,249.64 604.61,249.59 604.98,249.46 C605.34,249.33 605.71,249.14 606.07,248.99 C606.44,248.84 606.80,248.76 607.17,248.55 C607.53,248.34 607.90,247.97 608.26,247.73 C608.62,247.50 608.99,247.29 609.35,247.14 C609.72,246.99 610.08,246.90 610.45,246.83 C610.81,246.75 611.18,246.75 611.54,246.67 C611.91,246.59 612.27,246.49 612.64,246.35 C613.00,246.22 613.37,245.99 613.73,245.85 C614.10,245.71 614.46,245.65 614.83,245.51 C615.19,245.36 615.56,245.12 615.92,244.97 C616.29,244.83 616.65,244.75 617.02,244.63 C617.38,244.51 617.75,244.39 618.11,244.25 C618.48,244.12 618.84,243.94 619.20,243.81 C619.57,243.69 619.93,243.79 620.30,243.44 C620.66,243.08 621.03,242.00 621.39,241.59 C621.76,241.18 622.12,241.26 622.49,240.99 C622.85,240.73 623.22,240.28 623.58,239.99 C623.95,239.70 624.31,239.48 624.68,239.27 C625.04,239.05 625.41,238.87 625.77,238.70 C626.14,238.54 626.50,238.41 626.87,238.26 C627.23,238.12 627.60,237.97 627.96,237.82 C628.33,237.68 628.69,237.49 629.06,237.39 C629.42,237.28 629.78,237.29 630.15,237.17 C630.51,237.04 630.88,236.79 631.24,236.63 C631.61,236.48 631.97,236.37 632.34,236.22 C632.70,236.08 633.07,235.93 633.43,235.79 C633.80,235.64 634.16,235.53 634.53,235.35 C634.89,235.16 635.26,234.86 635.62,234.66 C635.99,234.46 636.35,234.36 636.72,234.15 C637.08,233.95 637.45,233.68 637.81,233.43 C638.18,233.18 638.54,232.85 638.91,232.65 C639.27,232.45 639.64,232.39 640.00,232.24 C640.36,232.10 640.73,231.91 641.09,231.77 C641.46,231.63 641.82,231.55 642.19,231.40 C642.55,231.24 642.92,231.06 643.28,230.83 C643.65,230.60 644.01,230.26 644.38,230.02 C644.74,229.77 645.11,229.60 645.47,229.39 C645.84,229.18 646.20,228.97 646.57,228.76 C646.93,228.55 647.30,228.25 647.66,228.13 C648.03,228.02 648.39,228.08 648.76,227.98 C649.12,227.87 649.49,227.59 649.85,227.44 C650.22,227.29 650.58,227.24 650.94,227.07 C651.31,226.89 651.67,226.59 652.04,226.41 C652.40,226.23 652.77,226.16 653.13,226.00 C653.50,225.84 653.86,225.61 654.23,225.47 C654.59,225.32 654.96,225.32 655.32,225.12 C655.69,224.92 656.05,224.54 656.42,224.28 C656.78,224.01 657.15,223.74 657.51,223.52 C657.88,223.30 658.24,223.17 658.61,222.96 C658.97,222.74 659.34,222.44 659.70,222.24 C660.07,222.04 660.43,221.90 660.80,221.77 C661.16,221.64 661.52,221.57 661.89,221.45 C662.25,221.33 662.62,221.20 662.98,221.05 C663.35,220.89 663.71,220.72 664.08,220.54 C664.44,220.37 664.81,220.20 665.17,219.98 C665.54,219.76 665.90,219.43 666.27,219.23 C666.63,219.02 667.00,218.95 667.36,218.76 C667.73,218.56 668.09,218.26 668.46,218.03 C668.82,217.81 669.19,217.65 669.55,217.41 C669.92,217.17 670.28,216.89 670.65,216.59 C671.01,216.29 671.38,215.90 671.74,215.62 C672.10,215.34 672.47,215.14 672.83,214.93 C673.20,214.72 673.56,214.56 673.93,214.33 C674.29,214.11 674.66,213.80 675.02,213.58 C675.39,213.37 675.75,213.24 676.12,213.05 C676.48,212.86 676.85,212.64 677.21,212.45 C677.58,212.26 677.94,212.09 678.31,211.92 C678.67,211.75 679.04,211.62 679.40,211.45 C679.77,211.28 680.13,211.16 680.50,210.92 C680.86,210.67 681.23,210.24 681.59,209.97 C681.96,209.71 682.32,209.52 682.69,209.35 C683.05,209.17 683.41,209.08 683.78,208.94 C684.14,208.80 684.51,208.67 684.87,208.50 C685.24,208.33 685.60,208.09 685.97,207.94 C686.33,207.78 686.70,207.68 687.06,207.59 C687.43,207.50 687.79,207.50 688.16,207.40 C688.52,207.30 688.89,207.16 689.25,207.00 C689.62,206.83 689.98,206.59 690.35,206.43 C690.71,206.27 691.08,206.26 691.44,206.05 C691.81,205.85 692.17,205.40 692.54,205.18 C692.90,204.96 693.27,204.94 693.63,204.74 C693.99,204.54 694.36,204.30 694.72,203.98 C695.09,203.67 695.45,203.24 695.82,202.86 C696.18,202.47 696.55,202.03 696.91,201.66 C697.28,201.30 697.64,200.95 698.01,200.66 C698.37,200.37 698.74,200.19 699.10,199.94 C699.47,199.69 699.83,199.40 700.20,199.15 C700.56,198.91 700.93,198.70 701.29,198.50 C701.66,198.29 702.02,198.12 702.39,197.93 C702.75,197.74 703.12,197.57 703.48,197.37 C703.85,197.16 704.21,196.90 704.57,196.71 C704.94,196.52 705.30,196.35 705.67,196.21 C706.03,196.06 706.40,195.96 706.76,195.83 C707.13,195.70 707.49,195.67 707.86,195.45 C708.22,195.24 708.59,194.85 708.95,194.54 C709.32,194.24 709.68,193.83 710.05,193.60 C710.41,193.38 710.78,193.32 711.14,193.20 C711.51,193.07 711.87,192.98 712.24,192.85 C712.60,192.73 712.97,192.67 713.33,192.44 C713.70,192.22 714.06,191.90 714.43,191.50 C714.79,191.10 715.15,190.37 715.52,190.03 C715.88,189.68 716.25,189.66 716.61,189.43 C716.98,189.21 717.34,188.86 717.71,188.68 C718.07,188.50 718.44,188.45 718.80,188.33 C719.17,188.22 719.53,188.11 719.90,187.99 C720.26,187.87 720.63,187.72 720.99,187.61 C721.36,187.50 721.72,187.45 722.09,187.33 C722.45,187.22 722.82,187.08 723.18,186.92 C723.55,186.77 723.91,186.57 724.28,186.39 C724.64,186.21 725.01,186.00 725.37,185.83 C725.73,185.65 726.10,185.46 726.46,185.32 C726.83,185.19 727.19,185.20 727.56,185.01 C727.92,184.82 728.29,184.39 728.65,184.16 C729.02,183.93 729.38,183.82 729.75,183.63 C730.11,183.44 730.48,183.21 730.84,183.03 C731.21,182.86 731.57,182.75 731.94,182.60 C732.30,182.44 732.67,182.31 733.03,182.13 C733.40,181.94 733.76,181.69 734.13,181.50 C734.49,181.31 734.86,181.18 735.22,181.00 C735.59,180.81 735.95,180.58 736.31,180.37 C736.68,180.15 737.04,179.88 737.41,179.71 C737.77,179.54 738.14,179.51 738.50,179.37 C738.87,179.22 739.23,179.02 739.60,178.83 C739.96,178.64 740.33,178.42 740.69,178.24 C741.06,178.05 741.42,177.88 741.79,177.73 C742.15,177.59 742.52,177.54 742.88,177.36 C743.25,177.18 743.61,176.84 743.98,176.67 C744.34,176.50 744.71,176.51 745.07,176.35 C745.44,176.20 745.80,175.97 746.17,175.73 C746.53,175.49 746.90,175.16 747.26,174.91 C747.62,174.67 747.99,174.48 748.35,174.25 C748.72,174.03 749.08,173.81 749.45,173.56 C749.81,173.31 750.18,172.96 750.54,172.75 C750.91,172.53 751.27,172.40 751.64,172.28 C752.00,172.16 752.37,172.17 752.73,172.03 C753.10,171.88 753.46,171.56 753.83,171.40 C754.19,171.24 754.56,171.16 754.92,171.05 C755.29,170.94 755.65,170.88 756.02,170.74 C756.38,170.60 756.75,170.56 757.11,170.24 C757.48,169.91 757.84,169.29 758.20,168.80 C758.57,168.30 758.93,167.80 759.30,167.29 C759.66,166.78 760.03,166.28 760.39,165.72 C760.76,165.16 761.12,164.62 761.49,163.94 C761.85,163.25 762.22,162.26 762.58,161.61 C762.95,160.97 763.31,160.59 763.68,160.05 C764.04,159.50 764.41,158.86 764.77,158.32 C765.14,157.78 765.50,157.21 765.87,156.82 C766.23,156.42 766.60,156.28 766.96,155.94 C767.33,155.59 767.69,155.10 768.06,154.75 C768.42,154.40 768.78,154.10 769.15,153.84 C769.51,153.58 769.88,153.44 770.24,153.18 C770.61,152.91 770.97,152.53 771.34,152.24 C771.70,151.94 772.07,151.64 772.43,151.39 C772.80,151.14 773.16,151.00 773.53,150.73 C773.89,150.46 774.26,150.08 774.62,149.79 C774.99,149.50 775.35,149.29 775.72,148.98 C776.08,148.66 776.45,148.24 776.81,147.88 C777.18,147.51 777.54,147.11 777.91,146.78 C778.27,146.45 778.64,146.13 779.00,145.87 C779.36,145.61 779.73,145.43 780.09,145.21 C780.46,144.99 780.82,144.81 781.19,144.55 C781.55,144.29 781.92,143.95 782.28,143.64 C782.65,143.34 783.01,142.99 783.38,142.73 C783.74,142.48 784.11,142.36 784.47,142.11 C784.84,141.85 785.20,141.45 785.57,141.20 C785.93,140.95 786.30,140.79 786.66,140.60 C787.03,140.41 787.39,140.21 787.76,140.07 C788.12,139.93 788.49,139.87 788.85,139.75 C789.22,139.63 789.58,139.50 789.94,139.35 C790.31,139.20 790.67,139.03 791.04,138.85 C791.40,138.66 791.77,138.45 792.13,138.25 C792.50,138.05 792.86,137.85 793.23,137.62 C793.59,137.39 793.96,137.13 794.32,136.87 C794.69,136.61 795.05,136.28 795.42,136.05 C795.78,135.82 796.15,135.68 796.51,135.49 C796.88,135.30 797.24,135.14 797.61,134.92 C797.97,134.71 798.34,134.46 798.70,134.20 C799.07,133.95 799.43,133.62 799.80,133.39 C800.16,133.15 800.52,132.99 800.89,132.79 C801.25,132.60 801.62,132.40 801.98,132.23 C802.35,132.06 802.71,132.03 803.08,131.76 C803.44,131.49 803.81,130.88 804.17,130.60 C804.54,130.31 804.90,130.24 805.27,130.03 C805.63,129.83 806.00,129.59 806.36,129.37 C806.73,129.15 807.09,128.94 807.46,128.72 C807.82,128.49 808.19,128.26 808.55,128.03 C808.92,127.79 809.28,127.58 809.65,127.30 C810.01,127.03 810.38,126.67 810.74,126.39 C811.10,126.12 811.47,125.87 811.83,125.64 C812.20,125.41 812.56,125.19 812.93,125.01 C813.29,124.84 813.66,124.76 814.02,124.61 C814.39,124.46 814.75,124.28 815.12,124.11 C815.48,123.93 815.85,123.73 816.21,123.54 C816.58,123.35 816.94,123.17 817.31,122.98 C817.67,122.78 818.04,122.51 818.40,122.35 C818.77,122.19 819.13,122.12 819.50,122.00 C819.86,121.88 820.23,121.76 820.59,121.63 C820.96,121.49 821.32,121.37 821.69,121.19 C822.05,121.01 822.41,120.74 822.78,120.56 C823.14,120.38 823.51,120.32 823.87,120.12 C824.24,119.92 824.60,119.58 824.97,119.37 C825.33,119.16 825.70,119.05 826.06,118.87 C826.43,118.69 826.79,118.45 827.16,118.30 C827.52,118.15 827.89,118.08 828.25,117.96 C828.62,117.83 828.98,117.67 829.35,117.55 C829.71,117.44 830.08,117.41 830.44,117.27 C830.81,117.12 831.17,116.82 831.54,116.67 C831.90,116.53 832.27,116.52 832.63,116.39 C832.99,116.26 833.36,116.08 833.72,115.92 C834.09,115.76 834.45,115.58 834.82,115.45 C835.18,115.31 835.55,115.24 835.91,115.10 C836.28,114.97 836.64,114.76 837.01,114.63 C837.37,114.50 837.74,114.46 838.10,114.32 C838.47,114.18 838.83,113.94 839.20,113.79 C839.56,113.63 839.93,113.52 840.29,113.38 C840.66,113.24 841.02,113.11 841.39,112.97 C841.75,112.83 842.12,112.69 842.48,112.53 C842.85,112.38 843.21,112.22 843.57,112.03 C843.94,111.84 844.30,111.55 844.67,111.37 C845.03,111.19 845.40,111.12 845.76,110.96 C846.13,110.81 846.49,110.59 846.86,110.43 C847.22,110.27 847.59,110.12 847.95,110.02 C848.32,109.92 848.68,109.97 849.05,109.84 C849.41,109.70 849.78,109.38 850.14,109.21 C850.51,109.04 850.87,108.93 851.24,108.80 C851.60,108.67 851.97,108.55 852.33,108.42 C852.70,108.29 853.06,108.21 853.43,108.02 C853.79,107.82 854.15,107.46 854.52,107.26 C854.88,107.06 855.25,106.98 855.61,106.82 C855.98,106.67 856.34,106.48 856.71,106.35 C857.07,106.23 857.44,106.14 857.80,106.07 C858.17,106.00 858.53,105.98 858.90,105.91 C859.26,105.85 859.63,105.76 859.99,105.66 C860.36,105.56 860.72,105.44 861.09,105.32 C861.45,105.20 861.82,105.06 862.18,104.94 C862.55,104.83 862.91,104.74 863.28,104.63 C863.64,104.52 864.01,104.39 864.37,104.28 C864.73,104.18 865.10,104.13 865.46,104.00 C865.83,103.87 866.19,103.62 866.56,103.50 C866.92,103.38 867.29,103.36 867.65,103.28 C868.02,103.20 868.38,103.12 868.75,103.03 C869.11,102.94 869.48,102.86 869.84,102.75 C870.21,102.63 870.57,102.50 870.94,102.34 C871.30,102.18 871.67,101.96 872.03,101.81 C872.40,101.65 872.76,101.52 873.13,101.40 C873.49,101.28 873.86,101.20 874.22,101.09 C874.59,100.97 874.95,100.83 875.31,100.71 C875.68,100.59 876.04,100.48 876.41,100.36 C876.77,100.25 877.14,100.14 877.50,100.02 C877.87,99.89 878.23,99.73 878.60,99.61 C878.96,99.50 879.33,99.42 879.69,99.33 C880.06,99.23 880.42,99.16 880.79,99.05 C881.15,98.94 881.52,98.77 881.88,98.67 C882.25,98.57 882.61,98.51 882.98,98.42 C883.34,98.33 883.71,98.22 884.07,98.14 C884.44,98.05 884.80,98.01 885.17,97.92 C885.53,97.82 885.90,97.75 886.26,97.57 C886.62,97.40 886.99,97.04 887.35,96.88 C887.72,96.72 888.08,96.67 888.45,96.60 C888.81,96.53 889.18,96.51 889.54,96.44 C889.91,96.38 890.27,96.32 890.64,96.22 C891.00,96.12 891.37,95.95 891.73,95.85 C892.10,95.74 892.46,95.70 892.83,95.60 C893.19,95.50 893.56,95.37 893.92,95.25 C894.29,95.13 894.65,95.02 895.02,94.88 C895.38,94.73 895.75,94.54 896.11,94.41 C896.48,94.27 896.84,94.21 897.20,94.06 C897.57,93.91 897.93,93.69 898.30,93.53 C898.66,93.36 899.03,93.19 899.39,93.06 C899.76,92.92 900.12,92.87 900.49,92.71 C900.85,92.55 901.22,92.28 901.58,92.12 C901.95,91.95 902.31,91.83 902.68,91.71 C903.04,91.59 903.41,91.47 903.77,91.39 C904.14,91.32 904.50,91.33 904.87,91.24 C905.23,91.14 905.60,90.97 905.96,90.83 C906.33,90.69 906.69,90.57 907.06,90.39 C907.42,90.21 907.78,89.97 908.15,89.76 C908.51,89.56 908.88,89.33 909.24,89.17 C909.61,89.00 909.97,88.90 910.34,88.76 C910.70,88.62 911.07,88.47 911.43,88.35 C911.80,88.23 912.16,88.20 912.53,88.04 C912.89,87.88 913.26,87.57 913.62,87.41 C913.99,87.25 914.35,87.22 914.72,87.07 C915.08,86.91 915.45,86.65 915.81,86.50 C916.18,86.35 916.54,86.24 916.91,86.16 C917.27,86.07 917.64,86.05 918.00,86.00" fill="none" stroke="#58a6ff" stroke-width="3" stroke-linecap="round" stroke-linejoin="round" />
    <circle cx="918.00" cy="86.00" r="5" fill="#58a6ff" stroke="#0d1117" stroke-width="2" />
    <text x="918" y="466" text-anchor="end" fill="#8b949e" font-size="11">Updated Sep 3, 2026</text>
  </g>
</svg>
